/* XPM */
static char *save_xpm[] = {
/* columns rows colors chars-per-pixel */
"32 32 160 2 ",
"   c #003E6A",
".  c #FFB61C",
"X  c #FFB124",
"o  c #FFB32A",
"O  c #FFB635",
"+  c #F8BB32",
"@  c #FFB838",
"#  c #FFC02A",
"$  c #FFD735",
"%  c #FCD13D",
"&  c #FFBC43",
"*  c #FFEC4C",
"=  c #FEE452",
"-  c #FFEE6D",
";  c #FFF668",
":  c #002B87",
">  c #002D89",
",  c #003C87",
"<  c #01348C",
"1  c #08378C",
"2  c #04398F",
"3  c #083A8F",
"4  c #023791",
"5  c #023B94",
"6  c #0A3E92",
"7  c #013E98",
"8  c #14488B",
"9  c #014294",
"0  c #0C4296",
"q  c #064B95",
"w  c #01439C",
"e  c #0B459C",
"r  c #024A9F",
"t  c #134595",
"y  c #144798",
"u  c #164B9B",
"i  c #18519F",
"p  c #1A6695",
"a  c #0245A1",
"s  c #014BA4",
"d  c #0A4DA3",
"f  c #014CAA",
"g  c #154EA1",
"h  c #0152AD",
"j  c #0953AD",
"k  c #1552A5",
"l  c #1855A5",
"z  c #1658A4",
"x  c #1A5AA7",
"c  c #1556AA",
"v  c #1559AC",
"b  c #195BAC",
"n  c #0254B3",
"m  c #0A57B0",
"M  c #045AB3",
"N  c #0D5DB5",
"B  c #0156BA",
"V  c #015ABB",
"C  c #0C5EB9",
"Z  c #155DB2",
"A  c #185FB1",
"S  c #1E62AC",
"D  c #0B61B7",
"F  c #0362BF",
"G  c #0B61BC",
"H  c #0F69BD",
"J  c #1662B5",
"K  c #1962B4",
"L  c #176BB6",
"P  c #1A68B4",
"I  c #1564B9",
"U  c #1966BA",
"Y  c #176BBD",
"T  c #1A6CBB",
"R  c #1A72BE",
"E  c #2065AF",
"W  c #206AB5",
"Q  c #2170BC",
"!  c #065EC1",
"~  c #0462C2",
"^  c #0C63C3",
"/  c #0A6CC8",
"(  c #156CC3",
")  c #1A6CC4",
"_  c #1D74C2",
"`  c #1A79C7",
"'  c #1472CB",
"]  c #1E7ECD",
"[  c #0B77D5",
"{  c #157CD6",
"}  c #2075C2",
"|  c #227AC6",
" . c #2A74C8",
".. c #227DCE",
"X. c #317ACC",
"o. c #3B7FCE",
"O. c #017EE6",
"+. c #6E82A3",
"@. c #6683A9",
"#. c #6487B3",
"$. c #6C8EB7",
"%. c #7093BD",
"&. c #1E82D3",
"*. c #1581DB",
"=. c #0180E7",
"-. c #0B81E1",
";. c #1589E4",
":. c #2794E9",
">. c #2C99EC",
",. c #7497C0",
"<. c #7C96C7",
"1. c #799CC6",
"2. c #7C9FCA",
"3. c #A6AEBC",
"4. c #A8AFBC",
"5. c #B1B3B6",
"6. c #BEB9B5",
"7. c #B3B4B9",
"8. c #B7B9BF",
"9. c #BEBEBE",
"0. c #C2BCB5",
"q. c #FFFB8E",
"w. c #FFF390",
"e. c #C6C3BE",
"r. c #FFF9B9",
"t. c #B5BECE",
"y. c #BEC0C6",
"u. c #B7C0CF",
"i. c #C5C5C5",
"p. c #CDCAC7",
"a. c #CDCDCF",
"s. c #D0CBC5",
"d. c #D0D0CF",
"f. c #DAD5CF",
"g. c #CBCAD7",
"h. c #CBCEDB",
"j. c #CFD1D7",
"k. c #CBD0DF",
"l. c #D6D4D0",
"z. c #D7D9DE",
"x. c #D8D8D8",
"c. c #E2DEDA",
"v. c #FFFBDD",
"b. c #CCD2E4",
"n. c #D4D8E0",
"m. c #DDDFE5",
"M. c #D0D8E9",
"N. c #E1E1E1",
"B. c #E9E7E3",
"V. c #EDE8E2",
"C. c #E1E3E9",
"Z. c #ECECEC",
"A. c #F3EFEB",
"S. c LightYellow",
"D. c #F1F0EF",
"F. c #F5F5F4",
"G. c #FAF6F2",
"H. c #F9F8F7",
"J. c #FFFFFE",
"K. c None",
/* pixels */
"K.K.K.K.} _ U U G C.H.F.F.F.F.F.F.F.H.H.H.H.H.F.C.H ....K.K.K.K.",
"K.K.T Z J I J b N m.F.D.F.F.F.D.D.F.t.u.u.t.n.H.C.N ( ( Y | K.K.",
"K.W v 8 Z J K Z N m.D.D.D.D.D.D.D.G.h N N n 2.F.m.D ( Y I I } K.",
"K.c v i z Z K Z N z.Z.Z.Z.C.Z.B.Z.A.n I J N 2.D.z.N Y Y I J J K.",
"K.c c v v b J Z N j.N.N.N.N.N.N.N.V.j I J N 1.B.j.N Y I Z Z Z K.",
"K.c k z c v J b C i.x.x.x.x.x.x.x.c.m I U N ,.c.g.N J J J Z Z K.",
"K.k g z k c b Z N i.d.a.a.d.a.d.a.f.m I J N ,.l.t.Z Z A Z v Z K.",
"K.k g g k k b Z N 8.i.i.i.i.i.i.i.s.m K U N $.p.8.m Z v c k b K.",
"K.g u u g g b A N 7.9.9.9.9.9.9.0.e.n G D C #.e.5.m c c k k k K.",
"K.g y u u u l b Z @.0.6.6.6.6.6.6.0.3.4.3.3.7.0.+.z k z k k k K.",
"K.0 u y u y u i g g x S P T _ ] &.] _ R P E S v k k g g g i d K.",
"K.4 1 t y t u y u u k k v J ' *.;.{ ( I b v k k g i i u y 6 7 K.",
"K.4 < < 1 t 6 6 6 6 6 0 e d C [ -./ m j d e 0 0 0 y e 6 4 4 5 K.",
"K.4 < < < : <.M.b.b.b.b.k.k.h.g.g.g.h.j.k.b.b.b.M.<.> < < < 4 K.",
"K.4 < < < e J.J.J.J.J.J.J.J.J.J.J.J.J.J.J.J.J.J.J.J.g > < < 4 K.",
"K.5 4 1 < c J.J.J.J.J.J.J.J.J.J.J.J.J.J.J.J.J.J.J.J.x < < < 4 K.",
"K.5 2 4 4 b J.J.J.J.J.J.J.J.J.J.J.J.J.J.J.J.J.J.J.J.x < < < 4 K.",
"K.5 5 4 5 b J.J.J.J.J.J.J.J.J.J.J.J.J.J.J.J.J.J.J.J.v < < < 4 K.",
"K.w 7 w 7 K J.J.J.J.J.J.J.J.J.J.J.J.J.J.J.J.J.J.J.J.b 4 4 4 5 K.",
"K.a w w w K J.J.J.J.J.J.J.J.J.J.J.J.J.J.J.J.J.J.J.J.A 5 5 4 7 K.",
"K.a a a a Y J.J.J.J.J.G.H.J.J.G.J.J.H.J.G.J.G.J.J.J.K 7 w 5 7 K.",
"K.f s s s Y v.v.v.v.v.v.v.v.v.v.v.v.v.v.v.v.v.v.v.S.K w 0 w w K.",
"K.f f h h R r.r.r.r.r.r.r.r.r.r.r.r.r.r.r.r.r.r.r.r.U w w w a K.",
"K.j h n h R q.w.w.w.w.w.w.w.w.w.w.w.w.w.w.w.w.w.w.q.P s s a s K.",
"K.n r q f R ; - - - - - - - - - - - - - - - - - - ; L r , 9 f K.",
"K.V f s h R * * = = = = = = = = = = = = = = = = = * L s w w f K.",
"K.G V F F R $ % % % % % % % % % % % % % % % % % % $ L n n h C K.",
"K.:.) F ~ R # + + + + + + + + + + + + + + + + + + # L M h I >.K.",
"K.p C &.' ` . X X X X O & X X o X @ o X X X X X X . R ( ..G p K.",
"K.K.q =.w 3 B V V ^ ^  .o.^ ^ ^ ^ X.) ! ^ ! V ! B f 1 s =.q K.K.",
"K.K.K.  a 4 f n n B B V V V V V V V B B B n n n n a < s   K.K.K.",
"K.K.K.K.K.K.K.K.K.K.K.K.K.K.K.K.K.K.K.K.K.K.K.K.K.K.K.K.K.K.K.K."
};
