/* XPM */
static char *button_startnumber_xpm[] = {
/* columns rows colors chars-per-pixel */
"32 32 61 1 ",
"  c #040404",
". c #0B0B0B",
"X c #101214",
"o c #1D1D1D",
"O c #1F2225",
"+ c #2B2B2C",
"@ c #2E2F30",
"# c #2F3031",
"$ c #333434",
"% c #3D3D3D",
"& c #424242",
"* c #474748",
"= c #474848",
"- c #494949",
"; c #565657",
": c #575758",
"> c #575858",
", c #5B5B5C",
"< c #5E5F61",
"1 c #5F6061",
"2 c #636464",
"3 c #656668",
"4 c #676869",
"5 c #6A6B6B",
"6 c #848484",
"7 c #878888",
"8 c #8A8A8A",
"9 c #888C90",
"0 c #949FAA",
"q c #A3AEBA",
"w c #A5B0BA",
"e c #BDBEBE",
"r c #B0B8C1",
"t c #BFBFC0",
"y c #BFC0C0",
"u c #B7C0C9",
"i c #BEC4CB",
"p c #C1C1C2",
"a c #C6C8CA",
"s c #C9CCCE",
"d c #C7CED6",
"f c #CACFD4",
"g c #CFD1D3",
"h c #CED3D8",
"j c #D3D4D5",
"k c #D3D7DB",
"l c #D4D8DC",
"z c #DCDDDD",
"x c #DEDFE1",
"c c #DEE1E5",
"v c #E3E4E5",
"b c #E5E7EA",
"n c #E7E9EB",
"m c #EAEBEC",
"M c #ECEEF0",
"N c #EEF0F2",
"B c #F2F3F4",
"V c #F6F7F8",
"C c #F7F8F9",
"Z c #FEFEFE",
"A c None",
/* pixels */
"AAAAAAAAAAAAAAAAAAAAAAAAAAAAAAAA",
"AAAAAAAAAAAAAAAAAAAAAAAAAAAAAAAA",
"AAAAAAAAAAAAAAAAAAAAAAAAAAAAAAAA",
"AAAAAAAAAAAAAAAAAAAAAAAAAAAAAAAA",
"AAAAAAAAAAAAAAAAAAAAAAAAAAAAAAAA",
"A .@@@@###$$$$$$$$$$$$+OX AAAAAA",
"A%lNNNNBBNBNBBNNNNNNmxdqr% AAAAA",
" aZZZZZCCVVVBBBMNMmbbvkidn% AAAA",
" bZZZZCZCCCCVBBBMMNmnbckkMv% AAA",
" bZZZVnzmzBnzvxznzzllkschMbc% AA",
" nZZZz2+6oe7+22*e12;4,ok9Mbcc% A",
" mZZZz2+6oy7+12*e14;41oz3fnbcx% ",
".bZZZz2+6oy8+22*t23;4<ox1<ildu0 ",
" nZZZz2O6oy8+22-t14;5<ox3<ackiw ",
".nZZZz4+6oy8#22-e24;51oc1<anckd ",
" bZZZz2+6op8#22-y25>51oc3<snncc.",
" nZZZz2+6op8$22-p25;52ov21smnnm ",
".nZZZz2O6op8@22-p25>52ov22gmmnM.",
" nZZZz2+6op8+42-p25>52om21sMmmM ",
" nZZZz2+7op8#25-p25>52ov52jMMmB.",
".nZZZz2+6op8@22-a25,52om41jBNMB.",
" bZZZz2+6op8#22-p45,52om42jBNNB ",
" nZZZCmvMzCBvmmbCnmbmvzCvvMBBMB ",
" mZZZZZZZZZZZZZZZZZZZZZCCCVVVBB.",
" aZZZZZZZZZZZZZZZZZZZZZZZCVVVBj ",
"A%lBVBBVVVVCZCZCZZZZZZZZCZZZCm&A",
"A .+@@##$@$$$$$$$$$$$$$$$%$$$. A",
"AAAAAAAAAAAAAAAAAAAAAAAAAAAAAAAA",
"AAAAAAAAAAAAAAAAAAAAAAAAAAAAAAAA",
"AAAAAAAAAAAAAAAAAAAAAAAAAAAAAAAA",
"AAAAAAAAAAAAAAAAAAAAAAAAAAAAAAAA",
"AAAAAAAAAAAAAAAAAAAAAAAAAAAAAAAA"
};
