/* XPM */
static char *button_update_xpm[] = {
/* columns rows colors chars-per-pixel */
"32 32 199 2 ",
"   c #4A4D52",
".  c #575151",
"X  c #7F726B",
"o  c #6B6E72",
"O  c #D43D00",
"+  c #DB3C01",
"@  c #BD6732",
"#  c #CC4100",
"$  c #CD4200",
"%  c #CD4400",
"&  c #CD4401",
"*  c #CF4400",
"=  c #CE4401",
"-  c #CF4702",
";  c #CE4603",
":  c #CD4806",
">  c #CD4807",
",  c #CE4A09",
"<  c #CE4B09",
"1  c #D04300",
"2  c #D54500",
"3  c #D54700",
"4  c #D14803",
"5  c #DE4900",
"6  c #D8520B",
"7  c #D35311",
"8  c #D05213",
"9  c #D15414",
"0  c #DF5C12",
"q  c #D75B1A",
"w  c #E04900",
"e  c #E34900",
"r  c #E24F00",
"t  c #EA4E00",
"y  c #EC4E00",
"u  c #ED4E00",
"i  c #F94200",
"p  c #F94600",
"a  c #FF4600",
"s  c #FF4701",
"d  c #FE4304",
"f  c #F24807",
"g  c #FF4A00",
"h  c #FF4B01",
"j  c #FE4D00",
"k  c #FE4E02",
"l  c #FE4B05",
"z  c #E55B0C",
"x  c #F35100",
"c  c #F45200",
"v  c #F35700",
"b  c #F55400",
"n  c #FF5100",
"m  c #FC5200",
"M  c #FC5500",
"N  c #FE5401",
"B  c #FC5700",
"V  c #F95A00",
"C  c #FF5A00",
"Z  c #FC5D00",
"A  c #FE5F00",
"S  c #FC5E03",
"D  c #FC5A04",
"F  c #FB5F04",
"G  c #FC5C09",
"H  c #FE5410",
"J  c #FE5812",
"K  c #FB5F10",
"L  c #FD5C12",
"P  c #F05A1C",
"I  c #FB6104",
"U  c #FC6104",
"Y  c #FC6306",
"T  c #FF6B00",
"R  c #FE6D01",
"E  c #F5660D",
"W  c #FC6108",
"Q  c #FE6308",
"!  c #FB670A",
"~  c #FD600E",
"^  c #FF7300",
"/  c #FF7103",
"(  c #FF7600",
")  c #FF7D00",
"_  c #FF7E0A",
"`  c #E7681E",
"'  c #EA6D1F",
"]  c #FC6612",
"[  c #FD6616",
"{  c #FC6C11",
"}  c #FC6B17",
"|  c #FD6A1C",
" . c #FD711A",
".. c #FD731D",
"X. c #FA741F",
"o. c #E15E28",
"O. c #DE6A27",
"+. c #C36D39",
"@. c #D6793F",
"#. c #EF752C",
"$. c #FD7621",
"%. c #FD7422",
"&. c #FD7B29",
"*. c #FE7C29",
"=. c #FD7D2B",
"-. c #FD782D",
";. c #FD7C2E",
":. c #E07232",
">. c #E07233",
",. c #E77F3B",
"<. c #E77C3C",
"1. c #FE7A30",
"2. c #FE7F30",
"3. c #9F6B4A",
"4. c #96705A",
"5. c #B87347",
"6. c #A17053",
"7. c #8F796D",
"8. c #FF8500",
"9. c #FF8700",
"0. c #FF8A00",
"q. c #FF8B00",
"w. c #FF8D00",
"e. c #FF8E00",
"r. c #FF9103",
"t. c #FF960A",
"y. c #FF8E17",
"u. c #FF9E19",
"i. c #FF8131",
"p. c #FD8133",
"a. c #FD8235",
"s. c #FE8234",
"d. c #FE8437",
"f. c #F48139",
"g. c #FF8638",
"h. c #FFA025",
"j. c #FFA828",
"k. c #FFAB36",
"l. c #FFAE3B",
"z. c #FFB43D",
"x. c #EB8543",
"c. c #EB894A",
"v. c #FF8B41",
"b. c #FE8842",
"n. c #F98C47",
"m. c #FE8C44",
"M. c #FE8D46",
"N. c #F88E49",
"B. c #FF8C49",
"V. c #FE8E48",
"C. c #FF9049",
"Z. c #FE904C",
"A. c #FF904E",
"S. c #FE9451",
"D. c #FF9551",
"F. c #FE9552",
"G. c #FF9453",
"H. c #FC9653",
"J. c #FE9654",
"K. c #FF9857",
"L. c #FF9A58",
"P. c #FF9A59",
"I. c #FE9B5C",
"U. c #FF9B5C",
"Y. c #FE9D5E",
"T. c #FE9E5E",
"R. c #FFBB4A",
"E. c #FFBD4B",
"W. c #FFBC4D",
"Q. c #F69E61",
"!. c #FF9F60",
"~. c #FF9F62",
"^. c #FFA266",
"/. c #FFA367",
"(. c #FFA567",
"). c #FFA368",
"_. c #FFAB6F",
"`. c #FFC45D",
"'. c #FFC65D",
"]. c #FFCA66",
"[. c #FFCA67",
"{. c #A19188",
"}. c #9F9FA2",
"|. c #A9ACAF",
" X c #B4B5B7",
".X c #FFA98B",
"XX c #FEC0AA",
"oX c #EEC6B9",
"OX c #DEC7C0",
"+X c #DEDFE2",
"@X c #DEE0E3",
"#X c #E2E2E3",
"$X c #EEEFF1",
"%X c #F1F2F4",
"&X c #F6F6F7",
"*X c #FAFAFB",
"=X c #FCFCFD",
"-X c gray100",
";X c None",
/* pixels */
";X;X;X;X;X;X;X;X;X;X;X;X;X;X;X;X;X;X;X;X;X;X;X;X;X;X;X;X;X;X;X;X",
";X;X;X;X;X;X;X;X;X;X;X;X;X;X;X;X;X;X;X;X;X;X;X;X;X;X;X;X;X;X;X;X",
";X;X;X;X;X;X;X;X;X;X;X;X;X;X;X;X;X;X;X;X;X;X;X;Xs C s ;X;X;X;X;X",
";X;X;X;X;X;X;X;X;X;X;X;X;X;X;X;X;X;X;X;X;X;X;Xh l.t.9.s ;X;X;X;X",
";X;X;X;X;X;X;X;X;X;X;X;X;X;X;X;X;X;X;X;X;X;Xl h.W.e.e.e.N ;X;X;X",
";X;X;X;X;X;X;X;X;X;X;X;X;X;X;X;X;X;X;X;X;Xd y.'.e.e.e.e.e.a ;X;X",
";X;X;X;X;X# w x c t 2 ;X;X;X;X;X;X;X;X;Xf _ ].r.e.e.e.e.e.h ;X;X",
";X;X;X;X# u M [ | G M u # ;X;X;X;X;X;X+ R ].t.e.e.e.e.e.^ ;X;X;X",
";X;X;X;X5 M 1.B.B.B.-.D b % ;X;X;X;XO A '.u.e.e.e.e.e.) i ;X;X;X",
";X;X;X;Xv } A.A.A.A.A.b.W V r 3 2 e m R.j.e.e.e.e.e.9.p ;X;X;X;X",
";X;X;X% I ;.G.G.G.G.G.G.A.$.Y U A h k.z.e.e.e.e.e.9.h I % ;X;X;X",
";X;X;X% ! p.K.K.K.K.K.K.K.K.G.C.o./ E.e.e.e.e.e.e.N ] ! % ;X;X;X",
";X;X;X4 E =.I.I.U.U.U.U.U.U.L.m.{..XR e.e.e.e.e.A K { E 4 ;X;X;X",
";X;X;X;Xz ..I.~.~.^.U.^.G.d...'  X-XXXQ e.r.e.T L  ...z ;X;X;X;X",
";X;X;X;X% $.a.^.^.(.G.;.X.$.$.@ #X-X*XoX~ 9.^ J $.$.$.% ;X;X;X;X",
";X;X;X;X;X6 &.m.U.d.=.*.=.*.*.6.-X=X$X+XOXP H =.&.&.6 ;X;X;X;X;X",
";X;X;X;X;X;X0 i.i.i.s.s.i.i.i.X &X%X+X|.7.+.p.p.i.0 ;X;X;X;X;X;X",
";X;X;X;X;X;X;X` g.g.g.g.s.s.x.  o }.4.@.g.g.d.g.` ;X;X;X;X;X;X;X",
";X;X;X;X;X;X;X< #.v.M.g.g.M.5.. 3.x.b.v.v.v.v.#.: ;X;X;X;X;X;X;X",
";X;X;X;X;X;X;X;X< f.C.C.C.C.c.N.C.C.C.C.C.C.f.< ;X;X;X;X;X;X;X;X",
";X;X;X;X;X;X;X;X;X< N.D.D.D.D.D.G.G.D.D.D.n.< ;X;X;X;X;X;X;X;X;X",
";X;X;X;X;X;X;X;X;X;X9 D.L.K.L.L.L.L.L.L.H.7 ;X;X;X;X;X;X;X;X;X;X",
";X;X;X;X;X;X;X;X;X;X;Xq U.^.U.^.!.!.!.!.q ;X;X;X;X;X;X;X;X;X;X;X",
";X;X;X;X;X;X;X;X;X;X;X;XO.(.(.(.(.(.(.O.;X;X;X;X;X;X;X;X;X;X;X;X",
";X;X;X;X;X;X;X;X;X;X;X;X;X<._._._._.<.;X;X;X;X;X;X;X;X;X;X;X;X;X",
";X;X;X;X;X;X;X;X;X;X;X;X;X9 >.Q.Q.:.9 ;X;X;X;X;X;X;X;X;X;X;X;X;X",
";X;X;X;X;X;X;X;X;X;X;X;X;X;X;X;X;X;X;X;X;X;X;X;X;X;X;X;X;X;X;X;X",
";X;X;X;X;X;X;X;X;X;X;X;X;X;X;X;X;X;X;X;X;X;X;X;X;X;X;X;X;X;X;X;X",
";X;X;X;X;X;X;X;X;X;X;X;X;X;X;X;X;X;X;X;X;X;X;X;X;X;X;X;X;X;X;X;X",
";X;X;X;X;X;X;X;X;X;X;X;X;X;X;X;X;X;X;X;X;X;X;X;X;X;X;X;X;X;X;X;X",
";X;X;X;X;X;X;X;X;X;X;X;X;X;X;X;X;X;X;X;X;X;X;X;X;X;X;X;X;X;X;X;X",
";X;X;X;X;X;X;X;X;X;X;X;X;X;X;X;X;X;X;X;X;X;X;X;X;X;X;X;X;X;X;X;X"
};
