/* XPM */
static char *button_other_xpm[] = {
/* columns rows colors chars-per-pixel */
"32 32 164 2 ",
"   c #962E01",
".  c #9A3302",
"X  c #9E3A09",
"o  c #A73F06",
"O  c #A33A08",
"+  c #AB4305",
"@  c #A7430D",
"#  c #AA4409",
"$  c #AA480C",
"%  c #B34602",
"&  c #B94600",
"*  c #B54A04",
"=  c #BC4C03",
"-  c #B14E0B",
";  c #BD5006",
":  c #B6550B",
">  c #BB5B0C",
",  c #A74410",
"<  c #AA4D18",
"1  c #BD661C",
"2  c #AF5720",
"3  c #B25C21",
"4  c #BB6928",
"5  c #C04F02",
"6  c #C35305",
"7  c #CC5B01",
"8  c #C35609",
"9  c #C4590C",
"0  c #EA4D00",
"q  c #EA5D00",
"w  c #F35700",
"e  c #FB5400",
"r  c #FB5B00",
"t  c #C86006",
"y  c #CC6610",
"u  c #CA701E",
"i  c #E26400",
"p  c #EA6100",
"a  c #F16600",
"s  c #F46D00",
"d  c #FD6D00",
"f  c #E57400",
"g  c #EB7400",
"h  c #E37C02",
"j  c #EF7800",
"k  c #F57500",
"l  c #FD7500",
"z  c #F57A01",
"x  c #FD7C00",
"c  c #C86E27",
"v  c #C4762C",
"b  c #CA7929",
"n  c #D27923",
"m  c #CD7C37",
"M  c #E78404",
"N  c #E78E0F",
"B  c #F08700",
"V  c #FF8400",
"C  c #FF8B02",
"Z  c #FF9303",
"A  c #FF9B02",
"S  c #F5960F",
"D  c #FD950A",
"F  c #FF9B0C",
"G  c #E48D14",
"H  c #E88B10",
"J  c #EA8F19",
"K  c #ED9215",
"L  c #E6931E",
"P  c #EA951C",
"I  c #EF9B19",
"U  c #F29614",
"Y  c #F59B15",
"T  c #FB9C13",
"R  c #FF971E",
"E  c #FFA402",
"W  c #FEA30E",
"Q  c #FFAC0C",
"!  c #FFB30D",
"~  c #F4A116",
"^  c #FDA314",
"/  c #FFAA12",
"(  c #FDA51A",
")  c #FEAB1D",
"_  c #FFB915",
"`  c #FFB11A",
"'  c #FFBD18",
"]  c #D78326",
"[  c #DF8820",
"{  c #DD8C2A",
"}  c #DE9738",
"|  c #E69621",
" . c #E89A25",
".. c #FF9D28",
"X. c #F2A323",
"o. c #FAA723",
"O. c #FEAD24",
"+. c #F1A329",
"@. c #F7A928",
"#. c #FAAE2A",
"$. c #FFB421",
"%. c #FFB32B",
"&. c #FFBB2C",
"*. c #FFB631",
"=. c #FFBB32",
"-. c #FCBC3B",
";. c #FFC625",
":. c #FFC72B",
">. c #FFC337",
",. c #FFCF34",
"<. c #FFC33D",
"1. c #FFD73F",
"2. c #FFD93F",
"3. c #CD8340",
"4. c #D28F4A",
"5. c #DAA055",
"6. c #E6A047",
"7. c #E3A54A",
"8. c #F1A84B",
"9. c #FCBD46",
"0. c #E0A757",
"q. c #ECB657",
"w. c #EDB258",
"e. c #F1B060",
"r. c #FFC544",
"t. c #FFCC46",
"y. c #FDC74A",
"u. c #FECE4B",
"i. c #FFDB46",
"p. c #FDD049",
"a. c #FFD94C",
"s. c #F6C052",
"d. c #FBCA5E",
"f. c #FFD357",
"g. c #FFD55C",
"h. c #FFE84C",
"j. c #FFEA53",
"k. c #FFC96D",
"l. c #FFDA64",
"z. c #FCD56D",
"x. c #FFDE6C",
"c. c #FFC676",
"v. c #FFCD75",
"b. c #FFC779",
"n. c #FCD571",
"m. c #FEDD70",
"M. c #FFE074",
"N. c #FFE27A",
"B. c #FFD286",
"V. c #FDD19D",
"C. c #FFD99C",
"Z. c #F6D5A6",
"A. c #F9D5A6",
"S. c #FBDAA6",
"D. c #F7D7A8",
"F. c #FDDBAF",
"G. c #FBD6B0",
"H. c #FBDDB5",
"J. c #F9DFBD",
"K. c #FBE1BA",
"L. c #FDEAC8",
"P. c #FFEDD7",
"I. c gray100",
"U. c None",
/* pixels */
"U.U.U.U.U.U.U.U.U.U.U.U.U.U.U.U.U.U.U.U.U.U.U.U.U.U.U.U.U.U.U.U.",
"U.U.U.U.U.U.U.U.U.U.U.U.U.U.U.U.U.U.U.U.U.U.U.U.U.U.U.U.U.U.U.U.",
"U.U.U.U.U.U.U.U.U.U.U.U.U.U.U.7.} U.U.U.U.U.U.U.U.U.U.U.U.U.U.U.",
"U.U.U.U.U.U.U.U.U.U.U.U.U.U.c j.h.u U.U.U.U.U.U.U.U.U.U.U.U.U.U.",
"U.U.U.U.U.U.U.U.U.U.U.U.U.X d.&.=.y.U.U.U.U.U.U.U.U.U.U.U.U.U.U.",
"U.U.U.U.U.U.U.U.U.U.U.U.U.m a.O.%.i.n U.U.U.U.U.U.U.U.U.U.U.U.U.",
"U.U.U.U.U.U.U.U.U.U.U.U., z.o.#.O.$.u.o U.U.U.U.U.U.U.U.U.U.U.U.",
"U.U.U.U.U.U.U.U.U.U.U.U.3.t.X.@.O.) 1.n U.U.U.U.U.U.U.U.U.U.U.U.",
"U.U.U.U.U.U.U.U.U.U.U., n.I +.X.o.) ` p.o U.U.U.U.U.U.U.U.U.U.U.",
"U.U.U.U.U.U.U.U.U.U.U.4.-.| X.~ W ^ W ,.] U.U.U.U.U.U.U.U.U.U.U.",
"U.U.U.U.U.U.U.U.U.U.< m.G  .M h h B ^ W a.# U.U.U.U.U.U.U.U.U.U.",
"U.U.U.U.U.U.U.U.U.U.5.#.| h Z.I.I.J.V F ;.{ U.U.U.U.U.U.U.U.U.U.",
"U.U.U.U.U.U.U.U.U.2 l.N  .h H.I.I.L.z F A i.# U.U.U.U.U.U.U.U.U.",
"U.U.U.U.U.U.U.U.U.0.o.L L h D.I.I.K.z T D ' [ U.U.U.U.U.U.U.U.U.",
"U.U.U.U.U.U.U.U.3 f.H L P h A.I.I.K.j S Z l ' # U.U.U.U.U.U.U.U.",
"U.U.U.U.U.U.U.. q.~ L P P f A.I.I.K.g z k l A J U.U.U.U.U.U.U.U.",
"U.U.U.U.U.U.U.4 r.H P K U g A.I.I.H.0 s z x l _ - U.U.U.U.U.U.U.",
"U.U.U.U.U.U.X s.S P U U U j S.I.I.G.0 k l x V Z U   U.U.U.U.U.U.",
"U.U.U.U.U.U.v &.K U U U Y z V.I.I.F.w z x x V x ! : U.U.U.U.U.U.",
"U.U.U.U.U.X 9.S U Y T ~ D e H.I.I.P.r z z x V V Z T   U.U.U.U.U.",
"U.U.U.U.U.b $.U Y ~ T x l l R b.c...l V x V V V V ! : U.U.U.U.U.",
"U.U.U.U.@ <.S ~ ~ C l V V C d p p d Z V V V V C C Z ^ . U.U.U.U.",
"U.U.U.U.] ` ~ D l x V C Z V 8.I.I.e.V D C C V V C V Q 8 U.U.U.U.",
"U.U.U.- :.S z d V C C D F V I.I.I.I.V F D Z C C C C Z W . U.U.U.",
"U.U.U.| C s l V C C A F ^ Z B.I.I.C.Z ^ F F Z C C C C E t U.U.U.",
"U.U.* C a k x V C Z F T ( ) A k.v.A ) ) ^ F D Z C C C C A . U.U.",
"U.U.i k k x x C Z F T ) o.%.=./ / =.%.O.) ( W D C C C V E 7 U.U.",
"U.y k k x x C C D F / ) %.=.<.r.y.r.<.*.` ) W F Z V V V C Z 1 U.",
"U.6.d z V C D F / $.&.>.u.g.x.N.N.m.x.f.t.>.&.` / F Z Z C C w.U.",
"U.> ; & = = 5 6 6 6 9 9 9 9 9 9 9 9 9 8 8 ; ; = = * % % % * : U.",
"U.U.U.U.U.U.U.U.U.U.U.U.U.U.U.U.U.U.U.U.U.U.U.U.U.U.U.U.U.U.U.U.",
"U.U.U.U.U.U.U.U.U.U.U.U.U.U.U.U.U.U.U.U.U.U.U.U.U.U.U.U.U.U.U.U."
};
