/* XPM */
static char *button_danceradd_xpm[] = {
/* columns rows colors chars-per-pixel */
"32 32 139 2 ",
"   c #0F640F",
".  c #10660F",
"X  c #0F6810",
"o  c #196F10",
"O  c #127D11",
"+  c #197D14",
"@  c #20711D",
"#  c #1E8216",
"$  c #1A8A19",
"%  c #179512",
"&  c #218319",
"*  c #228819",
"=  c #2C8D1D",
"-  c #27911B",
";  c #39951D",
":  c #2A8523",
">  c #278E27",
",  c #2F8824",
"<  c #269622",
"1  c #359821",
"2  c #3A9B24",
"3  c #3C962B",
"4  c #3A8A36",
"5  c #359534",
"6  c #36A726",
"7  c #3EA425",
"8  c #37A923",
"9  c #629E28",
"0  c #46A62A",
"q  c #44B024",
"w  c #4CB52E",
"e  c #42AD3C",
"r  c #4CA83F",
"t  c #56BC33",
"y  c #65C53B",
"u  c #459A44",
"i  c #4BAA47",
"p  c #4FB545",
"a  c #5ABD44",
"s  c #5BBB4B",
"d  c #59B651",
"f  c #64BF43",
"g  c #65BA4B",
"h  c #61BE57",
"j  c #6BBF56",
"k  c #77B079",
"l  c #66C653",
"z  c #64C158",
"x  c #6AC45A",
"c  c #70C263",
"v  c #76CC64",
"b  c #A6896F",
"n  c #AC8F75",
"m  c #AF9177",
"M  c #AE9179",
"N  c #B2957B",
"B  c #B3987E",
"V  c #83D36F",
"C  c #96DD7C",
"Z  c #AF9680",
"A  c #B69B83",
"S  c #B89C84",
"D  c #BB9F88",
"F  c #BDA38B",
"G  c #C0A68F",
"H  c #C1A791",
"J  c #C2A993",
"K  c #C8AE96",
"L  c #C7AD98",
"P  c #C7B39E",
"I  c #CBB49F",
"U  c #CFB89E",
"Y  c #CCB6A2",
"T  c #CEB9A3",
"R  c #D1BAA6",
"E  c #D9BEA2",
"W  c #D3BDA9",
"Q  c #8ECB85",
"!  c #9BD685",
"~  c #B2E696",
"^  c #B4E898",
"/  c #ABD3AD",
"(  c #B1DDA4",
")  c #D3C2AD",
"_  c #DCC5AD",
"`  c #D6C7B6",
"'  c #D9C5B3",
"]  c #DDCDBB",
"[  c #E6CCAE",
"{  c #E8CCAC",
"}  c #E3CDB5",
"|  c #E2CDB8",
" . c #EBD1B4",
".. c #E0D0BE",
"X. c #EED5BA",
"o. c #F1D4B4",
"O. c #F2D7B8",
"+. c #F3D9BD",
"@. c #A9B0C7",
"#. c #B5BCD1",
"$. c #BCC2D5",
"%. c #C2C7D8",
"&. c #C8CDDC",
"*. c #E9DBCB",
"=. c #F4DDC3",
"-. c #F4DFC8",
";. c #EDDFD0",
":. c #F6E0C7",
">. c #F6E3CD",
",. c #EDE2D7",
"<. c #E5E1DF",
"1. c #EBE4DD",
"2. c #F6E6D5",
"3. c #F8E7D5",
"4. c #F7E8D7",
"5. c #F8E8D6",
"6. c #F2E6D8",
"7. c #F7E9DA",
"8. c #F8EBDC",
"9. c #D1D5E2",
"0. c #D6D9E5",
"q. c #D8DBE6",
"w. c #DCDFE9",
"e. c #DEE1EA",
"r. c #E7E3E2",
"t. c #ECE7E2",
"y. c #E2E5ED",
"u. c #E7E9EF",
"i. c #EBE9E9",
"p. c #F2EAE2",
"a. c #F9EDE1",
"s. c #E7E9F0",
"d. c #EBECF2",
"f. c #EEF1F4",
"g. c #F2F3F7",
"h. c #F5F6F9",
"j. c #F7F8FA",
"k. c #F8F9FB",
"l. c None",
/* pixels */
"l.l.l.l.l.l.l.l.l.l.l.l.l.l.l.l.l.l.l.l.l.l.l.l.l.l.l.l.l.l.l.l.",
"l.l.l.l.l.l.l.l.l.l.l.l.M S G l.l.l.l.l.l.l.l.l.l.l.l.l.l.l.l.l.",
"l.l.l.l.l.l.l.l.l.l.m m S J Y W Y l.l.l.l.l.l.l.l.l.l.l.l.l.l.l.",
"l.l.l.l.l.l.l.l.l.n B M S K W | ' Y l.l.l.l.l.l.l.l.l.l.l.l.l.l.",
"l.l.l.l.l.l.l.l.l.n b M A J I W R I G l.l.l.l.l.l.l.l.l.l.l.l.l.",
"l.l.l.l.l.l.l.l.n Z } ) N n A J G D D l.l.l.l.l.l.l.l.l.l.l.l.l.",
"l.l.l.l.l.l.l.l.b  .-.2.6.*.>.7.5.| S l.l.l.l.l.l.l.l.l.l.l.l.l.",
"l.l.l.l.l.l.l.l.n +.>.7.8.8.a.a.8.2.K l.l.l.l.l.l.l.l.l.l.l.l.l.",
"l.l.l.l.l.l.l.l.B +.>.4.8.8.a.a.8.2._ l.l.l.l.l.l.l.l.l.l.l.l.l.",
"l.l.l.l.l.l.l.l.E =.>.4.8.8.a.a.8.2.X.E l.l.l.l.l.l.l.l.l.l.l.l.",
"l.l.l.l.l.l.l.l.} +.>.4.8.8.a.8.8.2.+.l.l.l.l.l.l.l.l.l.l.l.l.l.",
"l.l.l.l.l.l.l.l.[ =.-.2.8.8.8.8.7.>.O.l.l.l.l.l.l.l.l.l.l.l.l.l.",
"l.l.l.l.l.l.l.l.l.O.=.2.3.3.3.3.2.-.O.l.l.l.l.l.l.l.l.l.l.l.l.l.",
"l.l.l.l.l.l.l.l.l.o.+.:.>.>.3.>.=.+.l.l.l.l.l.l.l.l.l.l.l.l.l.l.",
"l.l.l.l.l.l.l.l.l.l.o.+.:.:.:.=.+.{ l.l.l.l.l.l.l.l.l.l.l.l.l.l.",
"l.l.l.l.l.l.l.l.l.l.[ o.O.+.+.+.o.l.l.l.l.l.l.l.l.l.l.l.l.l.l.l.",
"l.l.l.l.l.l.l.l.l.l.) { o.o.o.o.T l.l.l.l.l.l.l.l.l.l.l.l.l.l.l.",
"l.l.l.l.l.l.l.l.l.l.*.` ) U U I ] l.l.l.l.l.l.l.l.l.l.l.l.l.l.l.",
"l.l.l.l.l.l.l.l.l.l.6.6.] P Y ..*.l.l.l.l.l.l.l.l.l.l.l.l.l.l.l.",
"l.l.l.l.l.l.l.l.l.l.p.2.] I T ..*.t.l.l.l.l.l.l.l.l.l.l.l.l.l.l.",
"l.l.l.l.l.l.l.l.s.d.d.,.' Y T ] 1.g.k.h.l.l.l.l.Q c j ( l.l.l.l.",
"l.l.l.l.l.l.s.d.f.f.f.f.i.r.r.d.h.k.k.k.j.h.l.l.i ~ ~ g l.l.l.l.",
"l.l.l.l.e.d.f.h.j.k.k.k.k.k.k.k.k.k.k.k.k.h.h.f.- C C 7 l.l.l.l.",
"l.l.l.0.d.f.h.j.k.k.k.k.k.k.k.k.k.k.k.k.k.h.h.h.* V V 2 l.l.l.l.",
"l.l.0.d.d.f.j.j.k.h.k.k.k.k.k.k.k.k.k.k./ 5 O + : v v 3 2 0 g ! ",
"l.l.w.d.d.h.j.j.k.k.j.j.h.k.j.k.k.h.k.k.> c h z z l x x c d 5 f ",
"l.9.y.s.d.h.h.j.h.h.h.h.h.k.h.h.h.h.h.h.O i e p s a t s 8 % $ t ",
"l.q.s.d.u.g.h.h.j.h.h.h.j.h.h.j.h.k.h.h.k .   . @ w t , = 1 7 q ",
"l.w.s.s.u.f.g.f.h.h.h.h.h.h.h.h.h.h.h.h.h.h.f.d.X w y & l.l.l.l.",
"l.l.%.y.u.d.j.s.h.h.g.h.g.h.h.h.h.h.h.g.g.f.d.d.  8 w # l.l.l.l.",
"l.l.l.l.@.$.9.w.y.s.s.u.e.e.e.e.y.y.e.w.0.&.#.l.o < < & l.l.l.l.",
"l.l.l.l.l.l.l.l.l.l.l.l.l.l.l.l.l.l.l.l.l.l.l.l.9 ; u 4 l.l.l.l."
};
