/* XPM */
static char *button_ok_xpm[] = {
/* columns rows colors chars-per-pixel */
"32 32 211 2 ",
"   c black",
".  c #000100",
"X  c #000200",
"o  c #010200",
"O  c #010300",
"+  c #020300",
"@  c #010400",
"#  c #020500",
"$  c #030500",
"%  c #040500",
"&  c #040700",
"*  c #030901",
"=  c #000903",
"-  c #040A01",
";  c #040B02",
":  c #050E02",
">  c #080C00",
",  c #0A0F00",
"<  c #0A0F01",
"1  c #001607",
"2  c #0D1200",
"3  c #081503",
"4  c #071905",
"5  c #0F1902",
"6  c #0C1C04",
"7  c #121E02",
"8  c #171D00",
"9  c #0B2207",
"0  c #0F2004",
"q  c #03270C",
"w  c #07290B",
"e  c #0F2C08",
"r  c #172101",
"t  c #102606",
"y  c #172F06",
"u  c #1E2E02",
"i  c #08340F",
"p  c #163107",
"a  c #14370A",
"s  c #10360C",
"d  c #11370C",
"f  c #1D3D08",
"g  c #253803",
"h  c #2A3801",
"j  c #17420D",
"k  c #14410E",
"l  c #1A440C",
"z  c #19460D",
"x  c #164910",
"c  c #115617",
"v  c #1C5812",
"b  c #224107",
"n  c #22520E",
"m  c #2D570A",
"M  c #265E10",
"N  c #29600F",
"B  c #2A620F",
"V  c #3D6A0A",
"C  c #236514",
"Z  c #2F6E12",
"A  c #326E11",
"S  c #2A7316",
"D  c #3B7D12",
"F  c #455700",
"G  c #466303",
"H  c #5F7900",
"J  c #5B7E03",
"K  c #328118",
"L  c #3B8F19",
"P  c #2E911F",
"I  c #3DA31F",
"U  c #299B26",
"Y  c #369C21",
"T  c #3EA722",
"R  c #3AB428",
"E  c #3EBE2B",
"W  c #49860F",
"Q  c #5F950C",
"!  c #479314",
"~  c #4A9616",
"^  c #449C1B",
"/  c #6C8F03",
"(  c #759A02",
")  c #7B9F01",
"_  c #4DA81C",
"`  c #56B31C",
"'  c #69A90D",
"]  c #63B514",
"[  c #69BB1B",
"{  c #43B322",
"}  c #46B123",
"|  c #46B223",
" . c #4EBA24",
".. c #42BB29",
"X. c #61C91C",
"o. c #6ED51A",
"O. c #76D717",
"+. c #77D717",
"@. c #7BD514",
"#. c #70D519",
"$. c #73D719",
"%. c #7CDB1A",
"&. c #78D81F",
"*. c #7DDB1F",
"=. c #44C02A",
"-. c #45C12C",
";. c #47C12E",
":. c #47C22E",
">. c #49C129",
",. c #4CC42D",
"<. c #4EC52F",
"1. c #4FC52F",
"2. c #57C226",
"3. c #53C822",
"4. c #5FC927",
"5. c #5FCA27",
"6. c #50C52A",
"7. c #53C82E",
"8. c #58CA2C",
"9. c #5ACB2F",
"0. c #5FCD2D",
"q. c #55C831",
"w. c #56C931",
"e. c #5BCB30",
"r. c #5DCC32",
"t. c #5DCC33",
"y. c #67CE29",
"u. c #6FD423",
"i. c #76D724",
"p. c #7BDA25",
"a. c #70D429",
"s. c #76D72A",
"d. c #72D52E",
"f. c #78D72E",
"g. c #79D72F",
"h. c #7CDA2B",
"j. c #63CE33",
"k. c #65CF35",
"l. c #67D030",
"z. c #6FD333",
"x. c #6BD135",
"c. c #6DD238",
"v. c #75D633",
"b. c #72D437",
"n. c #78D637",
"m. c #7FDA31",
"M. c #7CD834",
"N. c #73D439",
"B. c #75D53B",
"V. c #7AD73A",
"C. c #7BD73C",
"Z. c #7FD939",
"A. c #7CD83D",
"S. c #7DD83E",
"D. c #81B306",
"F. c #84C40B",
"G. c #86C60A",
"H. c #87D10E",
"J. c #9DDC08",
"K. c #86C013",
"L. c #80CF10",
"P. c #82DD14",
"I. c #83DE14",
"U. c #80DD17",
"Y. c #86DF15",
"T. c #80DC1A",
"R. c #9EEA0C",
"E. c #8AE112",
"W. c #8CE212",
"Q. c #90E411",
"!. c #9EEA10",
"~. c #AEE102",
"^. c #ABEB06",
"/. c #ABEF08",
"(. c #ACEF08",
"). c #B0F207",
"_. c #B2F307",
"`. c #BEF201",
"'. c #BDF803",
"]. c #ACF013",
"[. c #BAF51B",
"{. c #80DB24",
"}. c #89D824",
"|. c #81DA3C",
" X c #83DA3F",
".X c #94E32C",
"XX c #90E13C",
"oX c #ACE122",
"OX c #A6E936",
"+X c #A8EB39",
"@X c #84DA40",
"#X c #84DB41",
"$X c #8ADE44",
"%X c #8BDE45",
"&X c #94E243",
"*X c #93E049",
"=X c #9AE34D",
"-X c #BFF34D",
";X c #A1E652",
":X c #A9E950",
">X c #ABEA54",
",X c #A8E857",
"<X c #AFEB5C",
"1X c #B6ED62",
"2X c #BCF068",
"3X c #C0F34F",
"4X c #CAF848",
"5X c #C1F168",
"6X c #CAF474",
"7X c #D4F77F",
"8X c None",
/* pixels */
"8X8X8X8X8X8X8X8X8X8X8X8X8X8X8X8X8X8X8X8X8X8X8X8X8X8X8X8X8X8X8X8X",
"8X8X8X8X8X8X8X8X8X8X8X8X8X8X8X8X8X8X8X8X8X8X8X8X8X8X8X8X8X= q   ",
"8X8X8X8X8X8X8X8X8X8X8X8X8X8X8X8X8X8X8X8X8X8X8X8X8X8X8X  1 U ]   ",
"8X8X8X8X8X8X8X8X8X8X8X8X8X8X8X8X8X8X8X8X8X8X8X8X8X8X  w { #.f   ",
"8X8X8X8X8X8X8X8X8X8X8X8X8X8X8X8X8X8X8X8X8X8X8X8X8X  k X.o.D   8X",
"8X8X8X8X8X8X8X8X8X8X8X8X8X8X8X8X8X8X8X8X8X8X8X8X  B +.u.` - 8X8X",
"8X8X8X8X8X8X8X8X8X8X8X8X8X8X8X8X8X8X8X8X8X8X8X& W I.a.y.p   8X8X",
"8X8X8X8X8X8X8X8X8X8X8X8X8X8X8X8X8X8X8X8X8X8X< ' I.d.z.A   8X8X8X",
"8X8X8X8X8X8X8X8X8X8X8X8X8X8X8X8X8X8X8X8X  r F.I.v.N._ # 8X8X8X8X",
"8X8X8X8X8X8X8X8X8X8X8X8X8X8X8X8X8X8X8X  h J.%.n.B.4.t 8X8X8X8X8X",
"8X8X8X8X8X8X8X8X8X8X8X8X8X8X8X8X8X8X  F ^.i.V.B.l.B   8X8X8X8X8X",
"8X8X8X8X8X8X8X8X8X8X8X8X8X8X8X8X8X  H (.i.C.B.x.^   8X8X8X8X8X8X",
"8X    8X8X8X8X8X8X8X8X8X8X8X8X8X& ( R.s.A.B.c.2.6 8X8X8X8X8X8X8X",
"  M ! u   8X8X8X8X8X8X8X8X8X8X> D.Q.g.A.B.c.0.n   8X8X8X8X8X8X8X",
"  ~._.(.) 8   8X8X8X8X8X8X  7 F.E.M.A.B.c.j.L   8X8X8X8X8X8X8X8X",
"  / 4X[.'.`.J >   8X8X8X  y L.T.A.A.B.c.k. .3 8X8X8X8X8X8X8X8X8X",
"8X2 oX7X-X]._.H.m       j @.*.|.A.B.c.k.8.l   8X8X8X8X8X8X8X8X8X",
"8X  G 3X6X5X+X!.E.I i c +.p.|.A.B.c.k.r.K   8X8X8X8X8X8X8X8X8X8X",
"8X8X  K.5X2X1X>X.XW.3.O.h.#XA.B.c.k.r.} : 8X8X8X8X8X8X8X8X8X8X8X",
"8X8X8Xg OX1X<X,X;X&X{.|.#XS.B.c.k.t.6.a   8X8X8X8X8X8X8X8X8X8X8X",
"8X8X8X  Q :X,X;X=X*X%X#XA.B.c.k.t.7.S   8X8X8X8X8X8X8X8X8X8X8X8X",
"8X8X8X8X5 }.;X=X*X%X#XA.B.c.k.t.q.T - 8X8X8X8X8X8X8X8X8X8X8X8X8X",
"8X8X8X8X  V XX*X%X#XA.B.c.k.t.w.>.e 8X8X8X8X8X8X8X8X8X8X8X8X8X8X",
"8X8X8X8X8X- [ %X#XA.B.c.k.t.w.<.C   8X8X8X8X8X8X8X8X8X8X8X8X8X8X",
"8X8X8X8X8X  b g.A.B.c.k.t.w.<.Y # 8X8X8X8X8X8X8X8X8X8X8X8X8X8X8X",
"8X8X8X8X8X8X  ~ N.c.k.t.w.<...9 8X8X8X8X8X8X8X8X8X8X8X8X8X8X8X8X",
"8X8X8X8X8X8X8X0 5.k.t.w.<.:.v   8X8X8X8X8X8X8X8X8X8X8X8X8X8X8X8X",
"8X8X8X8X8X8X8X  Z e.w.<.:.P   8X8X8X8X8X8X8X8X8X8X8X8X8X8X8X8X8X",
"8X8X8X8X8X8X8X8X: } <.:.R 4 8X8X8X8X8X8X8X8X8X8X8X8X8X8X8X8X8X8X",
"8X8X8X8X8X8X8X8X  l =.E x   8X8X8X8X8X8X8X8X8X8X8X8X8X8X8X8X8X8X",
"8X8X8X8X8X8X8X8X8X  s s   8X8X8X8X8X8X8X8X8X8X8X8X8X8X8X8X8X8X8X",
"8X8X8X8X8X8X8X8X8X8X8X8X8X8X8X8X8X8X8X8X8X8X8X8X8X8X8X8X8X8X8X8X"
};
