/* XPM */
static char *button_left_xpm[] = {
/* columns rows colors chars-per-pixel */
"32 32 235 2 ",
"   c #044404",
".  c #004C00",
"X  c #014C01",
"o  c #004E00",
"O  c #004F00",
"+  c #005400",
"@  c #005500",
"#  c #005700",
"$  c #055005",
"%  c #065106",
"&  c #065506",
"*  c #005B00",
"=  c #035803",
"-  c #035A04",
";  c #065D06",
":  c #0E590E",
">  c #155C15",
",  c #006101",
"<  c #006200",
"1  c #006500",
"2  c #056305",
"3  c #056507",
"4  c #006900",
"5  c #006B02",
"6  c #006D00",
"7  c #006F00",
"8  c #006F01",
"9  c #006F03",
"0  c #076E07",
"q  c #0A620A",
"w  c #08690A",
"e  c #0A680B",
"r  c #017201",
"t  c #007003",
"y  c #017303",
"u  c #007700",
"i  c #017402",
"p  c #007603",
"a  c #037406",
"s  c #007A00",
"d  c #027903",
"f  c #007C00",
"g  c #017D05",
"h  c #037D05",
"j  c #067209",
"k  c #0E770F",
"l  c #087808",
"z  c #126913",
"x  c #1B681B",
"c  c #286828",
"v  c #296D29",
"b  c #2A782A",
"n  c #2F7530",
"m  c #357435",
"M  c #327832",
"N  c #317E31",
"B  c #3A7F3B",
"V  c #407940",
"C  c #008100",
"Z  c #008500",
"A  c #008700",
"S  c #038005",
"D  c #048004",
"F  c #048406",
"G  c #008800",
"H  c #008B00",
"J  c #078A07",
"K  c #058209",
"L  c #058708",
"P  c #088108",
"I  c #0A860E",
"U  c #068909",
"Y  c #078B0A",
"T  c #078D0B",
"R  c #0A8D0A",
"E  c #08880D",
"W  c #088E0C",
"Q  c #098F0D",
"!  c #009000",
"~  c #009200",
"^  c #009300",
"/  c #009400",
"(  c #009500",
")  c #059105",
"_  c #009A00",
"`  c #009B00",
"'  c #039803",
"]  c #009D00",
"[  c #009E00",
"{  c #009F00",
"}  c #0A900F",
"|  c #109C0E",
" . c #0E8611",
".. c #0F8F13",
"X. c #108212",
"o. c #188B12",
"O. c #1D8D14",
"+. c #0B9010",
"@. c #0C9011",
"#. c #109611",
"$. c #159518",
"%. c #1B9619",
"&. c #169B18",
"*. c #179D18",
"=. c #189A1B",
"-. c #00A000",
";. c #01A101",
":. c #00A300",
">. c #00A400",
",. c #00A500",
"<. c #00A600",
"1. c #06A307",
"2. c #00A800",
"3. c #00A900",
"4. c #00AA00",
"5. c #03AA03",
"6. c #00AC00",
"7. c #00AD00",
"8. c #0BA70B",
"9. c #0EA10F",
"0. c #00B000",
"q. c #00B100",
"w. c #00B200",
"e. c #00B300",
"r. c #00B400",
"t. c #00B500",
"y. c #04B404",
"u. c #00BA00",
"i. c #00BB00",
"p. c #05BF05",
"a. c #0AB40A",
"s. c #2F832F",
"d. c #2A8E2A",
"f. c #2C892C",
"g. c #299429",
"h. c #299A29",
"j. c #2E9F2E",
"k. c #368336",
"l. c #378E37",
"z. c #3F823F",
"x. c #3B853C",
"c. c #3C853C",
"v. c #3E843F",
"b. c #3A8A3A",
"n. c #329732",
"m. c #359335",
"M. c #309B30",
"N. c #3F9B3F",
"B. c #3D9E3D",
"V. c #24A724",
"C. c #27A727",
"Z. c #29A029",
"A. c #2BA22B",
"S. c #29A529",
"D. c #2AA62A",
"F. c #2AAF2A",
"G. c #2BAE2B",
"H. c #2CAB2C",
"J. c #31A731",
"K. c #33A633",
"L. c #36A536",
"P. c #34AE34",
"I. c #3EA934",
"U. c #3AA13A",
"Y. c #38A438",
"T. c #3DA83D",
"R. c #3EAD3E",
"E. c #38B638",
"W. c #00C000",
"Q. c #00C100",
"!. c #00C300",
"~. c #00C500",
"^. c #00CB00",
"/. c #00CD00",
"(. c #06CA06",
"). c #09C109",
"_. c #08CE08",
"`. c #07D407",
"'. c #07D807",
"]. c #3F8340",
"[. c #4F844F",
"{. c #478D48",
"}. c #439443",
"|. c #469146",
" X c #419841",
".X c #4E9E4E",
"XX c #539553",
"oX c #509B50",
"OX c #42A742",
"+X c #44A644",
"@X c #47A447",
"#X c #40A840",
"$X c #49A249",
"%X c #4BA04B",
"&X c #4AAA4A",
"*X c #48AD48",
"=X c #4CAA4C",
"-X c #4EAA4E",
";X c #51AA51",
":X c #53A953",
">X c #53AE53",
",X c #55A855",
"<X c #56AD56",
"1X c #58A658",
"2X c #5AA45A",
"3X c #5DA15D",
"4X c #5EA65E",
"5X c #59AE59",
"6X c #5BAE5B",
"7X c #5DAE5D",
"8X c #5EB05E",
"9X c #60AE60",
"0X c #62AE62",
"qX c #63B263",
"wX c #65B365",
"eX c #67B467",
"rX c #69B569",
"tX c #6AB46A",
"yX c #6CB56C",
"uX c #6FB86F",
"iX c #72B972",
"pX c #74BA74",
"aX c #75BA75",
"sX c #77BC77",
"dX c #7CBF7C",
"fX c #7EC17E",
"gX c #81BB81",
"hX c #88BA88",
"jX c #80C180",
"kX c #82C282",
"lX c #85C285",
"zX c #88C988",
"xX c #8CC98C",
"cX c #9AD59A",
"vX c None",
/* pixels */
"vXvXvXvXvXvXvXvXvXvXvXvXvXvXvXvXvXvXvXvXvXvXvXvXvXvXvXvXvXvXvXvX",
"vXvXvXvXvXvXvXvXvXvXvXvXvXvXvXvXvXvXvXvXvXvXvXvXvXvXvXvXvXvXvXvX",
"vXvXvXvXvXvXvXvXvXvXvXvXvXvXvXvXvXvXvXvXvXvXvXvXvXvXvXvXvXvXvXvX",
"vXvXvXvXvXvXvXvXvXvXvXvXvXvXvXvXvXvXvXvXvXvXV [.vXvXvXvXvXvXvXvX",
"vXvXvXvXvXvXvXvXvXvXvXvXvXvXvXvXvXvXvXvXvX% hXc vXvXvXvXvXvXvXvX",
"vXvXvXvXvXvXvXvXvXvXvXvXvXvXvXvXvXvXvX. > gXcX. vXvXvXvXvXvXvXvX",
"vXvXvXvXvXvXvXvXvXvXvXvXvXvXvXvXvXvX. v lXzXxX. vXvXvXvXvXvXvXvX",
"vXvXvXvXvXvXvXvXvXvXvXvXvXvXvXvXvXO z.kXfXdXkXO vXvXvXvXvXvXvXvX",
"vXvXvXvXvXvXvXvXvXvXvXvXvXvXvXvX$ XXsXpXiXuXpX@ vXvXvXvXvXvXvXvX",
"vXvXvXvXvXvXvXvXvXvXvXvXvXvXO : 3XyXrXeXwXqXrX- vXvXvXvXvXvXvXvX",
"vXvXvXvXvXvXvXvXvXvXvXvXvXO x 4X0X0X7X7X5X<X8X< vXvXvXvXvXvXvXvX",
"vXvXvXvXvXvXvXvXvXvXvXvX@ b 2X1X,X;X;X=X=X&X>X4 vXvXvXvXvXvXvXvX",
"vXvXvXvXvXvXvXvXvXvXvX- k.oX.X%X%X@X#X+X#XT.*X8 vXvXvXvXvXvXvXvX",
"vXvXvXvXvXvXvXvXvX@ q x.|.}. XN.N.Y.Y.K.K.J.R.y vXvXvXvXvXvXvXvX",
"vXvXvXvXvXvXvXvX; z B v.b.l.m.n.n.j.A.C.C.V.P.d vXvXvXvXvXvXvXvX",
"vXvXvXvXvXvXvXv.].m M N s.f.d.g.h.A.A.H.F.F.E.h vXvXvXvXvXvXvXvX",
"vXvXvXvXvXvXvX{.n   . = 2 0 l P J ) ' [ <.<.5.h vXvXvXvXvXvXvXvX",
"vXvXvXvXvXvXvXvX3 e & @ < 8 i C H ( [ <.2.w.y.F vXvXvXvXvXvXvXvX",
"vXvXvXvXvXvXvXvXvX< l e 1 8 d A H _ :.6.r.u.p.L vXvXvXvXvXvXvXvX",
"vXvXvXvXvXvXvXvXvXvXvXt k y f A ( [ 2.w.u.!.(.U vXvXvXvXvXvXvXvX",
"vXvXvXvXvXvXvXvXvXvXvXvXy X.F A ( [ 2.r.!.^.`.Y vXvXvXvXvXvXvXvX",
"vXvXvXvXvXvXvXvXvXvXvXvXvXt  .Y ( [ 2.r.!.^.'.T vXvXvXvXvXvXvXvX",
"vXvXvXvXvXvXvXvXvXvXvXvXvXvX4 I #._ <.w.i.~._.Q vXvXvXvXvXvXvXvX",
"vXvXvXvXvXvXvXvXvXvXvXvXvXvXvXvXK &.:.2.r.u.).Q vXvXvXvXvXvXvXvX",
"vXvXvXvXvXvXvXvXvXvXvXvXvXvXvXvXvXh =.1.2.6.a.} vXvXvXvXvXvXvXvX",
"vXvXvXvXvXvXvXvXvXvXvXvXvXvXvXvXvXvXi $.9.:.8.@.vXvXvXvXvXvXvXvX",
"vXvXvXvXvXvXvXvXvXvXvXvXvXvXvXvXvXvXvXy ..*.| @.vXvXvXvXvXvXvXvX",
"vXvXvXvXvXvXvXvXvXvXvXvXvXvXvXvXvXvXvXvXvXE I.%.vXvXvXvXvXvXvXvX",
"vXvXvXvXvXvXvXvXvXvXvXvXvXvXvXvXvXvXvXvXvXvXo.O.vXvXvXvXvXvXvXvX",
"vXvXvXvXvXvXvXvXvXvXvXvXvXvXvXvXvXvXvXvXvXvXvXvXvXvXvXvXvXvXvXvX",
"vXvXvXvXvXvXvXvXvXvXvXvXvXvXvXvXvXvXvXvXvXvXvXvXvXvXvXvXvXvXvXvX",
"vXvXvXvXvXvXvXvXvXvXvXvXvXvXvXvXvXvXvXvXvXvXvXvXvXvXvXvXvXvXvXvX"
};
