/* XPM */
static char *button_categories_xpm[] = {
/* columns rows colors chars-per-pixel */
"32 32 87 1 ",
"  c #010101",
". c #0C0C0C",
"X c gray8",
"o c #1F1B14",
"O c #1C1C1C",
"+ c #222222",
"@ c #2C2C2C",
"# c #323232",
"$ c #3C3C3C",
"% c #5E4928",
"& c #6E5B3E",
"* c #755A30",
"= c #7C6238",
"- c #434445",
"; c #4B4B4B",
": c #535354",
"> c #5D5D5D",
", c #636363",
"< c #6B6B6B",
"1 c #71706E",
"2 c gray45",
"3 c gray48",
"4 c #8A6D3E",
"5 c #957746",
"6 c #958264",
"7 c #B39A72",
"8 c #7F8182",
"9 c #838383",
"0 c #878889",
"q c #8D8D8D",
"w c gray59",
"e c #9B9C9C",
"r c #ACA18F",
"t c #9D9FA1",
"y c #A4A4A4",
"u c #A7AAAE",
"i c #ABABAC",
"p c #B7AFA3",
"a c #B1AFAA",
"s c #AAADB0",
"d c #AFB2B5",
"f c gray70",
"g c #B3B6B9",
"h c #B6BABD",
"j c #BBBCBE",
"k c #C5C0B6",
"l c #CDC4B6",
"z c #87ABD8",
"x c #8EAFDA",
"c c #8EB1DB",
"v c #93B3DB",
"b c #BBBDC0",
"n c #A2BBDB",
"m c #A0BDE1",
"M c #BFC1C4",
"N c #ACC2DD",
"B c #BACADE",
"V c #A5C0E2",
"C c #AAC4E3",
"Z c #B7CCE7",
"A c #BCCEE4",
"S c #C3C3C3",
"D c #C4C7CA",
"F c #C6CACE",
"G c #CBCBCC",
"H c #C5CBD2",
"J c #CACED3",
"K c #C1CEDF",
"L c #CDD1D6",
"P c #C9D3DF",
"I c #D4D4D4",
"U c #D4D6D9",
"Y c #D7D9DC",
"T c #DCDCDC",
"R c #C7D2E1",
"E c #CBD5E2",
"W c #D5DBE3",
"Q c #DBDEE2",
"! c #D3DDEA",
"~ c #DFE0E2",
"^ c #DEE2E8",
"/ c #DCE6F2",
"( c #E5E5E5",
") c #E6E7E8",
"_ c #E9E9E9",
"` c gray94",
"' c None",
/* pixels */
"''''''''''''''''''''''''''''''''",
"'''''''''''''IIUTITTI'''''''''''",
"''+X''''''O::iaiafaft,>$$$$'''''",
"' X:y'.@-;,IIIIIIIIIIIi   .>''''",
"''>D<O@;qqe___________Tyii- >'''",
"'''@+$@1TTILLLLJLLLLLLITTT, #'''",
"''' X@;1TTTTTTTT~~~~TT(~BY< X'''",
"'''' O#<ITTTT((((((~~x/nW(< .'''",
"''''' +;8FHHJJJJJJJL(AzW((2  '''",
"'''''X.+,tUUTTTQQTT(((Q(((3  '''",
"'''''+.X@<S((__(()(((((_()9  '''",
"'''''++.O$3T(__((((((()((~0  +''",
"'''''O+;OO;8(_(()()((Q)_BWq  O''",
"'''''O+<e@+;e(~(~~~((nZVE(w  O''",
"'''''O+,J<+@-uJJJJJJ(~xW((e  O''",
"'''''OO<TT,O@-J~~~~((~Q(((y  X''",
"'''''OO<((G$+@:((_((()((_(i  X''",
"'''''XO<___i@+@9(((_((_((~i  .''",
"'''''OO,__(_9O++f((_((W_KRg  .''",
"'''''XX<(QTTT:++@FTT(EcCB)j  .''",
"'''''XX,JJJJJh$OO-JJ((ZB((S   ''",
"'''''XX<((((((t.+&l_((((((D   ''",
"'''''XX,TT(((((1%47(((((((J   ''",
"'''''XX>IIII~(((r*5k((()((H   ''",
"'''''XX>IIGGGIT((p=6((K`EAT   ''",
"'''''X.,TJDSbhhMFLaoiQvmn(T   ''",
"'''''X.,ULJFShgddhDs>((N(((.  ''",
"'''''..,(_(_)(TIDSkGDT~((((.  ''",
"'''''X.,____(((((~IIT((~~~T.  ''",
"'''''.XX+++OOOOOXXX..  . .    ''",
"''''' ......... ..           '''",
"''''''''''''''''''''''''''''''''"
};
