/* XPM */
static char *button_undo_xpm[] = {
/* columns rows colors chars-per-pixel */
"32 32 124 2 ",
"   c #00331C",
".  c #00391D",
"X  c #003C23",
"o  c #00421F",
"O  c #004325",
"+  c #004C26",
"@  c #004C2A",
"#  c #005827",
"$  c #00542C",
"%  c #005A2C",
"&  c #005430",
"*  c #005B33",
"=  c #005C38",
"-  c #00612C",
";  c #007F2B",
":  c #006234",
">  c #016B35",
",  c #006438",
"<  c #026A39",
"1  c #0F6F3D",
"2  c #017233",
"3  c #017C31",
"4  c #05723A",
"5  c #0B733C",
"6  c #107A3E",
"7  c #107441",
"8  c #227D4E",
"9  c #00AA1E",
"0  c #00BF16",
"q  c #00B21C",
"w  c #00BC19",
"e  c #09BA1D",
"r  c #00842E",
"t  c #048C2C",
"y  c #009B25",
"u  c #03932A",
"i  c #0F932F",
"p  c #0C9A2B",
"a  c #0B8434",
"s  c #158D37",
"d  c #209F38",
"f  c #00A521",
"g  c #0AA227",
"h  c #12A52B",
"j  c #13A82B",
"k  c #00C514",
"l  c #00CA13",
"z  c #00D110",
"x  c #00EC07",
"c  c #00E20A",
"v  c #07E80D",
"b  c #01F504",
"n  c #01FE01",
"m  c #08FF05",
"M  c #0CF40C",
"N  c #14E317",
"B  c #14EC14",
"V  c #1BE51B",
"C  c #1EEB1B",
"Z  c #14F312",
"A  c #19C226",
"S  c #1FC129",
"D  c #27CA2C",
"F  c #21D521",
"G  c #24DD23",
"H  c #2ADE27",
"J  c #2BD52A",
"K  c #29D928",
"L  c #30D22E",
"P  c #32D82F",
"I  c #32CF32",
"U  c #3DCF3D",
"Y  c #34D132",
"T  c #3FD43C",
"R  c #23E222",
"E  c #208548",
"W  c #2FA945",
"Q  c #41B94E",
"!  c #509971",
"~  c #42CE42",
"^  c #44C34B",
"/  c #44D342",
"(  c #4BD24B",
")  c #54C75D",
"_  c #54D654",
"`  c #5CD65C",
"'  c #64CD6B",
"]  c #61D563",
"[  c #66D966",
"{  c #68DC67",
"}  c #6FDC6F",
"|  c #74CE7C",
" . c #75DC75",
".. c #7BDF7B",
"X. c #74E173",
"o. c #7AE17A",
"O. c #6AA686",
"+. c #6CAD86",
"@. c #7FD685",
"#. c #82BD95",
"$. c #93DA99",
"%. c #81E081",
"&. c #8AE389",
"*. c #92E492",
"=. c #9AE69A",
"-. c #97C1AA",
";. c #96D1A1",
":. c #9ECAB0",
">. c #A8CEB9",
",. c #A4EBA3",
"<. c #ADEBAD",
"1. c #B3EDB3",
"2. c #BDEFBD",
"3. c #C2EBC5",
"4. c #C7F7C4",
"5. c #C9F3C9",
"6. c #CBE6D1",
"7. c #D7F8D5",
"8. c #DAFBD7",
"9. c #DCFADA",
"0. c #E8FFE4",
"q. c #EEFFEC",
"w. c #F9FFF6",
"e. c None",
/* pixels */
"e.e.e.e.e.e.e.e.e.e.e.e.e.e.e.e.e.e.e.e.e.e.e.e.e.e.e.e.e.e.e.e.",
"e.e.e.e.e.e.e.e.e.e.e.e.e.e.e.e.e.e.e.e.e.e.e.e.e.e.e.e.e.e.e.e.",
"e.e.e.e.e.e.e.e.e.e.e.e.e.e.e.e.e.e.e.e.e.e.e.e.e.e.e.e.e.e.e.e.",
"e.e.e.e.e.e.e.e.e.e.e.e.e.e.e.e.e.e.e.e.e.e.e.e.e.e.e.e.e.e.e.e.",
"e.e.e.e.e.e.e.e.e.e.e.e.e.e.e.e.e.e.e.e.e.e.e.e.e.e.e.e.e.e.e.e.",
"e.e.e.e.e.e.e.e.e.e.e.e.e.e.e.e.e.e.e.e.e.e.e.e.e.e.e.e.e.e.e.e.",
"e.e.e.e.e.e.e.e.e.e.e.e.o # * 4 5 1 4 , * @ e.e.e.e.e.e.e.e.e.e.",
"e.e.e.e.e.e.e.e.e.e.+ - 7 ! #.;.$.%.' Q d a > & e.e.e.e.e.e.e.e.",
"e.e.e.e.e.e.e.e.e.% > +.6.9.4.,.&.} _ U P K A t , . e.e.e.e.e.e.",
"e.e.e.e.e.e.e.e.- < -.w.8.1.=.%.{ ( Y L K R C B y , e.e.e.e.e.e.",
"e.e.e.e.e.e.e.# 1 >.q.5.<.*.o.` ( I J H R V B M m f : e.e.e.e.e.",
"e.e.e.e.e.e.+ < :.0.2.,.&.} _ U J H R C Z M M n n n f * e.e.e.e.",
"e.e.$ % $ + - +.8.1.=...[ ( Y L S h p g e v n n n n b r O e.e.e.",
"e.> 5 E 6 > 8 3.1.*. .` ~ L K i > * * * , 2 9 n n n n l , e.e.e.",
"% 5 | ..] ^ ^ X...} ` ~ L J i &   e.e.e.e.@ : t c n n n r   e.e.",
"% 6  .[ _ T L F G R R G H i *   e.e.e.e.e.e.e.& 2 k n n w & e.e.",
"e.4 ) _ U L K G N B M n b k ; * e.e.e.e.e.e.e.e.O < q n x > e.e.",
"e., W / I K F V Z M n n n n b 9 , e.e.e.e.e.e.e.e.X : q n u   e.",
"e.% s Y J G V B M b n n n n n n 2 e.e.e.e.e.e.e.e.e.+ < z 9 X e.",
"e.O 2 D G V B Z m n n n n n n l : e.e.e.e.e.e.e.e.e.e.@ r y @ e.",
"e.e.: j C N Z b n n n n n n l >   e.e.e.e.e.e.e.e.e.e.e.& > : e.",
"e.e.@ 3 N M m n n n n n x f ,   e.e.e.e.e.e.e.e.e.e.e.e.e.: > e.",
"e.e.e., e m n n n n n z 3 = e.e.e.e.e.e.e.e.e.e.e.e.e.e.e.e.> e.",
"e.e.e.$ r b n n n c f > @ e.e.e.e.e.e.e.e.e.e.e.e.e.e.e.e.e.O   ",
"e.e.e.e.: y c l y 2 @ e.e.e.e.e.e.e.e.e.e.e.e.e.e.e.e.e.e.e.e.e.",
"e.e.e.e.e.: > * O e.e.e.e.e.e.e.e.e.e.e.e.e.e.e.e.e.e.e.e.e.e.e.",
"e.e.e.e.e.e.e.e.e.e.e.e.e.e.e.e.e.e.e.e.e.e.e.e.e.e.e.e.e.e.e.e.",
"e.e.e.e.e.e.e.e.e.e.e.e.e.e.e.e.e.e.e.e.e.e.e.e.e.e.e.e.e.e.e.e.",
"e.e.e.e.e.e.e.e.e.e.e.e.e.e.e.e.e.e.e.e.e.e.e.e.e.e.e.e.e.e.e.e.",
"e.e.e.e.e.e.e.e.e.e.e.e.e.e.e.e.e.e.e.e.e.e.e.e.e.e.e.e.e.e.e.e.",
"e.e.e.e.e.e.e.e.e.e.e.e.e.e.e.e.e.e.e.e.e.e.e.e.e.e.e.e.e.e.e.e.",
"e.e.e.e.e.e.e.e.e.e.e.e.e.e.e.e.e.e.e.e.e.e.e.e.e.e.e.e.e.e.e.e."
};
