/* XPM */
static char *button_tour_add_xpm[] = {
/* columns rows colors chars-per-pixel */
"32 32 163 2 ",
"   c #A45E01",
".  c #AF6901",
"X  c #B16B05",
"o  c #B46F04",
"O  c #B96E01",
"+  c #B87102",
"@  c #C37400",
"#  c #C77F06",
"$  c #D37D00",
"%  c #C58707",
"&  c #C8820D",
"*  c #DA8201",
"=  c #DD8B09",
"-  c #D89B0C",
";  c #DA9213",
":  c #DF9113",
">  c #DB9A12",
",  c #E88900",
"<  c #E98D02",
"1  c #E18F0B",
"2  c #E58E08",
"3  c #F29000",
"4  c #F99601",
"5  c #E79713",
"6  c #E59817",
"7  c #EE9911",
"8  c #E69E1D",
"9  c #EC9F1D",
"0  c #E0A21D",
"q  c #EDA71E",
"w  c #EAB115",
"e  c #E9BC19",
"r  c #EEBF1F",
"t  c #EDAB27",
"y  c #EEAD2C",
"u  c #F4A623",
"i  c #F7AA27",
"p  c #EDB220",
"a  c #EBBD2E",
"s  c #F8B729",
"d  c #F6BA2B",
"f  c #F6BD29",
"g  c #E1AB30",
"h  c #F6B734",
"j  c #F2BE37",
"k  c #F8BA36",
"l  c #FCB83D",
"z  c #BADD2D",
"x  c #B1CF39",
"c  c #B0CD3B",
"v  c #B0CE3A",
"b  c #B0CE3B",
"n  c #B0CD3C",
"m  c #B1D134",
"M  c #BBE027",
"N  c #BFE624",
"B  c #BBE42A",
"V  c #FAC807",
"C  c #FAC80A",
"Z  c #FDCA0A",
"A  c #FECB0E",
"S  c #FFCC0E",
"D  c #F3C313",
"F  c #F4C310",
"G  c #FECB11",
"H  c #FFCC11",
"J  c #FBCB17",
"K  c #FDCA16",
"L  c #FECB16",
"P  c #FFCC16",
"I  c #F8C61E",
"U  c #FECB19",
"Y  c #FDCB1A",
"T  c #FECB1A",
"R  c #FFCC1A",
"E  c #FDCA1E",
"W  c #FECB1E",
"Q  c #FECE1D",
"!  c #FDCC1F",
"~  c #FFCC1E",
"^  c #FFD01A",
"/  c #C9FB00",
"(  c #CBFE00",
")  c #CDFD00",
"_  c #CFFC01",
"`  c #CCFF00",
"'  c #CAFB04",
"]  c #C7F60D",
"[  c #F4C326",
"{  c #FDCA22",
"}  c #FCCB23",
"|  c #FCCC22",
" . c #FFCC22",
".. c #FECB25",
"X. c #FECB26",
"o. c #FFCC25",
"O. c #F3C22A",
"+. c #FECB2A",
"@. c #FFCC2A",
"#. c #FAC92E",
"$. c #FDCA2E",
"%. c #FECB2E",
"&. c #FFCC2E",
"*. c #FFCE2F",
"=. c #F6C432",
"-. c #F3C334",
";. c #F3C337",
":. c #F9C431",
">. c #F7C835",
",. c #F8C833",
"<. c #FDCA31",
"1. c #FECB31",
"2. c #FDC833",
"3. c #FFCC31",
"4. c #FDC934",
"5. c #FFCC36",
"6. c #FEC738",
"7. c #FCC838",
"8. c #FECB3A",
"9. c #FFCC3A",
"0. c #FFCD3B",
"q. c #FECB3E",
"w. c #FFCF3D",
"e. c #FFCC3E",
"r. c #C0E721",
"t. c #C2E327",
"y. c #C0E821",
"u. c #C0E921",
"i. c #C1E921",
"p. c #C0E822",
"a. c #A5BA54",
"s. c #FEBF4B",
"d. c #B4D343",
"f. c #FBC542",
"g. c #F8C245",
"h. c #FBC646",
"j. c #FECB42",
"k. c #FFCC42",
"l. c #FFCD43",
"z. c #FEC947",
"x. c #FCCA46",
"c. c #FFCB46",
"v. c #FFCC46",
"b. c #FDC84A",
"n. c #FECB4A",
"m. c #FFCE48",
"M. c #FFCC4A",
"N. c #FFCC4B",
"B. c #FFCF4A",
"V. c #FECB4D",
"C. c #FDCB4E",
"Z. c #FFCE4D",
"A. c #FFCC4E",
"S. c #FECA50",
"D. c #FCCA52",
"F. c #FECB52",
"G. c #FFCC52",
"H. c #FECB56",
"J. c #FECB5A",
"K. c #FFCE59",
"L. c #FDCB5E",
"P. c #FFCD5C",
"I. c None",
/* pixels */
"I.I.I.I.I.I.I.I.I.I.I.I.I.I.I.I.I.I.I.I.I.I.I.I.I.I.I.I.I.I.I.I.",
"I.I.I.I.I.I.I.I.I.I.I.I.I.I.I.I.I.I.I.I.I.I.I.I.I.I.I.I.I.I.I.I.",
"I.I.I.I.I.I.I.I.I.I.I.I.I.o >.I.I.I.I.I.I.I.I.I.I.I.I.I.I.I.I.I.",
"I.I.I.I.I.I.I.I.I.I.I.I.I.0 ,.I.I.I.I.I.I.I.I.I.I.I.I.I.I.I.I.I.",
"I.I.I.I.I.I.I.I.I.I.I.I.I.:.<.I.I.I.I.I.I.I.I.I.I.I.I.I.I.I.I.I.",
"I.I.I.I.I.I.I.I.I.I.I.I.& 4.3.a I.I.I.I.I.I.I.I.I.I.I.I.I.I.I.I.",
"I.I.I.I.I.I.I.I.I.I.I.I.; 5.3.#.I.I.I.I.I.I.I.I.I.I.I.I.I.I.I.I.",
"I.I.I.I.I.I.I.I.I.I.I.I.d 5.3.$.I.I.I.I.I.I.I.I.I.I.I.I.I.I.I.I.",
"I.I.I.I.I.I.I.I.I.I.I.= w.5.3.&.I.I.I.I.I.I.I.I.I.I.I.I.I.I.I.I.",
"I.I.I.I.I.I.I.I.I.I.I.q 9.5.3.&.O.I.I.I.I.I.I.I.I.I.I.I.I.I.I.I.",
"I.I.I.I.I.I.I.I.I.I.I.s 9.5.3.&.@.I.I.I.I.I.I.I.I.I.I.I.I.I.I.I.",
"I.I.I.I.I.I.I.I.I.I.t 6.9.5.3.&.@.[ I.I.I.I.I.I.I.I.I.I.I.I.I.I.",
"I.4 s.L.J.H.F.V.n.x.j.e.9.5.3.&.@.X.{ W T L G A Z V I.I.I.I.I.I.",
"I.I.3 l P.H.G.A.M.v.k.e.9.5.3.&.@.o. .~ R P G A V I.I.I.I.I.I.I.",
"I.I.I.< i K.F.A.M.v.k.e.9.5.3.&.@.o. .~ R L H D I.I.I.I.I.I.I.I.",
"I.I.I.I., u F.V.n.v.k.e.9.5.3.&.@.o. .~ R P D I.I.I.I.I.I.I.I.I.",
"I.I.I.I.I.* 7 A.M.v.k.e.9.5.3.&.@.o. .W T e I.m / / I.I.I.I.I.I.",
"I.I.I.I.I.I.I.2 f.v.k.e.9.5.3.&.@.o.{ W I.I.I.n ` _ I.I.I.I.I.I.",
"I.I.I.I.I.I.I.I.1 M.k.e.9.5.3.&.@.o. .I.I.I.I.n ` ` I.I.I.I.I.I.",
"I.I.I.I.I.I.I.I.0 m.k.e.9.5.3.&.@.o. .r I.I.I.n ` ` I.I.I.I.I.I.",
"I.I.I.I.I.I.I.I.y v.k.e.9.5.3.&.@.o. .I I.I.I.x ` ` I.I.I.I.I.I.",
"I.I.I.I.I.I.I.I.k x.k.e.9.5.3.&.@.o.| ~ I.I.I.x ` _ I.I.I.I.I.I.",
"I.I.I.I.I.I.I.$ x.v.k.e.9.4.f &.+.=.t._ _ ` ` ' ` ` ` ` ` ` _ I.",
"I.I.I.I.I.I.I.5 A.v.j.e.7.I.@ p @.;.B ` ` ` ` ` ` ` ` ` ` ` _ I.",
"I.I.I.I.I.I.I.h M.v.v.j I.I.I.O - -.d.y.y.y.N ] ` ` N y.y.y.r.I.",
"I.I.I.I.I.I.I.n.M.x.g I.I.I.I.I.X & } ~ R I.I.n ` ` I.I.I.I.I.I.",
"I.I.I.I.I.I.: V.h.I.I.I.I.I.I.I.I.I.+ w ^ I.I.x ` ` I.I.I.I.I.I.",
"I.I.I.I.I.I.6 g.I.I.I.I.I.I.I.I.I.I.I.. - J I.c ` ` I.I.I.I.I.I.",
"I.I.I.I.I.I.9 I.I.I.I.I.I.I.I.I.I.I.I.I.  % I.n ` ` I.I.I.I.I.I.",
"I.I.I.I.I.I.I.I.I.I.I.I.I.I.I.I.I.I.I.I.I.I.I.x ` _ I.I.I.I.I.I.",
"I.I.I.I.I.I.I.I.I.I.I.I.I.I.I.I.I.I.I.I.I.I.I.a.z M I.I.I.I.I.I.",
"I.I.I.I.I.I.I.I.I.I.I.I.I.I.I.I.I.I.I.I.I.I.I.I.I.I.I.I.I.I.I.I."
};
