/* XPM */
static char *button_categoryadd_xpm[] = {
/* columns rows colors chars-per-pixel */
"32 32 256 2 ",
"   c #015B00",
".  c #056102",
"X  c #126E09",
"o  c #057703",
"O  c #007800",
"+  c #0C7606",
"@  c #147C0B",
"#  c #1A7F0E",
"$  c #066811",
"%  c #077A12",
"&  c #0D4E7D",
"*  c #10687F",
"=  c #038602",
"-  c #13810C",
";  c #168A0B",
":  c #16970D",
">  c #148B14",
",  c #1E9110",
"<  c #218911",
"1  c #299115",
"2  c #2E9618",
"3  c #249919",
"4  c #329C1A",
"5  c #3BA31E",
"6  c #3AA91E",
"7  c #31A21E",
"8  c #24912E",
"9  c #3A9438",
"0  c #3CA528",
"q  c #3BA835",
"w  c #43991A",
"e  c #45972B",
"r  c #45A92F",
"t  c #45AB24",
"y  c #4BB827",
"u  c #53BD2B",
"i  c #4FB231",
"p  c #52B634",
"a  c #5AB937",
"s  c #3F9D48",
"d  c #429542",
"f  c #4BA74A",
"g  c #5AAF4D",
"h  c #5BBD41",
"j  c #58AB55",
"k  c #61BB4F",
"l  c #66B856",
"z  c #7DBB7D",
"x  c #67C343",
"c  c #73C456",
"v  c #77C568",
"b  c #77C173",
"n  c #0D5485",
"m  c #0A578D",
"M  c #0B5A8C",
"N  c #135482",
"B  c #135887",
"V  c #12598D",
"C  c #0A5C93",
"Z  c #105E92",
"A  c #0B6096",
"S  c #0C659B",
"D  c #09699C",
"F  c #126194",
"G  c #1F6897",
"H  c #126499",
"J  c #11689D",
"K  c #0C6DA2",
"L  c #076FA2",
"P  c #126EA2",
"I  c #0771A4",
"U  c #0676AB",
"Y  c #0778AF",
"T  c #0A79AD",
"R  c #0A74A8",
"E  c #1371A4",
"W  c #1477AD",
"Q  c #057CB2",
"!  c #0B7CB1",
"~  c #127FB4",
"^  c #1D79B4",
"/  c #1978BB",
"(  c #2374A3",
")  c #227EAB",
"_  c #2375AA",
"`  c #0581B7",
"'  c #0787BC",
"]  c #0B84BA",
"[  c #0689BE",
"{  c #0C84B9",
"}  c #1383B9",
"|  c #1684B8",
" . c #2282AF",
".. c #3480AE",
"X. c #2284B3",
"o. c #2A8FBD",
"O. c #208CBC",
"+. c #3091BF",
"@. c #3CA8A5",
"#. c #58ABBE",
"$. c #5BBDB8",
"%. c #0A8DC2",
"&. c #138DC3",
"*. c #1882CD",
"=. c #0394CA",
"-. c #0299CF",
";. c #0899CE",
":. c #0991C8",
">. c #1292C7",
",. c #1196CC",
"<. c #149ACC",
"1. c #1F94C7",
"2. c #1F8FDE",
"3. c #1688D5",
"4. c #039DD2",
"5. c #099ED2",
"6. c #119BD2",
"7. c #2089C1",
"8. c #239CCB",
"9. c #2C9DCC",
"0. c #3898C8",
"q. c #2A8FD3",
"w. c #2991D2",
"e. c #3498D3",
"r. c #02A1D7",
"t. c #07A3D8",
"y. c #15A0D7",
"u. c #15A6DD",
"i. c #1CAADA",
"p. c #26A3D2",
"a. c #2AA7D4",
"s. c #21AADC",
"d. c #2DADD9",
"f. c #3BACD6",
"g. c #2FB1DD",
"h. c #3EB5DE",
"j. c #168FE3",
"k. c #1B94E5",
"l. c #1D9AEB",
"z. c #1A96E6",
"x. c #239DEC",
"c. c #2698E5",
"v. c #16ADE4",
"b. c #21A0EF",
"n. c #2EA3ED",
"m. c #36A6EB",
"M. c #23B2E6",
"N. c #23B4E8",
"B. c #38B6E0",
"V. c #32BAEB",
"C. c #24A3F1",
"Z. c #29AAF5",
"A. c #2BAEF9",
"S. c #27A8F4",
"D. c #33AAF2",
"F. c #2EB2FB",
"G. c #32B6FE",
"H. c #35B9FF",
"J. c #3CBAFF",
"K. c #479BC2",
"L. c #49A2CD",
"P. c #4BACD4",
"I. c #55ACD2",
"U. c #59AFD5",
"Y. c #4AB3DB",
"T. c #53B4DB",
"R. c #5BB2DE",
"E. c #5CBCDF",
"W. c #61B6DA",
"Q. c #66B1D4",
"!. c #71BBD9",
"~. c #4BACE2",
"^. c #50ACE8",
"/. c #47B8EF",
"(. c #43B1EE",
"). c #55B8E2",
"_. c #42BDFF",
"`. c #48BFFF",
"'. c #4ABAF6",
"]. c #52B7F3",
"[. c #62BEEE",
"{. c #76BEEE",
"}. c #5DC4E6",
"|. c #4AC1FD",
" X c #52C2FF",
".X c #5BC5FE",
"XX c #5EC8FF",
"oX c #65C3E3",
"OX c #6FC4E2",
"+X c #72C2E6",
"@X c #78C8E8",
"#X c #65C7FC",
"$X c #64CAFF",
"%X c #6CCDFE",
"&X c #6DC1F0",
"*X c #73CEFE",
"=X c #72C9F5",
"-X c #7CD2FE",
";X c #77D1FE",
":X c #84C383",
">X c #8ACA82",
",X c #88C483",
"<X c #93CB8D",
"1X c #95D38A",
"2X c #96CA94",
"3X c #9CD494",
"4X c #9ED198",
"5X c #A0D699",
"6X c #A9D6A5",
"7X c #AADAA6",
"8X c #B6DDB3",
"9X c #B8DDB2",
"0X c #C3E3BE",
"qX c #84CAE5",
"wX c #81D0EA",
"eX c #8ED5ED",
"rX c #91D4EC",
"tX c #99D4EC",
"yX c #88CFF5",
"uX c #8DD4F5",
"iX c #83D5FE",
"pX c #8BD5FB",
"aX c #87D8FF",
"sX c #8DD9FF",
"dX c #97D7F7",
"fX c #9EDAF2",
"gX c #94DBFD",
"hX c #9BDDFB",
"jX c #92D6F8",
"kX c #AEDDEE",
"lX c #A6DBF7",
"zX c #ABDFF7",
"xX c #A2DDF9",
"cX c #A8DFF8",
"vX c #9EE0FE",
"bX c #AEE2F4",
"nX c #A3E0FC",
"mX c #ABE2F9",
"MX c #B3E4F7",
"NX c #BCE8F7",
"BX c #B4E6FA",
"VX c #BAE6FA",
"CX c #B7E8FD",
"ZX c #B9E9FB",
"AX c #B9E0F5",
"SX c #CAE6C8",
"DX c #D4EAD3",
"FX c #C1E8F7",
"GX c #C2ECFA",
"HX c #C9EEF9",
"JX c #D2EFF8",
"KX c #CCF1FB",
"LX c #C7F0FB",
"PX c #D5F3FC",
"IX c #DCF3FB",
"UX c None",
/* pixels */
"UXUXUXUXUXUXUXUXUXUXUXUXUXUXUXUXUXUXUXUXUXUXUXUXUXUXUXUXUXUXUXUX",
"UXUXUXUXUXUXUXUXUXOXrXg.r.r.UXUXUXUXUXUXUXrXwXi.r.UXUXUXUXUXUXUX",
"UXUXUXUXUXUXUXUXUXeXIX}.t.r.i.UXUXUXUXUXd.bXJXB.t.t.s.UXUXUXUXUX",
"UXUXUXUXUXUXUXUX4.h.IXPXHXfXwXE.UXUXUXUX5.oXPXHXNXeXwXoXUXUXUXUX",
"UXUXUXUXUXUXUXUX;.h.LXGXGXLXoXa.UXUXUXUX4.oXCXVXMXNX).a.UXUXUXUX",
"UXUXUXUXUXUXUXUX-.OXZXZXZXNX4.=.UXUXUX=.-.rXBXbXMXtX-.=.UXUXUXUX",
"UXUXUXUX!.W.<.=.-.fXBXCXBXrX-.=.=.=.:.=.;.MXmXmXcXOX-.=.<.Y.UXUX",
"UXUXUX0.rXkXf.p.a.VXmXmXmX@Xp.p.p.p.p.p.Y.mXxXxXmXE.p.p.T.qXP.UX",
"UXUXUX&.T.HXMXVXVXcXcXcXnXBXBXBXBXCXCXCXZXnXhXhXhXcXlXlXAXT.>.UX",
"UXUXUX[ 8.mXfXxXhXxXhXhXnXvXvXvXvXvXvXvXhXgXhXgXjXjXuXuX{.9.%.UX",
"UXUXUX[ 8.nXdXdXdXhXhXhXvXgXgXhXgXgXvXgXgXgXgXgXsXuXpXyXm.8.[ UX",
"UXUXUX] | tXxXxXdXjXsXgXvXvXnXvXvXvXvXvXsXsXsXsXgXgXxX]./.>.' UX",
"UXUXUXUXQ P ( K.sXpXpXgXK. .) )  . . .Q.aXaXaXgXo.)  .X.,.:.] UX",
"UXUXUXUXUXD I I.yXiXiXuX] L D D L L Q OXiXiX-X@X` L D R { { UXUX",
"UXUXUXUXUXR ` {.-XiX-X{.` T UXUXUXT ` yX-X-XiXR.Q UXUXUXUXUXUXUX",
"UXUXUXUXUXT { yX*X;X;XI.Q UXUXUXUXQ O.pX;XgX-X0.Q UXUXUXUXUXUXUX",
"UXUXUXUXUXT o.*X%X%X-X7.T UXUXUXUXQ L.gXiX X.X{ R UXUXUXUXUXUXUX",
"UXUXUXUXUXT L.#X%X%X=XQ T UXUXUX! T R. X X X$.b 6 v UXUXUXUXUXUX",
"UXU.T.i.,.Y R..XXXXX).~ 6.u.u.u.,.! [.XX.XXXf DX0XSXc UXUXUXUXUX",
"+.qXuXV.M.1.&X#X$X#XT.s.N.N.N.N.M.9.%X$X$X%X, 8XDX9X5 #.UXUXUXUX",
"| I.^.c.n.D.A.F.G.G._.|. X X XXX$X%X%X%X*X*X; 6XSX7X4 X.UXUXUXUX",
"K W 2.z.l.b.Z.F.G.H.H.J._.`. X.XXX%X*X*X;X-X@ 4X8X4X2 J UXUXUXUX",
"K E 2.k.l.b.S.A.G.G.H.J.J.`. X X$X$.s o + + @ <X7X<X1 2 5 t c UX",
"P } q.k.x.x.C.A.G.J.J.`.`. X.X$X%X8 <X:X:X:X,X4X5X3X>X>X>Xb g x ",
"E T M & G c.S.Z.F.( N N N N N B ..O z z :X>X<X1X1X3X1Xv q = ; y ",
"UXUXm M ^ k.l.S.D.S m & & & n C 0.% d f f j l k h p t 7 , : 3 y ",
"UXUXF A / j.k.b.w.A Z UXUXUXZ A ^.@.$       . r y i - < 1 4 6 UX",
"UXUXP } 3.3.j.l.^ C UXUXUXUXJ ~ '. X.X$X_ A   r u a - UXUXUXUXUX",
"UXUXUX&.W / *.k.&.S UXUXUXUXP >.7.e.(.|.{ Z   0 y p - UXUXUXUXUX",
"UXUXUXF C M C u.v.E UXUXUXUXUXH C m J v.i.B . 3 : 3 - UXUXUXUXUX",
"UXUXUXUXUXV Z ~ O.UXUXUXUXUXUXUXUXV H } UXUXX e > 9 - UXUXUXUXUX",
"UXUXUXUXUXUXUXUXUXUXUXUXUXUXUXUXUXUXUXUXUXUXUXw = 9 UXUXUXUXUXUX"
};
