/* XPM */
static char *button_random_xpm[] = {
/* columns rows colors chars-per-pixel */
"32 32 246 2 ",
"   c #AC2300",
".  c #B62800",
"X  c #BC2F02",
"o  c #B63B06",
"O  c #C53602",
"+  c #C63903",
"@  c #CC3B02",
"#  c #D13300",
"$  c #DB3D00",
"%  c #E33E00",
"&  c #BB4403",
"*  c #BF4D12",
"=  c #B74124",
"-  c #A44637",
";  c #BD5035",
":  c #B0543F",
">  c #BE573E",
",  c #C84E05",
"<  c #C0460F",
"1  c #C04B09",
"2  c #D64604",
"3  c #D64A00",
"4  c #D4470B",
"5  c #C55204",
"6  c #CC5901",
"7  c #C9590E",
"8  c #DE5B00",
"9  c #D35308",
"0  c #C4471B",
"q  c #C85C10",
"w  c #C0521E",
"e  c #C75E1C",
"r  c #E24200",
"t  c #E55700",
"y  c #EA5C00",
"u  c #ED590B",
"i  c #F75300",
"p  c #F55D01",
"a  c #FE5C01",
"s  c #EB5C10",
"d  c #CF6800",
"f  c #D66306",
"g  c #D97400",
"h  c #E36300",
"j  c #E86100",
"k  c #FF6501",
"l  c #FE6A01",
"z  c #EA7300",
"x  c #F57704",
"c  c #FC7302",
"v  c #FD7A00",
"b  c #F47909",
"n  c #FA7012",
"m  c #F4741D",
"M  c #FE7D1A",
"N  c #C35F3C",
"B  c #DE7D2F",
"V  c #E77B28",
"C  c #EC7E31",
"Z  c #E47F39",
"A  c #B85344",
"S  c #BC5D4C",
"D  c #BB695E",
"F  c #BC7877",
"G  c #BF7C7A",
"H  c #C05F4A",
"J  c #C76741",
"K  c #C36F5B",
"L  c #C9755E",
"P  c #CA7D66",
"I  c #E78200",
"U  c #E38900",
"Y  c #EB8E00",
"T  c #F38404",
"R  c #FE8500",
"E  c #F38C00",
"W  c #FF8900",
"Q  c #EA9400",
"!  c #FF9700",
"~  c #FC9B01",
"^  c #F3970F",
"/  c #F79D0A",
"(  c #E89B1F",
")  c #F7A400",
"_  c #FEA500",
"`  c #F6A800",
"'  c #FFAE01",
"]  c #FEB200",
"[  c #EBA61C",
"{  c #D68A3E",
"}  c #D79037",
"|  c #E48D29",
" . c #F5892C",
".. c #E69123",
"X. c #E7973E",
"o. c #E6AF2C",
"O. c #E2AD3C",
"+. c #C49D5E",
"@. c #DCA746",
"#. c #C7A059",
"$. c #CB8473",
"%. c #D0897A",
"&. c #C09F7C",
"*. c #CAAB69",
"=. c #7E7E9C",
"-. c #8A6D81",
";. c #7CB9CC",
":. c #71B5DA",
">. c #71BFDE",
",. c #67B7E6",
"<. c #6BBDE3",
"1. c #64BBE9",
"2. c #61BCF0",
"3. c #75C2DC",
"4. c #79C5DA",
"5. c #66C1EC",
"6. c #68C4ED",
"7. c #76CCE3",
"8. c #82829F",
"9. c #BD8B91",
"0. c #9CA49E",
"q. c #8585A2",
"w. c #8989A5",
"e. c #848BAB",
"r. c #8E8EAA",
"t. c #9494AE",
"y. c #9596B1",
"u. c #9B9CB4",
"i. c #9D9EBB",
"p. c #92B4B0",
"a. c #A5B4A8",
"s. c #A1A1B7",
"d. c #A1A3BC",
"f. c #ABABBE",
"g. c #C08586",
"h. c #D08E80",
"j. c #D4938A",
"k. c #C69293",
"l. c #C6969A",
"z. c #CB9B9C",
"x. c #D59B95",
"c. c #D39F9B",
"v. c #D89F98",
"b. c #C79DA3",
"n. c #C89EA4",
"m. c #DAA6A2",
"M. c #DEADAA",
"N. c #DDB0AD",
"B. c #D7AEB8",
"V. c #DEB3B2",
"C. c #E0B8B7",
"Z. c #CFCF8E",
"A. c #D5CA98",
"S. c #CACDA8",
"D. c #C2D8B7",
"F. c #8FB7C2",
"G. c #80B2CB",
"H. c #A6A7C1",
"J. c #ADAEC4",
"K. c #A9ABC9",
"L. c #B5B5C6",
"P. c #B3B5CD",
"I. c #B6B9CE",
"U. c #BBBCCB",
"Y. c #AEAED3",
"T. c #AFB0D1",
"R. c #B1B2D0",
"E. c #BCBED5",
"W. c #B3B4DA",
"Q. c #CFBBC9",
"!. c #D0BECD",
"~. c #85CFD5",
"^. c #82CCDD",
"/. c #8DCEDB",
"(. c #8FD0D6",
"). c #8DDAD7",
"_. c #8FD0D9",
"`. c #90D1D8",
"'. c #9DD6DD",
"]. c #BEC1D5",
"[. c #A7DBDF",
"{. c #ABDEDC",
"}. c #A8E7DB",
"|. c #9BDEE2",
" X c #B5E6E2",
".X c #C4C4D2",
"XX c #C1C3D9",
"oX c #C7CADE",
"OX c #CECED9",
"+X c #D4C1D1",
"@X c #E2C1C6",
"#X c #E2C4C8",
"$X c #DAE3CB",
"%X c #C3EADD",
"&X c #CDEDD8",
"*X c #D8F0D4",
"=X c #DFF2D8",
"-X c #C4C6E4",
";X c #C9CBE1",
":X c #C0C3E8",
">X c #C8CBEC",
",X c #CDD1E3",
"<X c #CED1EA",
"1X c #D0D3E7",
"2X c #DFDFE6",
"3X c #D4D5ED",
"4X c #D5DAEC",
"5X c #D9DDEF",
"6X c #C5CEF5",
"7X c #D7D9F1",
"8X c #DADDF3",
"9X c #F0DFE2",
"0X c #C1E7E3",
"qX c #C2E9E0",
"wX c #C8EBE1",
"eX c #D6F1E7",
"rX c #D8F2E6",
"tX c #DBF4EB",
"yX c #DEE1F5",
"uX c #DCE4FD",
"iX c #DEE9FF",
"pX c #E4E4EB",
"aX c #ECE7EE",
"sX c #EAEAEE",
"dX c #F2E4E8",
"fX c #F4E8EE",
"gX c #F9EFEE",
"hX c #E3F7E7",
"jX c #E4F8E8",
"kX c #E9F9EF",
"lX c #E1E4F6",
"zX c #E3E8F4",
"xX c #EAEBF3",
"cX c #E2E6F8",
"vX c #E5EAFB",
"bX c #EAEDFC",
"nX c #F6EDF3",
"mX c #E9F8F1",
"MX c #EDF3FF",
"NX c #E7FCFA",
"BX c #ECFFFC",
"VX c #F5F5F7",
"CX c #F4F5FC",
"ZX c #F5FDFC",
"AX c #FEFEFF",
"SX c None",
/* pixels */
"SXSXSXSXSXSXSXSXSXSXSXSXSXSXSXSXSXSXSXSXSXSXSXSXSXSXSXSXSXSXSXSX",
"SXSXSXSXSXSXSXSXSXSXSXSXSXSXSXSXSXSXSXq.q.SXSXSXSXSXSXSXSXSXSXSX",
"SXSXSXSXSXSXSXSXSXSXSXSXSXSXSXq.u.L.OXaXJ.SXSXSXSXSXSXSXSXSXSXSX",
"SXSXSXSXSXSXSXSXSXSXSXSXq.s..XxXAXAXAXAXOX=.SXSXSXSXSXSXSXSXSXSX",
"SXSXSXSXSXSXSXSXSXSXr.L.sXAXAXAXAXAXAXAXpX8.SXSXSXSXSXSXSXSXSXSX",
"SXSXSXSXSXSXSXSXr..XZXAXAXAXAXAXAXAXAXAXAXy.8.q.q.w.q.q.SXSXSXSX",
"SXSXSXSXSXSX8.L.VXAXAXAXAXAXAXAXAXAXAXAXAXsX,X5X5X5X4X1X;XXXI.w.",
"SXSXSXSXSXt.2XAXAXAXAXAXAXAXAXAXAXAXAXAXAXAXbXcXvXvXvXbXbXbXlXw.",
"SXSXSXSXd.VXAXAXAXAXAXAXAXnXfXnXAXAXAXAXAXAXbXlXcXcXcXcXcXbX;X8.",
"SXSX=.U.AXAXAXAXAXAX9Xj.J e 7 e N j.dXAXAXAXCXlXlXlXcXcXcXbXI.SX",
"SX=..XAXAXAXAXAXAXv.< g ) ' ] ] ) g w V.AXAXCXlXyXlXlXlXcXvXd.SX",
"=..XAXAXAXAXAXAXj.6 ' ] [ O.O.( ~ ] ) 5 m.AXAXlX8XlXyXlXcXyXt.SX",
"SX.XAXAXAXCXAXC.5 _ o.Z.*XhXhX=XA..._ ] 1 N.AXbX8XlXyXyXyX4Xw.SX",
"SXq.pXAXZXAXZXN E O.&XBXZXZXZXZXZX$X| _ Q = gXZX8XyX8XyXcX;Xq.SX",
"SXSXu.ZXAXZX@X6 / D.NXmXkXkXkXkXkXNXS.T ] d M.AXyX8X8XyXlXE.SXSX",
"SXSXSX.XAXAXx.8 @. XtXeXeXeXeXeXrXtX%X} ! U %.AXcX8X8X8XlXP.SXSX",
"SXSXSXw.xXAXh.j *.|.0X0X0X0XqX%X%XwX}.#.W Y P AXCX7X8X8XlXf.SXSX",
"SXSXSXSXJ.AXj.t *.^.'.{.{.{.{.{.{.}.).+.R U $.AXAX7X7X8X8Xi.SXSX",
"SXSXSXSX8.yXV.3 X.4.4.^././._._.`.~.~.{ W g c.ZXAXyX3X8X7Xy.SXSX",
"SXSXSXSXSXd.sX0 c a.5.>.>.3.4.4.4.7.p.c R o B.ZXAXbX3X7X3Xr.SXSX",
"SXSXSXSXSX=.4Xj.$  .F.2.1.<.<.<.6.;.B v ^ f 7 K #XZXyX3X3Xw.SXSX",
"SXSXSXSXSXSXi.xXS r  .h.G.,.,.:.0.V k 8 9 b ! z , L +XuX<Xq.SXSX",
"SXSXSXSXSXSX=.,XsXS # i n C { m k i @ D A + v W R j < g.-Xe.SXSX",
"SXSXSXSXSXSXSXu.MXyXl.> # % % $ @ ; n.iX8XG + l c v c 3 : -.SXSX",
"SXSXSXSXSXSXSX8.,XMXvXyX!.b.k.b.Q.8XuXyXyXiXz.O p l k l y o SXSX",
"SXSXSXSXSXSXSXSXs.MXyX8XuXuXiXuXuX8XyXvXMXMXMX9.X u a a a x & SX",
"SXSXSXSXSXSXSXSX8.4XbX7X8X8X7X8XyXbXMXbX7X>X:X6XF + u a a l f SX",
"SXSXSXSXSXSXSXSXSXJ.MX5X7XyXMXCXMXyX:XW.Y.T.R.R.K.- 4 u k a + SX",
"SXSXSXSXSXSXSXSXSXw.zXMXbXyXoXI.i.r.e.q.q.q.SXSXSXSX. 4 4 O SXSX",
"SXSXSXSXSXSXSXSXSXSX].yXJ.w.SXSXSXSXSXSXSXSXSXSXSXSXSX  SXSXSXSX",
"SXSXSXSXSXSXSXSXSXSXq.q.SXSXSXSXSXSXSXSXSXSXSXSXSXSXSXSXSXSXSXSX",
"SXSXSXSXSXSXSXSXSXSXSXSXSXSXSXSXSXSXSXSXSXSXSXSXSXSXSXSXSXSXSXSX"
};
