/* XPM */
static char *button_assign_random_xpm[] = {
/* columns rows colors chars-per-pixel */
"64 64 170 2 ",
"   c #014D00",
".  c #115606",
"X  c #175E08",
"o  c #066603",
"O  c #0E6F05",
"+  c #1B6B0B",
"@  c #0F7105",
"#  c #127407",
"$  c #167908",
"%  c #1A7D09",
"&  c #1B7614",
"*  c #227C0C",
"=  c #276B18",
"-  c #237A1D",
";  c #287919",
":  c #326926",
">  c #417C40",
",  c #586E54",
"<  c #587752",
"1  c #737F72",
"2  c #018601",
"3  c #0F8E09",
"4  c #1E820B",
"5  c #158E0D",
"6  c #22850C",
"7  c #268A0D",
"8  c #298E0E",
"9  c #2B900F",
"0  c #2D8F10",
"q  c #2F8C1B",
"w  c #318B19",
"e  c #2D9310",
"r  c #319611",
"t  c #359B13",
"y  c #37941D",
"u  c #38941D",
"i  c #32A21F",
"p  c #388D25",
"a  c #398F2A",
"s  c #3BA524",
"d  c #62B81E",
"f  c #4F9E3B",
"g  c #47A624",
"h  c #49A826",
"j  c #4DAB29",
"k  c #51AF2B",
"l  c #54B22E",
"z  c #4EA630",
"x  c #58A83D",
"c  c #4FB230",
"v  c #5AB632",
"b  c #5EB935",
"n  c #65BA22",
"m  c #6ABD26",
"M  c #6CBD2C",
"N  c #60BB37",
"B  c #63BD3A",
"V  c #71BE36",
"C  c #74BF39",
"Z  c #6EC02A",
"A  c #72C22E",
"S  c #67C03D",
"D  c #69C13E",
"F  c #76C532",
"G  c #79C734",
"H  c #7AC836",
"J  c #76C03D",
"K  c #7ECA39",
"L  c #518350",
"P  c #45A244",
"I  c #5DAB4A",
"U  c #5DA859",
"Y  c #63AD4B",
"T  c #66A859",
"R  c #7BBF5F",
"E  c #72866F",
"W  c #718A6F",
"Q  c #729F71",
"!  c #66AE66",
"~  c #78B167",
"^  c #7CA273",
"/  c #77BC77",
"(  c #7FB972",
")  c #6DC442",
"_  c #71C647",
"`  c #7BC244",
"'  c #72C649",
"]  c #7EC448",
"[  c #75C94B",
"{  c #79CB4E",
"}  c #7CCD52",
"|  c #83CD3D",
" . c #86BE75",
".. c #88BD77",
"X. c #83B578",
"o. c #86CF40",
"O. c #87D041",
"+. c #8BD343",
"@. c #81D057",
"#. c #85D15C",
"$. c #96D951",
"%. c #9BDD53",
"&. c #9FE056",
"*. c #A0E157",
"=. c #A4E35B",
"-. c #89CB6B",
";. c #87D260",
":. c #8BD464",
">. c #8FD669",
",. c #92D76D",
"<. c #8EC379",
"1. c #94D770",
"2. c #96D873",
"3. c #99D976",
"4. c #9CDA7B",
"5. c #A7E560",
"6. c #A9E662",
"7. c #ADE867",
"8. c #B0E96D",
"9. c #90A38E",
"0. c #90B685",
"q. c #9FAE9E",
"w. c #A1B9A0",
"e. c #B3B7B3",
"r. c #8EC181",
"t. c #8CC68A",
"y. c #98CA85",
"u. c #99D081",
"i. c #9FDC80",
"p. c #A1DC81",
"a. c #A3CA95",
"s. c #ADD29E",
"d. c #BDED85",
"f. c #ACC2A7",
"g. c #B3DDA0",
"h. c #C1EE8D",
"j. c #C5EF95",
"k. c #CAF09D",
"l. c #CEF1A5",
"z. c #D1F2AA",
"x. c #D6F3B3",
"c. c #D9F4BB",
"v. c #C7D2C3",
"b. c #C6D8C5",
"n. c #CADCC7",
"m. c #D3DBCF",
"M. c #DFDFDD",
"N. c #CDE2CA",
"B. c #DEF6C3",
"V. c #DCEADB",
"C. c #E2F7CB",
"Z. c #E1E2DF",
"A. c #E1EEDE",
"S. c #E5F7D0",
"D. c #E7F8D5",
"F. c #EBF9DC",
"G. c #E5E4E3",
"H. c #E6EAE3",
"J. c #EFECEC",
"K. c #F1EEEE",
"L. c #EFFAE3",
"P. c #EEF6ED",
"I. c #F1FBE7",
"U. c #F4FCED",
"Y. c #F4F2F2",
"T. c #F8F6F6",
"R. c #F7FCF3",
"E. c #F9FDF6",
"W. c #FCFCFC",
"Q. c None",
/* pixels */
"Q.Q.Q.Q.Q.Q.Q.Q.Q.Q.Q.Q.Q.Q.Q.Q.Q.Q.Q.Q.Q.Q.Q.Q.Q.Q.Q.Q.Q.Q.Q.Q.Q.Q.Q.Q.Q.Q.Q.Q.Q.Q.Q.Q.Q.Q.Q.Q.Q.Q.Q.Q.Q.Q.Q.Q.Q.Q.Q.Q.Q.Q.Q.Q.",
"Q.Q.Q.Q.Q.Q.Q.Q.Q.Q.Q.Q.Q.Q.Q.Q.Q.Q.Q.Q.Q.Q.Q.Q.Q.Q.Q.Q.Q.Q.Q.Q.Q.Q.Q.Q.Q.Q.Q.Q.Q.Q.Q.Q.Q.Q.Q.Q.Q.Q.Q.Q.Q.Q.Q.Q.Q.Q.Q.Q.Q.Q.Q.Q.",
"Q.Q.Q.Q.Q.Q.Q.Q.Q.Q.Q.Q.Q.Q.Q.Q.Q.Q.Q.Q.Q.Q.Q.Q.Q.Q.Q.Q.Q.Q.Q.Q.Q.Q.Q.Q.Q.Q.Q.Q.Q.Q.Q.Q.Q.Q.Q.Q.Q.Q.Q.Q.Q.Q.Q.Q.Q.Q.Q.Q.Q.Q.Q.Q.",
"Q.Q.Q.o o o o o o o o o o o o o o o o o o o o o o o o o o o o o o o o o o o o o o o o o o o o o o o o o o o o o o o o o Q.Q.Q.Q.",
"Q.Q.Q.o d.d.h.h.j.k.k.l.z.x.x.c.c.B.C.S.D.D.F.L.I.U.R.R.E.E.W.W.W.E.E.E.R.U.I.I.L.D.D.D.C.C.B.c.c.x.z.l.l.k.j.h.h.d.d.o Q.Q.Q.Q.",
"Q.Q.Q.o 8.#.;.:.:.:.>.>.>.,.1.1.1.2.3.3.3.3.4.4.4.4.4.i.p.p.p.p.p.p.i.4.4.4.4.4.4.3.3.1.1.1.1.1.1.>.>.>.>.:.:.:.:.;.8.o Q.Q.Q.Q.",
"Q.Q.Q.o 7.@.@.@.@.#.#.#.#.#.#.#.;.:.;.:.:.:.:.:.:.>.:.>.:.>.>.>.>.>.>.>.:.>.:.:.>.:.:.:.;.;.;.;.#.#.#.#.@.#.@.#.@.@.7.o Q.Q.Q.Q.",
"Q.Q.Q.o 6.} } { } } } } } } } } } } } } } } } } } } } } } } } } } } } } } } } } } } } } } } } } } } } } } } } } } } 7.o Q.Q.Q.Q.",
"Q.Q.Q.o 5.{ { { { { } { } } } { } { } { } } } } } } } } } } } } } } } } } } } } } } } } { } { } { } { } } { { } { { 5.o Q.Q.Q.Q.",
"Q.Q.Q.o 5.[ [ [ [ [ [ { [ [ { [ { { { { { { { { { { { { { { { { } [ [ } { { { { { { { [ } { { { { { { [ { [ { [ [ [ 5.o Q.Q.Q.Q.",
"Q.Q.Q.O =.[ [ [ [ [ [ [ [ [ [ [ { [ [ [ ' { [ [ ' { [ { [ { { [ { [ [ { { [ [ { [ { [ [ [ [ [ [ [ [ [ [ [ [ [ [ [ [ =.o Q.Q.Q.Q.",
"Q.Q.Q.O =._ _ K _ _ _ _ _ _ [ _ ' ' ' ' ' [ ' [ ' ' [ [ ' ' [ _ [ [ ' [ [ [ ' ' ' [ ' ' ' [ ' ' [ _ [ _ _ _ _ _ _ _ =.O Q.Q.Q.Q.",
"Q.Q.Q.o *._ ) ) ) _ ) ) J ) _ _ _ _ ) _ _ _ _ _ ' _ _ _ _ _ _ _ _ _ _ _ _ _ _ _ ' ' ' _ _ ) ' _ _ _ J _ ) _ ) _ _ ) =.o Q.Q.Q.Q.",
"Q.Q.Q.o *.D ) D D ) D D ) ) ) ) ) ) ) ) ) ) ) _ _ ) ) ) _ _ _ ) ) ) ) _ ) _ ) ) ) ) ) ) ) ) ) ) D _ ) ) ) D ) ) D D =.o Q.Q.Q.Q.",
"Q.Q.Q.o &.S S S D D S D D D D D ) ) S ) ) ) ) i 2 2 2 2 2 2 2 2 2 2 3 s c ) ) ) ) ) S ) ) ) ) S D D D D S S D S D D =.o Q.Q.Q.Q.",
"Q.Q.Q.o &.S S S D D S S S D D D S S B ) B B ) t.W.W.W.W.W.W.W.W.W.W.A./ P 5 c B ) S S S S S S S D S S D S S S S S S *.o Q.Q.Q.Q.",
"Q.Q.Q.o *.N S N N S b b S Z B S B B S B B B B P.W.W.W.W.W.W.W.W.W.W.W.W.W.N.P s B B B B B B B B S S N S B N S B B N &.o Q.Q.Q.Q.",
"Q.Q.Q.o &.N b N b S b S b b b b b B N b N B N W.W.W.W.W.W.W.W.W.W.W.W.W.W.W.W.! g N B N B N N N N N N b N N b N N N &.o Q.Q.Q.Q.",
"Q.Q.Q.o %.b b b b b b b b b b b b b b b b b b W.W.W.W.b B b b b B -.g.W.W.W.W.W.U b b b b b b b b b b b b b b b b b %.o Q.Q.Q.Q.",
"Q.Q.Q.o &.v v v v v v v v v v b v b v b v b v W.W.W.W.b b b b b b b b ' A.W.W.W.V.z v b v b v b b v v b v v v v v v %.O Q.Q.Q.Q.",
"Q.Q.Q.o %.l v v v v l v v v v v v v v v v v v W.W.T.W.v v v v v v v v v u.T.T.W.T.I v v v v v v l v v v v l v v l v &.o Q.Q.Q.Q.",
"Q.Q.Q.o %.l l l l l l l l l l l l l l l c v c T.W.T.T.l l l l l l l l l v J.T.W.T./ v l l l l l l l l l l l l l l l $.o Q.Q.Q.Q.",
"Q.Q.Q.O $.l l l k l k l l k l l l l l l l l l T.T.T.T.l l l l l l k l l k n.T.T.T.r.k l l l l l l l l l l l k l l l %.o Q.Q.Q.Q.",
"Q.Q.Q.o $.k k k k k k k k k k k k j k k j l j T.T.Y.Y.k k k k k k k k k h b.T.Y.T...k k k k k k k k k k k k k k k k %.o Q.Q.Q.Q.",
"Q.Q.Q.o $.k j k j k j j j j j j j j j j j j j Y.Y.Y.Y.k j j j j j j j j p H.Y.Y.Y.} z j j j j j j j j j k j k j j j $.o Q.Q.Q.Q.",
"Q.Q.Q.o $.h h j h j j j j j j j j j j j j j j Y.Y.Y.Y.j j j j j j j j y Q Y.Y.Y.H.j j j j j j h j j j j h j h j j h $.o Q.Q.Q.Q.",
"Q.Q.Q.o $.h h h h h h h h h h h h h h h h h h Y.K.Y.K.h h h h h h w + > Y.Y.Y.K.y.h h h h h h h h h h h h h h h h h $.o Q.Q.Q.Q.",
"Q.Q.Q.o $.g h h g g g g g g g h g g g h g g g K.K.Y.K.            L w.Y.K.K.K.s.g g h h h g g g g g g g g g h h g g $.o Q.Q.Q.Q.",
"Q.Q.Q.o +.t t t t t t t t t t t t t t t t t t K.K.K.K.K.K.K.K.K.K.K.K.J.K.K.<.t t t t t t t t t t t t t t t t t t t +.o Q.Q.Q.Q.",
"Q.Q.Q.o +.t t t t t t t t t t t t t t t t t t K.K.K.J.K.J.K.J.K.K.K.J.J.^ z t t t t t t t t t t t t t t t t t t t t +.o Q.Q.Q.Q.",
"Q.Q.Q.o +.t t t t t t t t t t t t t r t t t r K.K.K.J.K.J.K.K.K.J.J.J.J.9.. t t t t t t t t t r t t t t t t t t t t +.o Q.Q.Q.Q.",
"Q.Q.Q.o +.t r r r r r r t r r r r r r r t t r K.J.J.J.r r r r x a.J.J.J.J.q.+ r r r r r r t t r r r r t r r r r r t +.o Q.Q.Q.Q.",
"Q.Q.Q.o O.r r r r r r r r r r e r r r e r r e J.J.J.K.e r r e e r Y J.J.J.J.W 0 r r r r r e r e r r r e r r r r r e O.o Q.Q.Q.Q.",
"Q.Q.Q.o O.e e e e e e e e e e e e e e e e e e J.J.J.J.e e e e e e e ..J.J.J.M.= e e e e r e e e e e e e e e e e e e O.o Q.Q.Q.Q.",
"Q.Q.Q.o O.0 e e e e e e e e e e e e e e e 0 9 K.K.J.K.e e e e e e 0 0 m.K.K.J.E e e e e e e e e e e e e 0 e e e e e o.o Q.Q.Q.Q.",
"Q.Q.Q.o o.8 9 9 8 8 8 e 8 8 e 8 9 9 9 9 9 9 8 K.K.K.K.9 9 9 9 8 0 0 e ~ K.K.K.M.+ 8 8 e 8 0 8 e 0 8 8 e 8 e 8 8 e 8 | o Q.Q.Q.Q.",
"Q.Q.Q.o | 8 8 8 8 8 8 8 8 8 8 8 9 8 8 8 8 8 8 Y.K.K.K.8 8 8 8 8 8 8 8 y Z.K.K.Y.< 8 8 8 8 8 8 7 8 8 8 8 8 8 8 8 8 8 | o Q.Q.Q.Q.",
"Q.Q.Q.o | 7 7 7 8 7 7 8 7 7 7 8 8 8 8 7 7 8 8 K.Y.K.Y.8 8 8 7 8 7 8 7 7 0.K.Y.K.e.% 7 7 7 8 7 7 8 7 7 8 7 8 8 7 7 7 | o Q.Q.Q.Q.",
"Q.Q.Q.o K 7 7 7 7 7 7 7 7 7 7 7 7 7 7 7 7 7 7 Y.K.Y.Y.7 7 7 7 7 7 7 7 7 f Y.Y.K.Y.: 7 7 7 7 7 7 7 7 7 7 7 7 7 7 7 7 K o Q.Q.Q.Q.",
"Q.Q.Q.o K 7 6 7 7 7 7 7 7 6 7 7 6 7 7 6 6 7 6 Y.Y.Y.Y.6 6 7 7 6 7 7 7 7 6 v.Y.Y.Y.1 7 7 7 7 7 7 7 6 7 6 7 7 6 7 7 7 | o Q.Q.Q.Q.",
"Q.Q.Q.o K 6 6 7 6 6 6 6 6 7 6 6 4 7 6 6 6 6 6 T.Y.T.Y.6 6 7 6 7 6 6 6 6 6 X.Y.Y.T.G.X 6 6 6 6 6 6 6 6 6 6 6 6 6 6 6 H o Q.Q.Q.Q.",
"Q.Q.Q.o H 6 6 4 4 4 6 6 6 4 6 6 6 4 6 6 6 6 4 T.T.T.T.4 4 4 6 6 6 6 6 6 6 q T.T.Y.T., 4 6 6 6 6 6 6 6 6 6 6 6 6 6 6 H o Q.Q.Q.Q.",
"Q.Q.Q.o G 4 4 4 4 4 4 4 4 4 4 4 4 4 4 4 4 4 4 W.T.T.T.4 4 4 4 4 4 4 4 4 4 4 f.T.T.T.e.% 4 4 4 4 4 4 4 4 4 4 4 4 4 4 G o Q.Q.Q.Q.",
"Q.Q.Q.o F 4 4 4 4 4 4 4 4 4 4 4 4 4 4 4 4 4 4 T.T.T.W.% 4 4 4 4 4 4 4 4 4 4 T T.T.W.W.; 4 4 4 4 4 4 4 4 4 4 4 4 4 4 F o Q.Q.Q.Q.",
"Q.Q.Q.o F % 4 % 4 4 % 4 % 4 % 4 % 4 % 4 % % 4 N.T.W.V.% 4 % % % % % % 4 % 4 % N.W.T.T.a 4 % 4 % % 4 % 4 4 % % 4 % 4 F o Q.Q.Q.Q.",
"Q.Q.Q.o A 4 % % % % $ 4 $ % % % % % % % $ 4 % $ % % % % % % % % % % % % % % % % % % % % % % % % % % % % % % % % % % A o Q.Q.Q.Q.",
"Q.Q.Q.o A % $ % % % $ % % % % % $ % % % % % % $ % % % % % % % $ % % % % $ % % % $ % % % % % $ % % % $ % % $ % % % % A o Q.Q.Q.Q.",
"Q.Q.Q.o Z $ $ $ $ $ $ $ $ $ $ $ $ $ $ $ $ $ $ $ $ $ $ $ $ $ $ % $ $ $ $ $ $ $ $ $ $ $ $ $ $ $ $ $ $ $ $ $ $ $ $ $ $ A o Q.Q.Q.Q.",
"Q.Q.Q.o Z $ $ $ $ $ $ $ $ $ $ $ $ $ $ % $ # % # % $ $ $ $ $ $ $ # % # % # % $ $ # % $ % # % $ $ $ $ $ $ % $ # # % # Z o Q.Q.Q.Q.",
"Q.Q.Q.o Z $ # # # # # $ # # $ # # # # # $ # $ # # # # # $ # # # # $ # # # # # # # # # # # # # $ # # $ # # # # % % # m o Q.Q.Q.Q.",
"Q.Q.Q.o m # # $ # # # # # # # # # # # # # # # # # # # # # # # # # # # # # $ # # # # # # # $ # # # # # # # # # # # # M o Q.Q.Q.Q.",
"Q.Q.Q.o m # @ @ # # # # # @ # # # # # # # # # # # # # # # # # # # # # # # # # @ # # # # @ # # @ # @ # # # # # # # @ m o Q.Q.Q.Q.",
"Q.Q.Q.o m @ @ @ @ # @ @ # @ @ # @ @ # @ @ # @ @ # # # @ @ # # @ # # @ @ @ # # # # @ # # @ @ @ # # @ @ @ @ @ @ @ @ @ n o Q.Q.Q.Q.",
"Q.Q.Q.o m @ @ @ @ @ @ @ @ @ @ @ @ @ @ @ @ @ @ @ @ @ @ @ O O O # # @ @ @ @ @ O @ @ @ @ @ @ @ @ @ @ @ @ @ @ @ @ @ @ @ n o Q.Q.Q.Q.",
"Q.Q.Q.o d O O O O O O O O O @ O O O O O O @ O O O O O O O O O O O O O O O O O O O O O O O O O O @ O O O @ O @ O @ @ n o Q.Q.Q.Q.",
"Q.Q.Q.o d O O O O O O O O O O O O O O O O O O O O O O O O O O O O O O O O O O O O O O O O O O O O O O O O O O O O O d o Q.Q.Q.Q.",
"Q.Q.Q.o M & & & & & & & & & & & & & & & & & & & & & & = & & & & & & & & & & & & & & & & & & & & & & & & & & & & & & M o Q.Q.Q.Q.",
"Q.Q.Q.o M - - - - - - - - - & - - - - - - & - - & - - - & - - - & - - - & - & - - - - - & - - - - - - - - - - - - - M o Q.Q.Q.Q.",
"Q.Q.Q.o V - - - - - - - - - - - - - - - - - - - - - ; - - - ; - - ; - - - - - - - - - - - - - - - - - - - - - - - - V o Q.Q.Q.Q.",
"Q.Q.Q.o C V C C C C J J ` J J ` ` ` ` ` ` ` ` ` ] ] ` ` ` @.` @.@.] ] ] ] ] ] ] ` ` ` ` ` ` ` J ` C J J J C C C C V V o Q.Q.Q.Q.",
"Q.Q.Q.o o o o o o o o o o o o o o o o o o o o o o o o o o o o o o o o o o o o o o o o o o o o o o o o o o o o o o o o o Q.Q.Q.Q.",
"Q.Q.Q.Q.Q.Q.Q.Q.Q.Q.Q.Q.Q.Q.Q.Q.Q.Q.Q.Q.Q.Q.Q.Q.Q.Q.Q.Q.Q.Q.Q.Q.Q.Q.Q.Q.Q.Q.Q.Q.Q.Q.Q.Q.Q.Q.Q.Q.Q.Q.Q.Q.Q.Q.Q.Q.Q.Q.Q.Q.Q.Q.Q.Q.",
"Q.Q.Q.Q.Q.Q.Q.Q.Q.Q.Q.Q.Q.Q.Q.Q.Q.Q.Q.Q.Q.Q.Q.Q.Q.Q.Q.Q.Q.Q.Q.Q.Q.Q.Q.Q.Q.Q.Q.Q.Q.Q.Q.Q.Q.Q.Q.Q.Q.Q.Q.Q.Q.Q.Q.Q.Q.Q.Q.Q.Q.Q.Q.Q.",
"Q.Q.Q.Q.Q.Q.Q.Q.Q.Q.Q.Q.Q.Q.Q.Q.Q.Q.Q.Q.Q.Q.Q.Q.Q.Q.Q.Q.Q.Q.Q.Q.Q.Q.Q.Q.Q.Q.Q.Q.Q.Q.Q.Q.Q.Q.Q.Q.Q.Q.Q.Q.Q.Q.Q.Q.Q.Q.Q.Q.Q.Q.Q.Q."
};
