/* XPM */
static char *button_leftall_xpm[] = {
/* columns rows colors chars-per-pixel */
"32 32 135 2 ",
"   c #044504",
".  c #004D00",
"X  c #035303",
"o  c #045B04",
"O  c #155C15",
"+  c #026302",
"@  c #016D02",
"#  c #096209",
"$  c #09690B",
"%  c #017403",
"&  c #007C01",
"*  c #067209",
"=  c #0D770D",
"-  c #0A7C0A",
";  c #10710E",
":  c #126812",
">  c #206B20",
",  c #286A28",
"<  c #2E702E",
"1  c #2D7A2D",
"2  c #2F7530",
"3  c #347D34",
"4  c #377638",
"5  c #3A7F3A",
"6  c #407940",
"7  c #038403",
"8  c #018B01",
"9  c #058209",
"0  c #09840A",
"q  c #058C09",
"w  c #0A8C0D",
"e  c #019301",
"r  c #009C00",
"t  c #06950A",
"y  c #0A900F",
"u  c #09980D",
"i  c #109C0E",
"p  c #0E8611",
"a  c #0F8F13",
"s  c #118212",
"d  c #148B14",
"f  c #1A8C13",
"g  c #178418",
"h  c #1C831C",
"j  c #188918",
"k  c #0D9111",
"l  c #0C9810",
"z  c #149414",
"x  c #1A9213",
"c  c #139A16",
"v  c #159518",
"b  c #1A9319",
"n  c #169B18",
"m  c #1A9C1B",
"M  c #01A301",
"N  c #00AA00",
"B  c #0DA40D",
"V  c #00B300",
"C  c #00BB00",
"Z  c #0AB40A",
"A  c #1BA31C",
"S  c #16AB18",
"D  c #1FA91F",
"F  c #10BC11",
"G  c #238523",
"H  c #218D21",
"J  c #2C862C",
"K  c #2D8C2D",
"L  c #239323",
"P  c #259925",
"I  c #2D952D",
"U  c #2B9D2B",
"Y  c #308430",
"T  c #378C37",
"R  c #378438",
"E  c #3D843D",
"W  c #3A8A3A",
"Q  c #349534",
"!  c #329C32",
"~  c #3E9934",
"^  c #3A923A",
"/  c #3E9C3E",
"(  c #23A723",
")  c #24AD24",
"_  c #2BA42B",
"`  c #29AA29",
"'  c #34A534",
"]  c #3EA934",
"[  c #3AA43A",
"{  c #3DA83D",
"}  c #00C300",
"|  c #00CA00",
" . c #09C109",
".. c #08CE08",
"X. c #00D100",
"o. c #04D804",
"O. c #0CD00C",
"+. c #408341",
"@. c #408C40",
"#. c #4D854D",
"$. c #478D48",
"%. c #459345",
"&. c #419841",
"*. c #4A904A",
"=. c #4B9D4B",
"-. c #529652",
";. c #529C52",
":. c #5E9C5E",
">. c #44A544",
",. c #44A844",
"<. c #4CA34C",
"1. c #4CAA4C",
"2. c #55A455",
"3. c #54AA54",
"4. c #5CA55C",
"5. c #5AAD5A",
"6. c #64A764",
"7. c #63AC63",
"8. c #6AA56A",
"9. c #6BAB6B",
"0. c #64B364",
"q. c #6CB56C",
"w. c #6FB86F",
"e. c #75AC75",
"r. c #74B074",
"t. c #73BA73",
"y. c #7ABD7A",
"u. c #7EC17E",
"i. c #80B180",
"p. c #85BB85",
"a. c #86C586",
"s. c #89C489",
"d. c #88C988",
"f. c #94D394",
"g. c None",
/* pixels */
"g.g.g.g.g.g.g.g.g.g.g.g.g.g.g.g.g.g.g.g.g.g.g.g.g.g.g.g.g.g.g.g.",
"g.g.g.g.g.g.g.g.g.g.g.g.g.g.g.g.g.g.g.g.g.g.g.g.g.g.g.g.g.g.g.g.",
"g.g.g.g.g.g.g.g.g.g.g.g.g.g.g.g.g.g.g.g.g.g.g.g.g.g.g.g.g.g.g.g.",
"g.g.g.g.g.g.g.g.g.g.g.g.g.g.g.g.g.g.6 #.g.g.g.g.g.g.6 #.g.g.g.g.",
"g.g.g.g.g.g.g.g.g.g.g.g.g.g.g.g.g.X p., g.g.g.g.g.X e., g.g.g.g.",
"g.g.g.g.g.g.g.g.g.g.g.g.g.g.g.. O p.f.. g.g.g.. O e.p.X g.g.g.g.",
"g.g.g.g.g.g.g.g.g.g.g.g.g.g.. < s.d.s.. g.g.. , e.r.e.X g.g.g.g.",
"g.g.g.g.g.g.g.g.g.g.g.g.g.. #.s.a.y.y.. g.X E r.e.9.8.o g.g.g.g.",
"g.g.g.g.g.g.g.g.g.g.g.g.X :.y.t.t.q.q.X o -.6.4.4.:.:.+ g.g.g.g.",
"g.g.g.g.g.g.g.g.g.g.. O 6.q.q.0.0.0.0.: 2.5.2.2.;.-.-.@ g.g.g.g.",
"g.g.g.g.g.g.g.g.g.X > 6.7.7.5.5.5.3.3.3.2.<.=.=.%.%.*.@ g.g.g.g.",
"g.g.g.g.g.g.g.g.X 1 4.2.3.3.3.1.1.1.>.>.>.>./ / ^ T @.& g.g.g.g.",
"g.g.g.g.g.g.g.o R ;.=.=.<.>.>.,.{ { { ' ' ! ! I K J T & g.g.g.g.",
"g.g.g.g.g.X # R $.&.&./ / [ [ ' ' ' ' ` _ U P L H h J 7 g.g.g.g.",
"g.g.g.g.o : E E W T Q ! ! U _ _ ` ( ( D A m n x d s G 7 g.g.g.g.",
"g.g.g.E +.4 3 3 Y K K I U U _ ` ) ) ) D ( D m m b j g q g.g.g.g.",
"g.g.g.$.2   . o # @ * & q e r r M M N N M M r e 8 7 & q g.g.g.g.",
"g.g.g.g.$ $ X X + @ & 7 8 e r M N V V V N N M r 8 7 & 8 g.g.g.g.",
"g.g.g.g.g.+ * $ + @ & 7 8 r M N V C C C V V N r e 8 7 t g.g.g.g.",
"g.g.g.g.g.g.g.% = % & 8 e r N V C } | | } C N M r 8 q t g.g.g.g.",
"g.g.g.g.g.g.g.g.% s 7 8 e M N V C | X.X.} C V M r e q t g.g.g.g.",
"g.g.g.g.g.g.g.g.g.@ p w e r N V } | o.O.| C V M r 8 0 t g.g.g.g.",
"g.g.g.g.g.g.g.g.g.g.@ 0 z r M V C | ..c F C N M e 8 0 t g.g.g.g.",
"g.g.g.g.g.g.g.g.g.g.g.g.9 c M N V C  .y q S M r e 7 0 i g.g.g.g.",
"g.g.g.g.g.g.g.g.g.g.g.g.g.& m B N N Z y g.7 A t 8 & - l g.g.g.g.",
"g.g.g.g.g.g.g.g.g.g.g.g.g.g.% v B M B k g.g.& c w & * l g.g.g.g.",
"g.g.g.g.g.g.g.g.g.g.g.g.g.g.g.% a m i k g.g.g.% a g ; i g.g.g.g.",
"g.g.g.g.g.g.g.g.g.g.g.g.g.g.g.g.g.0 ] b g.g.g.g.g.y ~ m g.g.g.g.",
"g.g.g.g.g.g.g.g.g.g.g.g.g.g.g.g.g.g.f f g.g.g.g.g.g.x x g.g.g.g.",
"g.g.g.g.g.g.g.g.g.g.g.g.g.g.g.g.g.g.g.g.g.g.g.g.g.g.g.g.g.g.g.g.",
"g.g.g.g.g.g.g.g.g.g.g.g.g.g.g.g.g.g.g.g.g.g.g.g.g.g.g.g.g.g.g.g.",
"g.g.g.g.g.g.g.g.g.g.g.g.g.g.g.g.g.g.g.g.g.g.g.g.g.g.g.g.g.g.g.g."
};
