/* XPM */
static char *button_assign_xpm[] = {
/* columns rows colors chars-per-pixel */
"64 64 189 2 ",
"   c black",
".  c #00090B",
"X  c #001115",
"o  c #001318",
"O  c #001E23",
"+  c #00252B",
"@  c #002C34",
"#  c #00343E",
"$  c #003B45",
"%  c #003D48",
"&  c #00404C",
"*  c #004551",
"=  c #004559",
"-  c #005369",
";  c #004985",
":  c #004E89",
">  c #00548B",
",  c #005A8E",
"<  c #005F90",
"1  c #006D80",
"2  c #14668E",
"3  c #00738B",
"4  c #006493",
"5  c #006A96",
"6  c #006E98",
"7  c #136D95",
"8  c #007597",
"9  c #00749B",
"0  c #007A9D",
"q  c #0E789F",
"w  c #10739B",
"e  c #39728B",
"r  c #0C7CA4",
"t  c #0062B3",
"y  c #006AB6",
"u  c #006EB8",
"i  c #0074B1",
"p  c #007CB5",
"a  c #0073BB",
"s  c #007BBE",
"d  c #4A7B89",
"f  c #5A7286",
"g  c #5F768A",
"h  c #407897",
"j  c #447C9B",
"k  c #647B8E",
"l  c #697F92",
"z  c #007EC0",
"x  c #0A83AA",
"c  c #008EAD",
"v  c #0087B4",
"b  c #068AB2",
"n  c #0095B3",
"m  c #009BB6",
"M  c #00A3BA",
"N  c #00ABBE",
"B  c #4A8097",
"V  c #4D849B",
"C  c #578792",
"Z  c #50889E",
"A  c #7D848B",
"S  c #6E8395",
"D  c #768594",
"F  c #758A9B",
"G  c #7C8C9A",
"H  c #548DA3",
"J  c #5F8AA2",
"K  c #5892A7",
"L  c #5D93AA",
"P  c #5D99AD",
"I  c #618EA5",
"U  c #6F8FA3",
"Y  c #6394AC",
"T  c #7C90A0",
"R  c #629BB2",
"E  c #689EB4",
"W  c #7B9DB2",
"Q  c #43A3BF",
"!  c #64A3B6",
"~  c #6FA1B5",
"^  c #64A3BA",
"/  c #6AA4BA",
"(  c #65AABD",
")  c #6AABBE",
"_  c #0083C3",
"`  c #0089C6",
"'  c #008DC9",
"]  c #0195C6",
"[  c #0094CC",
"{  c #009ACE",
"}  c #009ED0",
"|  c #149DD0",
" . c #00A2CE",
".. c #00B4C2",
"X. c #00BCC6",
"o. c #00A4D3",
"O. c #00AAD6",
"+. c #00AED8",
"@. c #00B4D5",
"#. c #0FB1D3",
"$. c #00B8D7",
"%. c #00B3DB",
"&. c #00BADD",
"*. c #00BEE0",
"=. c #46A5C1",
"-. c #48A7C3",
";. c #64ABC3",
":. c #6EAFC1",
">. c #72B1C3",
",. c #7BB5C6",
"<. c #72B5C8",
"1. c #00C4DD",
"2. c #00C9DF",
"3. c #00C3E2",
"4. c #00CCE4",
"5. c #00CFE8",
"6. c #00D4EA",
"7. c #00DBEE",
"8. c #00E4F1",
"9. c #00ECF6",
"0. c #00F0F7",
"q. c #00F2F8",
"w. c #858C92",
"e. c #8B9197",
"r. c #83919E",
"t. c #8F959A",
"y. c #90959B",
"u. c #93999E",
"i. c #8394A3",
"p. c #8996A3",
"a. c #8C9AA6",
"s. c #8598A8",
"d. c #8C9CAA",
"f. c #979CA0",
"g. c #9A9EA2",
"h. c #929EAA",
"j. c #8EA0AF",
"k. c #9FA2A6",
"l. c #95A1AD",
"z. c #98A4AF",
"x. c #94A5B3",
"c. c #9AA6B1",
"v. c #9EA9B4",
"b. c #9CADBA",
"n. c #A2A5A8",
"m. c #A5A8AB",
"M. c #AAACAE",
"N. c #A2ACB7",
"B. c #ADAFB1",
"V. c #A5AFB9",
"C. c #AFB1B2",
"Z. c #A6B1BB",
"A. c #ABB5BE",
"S. c #B0B2B3",
"D. c #88B6C7",
"F. c #81B7C8",
"G. c #84B9C9",
"H. c #8CBBCB",
"J. c #A5B4C0",
"K. c #A8B7C3",
"L. c #AEBAC3",
"P. c #B3BCC4",
"I. c #B4BFC8",
"U. c #8AC1D2",
"Y. c #B4C1CC",
"T. c #BBC3CB",
"R. c #96D5E5",
"E. c #A3D9EC",
"W. c #B2E0EB",
"Q. c #B9E2F1",
"!. c #C0C7CE",
"~. c #C0C8CF",
"^. c #C4CBD2",
"/. c #C8CFD4",
"(. c #CBD1D6",
"). c #CED4D9",
"_. c #D1D6DB",
"`. c #D5DADE",
"'. c #D7DCE0",
"]. c #DADEE2",
"[. c #DEE1E5",
"{. c #CFECF3",
"}. c #DEF3F9",
"|. c #E0E4E7",
" X c #E3E6E9",
".X c #E6E9EB",
"XX c #EAECEE",
"oX c #FFFFFF",
"OX c None",
/* pixels */
"OXOXOXOXOXOXOXOXOXOXOXOXOXOXOXOXOXOXOXOXOXOXOXOXOXOXOXOXOXOXOXOXOXOXOXOXOXOXOXOXOXOXOXOXOXOXOXOXOXOXOXOXOXOXOXOXOXOXOXOXOXOXOXOX",
"OXOXOXOXOXOX                                                                                      OXOXOXOXOXOXOXOXOXOXOXOXOXOXOX",
"OXOXOXOX                                                                                            OXOXOXOXOXOXOXOXOXOXOXOXOXOX",
"OXOXOX      . * 1 3 3 3 3 3 3 3 3 d A w.w.w.e.y.u.u.k.k.n.m.M.B.B.C.S.C.B.B.M.m.n.k.k.u.u.t.C O       OXOXOXOXOXOXOXOXOXOXOXOXOX",
"OXOX      $ v y t t t t t t t t y ( V.A.P.T.T.~.(.)._.`.[.[. X.XXXXXXX.X.X X[.].`._.)./.!.T.<.v +       OXOXOXOXOXOXOXOXOXOXOXOX",
"OXOX    $ s t t t t t t t t t t y ) A.A.P.T.~./.(._.`.].[. X.X.XXXXX.X.X|.[.[.`._.)./.~.T.Y.>.y v +       OXOXOXOXOXOXOXOXOXOXOX",
"OX    X i t t t t t t t t t t t y ) A.P.T.~./.(.).`.].[.|..X.XXXXXXX.X X|.[.'.`._.(.^.~.T.A.>.y t i +       OXOXOXOXOXOXOXOXOXOX",
"OX    = t t t t t t t t t t t t y >.P.T.!.~.(.(.`.`.[.[. X.XXXXXXXXX X|.U.-.=.Q Q Q D.T.T.A.) y t t p @       OXOXOXOXOXOXOXOXOX",
"OX    ; t t t t t t t t t t t t u >.T.T.~./.(._.`.].[.|..XXXXXXXXX.X X[.;.b b b b b :.I.A.A.:.u t t t v @       OXOXOXOXOXOXOXOX",
"OX    ; t t t t t t t t t t t t u >.T.T./.(._.`.'.[.|..XXXXXXXXX.X X|.[.;.x x b x x / P.A.Z./ i y t t t p @       OXOXOXOXOXOXOX",
"OX    ; t t t t t t t t t t t t a >.T.^./.).`.`.[.[. X.XXXXXXX.X X X].].;.r x r r x ~ L.Z.N.! u y y t t t p $       OXOXOXOXOXOX",
"OX    ; t t t t t t t t y t t t a ,.^./.(.`.`.[.[..X.XXXXXXX.X.X X[.].`.;.r r r r r E A.V.v.! a u y u u t t v #       OXOXOXOXOX",
"OX    ; t t t t t y u t u u u u a ,./.(._.`.'.[.|..X.XXXXXXX.X X|.].'._.^ q q q r q E V.N.z.R s u u u u t u t s #       OXOXOXOX",
"OX    ; t t t y u t u u u u u u s ,.(.).`.'.[.[..X.XXXXXXX.X.X[.].].`.).R w w w w w Y N.v.z.P s u u u u u u u t s $       OXOXOX",
"OX    ; t t t t u u u u a u s s s G.).`.'.[.[..XXXXXXXXX.X.X[.[.].`._.(.R 7 7 7 7 7 Y v.z.h.Y s z u a u u u y u y v $       OXOX",
"OX    ; t u u u u u a u a a a s _ G.).`.'.[. X.X.XXXXXXX.X.X[.[.`._.)./.L 7 7 7 7 7 I z.h.a.K s a a z a a u u u y u s %       OX",
"OX    : y y u u u a a a a z z z z D._.].]. X X.XXXXXXX.X X[.[.`._.).(.^.L 2 2 2 2 2 I l.a.p.H _ z a a a u u z u u u y s %     OX",
"OX    : u u u u a a a z a s z z _ G.].].|. X.XXXXXXXXX X X[.].`._././.!.W B j j h h U h.a.i.H ` z z z z z u u u z u u y ,     OX",
"OX    > u u a a a a z s z z z z ` H.].|. X.X.XXXXXXX.X.X[.].'._.)./.^.T.I.P.A.V.N.z.h.a.i.r.Z v z z z z a z z u u u u u >     OX",
"OX    > a a u s s a z z z z z _ ` H.]. X XXXXXXXXX.X|.[.].'._.)./.^.!.I.P.A.Z.N.c.h.a.p.r.D V ` _ z z z z z z z z u z u >     OX",
"OX    > a a s z z z z z _ z _ ` ' H.|.|..XXXXXXX.X.X[.[.'.'.).(.^.!.T.P.A.A.V.v.z.a.a.r.G D B ` _ _ _ z z z z z z u a a >     OX",
"OX    > a s a z z z z _ _ ` ` ` ' ~ L.I.I.T.Y.Y.Y.L.L.K.J.Z.b.b.x.x.j.d.s.i.T F F S l k g f e ' ` ` _ _ _ _ z z z z z a >     OX",
"OX    , z a z z z z _ _ ` ` ` ` ' ] ] ] ] ] [ ] ] ] [ ] ] ] ] ] { ] [ ] ] [ ] ] ] ] ] ] ] ` ] ' ` ` ` ` _ z z z z z z a ,     OX",
"OX    , a z z z _ _ _ ` ` ` ` ' [ ' [ [ [ [ [ { { { { } } } { } { { { { { { { { { [ [ [ [ [ ' [ ' ' ' ` ` ` ` z z z z z ,     OX",
"OX    < z z _ _ _ ` ` ` ' ' ' [ [ [ [ { { { { { } } } } } } } }  .o.} } } { } } } [ } [ [ [ [ [ [ ' ' ' ` ` _ ` z z z z <     OX",
"OX    < z z _ _ ` ` ` ` ' [ [ [ [ [ [ { { } } } } } } o.} o.o.o. .o.o.} o.} o.} } } } { } } { [ [ [ [ ' ' ` ` ` _ z z z <     OX",
"OX    < _ _ _ ` ` ' ' ' [ [ [ [ { { } } { } } } o.o.o.o.o.o.o.O.O.o.o.o.o.o.o.o.} o.} } } } [ [ { [ [ ' ' ' ' ` ` _ _ _ <     OX",
"OX    4 _ _ ` ` ' ' ' [ [ [ { [ } } } } o.o.o.o.o.o.O.O.o.O.O.O.o.O.O.O.o.O.o.o.o.o.} } } } } } { { [ [ [ [ ' ' ` ` ` z 4     OX",
"OX    4 _ ` ` ' ' [ [ | E.}.}.}.}.}.}.}.}.}.}.}.}.}.}.}.}.}.}.}.}.}.}.}.}.}.}.}.}.}.}.}.}.}.}.}.}.}.}.E.| [ ' ' ' ` ` ` 4     OX",
"OX    4 ` ` ' ' ' [ [ Q.oXoXoXoXoXoXoXoXoXoXoXoXoXoXoXoXoXoXoXoXoXoXoXoXoXoXoXoXoXoXoXoXoXoXoXoXoXoXoXoXQ.[ [ ' ' ` ` ` 4     OX",
"OX    5 ` ' ' ' [ [ [ oXoXoXoXoXoXoXoXoXoXoXoXoXoXoXoXoXoXoXoXoXoXoXoXoXoXoXoXoXoXoXoXoXoXoXoXoXoXoXoXoXoX[ { ' ' ' ` ` 5     OX",
"OX    5 ` ' [ [ [ { } oXoXoXoXoXoXoXoXoXoXoXoXoXoXoXoXoXoXoXoXoXoXoXoXoXoXoXoXoXoXoXoXoXoXoXoXoXoXoXoXoXoX{ { { [ [ ' ` 5     OX",
"OX    5 ' [ [ [ [ { } oXoXoXoXoXoXoXoXoXoXoXoXoXoXoXoXoXoXoXoXoXoXoXoXoXoXoXoXoXoXoXoXoXoXoXoXoXoXoXoXoXoX{ { [ [ [ ' ' 5     OX",
"OX    5 [ [ [ [ { } } oXoXoXoXoXoXoXoXoXoXoXoXoXoXoXoXoXoXoXoXoXoXoXoXoXoXoXoXoXoXoXoXoXoXoXoXoXoXoXoXoXoX} } { { [ [ ' 5     OX",
"OX    5 [ [ [ { } } } oXoXoXoXoXoXoXoXoXoXoXoXoXoXoXoXoXoXoXoXoXoXoXoXoXoXoXoXoXoXoXoXoXoXoXoXoXoXoXoXoXoXo.} } { [ [ [ 5     OX",
"OX    5 [ [ { { } } o.oXoXoXoXoXoXoXoXoXoXoXoXoXoXoXoXoXoXoXoXoXoXoXoXoXoXoXoXoXoXoXoXoXoXoXoXoXoXoXoXoXoXo.o.{ { { { [ 6     OX",
"OX    6 [ { } } o.} O.oXoXoXoXoXoXoXoXoXoXoXoXoXoXoXoXoXoXoXoXoXoXoXoXoXoXoXoXoXoXoXoXoXoXoXoXoXoXoXoXoXoXO.o.} } { { [ 6     OX",
"OX    6 [ { } } o.o.o.oXoXoXoXoXoXoXoXoXoXoXoXoXoXoXoXoXoXoXoXoXoXoXoXoXoXoXoXoXoXoXoXoXoXoXoXoXoXoXoXoXoXO.o.} } } { [ 6     OX",
"OX    9 [ } } } o.o.O.oXoXoXoXoXoXoXoXoXoXoXoXoXoXoXoXoXoXoXoXoXoXoXoXoXoXoXoXoXoXoXoXoXoXoXoXoXoXoXoXoXoXO.o.o.o.} { { 9     OX",
"OX    9 } } } o.o.O.O.oXoXoXoXoXoXoXoXoXoXoXoXoXoXoXoXoXoXoXoXoXoXoXoXoXoXoXoXoXoXoXoXoXoXoXoXoXoXoXoXoXoXO.O.o.o.} } { 9     OX",
"OX    9 { } } o.O.O.O.oXoXoXoXoXoXoXoXoXoXoXoXoXoXoXoXoXoXoXoXoXoXoXoXoXoXoXoXoXoXoXoXoXoXoXoXoXoXoXoXoXoXO.O.O.o.o.} { 9     OX",
"OX    9 } o.o.O.O.O.+.oXoXoXoXoXoXoXoXoXoXoXoXoXoXoXoXoXoXoXoXoXoXoXoXoXoXoXoXoXoXoXoXoXoXoXoXoXoXoXoXoXoX+.O.O.o.o.} } 9     OX",
"OX    9 } o.o.O.O.+.+.oXoXoXoXoXoXoXoXoXoXoXoXoXoXoXoXoXoXoXoXoXoXoXoXoXoXoXoXoXoXoXoXoXoXoXoXoXoXoXoXoXoX+.+.O.O.o.} } 9     OX",
"OX    9 } o.o.o.O.+.+.oXoXoXoXoXoXoXoXoXoXoXoXoXoXoXoXoXoXoXoXoXoXoXoXoXoXoXoXoXoXoXoXoXoXoXoXoXoXoXoXoXoX%.+.O.O.o.o.} 0     OX",
"OX    9 } o.O.O.O.@.%.oXoXoXoXoXoXoXoXoXoXoXoXoXoXoXoXoXoXoXoXoXoXoXoXoXoXoXoXoXoXoXoXoXoXoXoXoXoXoXoXoXoX%.+.O.O.O.o.o.9     OX",
"OX    9 o.o.O.O.+.+.%.oXoXoXoXoXoXoXoXoXoXoXoXoXoXoXoXoXoXoXoXoXoXoXoXoXoXoXoXoXoXoXoXoXoXoXoXoXoXoXoXoXoX%.%.+.O.O.o.} 0     OX",
"OX    0 o.o.o.O.+.%.%.oXoXoXoXoXoXoXoXoXoXoXoXoXoXoXoXoXoXoXoXoXoXoXoXoXoXoXoXoXoXoXoXoXoXoXoXoXoXoXoXoXoX%.%.+.O.O.o.o.0     OX",
"OX    9 o.O.O.O.%.%.%.oXoXoXoXoXoXoXoXoXoXoXoXoXoXoXoXoXoXoXoXoXoXoXoXoXoXoXoXoXoXoXoXoXoXoXoXoXoXoXoXoXoX%.%.+.O.O.O.O.9     OX",
"OX    0 o.O.O.+.+.%.%.oXoXoXoXoXoXoXoXoXoXoXoXoXoXoXoXoXoXoXoXoXoXoXoXoXoXoXoXoXoXoXoXoXoXoXoXoXoXoXoXoXoX%.%.%.+.O.O.o.9     OX",
"OX    0 } O.O.+.%.%.%.oXoXoXoXoXoXoXoXoXoXoXoXoXoXoXoXoXoXoXoXoXoXoXoXoXoXoXoXoXoXoXoXoXoXoXoXoXoXoXoXoXoX%.%.%.+.O.O.o.0     OX",
"OX    0 o.O.O.+.%.%.&.oXoXoXoXoXoXoXoXoXoXoXoXoXoXoXoXoXoXoXoXoXoXoXoXoXoXoXoXoXoXoXoXoXoXoXoXoXoXoXoXoXoX%.%.%.+.O.O.o.0     OX",
"OX    0 O.O.+.+.+.%.&.oXoXoXoXoXoXoXoXoXoXoXoXoXoXoXoXoXoXoXoXoXoXoXoXoXoXoXoXoXoXoXoXoXoXoXoXoXoXoXoXoXoX&.&.%.+.+.O.O.0     OX",
"OX    0 O.O.+.+.%.%.%.oXoXoXoXoXoXoXoXoXoXoXoXoXoXoXoXoXoXoXoXoXoXoXoXoXoXoXoXoXoXoXoXoXoXoXoXoXoXoXoXoXoX&.%.%.+.+.O.o.0     OX",
"OX    0 O.O.+.+.%.%.*.oXoXoXoXoXoXoXoXoXoXoXoXoXoXoXoXoXoXoXoXoXoXoXoXoXoXoXoXoXoXoXoXoXoXoXoXoXoXoXoXoXoX%.&.%.%.O.O.o.0     OX",
"OX    0 O.O.O.+.%.%.&.W.oXoXoXoXoXoXoXoXoXoXoXoXoXoXoXoXoXoXoXoXoXoXoXoXoXoXoXoXoXoXoXoXoXoXoXoXoXoXoXoXW.&.%.%.+.O.O.O.0     OX",
"OX    9 o.O.O.+.%.%.&.#.R.{.{.{.{.{.{.{.{.{.{.{.{.{.{.{.{.{.{.{.{.{.{.{.{.{.{.{.{.{.{.{.{.{.{.{.{.{.{.R.#.&.%.%.+.+.O.O.9     OX",
"OX    - O.O.O.+.%.%.%.*.%.@.@.%.%.@.$.&.1.1.1.1.2.2.2.2.4.4.4.4.4.4.4.2.2.2.2.1.1.1.&.&.$.1.$.$.@.@.@.%.*.&.%.@.+.+.O.o.-     OX",
"OX    o { O.O.%.%.&.&.&.*.3.3.3.5.5.6.6.6.7.7.7.8.8.9.9.0.q.q.q.q.q.0.0.0.9.9.8.8.7.7.7.6.5.5.4.4.3.3.*.*.&.%.%.%.O.O. .o     OX",
"OXOX    = O.+.+.+.%.&.*.*.3.3.4.4.5.6.6.7.7.7.8.8.8.9.9.0.0.q.q.q.0.0.9.9.9.8.8.8.7.7.7.6.6.5.4.4.3.3.*.&.%.%.%.+.O.O.=     OXOX",
"OXOX      =  .+.%.%.%.*.*.3.3.3.4.5.4.6.6.7.7.7.8.8.8.8.9.9.0.q.0.0.9.9.8.8.8.8.7.7.7.6.6.5.4.4.3.3.*.*.*.%.%.%.+. .=       OXOX",
"OXOXOX      X - 0 c n n m m m M M N N N N N ......X.X...X.X.X.X.X.X.X.X.X.X.........N N N N N M M m m m n n c 0 - X       OXOXOX",
"OXOXOXOX                                                                                                                OXOXOXOX",
"OXOXOXOXOXOX                                                                                                        OXOXOXOXOXOX",
"OXOXOXOXOXOXOXOXOXOXOXOXOXOXOXOXOXOXOXOXOXOXOXOXOXOXOXOXOXOXOXOXOXOXOXOXOXOXOXOXOXOXOXOXOXOXOXOXOXOXOXOXOXOXOXOXOXOXOXOXOXOXOXOX"
};
