/* XPM */
static char *button_tour_edit_xpm[] = {
/* columns rows colors chars-per-pixel */
"32 32 172 2 ",
"   c #252A33",
".  c #272A34",
"X  c #2A2C32",
"o  c #2A2C33",
"O  c #2C2E31",
"+  c #2D2F31",
"@  c #2B2D34",
"#  c #2A2E35",
"$  c #2F3134",
"%  c #303033",
"&  c #323232",
"*  c #333332",
"=  c #323233",
"-  c gray20",
";  c #343332",
":  c #363532",
">  c #393731",
",  c #3D3830",
"<  c #42382B",
"1  c #433A2D",
"2  c #463B2D",
"3  c #4B3E2C",
"4  c #413D32",
"5  c #664B1F",
"6  c #744F19",
"7  c #76511B",
"8  c #4F412C",
"9  c #49442F",
"0  c #554225",
"q  c #5E4623",
"w  c #594527",
"e  c #5D4826",
"r  c #514028",
"t  c #514029",
"y  c #4B4331",
"u  c #4D4730",
"i  c #604927",
"p  c #684C23",
"a  c #765724",
"s  c #7E5820",
"d  c #655830",
"f  c #776626",
"g  c #726129",
"h  c #7E652D",
"j  c #726231",
"k  c #786731",
"l  c #925B0B",
"z  c #885916",
"x  c #875D1D",
"c  c #8A5D1A",
"v  c #9F6107",
"b  c #9D620C",
"n  c #9F6511",
"m  c #96671C",
"M  c #987F1E",
"N  c #A36305",
"B  c #B96F00",
"V  c #B06E0C",
"C  c #BD7305",
"Z  c #AC7110",
"A  c #8C6F2A",
"S  c #8B7528",
"D  c #C47801",
"F  c #C87C0A",
"G  c #A18518",
"H  c #B8821C",
"J  c #A08526",
"K  c #AF9022",
"L  c #B19226",
"P  c #B7902D",
"I  c #A58235",
"U  c #B99731",
"Y  c #CB8006",
"T  c #D98406",
"R  c #D7940B",
"E  c #D99B0B",
"W  c #C39F13",
"Q  c #DA9012",
"!  c #F89300",
"~  c #F89905",
"^  c #E19111",
"/  c #F19E17",
"(  c #D3AB0F",
")  c #C5A015",
"_  c #CAA416",
"`  c #C7A31F",
"'  c #D0A918",
"]  c #D5AC1A",
"[  c #DAB01C",
"{  c #E4A116",
"}  c #E5AA17",
"|  c #EAA71B",
" . c #EDA21D",
".. c #F5A119",
"X. c #E0B51E",
"o. c #EEBF1D",
"O. c #F3BD16",
"+. c #C19E22",
"@. c #C8A32C",
"#. c #D9AF2D",
"$. c #DCAC36",
"%. c #ECA82A",
"&. c #F9AB27",
"*. c #E5B820",
"=. c #EABD23",
"-. c #F3B022",
";. c #F2B12D",
":. c #FAB229",
">. c #F5B92F",
",. c #F8B635",
"<. c #FFCC0C",
"1. c #FFD10B",
"2. c #F0C016",
"3. c #FAC811",
"4. c #FECB11",
"5. c #FECB17",
"6. c #FFCC14",
"7. c #FFCC17",
"8. c #F6C518",
"9. c #FBC918",
"0. c #FFCC1B",
"q. c #FCC81D",
"w. c #FFD31D",
"e. c #F5C426",
"r. c #F9C425",
"t. c #FFCC21",
"y. c #FFCF22",
"u. c #FFCC26",
"i. c #F6C52D",
"p. c #FFCC29",
"a. c #FFCC2C",
"s. c #FFCC2E",
"d. c #FFD228",
"f. c #FFD12F",
"g. c #FFC733",
"h. c #FFCC33",
"j. c #FFCC36",
"k. c #FFCD36",
"l. c #F9C73D",
"z. c #FCC73E",
"x. c #FFCC3B",
"c. c #FECB3E",
"v. c #FFCC3E",
"b. c #FFD23A",
"n. c #BC9042",
"m. c #BF9D54",
"M. c #CBA54F",
"N. c #D0A94E",
"B. c #D6AD4C",
"V. c #DCB24A",
"C. c #C5A051",
"Z. c #E6B945",
"A. c #ECBE43",
"S. c #E2B548",
"D. c #FCBB43",
"F. c #F7C447",
"G. c #FFCC41",
"H. c #FECB44",
"J. c #FECA45",
"K. c #FFCB45",
"L. c #FFCC44",
"P. c #FDC64B",
"I. c #FECB48",
"U. c #FFCB4C",
"Y. c #FECB4F",
"T. c #FFCC4D",
"R. c #FFCE4E",
"E. c #FEC953",
"W. c #FFCC53",
"Q. c #FECB56",
"!. c #FFCC59",
"~. c #FFCB5D",
/* pixels */
"- - - - - - - - - - - - - - - - $ - % ; - - - - - - - - - - - - ",
"- - - - - - - - - - - - - - ; ; A + - - - - - - - - - - - - - - ",
"- - - - - - - - - - - - - - - e s.: - - - - - - - - - - - - - - ",
"- - - - - - - - - - - - - - # Z k.k - - - - - - - - - - - - - - ",
"- - - - - - - - - - - - ; ; < | k.U + % ; ; - - - - - - - - - - ",
"- - - - - - - - - - - - ; % 7 k.k.i.+ ; - - - - - - - - - - - - ",
"- - - - - - - - - - - - - $ H k.h.f.j + - - - - - - - - - - - - ",
"- - - - - - - - - - - - - ; -.j.h.s.#.- - - - - - - - - - - - - ",
"- - - - - - - - - - - - + z g.k.h.h.i.4 ; - ; ; - - - - - - - - ",
"- - - - - - - - - - - - - Q v.k.h.s.s.d % - ; ; - - - - - - - - ",
"- - - - - - * * - % - - 2 >.x.j.h.s.s.@.# % % % - ; ; - - % - - ",
"- - + + + O + + + o O   s x.x.k.h.s.h.d.> # o # # # # # # - # - ",
"- x n.m.C.M.N.B.V.S.Z.A.z.v.x.k.h.s.s.a.e.=.*.X.[ ] ' _ ) W G > ",
"- e ! D.~.!.Q.W.U.T.I.L.G.v.x.k.h.h.a.u.u.t.5.0.6.6.4.<.<.( - - ",
"- % 8 T &.!.Q.W.W.T.I.L.G.v.x.k.h.h.a.a.u.t.0.0.5.6.4.1.M - - - ",
"- - % ; F ..E.Q.U.T.I.L.G.v.x.k.h.s.a.u.p.t.t.0.5.6.3.f + - - - ",
"- - - - - c ~ U.Q.T.I.L.G.v.x.k.h.s.s.a.u.t.0.0.5.O.9 $ - - - - ",
"- - - - - + p T ,.T.I.L.G.z.x.k.h.s.a.u.u.t.t.5.` - - - - - - - ",
"- - - - - - - ; Y  .I.L.G.v.x.k.h.h.a.a.u.t.0.J - - - - - - - - ",
"- - - - - - - - , n ;.G.G.v.x.k.h.s.a.u.p.u.L o - - - - - - - - ",
"- - - - - - - - * r z.L.G.v.x.k.h.s.a.a.y.y.=.  - - - - - - - - ",
"- - - - - - - - $ m L.L.G.v.x.k.h.h.s.u.p.0.w.y - - - - - - - - ",
"- - - - - - - - # ^ L.L.G.v.x.k.h.h.a.a.u.t.5.S - - - - - - - - ",
"- - - - - - - - r :.I.L.G.z.x.x.h.s.a.u.u.t.0.+.$ - - - - - - - ",
"- - - - - - - - x E.L.J.H.c.b.P C { f.p.u.t.q.o.O - - - - - - - ",
"- - - - - - - - F U.I.J.G.l.h + + b F r.u.y.0.w.u - - - - - - - ",
"- - - - - - % + %.U.I.J.$.9 $ - - - q D } y.q.w.K $ - - - - - - ",
"- - - - - - - w z.U.H.I   * % - - - - 1 v R q.9.8.- - - - - - - ",
"- - - - - - % V W.F.u - - - - - - - - - - 6 B O.9.9 - - - - - - ",
"- - - - - - - / U , - - - - - - - - - - - $ 0 N E g - - - - - - ",
"- - - - - - 3 a O - - - - - - - - - - - - - - * l p $ - - - - - ",
"- - - - - - - - - - - - - - - - - - - - - - * - + * - - - - - - "
};
