/* XPM */
static char *button_categoryremove_xpm[] = {
/* columns rows colors chars-per-pixel */
"32 32 152 2 ",
"   c #290D0A",
".  c #390101",
"X  c #3D0E0C",
"o  c #3F3939",
"O  c #400101",
"+  c #4A0E0D",
"@  c #530101",
"#  c #630F0E",
"$  c #740E0D",
"%  c #761F17",
"&  c #68251D",
"*  c #4C3231",
"=  c #443C3C",
"-  c #493F3F",
";  c #742623",
":  c #474141",
">  c #4D4242",
",  c #4F4848",
"<  c #544545",
"1  c #5A4545",
"2  c #554B4B",
"3  c #594B4B",
"4  c #5E5555",
"5  c #624D4D",
"6  c #635353",
"7  c #695353",
"8  c #645B5B",
"9  c #6C5B5B",
"0  c #735C5C",
"q  c #6A6161",
"w  c #736363",
"e  c #7A6666",
"r  c #756A6A",
"t  c #7C6B6B",
"y  c #7C7272",
"u  c #840504",
"i  c #8C0503",
"p  c #840E0D",
"a  c #9C0E0A",
"s  c #981009",
"d  c #9E190F",
"f  c #801714",
"g  c #881111",
"h  c #9B1A13",
"j  c #971F1D",
"k  c #A10000",
"l  c #AC0101",
"z  c #B40101",
"x  c #BE0101",
"c  c #B50E08",
"v  c #BB0E09",
"b  c #A3100D",
"n  c #B2150C",
"m  c #A51515",
"M  c #A81B13",
"N  c #A41D18",
"B  c #AB1F1C",
"V  c #B21515",
"C  c #B21F1C",
"Z  c #89211C",
"A  c #B22316",
"S  c #B3221B",
"D  c #B7281F",
"F  c #862725",
"G  c #9C2524",
"H  c #942E26",
"J  c #9D2C29",
"K  c #9D3A3A",
"L  c #A22624",
"P  c #AA2221",
"I  c #AB2823",
"U  c #AB2E2E",
"Y  c #B32623",
"T  c #BA2421",
"R  c #B32C20",
"E  c #B92D28",
"W  c #AF352F",
"Q  c #B43020",
"!  c #B83126",
"~  c #BB352E",
"^  c #BA3430",
"/  c #C00707",
"(  c #C10E0C",
")  c #C1100D",
"_  c #C53332",
"`  c #A84039",
"'  c #BC4539",
"]  c #C2413D",
"[  c #9C4343",
"{  c #AD4242",
"}  c #AF4B45",
"|  c #A85D5D",
" . c #936663",
".. c #827373",
"X. c #847C7C",
"o. c #8B7B7B",
"O. c #917F7F",
"+. c #987B7B",
"@. c #AB6666",
"#. c #B36C6C",
"$. c #BB6B6B",
"%. c #BE7878",
"&. c #C24443",
"*. c #CE4343",
"=. c #C8494A",
"-. c #D04644",
";. c #CB504A",
":. c #C95A55",
">. c #D55750",
",. c #DA5656",
"<. c #D25A57",
"1. c #DB5856",
"2. c #CE6A65",
"3. c #D56762",
"4. c #D16861",
"5. c #E66969",
"6. c #E86A69",
"7. c #EB7C79",
"8. c #F37C7B",
"9. c #8E8383",
"0. c #958585",
"q. c #968C8C",
"w. c #9C8C8C",
"e. c #9D9292",
"r. c #A39494",
"t. c #A79B9B",
"y. c #AA9D9D",
"u. c #B39D9D",
"i. c #AEA2A2",
"p. c #B2A5A5",
"a. c #B4A9A9",
"s. c #B9ADAD",
"d. c #BDB3B3",
"f. c #C8ACAC",
"g. c #C1B6B6",
"h. c #CBB5B5",
"j. c #C5BBBB",
"k. c #CABEBE",
"l. c #CDC2C2",
"z. c #D2C5C5",
"x. c #D5CACA",
"c. c #D9CDCD",
"v. c #DBD1D1",
"b. c #DFD8D8",
"n. c #E2D5D5",
"m. c #E3DBDB",
"M. c #EADCDC",
"N. c #E5E1E1",
"B. c #EDE4E4",
"V. c #F0E5E5",
"C. c #F0E8E8",
"Z. c None",
/* pixels */
"Z.Z.Z.Z.Z.Z.Z.Z.Z.Z.Z.Z.Z.Z.Z.Z.Z.Z.Z.Z.Z.Z.Z.Z.Z.Z.Z.Z.Z.Z.Z.Z.",
"Z.Z.Z.Z.Z.Z.Z.Z.Z.O.w.9 7 5 Z.Z.Z.Z.Z.Z.Z.t.y.w 7 Z.Z.Z.Z.Z.Z.Z.",
"Z.Z.Z.Z.Z.Z.Z.Z.Z.d.M.o.7 6 0 Z.Z.Z.Z.Z.e k.M.o.7 7 0 Z.Z.Z.Z.Z.",
"Z.Z.Z.Z.Z.Z.Z.Z.6 o.C.V.m.h.p.0.Z.Z.Z.Z.7 r.V.M.v.s.p.0.Z.Z.Z.Z.",
"Z.Z.Z.Z.Z.Z.Z.Z.5 ..M.M.M.M.y.t Z.Z.Z.Z.5 w.n.n.n.m.w.e Z.Z.Z.Z.",
"Z.Z.Z.Z.Z.Z.Z.Z.5 r.n.n.n.n.9 5 Z.Z.Z.Z.5 s.n.v.v.z.5 5 Z.Z.Z.Z.",
"Z.Z.Z.Z.Z.0.9 3 5 h.n.n.n.k.5 3 5 3 5 5 6 x.v.c.v.p.5 5 7 ..Z.Z.",
"Z.Z.Z.Z.a.z...0 0 v.v.v.v.a.0 w w 0 w 0 ..n.x.v.v.w.w w X.p...Z.",
"Z.Z.Z.6 0.m.b.m.m.v.v.c.c.n.m.n.m.m.m.m.N.x.x.x.x.v.c.c.n.q.7 Z.",
"Z.Z.Z.3 0 v.x.x.x.x.c.x.c.v.c.c.c.x.v.x.x.x.x.x.z.z.z.l.h.e 3 Z.",
"Z.Z.Z.3 9 x.z.x.z.c.z.x.x.x.x.x.c.x.x.x.v.x.x.x.z.z.z.z.t.e 3 Z.",
"Z.Z.Z.1 5 l.x.x.z.z.z.z.x.v.v.v.v.v.v.v.x.x.x.x.c.z.c.s.i.0 3 Z.",
"Z.Z.Z.Z.1 6 w X.c.z.z.x.9.e e w e r w e.x.x.x.v.y e e r y 0 3 Z.",
"Z.Z.Z.Z.Z.< 3 9.l.l.l.z.6 < 1 < < < 3 y.x.x.x.d.1 < < 3 7 6 Z.Z.",
"Z.Z.Z.Z.Z.< < y.k.l.l.s.< < Z.Z.Z.< < j.x.x.x.y.< Z.Z.Z.Z.Z.Z.Z.",
"Z.Z.Z.Z.Z.< 3 g.h.k.k.w.< Z.Z.Z.Z.< 4 v.x.v.v...< Z.Z.Z.Z.Z.Z.Z.",
"Z.Z.Z.Z.Z.< 8 k.j.k.l.r < Z.Z.Z.Z.< y b.v.l.k.4 < Z.Z.Z.Z.Z.Z.Z.",
"Z.Z.Z.Z.Z.< ..d.g.j.j.3 < Z.Z.Z.Z.< e.h.%.f.d.< < Z.Z.Z.Z.Z.Z.Z.",
"Z.Z.r 2 > < e.s.g.g.i.> > > > > > > u.Y 4.C +.> > < 0 m ] ~ Z.Z.",
"Z.r.i.8 2 3 a.h.j.j.q.3 3 2 2 2 3 5 P >.8.3.a 1 3 q [ E 8.7.C Z.",
", X.i.w.r.r.t.t.i.p.d.g.j.l.l.l.z.$.D 6.6.6.:.j h.| I 5.6.6.4.k ",
"> , 0.0.w.r.r.u.i.p.a.d.d.j.l.l.x.x.{ ~ ,.,.,.} $ Z <.,.,.<.b Z.",
"- , 0.0.w.w.r.t.i.p.a.g.d.l.l.x.x.v.v.{ ! -.*.*.` &.*.*.;.a Z.Z.",
"> 9 0.0.w.w.r.t.u.a.a.g.j.l.l.x.v.v.b.b.{ R _ _ _ =.&.' a Z.Z.Z.",
"Z.q 8 , 4 w.r.r.y.q 2 2 2 2 2 2 r b.b.m.b.p D V V l n s Z.Z.Z.Z.",
"Z.Z.= = 6 w.e.r.t.: = = = : = = X.v.m.N.#.d c z l l z A i Z.Z.Z.",
"Z.Z.Z.= w 0.w.r.9.= = Z.Z.Z.= = t.v.b.#.d v z z M c z z S u Z.Z.",
"Z.Z., q o.O.0.w.w = Z.Z.Z.Z.> 8 d.x.@.h ( x x N   & x x / Y u Z.",
"Z.Z.Z.r 8 w X.w.y : Z.Z.Z.Z., y y  .H v / x B X Z.. ; v / / E K ",
"Z.Z.Z.: = o = 9.e.2 Z.Z.Z.Z.Z.> : = % T / S + Z.Z.Z.O F / / G g ",
"Z.Z.Z.Z.Z.o = 8 r Z.Z.Z.Z.Z.Z.Z.Z.= * p W # Z.Z.Z.Z.Z.@ J L u Z.",
"Z.Z.Z.Z.Z.Z.Z.Z.Z.Z.Z.Z.Z.Z.Z.Z.Z.Z.Z.Z.% Z.Z.Z.Z.Z.Z.Z.G U Z.Z."
};
