/* XPM */
static char *button_plus_xpm[] = {
/* columns rows colors chars-per-pixel */
"32 32 182 2 ",
"   c #005700",
".  c #015C00",
"X  c #036201",
"o  c #006F00",
"O  c #166E0B",
"+  c #027401",
"@  c #0B7506",
"#  c #037B01",
"$  c #0B7806",
"%  c #0F740C",
"&  c #0F7F0B",
"*  c #14720B",
"=  c #137B0A",
"-  c #197D0D",
";  c #177F11",
":  c #1C7E16",
">  c #277F23",
",  c #018501",
"<  c #048C03",
"1  c #15820C",
"2  c #1A810E",
"3  c #1A8B0E",
"4  c #0C9206",
"5  c #0F9408",
"6  c #119509",
"7  c #16990C",
"8  c #1B9C0F",
"9  c #1C8613",
"0  c #198D13",
"q  c #1E8B1D",
"w  c #1E9210",
"e  c #238612",
"r  c #258C13",
"t  c #22871F",
"y  c #278B1E",
"u  c #338B15",
"i  c #249213",
"p  c #2B9316",
"a  c #2E9A17",
"s  c #2D961A",
"d  c #2A9B1B",
"f  c #339B1A",
"g  c #24A113",
"h  c #2CA717",
"j  c #28A21A",
"k  c #35A31C",
"l  c #3AA41E",
"z  c #36AA1C",
"x  c #39AD1E",
"c  c #298425",
"v  c ForestGreen",
"b  c #249520",
"n  c #299C25",
"m  c #319126",
"M  c #39952C",
"N  c #328D32",
"B  c #349233",
"V  c #3A9436",
"C  c #339A33",
"Z  c #3E9831",
"A  c #3EA521",
"S  c #3EAB20",
"D  c #31A42C",
"F  c #3FA22B",
"G  c #3EB120",
"H  c #39AA33",
"J  c #3FA63D",
"K  c #3EA938",
"L  c #41871D",
"P  c #47971E",
"I  c #439B36",
"U  c #449C3A",
"Y  c #709D28",
"T  c #41A722",
"R  c #45AC24",
"E  c #48AF26",
"W  c #44B423",
"Q  c #4AB527",
"!  c #4BB827",
"~  c #44B328",
"^  c #4DB42C",
"/  c #4DB929",
"(  c #53BD2C",
")  c #44A935",
"_  c #45AB3A",
"`  c #4AAA3E",
"'  c #51AB37",
"]  c #54AC3D",
"[  c #49B33F",
"{  c #50B232",
"}  c #65A126",
"|  c #57C02E",
" . c #59C12F",
".. c #5CC232",
"X. c #62C733",
"o. c #63C834",
"O. c #4C8E49",
"+. c #439842",
"@. c #50944E",
"#. c #4CAD40",
"$. c #4FA54F",
"%. c #54AD43",
"&. c #4CB343",
"*. c #50B745",
"=. c #53B946",
"-. c #5CBD42",
";. c #57B34A",
":. c #59B34D",
">. c #56BA49",
",. c #5CBD4B",
"<. c #56A753",
"1. c #5EAC5A",
"2. c #5EB152",
"3. c #5FBF53",
"4. c #61BC41",
"5. c #6CBE52",
"6. c #65BE5B",
"7. c #65A664",
"8. c #69A067",
"9. c #6DB36C",
"0. c #70B76B",
"q. c #72B86A",
"w. c #79BE6F",
"e. c #72B572",
"r. c #5EC04C",
"t. c #67C146",
"y. c #62C24D",
"u. c #64C452",
"i. c #69C755",
"p. c #6BC857",
"a. c #6BC35A",
"s. c #6ECA5B",
"d. c #73CD5F",
"f. c #7ACD59",
"g. c #6BC263",
"h. c #7AC567",
"j. c #78CB67",
"k. c #7CC26F",
"l. c #76C969",
"z. c #7EC868",
"x. c #79D063",
"c. c #7FD368",
"v. c #7DC171",
"b. c #81AC2B",
"n. c #86BD35",
"m. c #87CF6C",
"M. c #86D76D",
"N. c #81C575",
"B. c #86C778",
"V. c #87CA7A",
"C. c #8BCC7D",
"Z. c #8FDC73",
"A. c #97E079",
"S. c #84BE84",
"D. c #83C081",
"F. c #89C387",
"G. c #8FCE80",
"H. c #90CF81",
"J. c #96CD8E",
"K. c #95D283",
"L. c #9AD485",
"P. c #9ED887",
"I. c #97D288",
"U. c #9CD68B",
"Y. c #9FD88C",
"T. c #A1D88C",
"R. c #A3D694",
"E. c #A3DC91",
"W. c #A1E580",
"Q. c #AAEB86",
"!. c #AEEC8B",
"~. c #A9D7A1",
"^. c #B3DCA7",
"/. c #BAE2AC",
"(. c #BFE6B1",
"). c #C3E4BA",
"_. c #CFEAC7",
"`. c #D1EAC9",
"'. c #D6EAD3",
"]. c #DBEAD8",
"[. c #E2EEDF",
"{. c None",
/* pixels */
"{.{.{.{.{.{.{.{.{.{.{.{.{.{.{.{.{.{.{.{.{.{.{.{.{.{.{.{.{.{.{.{.",
"{.{.{.{.{.{.{.{.{.{.{.{.{.C.,.x x -.Y.{.{.{.{.{.{.{.{.{.{.{.{.{.",
"{.{.{.{.{.{.{.{.{.{.{.{.~.'.G.z z h._.`.{.{.{.{.{.{.{.{.{.{.{.{.",
"{.{.{.{.{.{.{.{.{.{.{.) J.]._.E.E.(.[.^.z.{.{.{.{.{.{.{.{.{.{.{.",
"{.{.{.{.{.{.{.{.{.{.{.d 2.).!.Q.Q.Q./.5.{ {.{.{.{.{.{.{.{.{.{.{.",
"{.{.{.{.{.{.{.{.{.{.{.w i K.W.W.W.W.Y.l S {.{.{.{.{.{.{.{.{.{.{.",
"{.{.{.{.{.{.{.{.{.{.{.3 0 C.A.A.A.A.U.k A {.{.{.{.{.{.{.{.{.{.{.",
"{.{.{.{.{.{.{.{.{.{.{.3 3 C.Z.Z.Z.Z.K.f k {.{.{.{.{.{.{.{.{.{.{.",
"{.{.{.{.{.{.{.{.{.{.{.1 3 V.M.M.M.M.H.f f {.{.{.{.{.{.{.{.{.{.{.",
"{.{.{.{.{.{.{.{.{.{.{.1 1 B.c.c.c.m.C.s f {.{.{.{.{.{.{.{.{.{.{.",
"{.{.{.{.{.{.{.{.{.{.{.1 2 v.x.x.x.x.B.p f {.{.{.{.{.{.{.{.{.{.{.",
"{.{.{.e.q # # $ $ $ $ = = v.d.d.d.d.B.p p f f l A R E 4.T.{.{.{.",
"{.{.e.e.B + + + + $ $ $ = w.p.p.s.s.N.r p p f f A T E 5.L.P.{.{.",
"{.C $.S.F.0.0.e.0.0.q.q.0.V.p.p.p.p.C.v.v.N.N.V.V.G.I.R.R.m.f.{.",
"{., v D.>.:.>.>.>.,.3.3.u.u.i.u.i.i.i.u.u.u.u.,.3.g.J , w.t...{.",
"{.# + 1.&.*.&.*.*.>.>.r.,.y.u.u.u.u.u.u.y.3.l.6.K < , # :./ ( {.",
"{.# + <.#._ [ &.[ *.=.>.r.r.r.y.y.u.x.j.a.>.j 7 4 < , , %.Q ( {.",
"{.# o +.b n D H _ [ *.>.>.r.y.r.t.r.W x z h g 8 5 < , , ;.E / {.",
"{.# o % N N N N B V U U I %.x G W Q 4.%.%.%.%.` ` _ ` ] ^ E ! {.",
"{.{.o X . . . . . X X X X U G Q ! ^ %.- 2 9 r i p a f z S W {.{.",
"{.{.{.X . .     . . . . X I W ! ( ( ] - 2 9 r r p a k l S {.{.{.",
"{.{.{.{.{.{.{.{.{.{.{.. . Z W / | ..] = 2 {.{.{.{.{.{.{.{.{.{.{.",
"{.{.{.{.{.{.{.{.{.{.{.. X M W ! | X.] = 2 {.{.{.{.{.{.{.{.{.{.{.",
"{.{.{.{.{.{.{.{.{.{.{.. . m x ! | X.' = 1 {.{.{.{.{.{.{.{.{.{.{.",
"{.{.{.{.{.{.{.{.{.{.{.. . y h x W ! F = 2 {.{.{.{.{.{.{.{.{.{.{.",
"{.{.{.{.{.{.{.{.{.{.{.. . 9 8 g h h d $ 1 {.{.{.{.{.{.{.{.{.{.{.",
"{.{.{.{.{.{.{.{.{.{.{.. . ; < 5 5 5 0 1 1 {.{.{.{.{.{.{.{.{.{.{.",
"{.{.{.{.{.{.{.{.{.{.{.X * e , , , , t : 1 {.{.{.{.{.{.{.{.{.{.{.",
"{.{.{.{.{.{.{.{.{.{.{.* L Y u # # V O.> 2 {.{.{.{.{.{.{.{.{.{.{.",
"{.{.{.{.{.{.{.{.{.{.{.{.} b.P # , 7.@.c {.{.{.{.{.{.{.{.{.{.{.{.",
"{.{.{.{.{.{.{.{.{.{.{.{.{.n.f , , 9.8.{.{.{.{.{.{.{.{.{.{.{.{.{.",
"{.{.{.{.{.{.{.{.{.{.{.{.{.{.{.{.{.{.{.{.{.{.{.{.{.{.{.{.{.{.{.{."
};
