/* XPM */
static char *button_money_xpm[] = {
/* columns rows colors chars-per-pixel */
"32 32 152 2 ",
"   c #5B3712",
".  c #583B17",
"X  c #6C3D14",
"o  c #613E1F",
"O  c #753515",
"+  c #7D3615",
"@  c #7C3A12",
"#  c #783618",
"$  c #7D3B1B",
"%  c #5C421E",
"&  c #63421B",
"*  c #78401F",
"=  c #714721",
"-  c #7B4320",
";  c #7B4F23",
":  c #7E5422",
">  c #8B3A0D",
",  c #933D0C",
"<  c #863D14",
"1  c #883F15",
"2  c #803C1A",
"3  c #95400E",
"4  c #9B430E",
"5  c #8C4114",
"6  c #874319",
"7  c #8C4319",
"8  c #944415",
"9  c #994512",
"0  c #964915",
"q  c #9E4C15",
"w  c #934618",
"e  c #9B4C19",
"r  c #A54C13",
"t  c #AA4F14",
"y  c #A34E1A",
"u  c #AB5216",
"i  c #A3521C",
"p  c #AC551A",
"a  c #AB5A1C",
"s  c #B05414",
"d  c #B35B1B",
"f  c #B85C18",
"g  c #B6601F",
"h  c #BE611C",
"j  c #814623",
"k  c #8C4D24",
"l  c #865925",
"z  c #915126",
"x  c #9C5624",
"c  c #A05520",
"v  c #A65B23",
"b  c #AA5B21",
"n  c #B25E21",
"m  c #AB602B",
"M  c #B56323",
"N  c #BC6425",
"B  c #BE6925",
"V  c #B46629",
"C  c #B96529",
"Z  c #B36D2F",
"A  c #BB6B2B",
"S  c #B77534",
"D  c #BF7030",
"F  c #BE7E3C",
"G  c #C0631D",
"H  c #C06624",
"J  c #C46B24",
"K  c #CC6E25",
"L  c #C36C2C",
"P  c #CC6D28",
"I  c #CD7327",
"U  c #C5732E",
"Y  c #CB732A",
"T  c #D27329",
"R  c #DB7729",
"E  c #D27A2E",
"W  c #D97C2B",
"Q  c #C67632",
"!  c #CC7731",
"~  c #C57C36",
"^  c #CB7D36",
"/  c #C67E3B",
"(  c #D07E33",
")  c #E37D28",
"_  c #B5833F",
"`  c #DD822F",
"'  c #C5853F",
"]  c #CB833B",
"[  c #CD883D",
"{  c #D38337",
"}  c #DF8533",
"|  c #D1853A",
" . c #D4893F",
".. c #DD8E3F",
"X. c #E0832F",
"o. c #E28532",
"O. c #E68C36",
"+. c #E38E3B",
"@. c #E98F39",
"#. c #F18B33",
"$. c #EA943D",
"%. c #B98243",
"&. c #C48B47",
"*. c #CC8C45",
"=. c #D08E42",
"-. c #CE964D",
";. c #D49345",
":. c #DB9345",
">. c #D29349",
",. c #D59A4E",
"<. c #DE9D4C",
"1. c #CB9750",
"2. c #CD9F57",
"3. c #D79D52",
"4. c #EC9740",
"5. c #EF9A42",
"6. c #F29F42",
"7. c #CDA65B",
"8. c #D6A256",
"9. c #DAA355",
"0. c #D4A75B",
"q. c #DEA759",
"w. c #DDAB5C",
"e. c #E1A04C",
"r. c #EFA248",
"t. c #F2A043",
"y. c #F3A54A",
"u. c #F6AA4C",
"i. c #F8AC4F",
"p. c #E7AB54",
"a. c #E2AD5A",
"s. c #ECB156",
"d. c #EAB65C",
"f. c #FAB753",
"g. c #F2B75C",
"h. c #FABD5C",
"j. c #E3B463",
"k. c #E6B863",
"l. c #F3BD62",
"z. c #FDC45D",
"x. c #F2C264",
"c. c #FBC662",
"v. c #F7CA67",
"b. c #FBCB67",
"n. c #F5CB6B",
"m. c #FACD6B",
"M. c #F7D06E",
"N. c #FBD26D",
"B. c #FED96F",
"V. c #FBD472",
"C. c #FEDA71",
"Z. c None",
/* pixels */
"Z.Z.Z.Z.Z.Z.Z.Z.Z.Z.Z.Z.Z.Z.Z.Z.Z.Z.Z.Z.Z.Z.Z.Z.Z.Z.Z.Z.Z.Z.Z.Z.",
"Z.Z.Z.Z.Z.Z.Z.Z.Z.Z.Z.Z.Z.Z.Z.Z.Z.Z.Z.Z.Z.Z.Z.Z.Z.Z.Z.Z.Z.Z.Z.Z.",
"Z.Z.Z.Z.Z.Z.Z.Z.Z.v.n.n.N.N.M.M.m.V.N.Z.Z.Z.Z.Z.Z.Z.Z.Z.Z.Z.Z.Z.",
"Z.Z.Z.Z.Z.Z.Z.c.B.V.C.C.C.C.C.C.C.V.V.N.Z.Z.Z.Z.Z.Z.Z.Z.Z.Z.Z.Z.",
"Z.Z.Z.Z.Z.Z.Z.h.h.f.f.f.f.f.f.f.f.f.f.h.s.Z.Z.Z.Z.Z.Z.Z.Z.Z.Z.Z.",
"Z.Z.Z.Z.Z.Z.:.5.$.O.@.O.O.O.O.O.O.O.@.$.$.>.Z.Z.Z.Z.Z.Z.Z.Z.Z.Z.",
"Z.Z.Z.Z.Z.Z.Z.Y T J G G G G G G G G K T ! d.3.Z.Z.Z.Z.Z.Z.Z.Z.Z.",
"Z.Z.Z.Z.Z.Z.Z.w.A f d u r r r r t p p D a.y...Z.Z.Z.Z.Z.Z.Z.Z.Z.",
"Z.Z.Z.Z.Z.Z.Z.p.;.b w p y 4 , 3 9 < i [ | T 3.Z.Z.Z.Z.Z.Z.Z.Z.Z.",
"Z.Z.Z.Z.Z.Z.Z.4.a.S < N } z z X.d < i g M 8.Z.Z.Z.Z.Z.Z.Z.Z.Z.Z.",
"Z.Z.Z.Z.Z.Z.Z.^ ( =.M e n y 9 r 3 9 5 w ^ 0.Z.Z.Z.Z.Z.Z.Z.Z.Z.Z.",
"Z.Z.Z.Z.Z.Z.Z.w./ f a 5 e o.m j ! I < x 9.8.Z.Z.Z.Z.Z.Z.Z.Z.Z.Z.",
"Z.Z.Z.Z.Z.Z.Z.*.[ M w p p t 3 > r w w ] ' 0.Z.Z.Z.Z.Z.Z.Z.Z.Z.Z.",
"Z.Z.Z.Z.Z.Z.Z.w.>.F %.-.g.9.%.4.+.6 0 D q.,.Z.Z.Z.Z.Z.Z.Z.Z.Z.Z.",
"Z.Z.Z.Z.Z.Z.x.x.n.n.M.N.N.V.V.M.M.m.e. .] 1.Z.Z.Z.Z.Z.Z.Z.Z.Z.Z.",
"Z.Z.Z.Z.Z.b.V.V.V.B.C.C.C.C.C.C.V.C.V.v.9.Z.Z.Z.Z.Z.Z.Z.Z.Z.Z.Z.",
"Z.Z.Z.Z.z.m.z.z.z.z.z.z.z.z.z.z.z.z.z.m.d.Z.Z.Z.Z.Z.Z.Z.Z.Z.Z.Z.",
"Z.Z.Z.Z.u.u.t.6.t.t.t.$.6.6.6.6.6.6.6.y.u.] Z.Z.Z.Z.Z.Z.Z.Z.Z.Z.",
"Z.Z.Z.p.} @.` W ` W W W W ` R W W W W @.+.*.Z.Z.Z.Z.Z.Z.Z.Z.Z.Z.",
"Z.Z.r.l.] J I H f f f f f f f f f h P P U j.Z.Z.Z.Z.Z.Z.Z.Z.Z.Z.",
"Z.Z...5.j.[ d d d u t r r r r r p p u / j.Z.Z.Z.Z.Z.Z.Z.Z.Z.Z.Z.",
"Z.Z.q.P { *.! i i t r 4 4 , , , w 8 A ;.Z.Z.Z.Z.Z.Z.Z.Z.Z.Z.Z.Z.",
"Z.Z.q.9.M B g 0 O B #.N + e ) T O 5 Z j.Z.Z.Z.Z.Z.Z.Z.Z.Z.Z.Z.Z.",
"Z.Z.8.&.e.N a r 4 q M v k x M q w D 9.*.Z.Z.Z.Z.Z.Z.Z.Z.Z.Z.Z.Z.",
"Z.Z.j.>.A a 5 $ J T y 1 y f q # 5 M S q.Z.Z.Z.Z.Z.Z.Z.Z.Z.Z.Z.Z.",
"Z.Z.:.8.e.M 0 w B ( x - V E v 5 9 D a.,.Z.Z.Z.Z.Z.Z.Z.Z.Z.Z.Z.Z.",
"Z.Z.2.Q ] n 7 7 N H y 5 y p 9 + w B ] ] Z.Z.Z.Z.Z.Z.Z.Z.Z.Z.Z.Z.",
"Z.Z.Z.w.V d e 7 J } x $ V X.b 7 q d / 7.Z.Z.Z.Z.Z.Z.Z.Z.Z.Z.Z.Z.",
"Z.Z.Z.% ;.H p r r s 4 , r r 4 0 e Q _ Z.Z.Z.Z.Z.Z.Z.Z.Z.Z.Z.Z.Z.",
"Z.Z.Z.Z.Z.& @ $ P R y < t K u # @   Z.Z.Z.Z.Z.Z.Z.Z.Z.Z.Z.Z.Z.Z.",
"Z.Z.Z.Z.Z.Z.Z.Z.& l = o ; : . Z.Z.Z.Z.Z.Z.Z.Z.Z.Z.Z.Z.Z.Z.Z.Z.Z.",
"Z.Z.Z.Z.Z.Z.Z.Z.Z.Z.Z.Z.Z.Z.Z.Z.Z.Z.Z.Z.Z.Z.Z.Z.Z.Z.Z.Z.Z.Z.Z.Z."
};
