/* XPM */
static char *button_cancel_xpm[] = {
/* columns rows colors chars-per-pixel */
"32 32 156 2 ",
"   c black",
".  c #010000",
"X  c #020000",
"o  c #090000",
"O  c #0D0000",
"+  c #100000",
"@  c #120000",
"#  c #130000",
"$  c #170000",
"%  c #180000",
"&  c #190000",
"*  c #1A0000",
"=  c #1B0000",
"-  c #1F0000",
";  c #210000",
":  c #220000",
">  c #230000",
",  c #240000",
"<  c #250000",
"1  c #260000",
"2  c #280000",
"3  c #2A0000",
"4  c #2C0000",
"5  c #310000",
"6  c #320000",
"7  c #470000",
"8  c #480000",
"9  c #490000",
"0  c #4A0000",
"q  c #4D0000",
"w  c #4F0000",
"e  c #560000",
"r  c #5B0000",
"t  c #5E0000",
"y  c #5F0000",
"u  c #610000",
"i  c #640000",
"p  c #660000",
"a  c #670000",
"s  c #680000",
"d  c #6C0000",
"f  c #6D0000",
"g  c #6F0000",
"h  c #700000",
"j  c #740000",
"k  c #780000",
"l  c #790000",
"z  c #7B0000",
"x  c #810000",
"c  c #860000",
"v  c #870000",
"b  c #8A0000",
"n  c #8B0000",
"m  c #8E0000",
"M  c #930000",
"N  c #A40000",
"B  c #A50000",
"V  c #AB0000",
"C  c #AD0000",
"Z  c #B10000",
"A  c #B40000",
"S  c #B70000",
"D  c #B80000",
"F  c #BA0000",
"G  c #BB0000",
"H  c #BC0000",
"J  c #BD0000",
"K  c #C00000",
"L  c #C20000",
"P  c #C60000",
"I  c #CA0000",
"U  c #CE0000",
"Y  c #D00000",
"T  c #D10000",
"R  c #D50000",
"E  c #D60000",
"W  c #D70000",
"Q  c #D80000",
"!  c #DD0000",
"~  c #DC0101",
"^  c #DD0101",
"/  c #E10000",
"(  c #E00202",
")  c #E20303",
"_  c #E50000",
"`  c #E50101",
"'  c #E40404",
"]  c #E50606",
"[  c #EB0000",
"{  c #EC0000",
"}  c #F20000",
"|  c #F80000",
" . c #FF0303",
".. c #FF0707",
"X. c #F70D0D",
"o. c #F40F0F",
"O. c #FA0B0B",
"+. c #FF0909",
"@. c #FF0A0A",
"#. c #FF0C0C",
"$. c #FD0E0E",
"%. c #E71414",
"&. c #EF1414",
"*. c #EC1717",
"=. c #E31919",
"-. c #E11E1E",
";. c #EA1919",
":. c #F21111",
">. c #FA1111",
",. c #FA1313",
"<. c #FD1010",
"1. c #F81515",
"2. c #F81717",
"3. c #F51A1A",
"4. c #F21F1F",
"5. c #F51C1C",
"6. c #DE2727",
"7. c #DA2B2B",
"8. c #DC2A2A",
"9. c #DF2B2B",
"0. c #D82F2F",
"q. c #D63131",
"w. c #D43333",
"e. c #D03737",
"r. c #D23737",
"t. c #D73737",
"y. c #DE3232",
"u. c #D63F3F",
"i. c #DD3A3A",
"p. c #E02424",
"a. c #EE2C2C",
"s. c #F32121",
"d. c #F02626",
"f. c #EC3232",
"g. c #EA3838",
"h. c #E93E3E",
"j. c #E93F3F",
"k. c #DC4242",
"l. c #D64949",
"z. c #D55050",
"x. c #E74444",
"c. c #E74545",
"v. c #E64C4C",
"b. c #E55353",
"n. c #E55454",
"m. c #E45A5A",
"M. c #E45B5B",
"N. c #E46262",
"B. c #E36A6A",
"V. c #E37272",
"C. c #E37373",
"Z. c #E37A7A",
"A. c #E37B7B",
"S. c #E38282",
"D. c #E48383",
"F. c None",
/* pixels */
"F.F.F.F.F.F.F.F.F.F.F.F.F.F.F.F.F.F.F.F.F.F.F.F.F.F.F.F.F.F.F.F.",
"F.F.F.F.F.F.F.F.F.F.F.F.F.F.F.F.F.F.F.F.F.F.F.F.F.F.F.F.F.F.F.F.",
"F.F.F.F.F.F.F.    F.F.F.F.F.F.F.F.F.F.F.F.F.F.    F.F.F.F.F.F.F.",
"F.F.F.F.F.F.  3 a   F.F.F.F.F.F.F.F.F.F.F.F.  g 3   F.F.F.F.F.F.",
"F.F.F.F.F.  : H R u   F.F.F.F.F.F.F.F.F.F.  h / A -   F.F.F.F.F.",
"F.F.F.F.  & A z.r.I e   F.F.F.F.F.F.F.F.  a R e.z.Z &   F.F.F.F.",
"F.F.F.F.# C l.D.D.r.K q   F.F.F.F.F.F.  r U r.S.D.l.V # F.F.F.F.",
"F.F.F.O B u.A.A.A.A.w.F 9   F.F.F.F.  e P w.A.A.A.A.u.B O F.F.F.",
"F.F.  M t.V.V.C.C.C.V.q.F 9   F.F.  w K q.C.C.C.V.C.V.t.M   F.F.",
"F.F.  v k.B.B.B.B.B.B.B.0.A 7     q H 0.B.B.B.B.B.B.B.k.b   F.F.",
"F.F.F.  x i.N.N.N.N.N.N.N.7.F 9 9 F 7.N.N.N.N.N.N.N.i.x   F.F.F.",
"F.F.F.F.  z y.m.M.M.M.M.m.m.8.H H 8.m.M.M.m.M.m.m.y.z   F.F.F.F.",
"F.F.F.F.F.  j 9.n.n.n.n.n.n.b.6.8.b.b.b.n.n.n.n.9.j   F.F.F.F.F.",
"F.F.F.F.F.F.  g p.v.v.v.v.v.v.v.v.v.v.v.v.v.v.p.g   F.F.F.F.F.F.",
"F.F.F.F.F.F.F.  a -.c.c.c.x.x.c.c.x.c.c.c.c.-.a   F.F.F.F.F.F.F.",
"F.F.F.F.F.F.F.F.  u =.h.h.x.h.h.h.h.x.h.h.=.y   F.F.F.F.F.F.F.F.",
"F.F.F.F.F.F.F.F.F.  n %.g.g.g.g.g.g.g.g.%.n   F.F.F.F.F.F.F.F.F.",
"F.F.F.F.F.F.F.F.  y T *.f.f.f.f.f.f.f.f.;.U u   F.F.F.F.F.F.F.F.",
"F.F.F.F.F.F.F.  a R *.a.a.a.a.a.a.a.a.a.a.*.R s   F.F.F.F.F.F.F.",
"F.F.F.F.F.F.  h ! *.d.d.d.d.d.d.d.d.d.d.d.d.&.! h   F.F.F.F.F.F.",
"F.F.F.F.F.  l _ ,.s.s.s.s.s.s.4.4.s.s.s.s.s.s.,._ l   F.F.F.F.F.",
"F.F.F.F.  b { o.3.5.5.5.5.4.5.' ] 3.4.4.5.3.5.5.o.{ b   F.F.F.F.",
"F.F.F.  n } o.2.2.5.2.2.3.,.' 6 6 ' ,.,.,.1.2.1.,.,.} n   F.F.F.",
"F.F.F., | O.>.>.>.,.,.>.>.' 4     4 ' >.1.1.1.,.>.>.O.| , F.F.F.",
"F.F.F., _ #.,.,.,.#.,.#.! ,   F.F.  , / #.,.#.,.>.,.#._ , F.F.F.",
"F.F.F.  , ! +.+.#.#.+.! :   F.F.F.F.  : ! +.#.#.#.+.! ,   F.F.F.",
"F.F.F.F.  & T +.+...Q &   F.F.F.F.F.F.  & Q ..+...T &   F.F.F.F.",
"F.F.F.F.F.F.# K ..U & F.F.F.F.F.F.F.F.F.F.$ T ..K # F.F.F.F.F.F.",
"F.F.F.F.F.F.F.o b # F.F.F.F.F.F.F.F.F.F.F.F.# b o F.F.F.F.F.F.F.",
"F.F.F.F.F.F.F.F.  F.F.F.F.F.F.F.F.F.F.F.F.F.F.  F.F.F.F.F.F.F.F.",
"F.F.F.F.F.F.F.F.F.F.F.F.F.F.F.F.F.F.F.F.F.F.F.F.F.F.F.F.F.F.F.F.",
"F.F.F.F.F.F.F.F.F.F.F.F.F.F.F.F.F.F.F.F.F.F.F.F.F.F.F.F.F.F.F.F."
};
