/* XPM */
static char *button_user_xpm[] = {
/* columns rows colors chars-per-pixel */
"32 32 167 2 ",
"   c #043D75",
".  c #04407A",
"X  c #84634A",
"o  c #8A694F",
"O  c #876951",
"+  c #8D6C52",
"@  c #916F55",
"#  c #927156",
"$  c #96745A",
"%  c #9A785E",
"&  c #977961",
"*  c #9B7C63",
"=  c #A07F66",
"-  c #A38164",
";  c #A5866D",
":  c #A7886F",
">  c #AB8B72",
",  c #B2957C",
"<  c #B79B7D",
"1  c #BB9C7C",
"2  c #004283",
"3  c #00458B",
"4  c #074888",
"5  c #0B4D8E",
"6  c #004E9C",
"7  c #00509F",
"8  c #0D569F",
"9  c #0F589D",
"0  c #135393",
"q  c #195895",
"w  c #1A5C9B",
"e  c #265B91",
"r  c #3B6289",
"t  c #2E6193",
"y  c #22609A",
"u  c #2F6498",
"i  c #316496",
"p  c #386B9D",
"a  c #0154A4",
"s  c #0057AA",
"d  c #195FA4",
"f  c #105DA8",
"g  c #005DB4",
"h  c #1C62A6",
"j  c #1560A9",
"k  c #1C66AD",
"l  c #0C62B2",
"z  c #0063BD",
"x  c #0D67BA",
"c  c #1465B1",
"v  c #1B69B2",
"b  c #1169B9",
"n  c #2266A9",
"m  c #256BAE",
"M  c #296EAF",
"N  c #3C73A6",
"B  c #286DB0",
"V  c #2D72B2",
"C  c #3076B6",
"Z  c #337BBB",
"A  c #617B9A",
"S  c #4376A6",
"D  c #457DB2",
"F  c #0065C1",
"G  c #006CCB",
"H  c #006FD1",
"J  c #347FC0",
"K  c #7E96B0",
"L  c #1C82D9",
"P  c #3783C5",
"I  c #3B85C5",
"U  c #3C87C8",
"Y  c #3D88C9",
"T  c #438BC9",
"R  c #4D92CD",
"E  c #5F92C1",
"W  c #5495CD",
"Q  c #5397D0",
"!  c #5598D1",
"~  c #5A9CD2",
"^  c #6395C1",
"/  c #6997C1",
"(  c #6898C5",
")  c #669CC9",
"_  c #7BAED8",
"`  c #B49A81",
"'  c #BC9E85",
"]  c #89A4BF",
"[  c #98A2BD",
"{  c #92A8BC",
"}  c #A0AFBC",
"|  c gray71",
" . c #C3A181",
".. c #C9A481",
"X. c #C0A78B",
"o. c #D1AF8D",
"O. c #D7B08B",
"+. c #C7AF97",
"@. c #C9AE95",
"#. c #C6B09A",
"$. c #CBB39C",
"%. c #D6B594",
"&. c #D9B591",
"*. c #DBBC9E",
"=. c #E2BC94",
"-. c #EABE94",
";. c #E2BF9C",
":. c #D3BCA5",
">. c #EAC097",
",. c #ECC59D",
"<. c #DDC2A7",
"1. c #DDC8B1",
"2. c #EBC6A1",
"3. c #EEC9A3",
"4. c #EDCDA9",
"5. c #F0CFAB",
"6. c #F1D1AD",
"7. c #E3CEBA",
"8. c #EFD1B2",
"9. c #F1D4B3",
"0. c #F3D7BA",
"q. c #F3D9BE",
"w. c #82B4DD",
"e. c #ADB3CA",
"r. c #B2BAC1",
"t. c #B9BECC",
"y. c #A4BDD5",
"u. c #BFC1C3",
"i. c #AFC7DD",
"p. c #BDC3D5",
"a. c #B5C8DB",
"s. c #BFD1E1",
"d. c #CBCBCB",
"f. c #DFD1C5",
"g. c #C2C7D7",
"h. c #C4CBD2",
"j. c #C4CAD9",
"k. c #CBCFDE",
"l. c #CCD1DD",
"z. c #D2D4D6",
"x. c #DAD5D3",
"c. c #DFDFDF",
"v. c #ECD8C3",
"b. c #E7D8CA",
"n. c #F3DCC3",
"m. c #F3DEC9",
"M. c #E3D9D0",
"N. c #E9DFD7",
"B. c #F5E1CC",
"V. c #F6E4D2",
"C. c #CFD3E0",
"Z. c #D2D6E2",
"A. c #D6DAE4",
"S. c #D9DDE6",
"D. c #DBDEE8",
"F. c #DDE1EA",
"G. c #E3E1E3",
"H. c #E3E5EC",
"J. c #E6E9EE",
"K. c #E8EBEF",
"L. c #E7EDF1",
"P. c #ECEDF3",
"I. c #EEF0F5",
"U. c #F2F3F6",
"Y. c #F5F6F9",
"T. c #FFFFFF",
"R. c None",
/* pixels */
"R.R.R.R.R.R.R.R.R.R.R.R.R.R.R.R.R.R.R.R.R.R.R.R.R.R.R.R.R.R.R.R.",
"R.R.R.R.R.R.R.R.R.R.R.R.$ * : R.R.R.R.R.R.R.R.R.R.R.R.R.R.R.R.R.",
"R.R.R.R.R.R.R.R.R.R.$ + $ ; , ' ' R.R.R.R.R.R.R.R.R.R.R.R.R.R.R.",
"R.R.R.R.R.R.R.R.R.@ @ @ % > ' $.@.` R.R.R.R.R.R.R.R.R.R.R.R.R.R.",
"R.R.R.R.R.R.R.R.R.+ X + $ ; , ' ' , ; R.R.R.R.R.R.R.R.R.R.R.R.R.",
"R.R.R.R.R.R.R.R.@ # %.+.* O & : : = = R.R.R.R.R.R.R.R.R.R.R.R.R.",
"R.R.R.R.R.R.R.R.o o.4.q.m.7.8.B.m.*.= $ R.R.R.R.R.R.R.R.R.R.R.R.",
"R.R.R.R.R.R.R.R.o ;.8.v.m.B.V.V.m.n.' $ R.R.R.R.R.R.R.R.R.R.R.R.",
"R.R.R.R.R.R.R.R.@ 2.8.n.B.B.V.V.m.n.*.- R.R.R.R.R.R.R.R.R.R.R.R.",
"R.R.R.R.R.R.R.R. .2.8.n.n.B.V.V.B.n.4...R.R.R.R.R.R.R.R.R.R.R.R.",
"R.R.R.R.R.R.R.R.&.,.8.n.B.B.B.V.m.n.3.O.R.R.R.R.R.R.R.R.R.R.R.R.",
"R.R.R.R.R.R.R.R.%.,.8.n.n.B.B.B.m.0.2.R.R.R.R.R.R.R.R.R.R.R.R.R.",
"R.R.R.R.R.R.R.R.R.,.4.9.q.n.q.q.q.6.2.R.R.R.R.R.R.R.R.R.R.R.R.R.",
"R.R.R.R.R.R.R.R.R.,.,.5.9.0.0.0.6.3.R.R.R.R.R.R.R.R.R.R.R.R.R.R.",
"R.R.R.R.R.R.R.R.R.R.>.2.5.6.6.6.3.=.R.R.R.R.R.R.R.R.R.R.R.R.R.R.",
"R.R.R.R.R.R.R.R.R.R.&.-.,.,.3.,.>., R.R.R.R.R.R.R.R.R.R.R.R.R.R.",
"R.R.R.R.R.R.R.R.R.R.R.O.-.>.-.-. .R.R.R.R.R.R.R.R.R.R.R.R.R.R.R.",
"R.R.R.R.R.R.R.R.R.R.R.$.X.' 1 ` #.R.R.R.R.R.R.R.R.R.R.R.R.R.R.R.",
"R.R.R.R.R.R.R.R.R.R.R.v.:., ` $.1.R.R.R.R.R./ _ w._ ^ t R.R.R.R.",
"R.R.R.R.R.R.R.R.R.R.N.v.:.` ` $.1.M.R.R.S ~ ! Q ) R R Q N R.R.R.",
"R.R.R.R.R.R.R.R.F.H.J.b.$.` ` $.f.K.H.S T U U s.T.i.P P I y R.R.",
"R.R.R.R.R.R.S.H.J.H.J.K.G.x.x.G.I.Y.] C P Z Z L.T.F.Z Z Z Z . R.",
"R.R.R.R.k.D.K.I.U.Y.U.Y.Y.Y.Y.Y.Y.I.p C C C C ( i.E V V V M 0 R.",
"R.R.R.p.H.J.P.U.Y.Y.Y.Y.Y.Y.Y.Y.Y.D.q M M M M M D M m n n n w R.",
"R.R.j.S.H.P.U.U.Y.Y.Y.Y.Y.Y.Y.Y.Y.k.0 h h k v a.T.y.c j h h 0 R.",
"R.R.k.F.H.P.U.U.U.U.U.U.U.Y.U.Y.U.A.4 8 f c b G.U.A.x l a 6 3 R.",
"R.j.Z.D.D.I.U.U.U.U.U.U.U.U.U.U.U.L.e 6 s g z z.c.h.F g s 7 2 R.",
"R.j.A.S.S.K.U.I.U.U.U.U.U.U.U.U.U.U.K a g z F d.d.| G z g a   R.",
"R.p.F.S.D.H.Y.J.U.I.U.I.I.I.U.U.U.I.G.u g z H } | { H F g 4 R.R.",
"R.R.e.Z.D.D.Y.D.I.I.I.I.I.I.I.I.I.I.I.l.u z H L ~ L H F 5 R.R.R.",
"R.R.R.R.[ e.g.C.A.S.S.S.Z.C.l.C.Z.A.Z.l.p.A w g F g 9 r R.R.R.R.",
"R.R.R.R.R.R.R.R.R.R.R.R.R.R.R.R.R.R.R.R.R.R.R.R.R.R.R.R.R.R.R.R."
};
