/* XPM */
static char *button_assign_followed_xpm[] = {
/* columns rows colors chars-per-pixel */
"64 64 155 2 ",
"   c #061A6C",
".  c #000179",
"X  c #07227D",
"o  c #152771",
"O  c #242F67",
"+  c #242F6A",
"@  c #51537E",
"#  c #0A1386",
"$  c #091F80",
"%  c #0D198B",
"&  c #092285",
"*  c #0A268A",
"=  c #0A288E",
"-  c #142D8E",
";  c #192D88",
":  c #1F318A",
">  c #0A2C93",
",  c #0A2F98",
"<  c #0A319C",
"1  c #1A3593",
"2  c #1A319B",
"3  c #1A3B9E",
"4  c #2A3884",
"5  c #25368C",
"6  c #2A348D",
"7  c #213193",
"8  c #0818B7",
"9  c #0B34A0",
"0  c #29449D",
"q  c #1D43A7",
"w  c #1D45A9",
"e  c #1F48AC",
"r  c #1E59B7",
"t  c #294AA7",
"y  c #2247AB",
"u  c #214AAE",
"i  c #2B50AE",
"p  c #234EB1",
"a  c #2651B4",
"s  c #2954B6",
"d  c #2B57B8",
"f  c #225DBA",
"g  c #2E59BA",
"h  c #3C5FB6",
"j  c #325DBD",
"k  c #2762BE",
"l  c #2B63BD",
"z  c #3561BF",
"x  c #3F63B9",
"c  c #3669BE",
"v  c #3A6CBF",
"b  c #424A80",
"n  c #464A91",
"m  c #706F88",
"M  c #70708E",
"N  c #64659B",
"B  c #72719E",
"V  c #4860AB",
"C  c #4865B4",
"Z  c #697AB7",
"A  c #667AB9",
"S  c #7777B5",
"D  c #787AB6",
"F  c #2B66C1",
"G  c #2E6AC2",
"H  c #3762C0",
"J  c #3A65C2",
"K  c #326EC5",
"L  c #3E69C4",
"P  c #3470C7",
"I  c #3673C9",
"U  c #3876CC",
"Y  c #3979CE",
"T  c #426DC6",
"R  c #4373C2",
"E  c #4877C3",
"W  c #4C75CA",
"Q  c #4F78CB",
"!  c #547BCD",
"~  c #587FCE",
"^  c #7687BD",
"/  c #7A88BE",
"(  c #5A80CE",
")  c #4584D5",
"_  c #4687D8",
"`  c #4789D9",
"'  c #4B8CDC",
"]  c #5E84D0",
"[  c #4F90DE",
"{  c #5192DF",
"}  c #7288C5",
"|  c #6186D1",
" . c #6689D2",
".. c #6B8ED3",
"X. c #6F90D5",
"o. c #7394D6",
"O. c #5796E0",
"+. c #5D9AE1",
"@. c #77AAE6",
"#. c #7BADE7",
"$. c #92919F",
"%. c #918FA0",
"&. c #9190AA",
"*. c #B0AEBE",
"=. c #8195CA",
"-. c #959FC5",
";. c #9898C2",
":. c #93A0C9",
">. c #A3ADCE",
",. c #B3B8CF",
"<. c #A0AED5",
"1. c #AAB3D4",
"2. c #A3B1D8",
"3. c #B8B7D2",
"4. c #BDBEDD",
"5. c #83B2E8",
"6. c #89B5E9",
"7. c #8FB9EB",
"8. c #95BDEC",
"9. c #9AC0ED",
"0. c #A1C4EE",
"q. c #A7C8EF",
"w. c #ADCCF0",
"e. c #B3CFF1",
"r. c #BCD5F3",
"t. c #CFCED5",
"y. c #C3C7DA",
"u. c #C9CADE",
"i. c #D0CED6",
"p. c #D1CFD8",
"a. c #D2D1D7",
"s. c #D4D3DB",
"d. c #D8D8DF",
"f. c #CBCDE2",
"g. c #D6D6E2",
"h. c #DBDBE4",
"j. c #DCDDEB",
"k. c #C4DAF4",
"l. c #CADEF5",
"z. c #CFE1F6",
"x. c #D5E5F7",
"c. c #DDEAF9",
"v. c #E4E2E4",
"b. c #E6E5EB",
"n. c #EFECEC",
"m. c #F1EEEE",
"M. c #EDEDF4",
"N. c #E4EEFA",
"B. c #EBF3FB",
"V. c #F4F2F2",
"C. c #F8F6F6",
"Z. c #F1F6FC",
"A. c #F4F8FD",
"S. c #FCFBFB",
"D. c None",
/* pixels */
"D.D.D.D.D.D.D.D.D.D.D.D.D.D.D.D.D.D.D.D.D.D.D.D.D.D.D.D.D.D.D.D.D.D.D.D.D.D.D.D.D.D.D.D.D.D.D.D.D.D.D.D.D.D.D.D.D.D.D.D.D.D.D.D.",
"D.D.D.D.D.D.D.D.D.D.D.D.D.D.D.D.D.D.D.D.D.D.D.D.D.D.D.D.D.D.D.D.D.D.D.D.D.D.D.D.D.D.D.D.D.D.D.D.D.D.D.D.D.D.D.D.D.D.D.D.D.D.D.D.",
"D.D.D.D.D.D.D.D.D.D.D.D.D.D.D.D.D.D.D.D.D.D.D.D.D.D.D.D.D.D.D.D.D.D.D.D.D.D.D.D.D.D.D.D.D.D.D.D.D.D.D.D.D.D.D.D.D.D.D.D.D.D.D.D.",
"D.D.D.D.8 8 8 8 8 8 8 8 8 8 8 8 8 8 8 8 8 8 8 8 8 8 8 8 8 8 8 8 8 8 8 8 8 8 8 8 8 8 8 8 8 8 8 8 8 8 8 8 8 8 8 8 8 8 8 8 8 D.D.D.",
"D.D.D.D.8 @.@.#.5.6.7.8.9.0.q.w.e.r.r.k.l.l.x.c.c.N.B.B.Z.A.S.S.S.S.A.A.Z.B.B.N.N.c.x.l.l.k.r.r.e.w.q.0.9.8.7.6.5.#.@.@.8 D.D.D.",
"D.D.D.D.8 +.Q Q ! ! ( ( ( ] ] ] |  . .........X.X.o.o.o.o.o.o.o.o.o.o.o.o.o.o.X.X.X....... . . .| | | ] ] ~ ~ ! ! ! Q +.8 D.D.D.",
"D.D.D.D.8 O.W W W W W W W W Q Q ! ! ! ~ ! ! ! ! ~ ~ ~ ( ( ( ( ( ] ] ~ ( ~ ~ ! ( ~ ~ ~ ~ ! ! ! Q Q Q Q Q W W W W W W W O.8 D.D.D.",
"D.D.D.D.8 { L T T T T T T T W T T T T T T T T T T T T T T T T W T W T W T T T W T T T T T T T T W T T T T T T W T T T O.8 D.D.D.",
"D.D.D.D.8 [ L T L L L L T T T T T T T T T T T T T T T T T T T T T T T T T T T T T T T T T T T T T T T T U T T T L T L O.8 D.D.D.",
"D.D.D.D.8 [ L J L L L J L L L T J T T T T J T T T L T T T T T T T L T T T T T T T T T J T T T L L T L L L L L L L L J [ 8 D.D.D.",
"D.D.D.D.8 [ K J J J J J L J L P T J J T J T J T J L L L L L L L T T J T L L L L J T J T T J L T L L L L L J J J J J J [ 8 D.D.D.",
"D.D.D.D.8 [ H H J J J J H J J J J J J J J J J J J J L J L H J L H J J J L J J L J J J J J J J J J J J J J J J J J J J [ 8 D.D.D.",
"D.D.D.D.8 ' H H H H H H H H H H z J z J H J J J J J J z H H J H H J H J H J J x J J J J J z x z H H H H H H H H H H H ' 8 D.D.D.",
"D.D.D.D.8 ` j j j j j j H j j H z z z z z z z H z z z z z x x H z x H H H H z z z j z z z z z j H H H H j H H j j j j ' 8 D.D.D.",
"D.D.D.D.8 ` g g j j j j g j j j j j j j j j j j j z z j z j z j j j j j j j z j j z z z j j j j j j j j j j j j j j j ' 8 D.D.D.",
"D.D.D.D.8 ` g g g g g g g j g g g j g j j 2 . . . . 2 j j g j j j j j j j j j j % . . # j j j j g j g g g g g g g g g ' 8 D.D.D.",
"D.D.D.D.8 ` g g f d g d d g g g d g d g g S S.S.S.S.D 2 j d g g g j g g g g d j y.S.S.f.g g g g g d d d d d d d d d d ` 8 D.D.D.",
"D.D.D.D.8 ` d d s s d s s d s s s s d d d S.S.S.S.S.S.D s d d d d d d d d d d d j.S.S.S.d d d d d d d d d d d d d d d ` 8 D.D.D.",
"D.D.D.D.8 _ a a a s a s s s s s s s s s d S.S.S.S.S.S.M.7 d d d i d d d d d d s j.S.S.S.a d s s s s d s s s a d s s a _ 8 D.D.D.",
"D.D.D.D.8 _ a a a a a a a a a a s a a a s S.S.S.S.S.S.S.;.y a a s a a a a a a s j.S.S.S.a a a a s a a a a a a a p a a _ 8 D.D.D.",
"D.D.D.D.8 _ p p p p p a p p p p p a p p a S.S.S.j.S.S.S.S.6 p a a a a p p a a p j.S.S.S.p a a a p a p p a p p p p p p _ 8 D.D.D.",
"D.D.D.D.8 _ p p p p p p p p p p p p p p p S.S.S.u.2.S.A.S.3.3 p p p p p p p p p j.S.S.S.p p p p p p p p p p p p p p u _ 8 D.D.D.",
"D.D.D.D.8 _ u u u u u u p u u u u p p p u S.C.C.h.x C.C.C.S.n u u p p y u p u p h.C.C.C.u p u u u u p u u u u u u u p _ 8 D.D.D.",
"D.D.D.D.8 _ u u u u u u u u u u e e u e e C.C.C.g.u <.C.C.C.g.- u u u u u u u u g.C.C.C.u u u u u u u u u u u u u u u ` 8 D.D.D.",
"D.D.D.D.8 ) y e e u e e e e e e e e e e e C.C.C.g.w x b.C.C.V.N q y e e e u e e g.V.C.C.w u u u e e e e e e e e u w u ) 8 D.D.D.",
"D.D.D.D.8 ) y w w w e w w w w e e w e w w V.V.V.g.w y o.V.C.V.b.: w w w w w e w g.V.V.V.w w w w w e w w w e w w u w u Q 8 D.D.D.",
"D.D.D.D.8 _ w w w w w w w w w w w w w w w V.V.V.s.w y t g.V.V.V.B 3 w w w w w w s.V.V.V.w w w w w w w w w w w w w w w _ 8 D.D.D.",
"D.D.D.D.8 Y q q q q w w q q w w q q w w w m.m.V.s.q q q } m.m.V.V.4 w w q w w w g.m.m.V.w w q q w w q w w w q q w w w Y 8 D.D.D.",
"D.D.D.D.8 Y 9 9 9 9 9 9 9 9 9 9 9 9 9 9 9 m.V.m.s.9 9 9 9 y.V.m.m.&.* 9 < 9 9 9 s.m.m.m.9 9 9 9 9 9 9 9 9 9 9 9 9 9 9 Y 8 D.D.D.",
"D.D.D.D.8 Y < 9 9 9 9 9 9 < 9 < < 9 9 9 9 m.m.m.p.9 9 < < C m.m.m.n.@ < < 9 9 < p.n.m.m.9 < 9 9 9 9 9 < < 9 9 < 9 9 9 U 8 D.D.D.",
"D.D.D.D.8 Y 9 9 < < 9 < < < < < < 9 < < < n.n.n.p.< < 9 9 < >.n.n.n.*.X < 9 < < p.n.n.n.< < < < 9 < < < 9 < < 9 < < 9 U 8 D.D.D.",
"D.D.D.D.8 Y 9 9 < < < < < < < < < < < < < n.m.n.t.< < < < < t n.n.m.V.b < < < < p.n.n.M.< < < < < < < < < < < < < < 9 Y 8 D.D.D.",
"D.D.D.D.8 Y , , < , , , < , , , < , , < < n.n.n.t.< < , , < < :.n.n.n.t.  , , < t.n.n.n., < < , < < , < < , < , < , , Y 8 D.D.D.",
"D.D.D.D.8 Y , , , < , , , , < , , < , < , n.n.n.t., , , , , , 3 h.n.n.n.M > , , t.n.n.n., , , , , , , , , , , < < , , Y 8 D.D.D.",
"D.D.D.D.8 U , , , , , , , , , , , , , , , n.n.n.t., , , , , , , } n.n.n.v.o , , t.n.n.n., , , , , , , , , , , , , , , I 8 D.D.D.",
"D.D.D.D.8 U , , , , , , , , , , , , > , , n.m.m.t., , , , , , , , s.n.n.n.m * , a.n.m.m., , , , , , , , > , , , , , , I 8 D.D.D.",
"D.D.D.D.8 I > , , > , > , > > , > > , > > m.m.m.t.> , > > > > > , A m.n.n.m.O , a.m.m.m., > , > > > , > , > > > > > > I 8 D.D.D.",
"D.D.D.D.8 P > > > > > > > > > > > > > > > m.m.m.a.> > > > > > , > > ,.m.m.m.$.* a.m.m.m.> > > > > > > > > > > > > > > I 8 D.D.D.",
"D.D.D.D.8 P > > > > > > > > > > > > > > > m.m.V.a.> > > > > > > > > V m.m.m.m.O a.m.m.m.> > > = > > > > > > > > > > > P 8 D.D.D.",
"D.D.D.D.8 K > = = > > = > = > = = > = > > V.V.m.a.> = > = > > * > > > -.V.V.V.$.a.V.V.V.> = > = > = > = = > = > > > > P 8 D.D.D.",
"D.D.D.D.8 K = > = = > = > = = > = > = > = V.V.V.a.- > > > * > > = > = 0 V.V.V.V.v.V.V.V.> = > > = = > = = > = = > = > K 8 D.D.D.",
"D.D.D.D.8 K = = = = = = = = = = = = > = = V.V.V.a.> = = * > = = = = = = ^ V.V.C.V.V.V.V.= = = = = = = = = = = = = = = K 8 D.D.D.",
"D.D.D.D.8 G = = = = = = = = = = = = = = = C.C.C.s.= = = = > = > = = = = 1 b.C.C.C.C.C.C.= = = = = = = = = = = = = = = G 8 D.D.D.",
"D.D.D.D.8 G = * = * * * * = * = * = * * * C.C.C.s.= * = * * * * * = * * * Z C.C.C.C.C.C.= * * * * = = * = * = = * = * G 8 D.D.D.",
"D.D.D.D.8 G * * * * * * * * * * * * * * * S.C.C.s.= * * * * * * * * * * * * u.C.C.C.C.n.* = * * * = * * * * * * * * * G 8 D.D.D.",
"D.D.D.D.8 F * * * * * * * * * * * * * * * j.S.S.1.* * * * * * * * * * * * * 1 1.C.S.C.^ * * * * * * * * * * * * * * * F 8 D.D.D.",
"D.D.D.D.8 F * * * * * * * * * * * * * * * * * * * * * * * * * * * * * * * * * * * * * * * * * * * * * * * * * * * * * F 8 D.D.D.",
"D.D.D.D.8 l & * * * & * & * * & * * * & * & * * * * & * & * * * * * & * * * & * * * * & * * * & & * * * * * & * & * * l 8 D.D.D.",
"D.D.D.D.8 F $ * * $ $ * * * $ * $ * * $ * * * $ * * * $ * & & & * $ * * * & & * $ * * & * & & * & & * & & * & & * & & f 8 D.D.D.",
"D.D.D.D.8 F * $ * * * * $ * * % * & $ * * $ $ * * $ $ * & & * & * * $ & & & * & * * $ * & & * & * & * & * & & * & & * F 8 D.D.D.",
"D.D.D.D.8 f * & $ * $ $ & & & & $ * $ * $ $ * * $ * * $ & & & & & & & & & & & & $ * * $ & & & & & & & & & & & & & & & f 8 D.D.D.",
"D.D.D.D.8 f $ & $ $ * $ & & & & * $ & & $ * $ $ % $ * $ & & & & $ $ * $ & & & $ $ $ & & & $ & & & & & & & & & & & & & f 8 D.D.D.",
"D.D.D.D.8 f & $ & & & & & & & $ $ & & & & & & & & & & & $ & & & & & & $ & $ & & $ $ $ * & & & & & X & & & & & $ & $ $ f 8 D.D.D.",
"D.D.D.D.8 f $ $ $ & $ $ $ $ & $ $ $ $ $ $ & $ $ $ & $ & $ $ $ & & $ & $ $ $ $ & $ * $ $ $ $ $ $ $ $ $ $ $ $ & $ $ $ $ f 8 D.D.D.",
"D.D.D.D.8 r & $ $ $ $ $ $ $ $ $ $ $ $ $ $ $ $ $ $ $ $ $ $ $ $ $ $ $ $ $ $ $ $ $ $ $ $ $ $ $ $ $ $ $ $ $ $ $ $ $ $ $ $ f 8 D.D.D.",
"D.D.D.D.8 r X $ $ X $ $ $ $ $ $ $ $ $ $ X $ X X $ $ $ $ $ $ $ $ $ $ $ $ $ $ $ $ $ $ $ $ $ X $ X $ $ $ $ $ $ $ $ $ $ $ f 8 D.D.D.",
"D.D.D.D.8 l ; ; ; ; ; ; ; ; ; ; ; ; ; ; ; ; ; ; ; ; ; ; ; ; ; ; - ; ; ; ; ; ; ; ; ; ; ; ; ; ; ; ; ; ; ; ; ; ; ; - ; ; l 8 D.D.D.",
"D.D.D.D.8 c : : : ; : : : : : : : 5 : : : : : : : : : 5 : : : 5 : : : : : : : : : 5 : : : : : 5 : : : 5 : : : 5 : : 5 l 8 D.D.D.",
"D.D.D.D.8 c 5 5 5 5 5 5 5 5 5 5 5 5 5 5 5 5 5 5 5 5 5 5 5 5 5 5 5 5 5 5 5 5 5 5 5 5 5 5 5 5 5 5 5 5 5 5 5 5 5 5 5 5 5 c 8 D.D.D.",
"D.D.D.D.8 c v v J v v v v v R L v L R R R R R R R R R E E R E E E E E E E E R T R R R R R R L v R v v L v v v v v v c c 8 D.D.D.",
"D.D.D.D.8 8 8 8 8 8 8 8 8 8 8 8 8 8 8 8 8 8 8 8 8 8 8 8 8 8 8 8 8 8 8 8 8 8 8 8 8 8 8 8 8 8 8 8 8 8 8 8 8 8 8 8 8 8 8 8 8 D.D.D.",
"D.D.D.D.D.D.D.D.D.D.D.D.D.D.D.D.D.D.D.D.D.D.D.D.D.D.D.D.D.D.D.D.D.D.D.D.D.D.D.D.D.D.D.D.D.D.D.D.D.D.D.D.D.D.D.D.D.D.D.D.D.D.D.D.",
"D.D.D.D.D.D.D.D.D.D.D.D.D.D.D.D.D.D.D.D.D.D.D.D.D.D.D.D.D.D.D.D.D.D.D.D.D.D.D.D.D.D.D.D.D.D.D.D.D.D.D.D.D.D.D.D.D.D.D.D.D.D.D.D.",
"D.D.D.D.D.D.D.D.D.D.D.D.D.D.D.D.D.D.D.D.D.D.D.D.D.D.D.D.D.D.D.D.D.D.D.D.D.D.D.D.D.D.D.D.D.D.D.D.D.D.D.D.D.D.D.D.D.D.D.D.D.D.D.D."
};
