/* XPM */
static char *button_minus_xpm[] = {
/* columns rows colors chars-per-pixel */
"32 32 246 2 ",
"   c #610000",
".  c #620000",
"X  c #640000",
"o  c #650000",
"O  c #660000",
"+  c #680000",
"@  c #690000",
"#  c #6A0000",
"$  c #6C0000",
"%  c #6D0000",
"&  c #6E0000",
"*  c #700000",
"=  c #710000",
"-  c #740000",
";  c #760000",
":  c #770000",
">  c #780000",
",  c #790000",
"<  c #7A0000",
"1  c #7B0000",
"2  c #7D0000",
"3  c #7E0000",
"4  c #7F0000",
"5  c #7A0F0F",
"6  c #820000",
"7  c #840000",
"8  c #860000",
"9  c #870000",
"0  c #880000",
"q  c #890000",
"w  c #8A0000",
"e  c #8B0000",
"r  c #8C0000",
"t  c #8D0000",
"y  c #8C0101",
"u  c #8E0000",
"i  c #8F0000",
"p  c #8B0505",
"a  c #8E0707",
"s  c #900000",
"d  c #910000",
"f  c #920000",
"g  c #930000",
"h  c #940000",
"j  c #950000",
"k  c #960000",
"l  c #970000",
"z  c #980000",
"x  c #9A0000",
"c  c #9B0000",
"v  c #9D0101",
"b  c #9E0101",
"n  c #9A1D1D",
"m  c #A10101",
"M  c #A30000",
"N  c #A20101",
"B  c #A30101",
"V  c #A40000",
"C  c #A60101",
"Z  c #A70101",
"A  c #A80101",
"S  c #A90101",
"D  c #AB0101",
"F  c #AD0000",
"G  c #AE0101",
"H  c #AF0101",
"J  c #B00000",
"K  c #B00101",
"L  c #B40101",
"P  c #B50101",
"I  c #B60000",
"U  c #B60101",
"Y  c #B90101",
"T  c #BA0000",
"R  c #BB0101",
"E  c #BC0101",
"W  c #BD0101",
"Q  c #BF0101",
"!  c #962222",
"~  c #963131",
"^  c #923434",
"/  c #993131",
"(  c #9C3131",
")  c #A42121",
"_  c #AF2626",
"`  c #BB2D2D",
"'  c #A03131",
"]  c #A03232",
"[  c #A53131",
"{  c #A53333",
"}  c #A93131",
"|  c #AD3131",
" . c #B23131",
".. c #B63131",
"X. c #BA3131",
"o. c #BD3131",
"O. c #BE3030",
"+. c #BE3434",
"@. c #B33D3D",
"#. c #C10101",
"$. c #C30000",
"%. c #C30101",
"&. c #C40101",
"*. c #C50101",
"=. c #C70101",
"-. c #CB0101",
";. c #CC0101",
":. c #CE0101",
">. c #C10A0A",
",. c #D10101",
"<. c #D20101",
"1. c #D30101",
"2. c #D40101",
"3. c #D60101",
"4. c #D70101",
"5. c #DA0101",
"6. c #DB0101",
"7. c #DD0101",
"8. c #DE0101",
"9. c #D50F0F",
"0. c #DA0B0B",
"q. c #E00101",
"w. c #E20101",
"e. c #E40101",
"r. c #E60101",
"t. c #E70101",
"y. c #EA0808",
"u. c #E01D1D",
"i. c #C03030",
"p. c #C03131",
"a. c #C23030",
"s. c #C33030",
"d. c #C23333",
"f. c #C43030",
"g. c #C53030",
"h. c #C63030",
"j. c #C63131",
"k. c #C73131",
"l. c #C43232",
"z. c #C53737",
"x. c #CB3737",
"c. c #C03939",
"v. c #C23D3D",
"b. c #DF3030",
"n. c #D13A3A",
"m. c #D53939",
"M. c #D63D3D",
"N. c #DA3E3E",
"B. c #DF3E3E",
"V. c #E52222",
"C. c #E02B2B",
"Z. c #E23333",
"A. c #EF3434",
"S. c #E23A3A",
"D. c #E13C3C",
"F. c #A14242",
"G. c #AE4F4F",
"H. c #B35454",
"J. c #B85A5A",
"K. c #BF6F6F",
"L. c #BE7171",
"P. c #BE7373",
"I. c #C14141",
"U. c #C64141",
"Y. c #C54545",
"T. c #CA4141",
"R. c #CE4141",
"E. c #CA4545",
"W. c #CD4545",
"Q. c #CD4A4A",
"!. c #CA4C4C",
"~. c #D24141",
"^. c #D64141",
"/. c #D14545",
"(. c #D44545",
"). c #D94141",
"_. c #DD4141",
"`. c #DE4141",
"'. c #D84545",
"]. c #DB4545",
"[. c #DD4545",
"{. c #D04A4A",
"}. c #D34A4A",
"|. c #D64A4A",
" X c #D94A4A",
".X c #DB4A4A",
"XX c #DC4A4A",
"oX c #DE4A4A",
"OX c #D65555",
"+X c #D95050",
"@X c #E04141",
"#X c #E24141",
"$X c #E44141",
"%X c #E64141",
"&X c #E74141",
"*X c #E04545",
"=X c #E24646",
"-X c #E34646",
";X c #E44646",
":X c #E54646",
">X c #E64646",
",X c #E84545",
"<X c #E24848",
"1X c #E04A4A",
"2X c #E14A4A",
"3X c #E24A4A",
"4X c #E34A4A",
"5X c #E44A4A",
"6X c #E54A4A",
"7X c #E04C4C",
"8X c #EB4E4E",
"9X c #E85B5B",
"0X c #EA5A5A",
"qX c #C66363",
"wX c #C26464",
"eX c #C36464",
"rX c #C46464",
"tX c #C56464",
"yX c #C86363",
"uX c #C96363",
"iX c #CB6363",
"pX c #CC6363",
"aX c #CE6363",
"sX c #D06363",
"dX c #D26363",
"fX c #D56262",
"gX c #D56363",
"hX c #D66363",
"jX c #D76363",
"kX c #D36464",
"lX c #D96363",
"zX c #DA6363",
"xX c #DB6363",
"cX c #DC6363",
"vX c #DD6363",
"bX c #DF6565",
"nX c #E36363",
"mX c #EA6E6E",
"MX c #F06E6E",
"NX c #EE7575",
"BX c #EA7F7F",
"VX c #C58484",
"CX c #C98181",
"ZX c #CC8484",
"AX c #E28888",
"SX c None",
/* pixels */
"SXSXSXSXSXSXSXSXSXSXSXSXSXSXSXSXSXSXSXSXSXSXSXSXSXSXSXSXSXSXSXSX",
"SXSXSXSXSXSXSXSXSXSXSXSXSXSXSXSXSXSXSXSXSXSXSXSXSXSXSXSXSXSXSXSX",
"SXSXSXSXSXSXSXSXSXSXSXSXSXSXSXSXSXSXSXSXSXSXSXSXSXSXSXSXSXSXSXSX",
"SXSXSXSXSXSXSXSXSXSXSXSXSXSXSXSXSXSXSXSXSXSXSXSXSXSXSXSXSXSXSXSX",
"SXSXSXSXSXSXSXSXSXSXSXSXSXSXSXSXSXSXSXSXSXSXSXSXSXSXSXSXSXSXSXSX",
"SXSXSXSXSXSXSXSXSXSXSXSXSXSXSXSXSXSXSXSXSXSXSXSXSXSXSXSXSXSXSXSX",
"SXSXSXSXSXSXSXSXSXSXSXSXSXSXSXSXSXSXSXSXSXSXSXSXSXSXSXSXSXSXSXSX",
"SXSXSXSXSXSXSXSXSXSXSXSXSXSXSXSXSXSXSXSXSXSXSXSXSXSXSXSXSXSXSXSX",
"SXSXSXSXSXSXSXSXSXSXSXSXSXSXSXSXSXSXSXSXSXSXSXSXSXSXSXSXSXSXSXSX",
"SXSXSXSXSXSXSXSXSXSXSXSXSXSXSXSXSXSXSXSXSXSXSXSXSXSXSXSXSXSXSXSX",
"SXSXSXSXSXSXSXSXSXSXSXSXSXSXSXSXSXSXSXSXSXSXSXSXSXSXSXSXSXSXSXSX",
"SXSXSXP.n r r 0 r r g g h h b b M C S H L R Q *.;.,.4.u.NXSXSXSX",
"SXSXK.P.' 9 9 9 9 0 0 r g h h c b M C H H P R #.*.;.4.C.mXMXSXSX",
"SX{ G.VXZXwXtXtXtXqXuXuXuXpXaXsXsXkXkXkXxXxXxXxXbXbXbXAXBX8XA.SX",
"SXa ! CX!.Q.{.{.|. XXX1X1X5X5X5X5X5X5X5X5X1XXX X+XsX@.a sXV.y.SX",
"SX0 6 J.Y.E.W./.(.'.'.[.*X*X:X:X>X>X>X:X*X:XnXOX+.M h 0 v.q.t.SX",
"SX9 4 H.I.U.T.R.~.^.).`.`.$X$X$X&X>X0X0X7Xm.>.P H M h r c.8.t.SX",
"SX6 < F.) _ ` j.x.n.M.N.`.B.D.S.Z.C.0.5.,.;.*.R H M c 0 z.8.t.SX",
"SX6 < 5 ^ ~ / ( ( { } |  ...X.+.+.j.j.j.j.j.j.s.a.O.O.s.9.5.q.SX",
"SXSX; & @ O O O O & & & ; ; 4 6 9 r g h b M S H P Q *.-.,.5.SXSX",
"SXSXSX& O       O O @ & = ; < 4 9 0 r h b M S H P Q #.-.4.SXSXSX",
"SXSXSXSXSXSXSXSXSXSXSXSXSXSXSXSXSXSXSXSXSXSXSXSXSXSXSXSXSXSXSXSX",
"SXSXSXSXSXSXSXSXSXSXSXSXSXSXSXSXSXSXSXSXSXSXSXSXSXSXSXSXSXSXSXSX",
"SXSXSXSXSXSXSXSXSXSXSXSXSXSXSXSXSXSXSXSXSXSXSXSXSXSXSXSXSXSXSXSX",
"SXSXSXSXSXSXSXSXSXSXSXSXSXSXSXSXSXSXSXSXSXSXSXSXSXSXSXSXSXSXSXSX",
"SXSXSXSXSXSXSXSXSXSXSXSXSXSXSXSXSXSXSXSXSXSXSXSXSXSXSXSXSXSXSXSX",
"SXSXSXSXSXSXSXSXSXSXSXSXSXSXSXSXSXSXSXSXSXSXSXSXSXSXSXSXSXSXSXSX",
"SXSXSXSXSXSXSXSXSXSXSXSXSXSXSXSXSXSXSXSXSXSXSXSXSXSXSXSXSXSXSXSX",
"SXSXSXSXSXSXSXSXSXSXSXSXSXSXSXSXSXSXSXSXSXSXSXSXSXSXSXSXSXSXSXSX",
"SXSXSXSXSXSXSXSXSXSXSXSXSXSXSXSXSXSXSXSXSXSXSXSXSXSXSXSXSXSXSXSX",
"SXSXSXSXSXSXSXSXSXSXSXSXSXSXSXSXSXSXSXSXSXSXSXSXSXSXSXSXSXSXSXSX",
"SXSXSXSXSXSXSXSXSXSXSXSXSXSXSXSXSXSXSXSXSXSXSXSXSXSXSXSXSXSXSXSX"
};
