/* XPM */
static char *button_update2_xpm[] = {
/* columns rows colors chars-per-pixel */
"32 32 155 2 ",
"   c #268324",
".  c #288525",
"X  c #298525",
"o  c #2E8B28",
"O  c #2F8D29",
"+  c #308E29",
"@  c #328F2A",
"#  c #33902B",
"$  c #33922A",
"%  c #3E9B31",
"&  c #3F9C32",
"*  c #419F32",
"=  c #4AB226",
"-  c #4BB226",
";  c #4CB327",
":  c #4CB526",
">  c #4DB626",
",  c #4FB927",
"<  c #4EB52D",
"1  c #50BA27",
"2  c #52BC28",
"3  c #53BE28",
"4  c #53BC2E",
"5  c #41A031",
"6  c #43A233",
"7  c #45A334",
"8  c #46A534",
"9  c #47A734",
"0  c #48A732",
"q  c #4AAC31",
"w  c #49A935",
"e  c #4AAA35",
"r  c #4EAD36",
"t  c #4FB132",
"y  c #4FB135",
"u  c #4FB036",
"i  c #53B734",
"p  c #54B931",
"a  c #54B834",
"s  c #53B438",
"d  c #58BB38",
"f  c #55C029",
"g  c #55C129",
"h  c #58C32B",
"j  c #58C42A",
"k  c #58C22C",
"l  c #5AC52D",
"z  c #5AC62C",
"x  c #5AC82B",
"c  c #5BCA2B",
"v  c #5DCB2B",
"b  c #5DCC2B",
"n  c #5AC82C",
"m  c #5BC82C",
"M  c #5CC92C",
"N  c #5ECD2C",
"B  c #5FCD2D",
"V  c #58C130",
"C  c #58C230",
"Z  c #5EC835",
"A  c #60CF2C",
"S  c #61D02D",
"D  c #62D12D",
"F  c #62D32D",
"G  c #63D42E",
"H  c #63D52E",
"J  c #64D52E",
"K  c #66D72F",
"L  c #66D82F",
"P  c #61CA35",
"I  c #61CB35",
"U  c #66D531",
"Y  c #69DA30",
"T  c #28659E",
"R  c #1A74B7",
"E  c #1B74B8",
"W  c #1B74B9",
"Q  c #1B76B9",
"!  c #1A76BA",
"~  c #1B76BA",
"^  c #1A76BB",
"/  c #1B77BC",
"(  c #1B77BD",
")  c #1B79BE",
"_  c #1B7ABF",
"`  c #2867A0",
"'  c #2967A1",
"]  c #2A6BA5",
"[  c #2A6CA5",
"{  c #2B6DA8",
"}  c #2C70AB",
"|  c #2C71AC",
" . c #2776B3",
".. c #2D75B0",
"X. c #2D76B1",
"o. c #2E76B2",
"O. c #237ABC",
"+. c #2D7BB8",
"@. c #2F7CBA",
"#. c #2E7EBD",
"$. c #307BB9",
"%. c #307DBB",
"&. c #307FBD",
"*. c #1C7BC1",
"=. c #1C7BC2",
"-. c #1C7EC4",
";. c #1D7FC5",
":. c #1D7FC6",
">. c #3080BE",
",. c #1F80C5",
"<. c #1D80C7",
"1. c #1E80C7",
"2. c #1E81C9",
"3. c #1E83CA",
"4. c #1E83CC",
"5. c #1E84CD",
"6. c #1F84CD",
"7. c #2782C6",
"8. c #2E81C1",
"9. c #2884C8",
"0. c #2985CA",
"q. c #2A89CF",
"w. c #2D89CD",
"e. c #3284C3",
"r. c #348ACA",
"t. c #2088D2",
"y. c #218CD8",
"u. c #2290DD",
"i. c #2892DB",
"p. c #3193D9",
"a. c #3493D8",
"s. c #3195DC",
"d. c #2495E2",
"f. c #2495E3",
"g. c #2698E4",
"h. c #2598E7",
"j. c #2C9AE7",
"k. c #2599E8",
"l. c #279AE9",
"z. c #269AEA",
"x. c #269CEC",
"c. c #269CED",
"v. c #279FEF",
"b. c #2E9CE8",
"n. c #309DE7",
"m. c #27A0F0",
"M. c #27A1F1",
"N. c #27A0F2",
"B. c #29A2F4",
"V. c #28A3F4",
"C. c #28A3F5",
"Z. c #29A4F7",
"A. c #29A6F8",
"S. c #29A7FB",
"D. c None",
/* pixels */
"D.D.D.D.D.D.D.D.D.D.D.D.D.D.D.D.D.D.D.D.D.D.D.D.D.D.D.D.D.D.D.D.",
"D.D.D.D.D.D.D.D.D.D.D.D.D.D.D.D.D.D.D.D.D.D.D.D.D.D.D.D.D.D.D.D.",
"D.D.D.D.D.D.D.D.D.D.D.D.D.D.D.D.D.D.D.D.D.D.D.D.D.D.D.D.D.D.D.D.",
"D.D.D.D.D.D.D.D.D.D.D.D.D.D.D.D.D.D.D.D.D.D.D.D.D.D.D.D.D.D.D.D.",
"D.D.D.D.D.D.D.D.D.D.D.D.D.D.D.D.D.D.D.D.D.D.D.D.D.D.D.D.D.D.D.D.",
"D.D.D.D.D.D.D.D.D.D.D.D.D.D.D.D.D.D.                      D.D.D.",
"D.D.D.D.D.D.D.T >.D.D.D.D.D.D.D.D.D.  i m m m x z h 8   D.D.D.D.",
"D.D.D.D.D.D.T e.l.D.D.D.D.D.D.D.D.D.  r B B B b x C   D.D.D.D.D.",
"D.D.D.D.D.T e.m.m.c.D.D.D.D.D.D.D.D.D.5 F S S S B y   D.D.D.D.D.",
"D.D.D.D.D.o.V.V.m.p.T D.D.D.D.D.D.D.D.$ J F J S S B   D.D.D.D.D.",
"D.D.D.D.T a.A.A.b.T D.D.D.D.D.D.D.D.D.  U L L J F S y   D.D.D.D.",
"D.D.D.D.} A.S.A.e.D.D.D.D.D.D.D.D.D.D.  I Y I I F S B o D.D.D.D.",
"D.D.D.T r.Z.A.n.T D.D.D.D.D.D.D.D.D.D.  d s     Z F B 9 D.D.D.D.",
"D.D.D.T s.V.V.e.D.D.D.D.D.D.D.D.D.D.D.D.e   D.D.e S b a   D.D.D.",
"D.D.D.T j.m.m.| D.D.D.D.D.D.D.D.D.D.D.D.  D.D.D.# A b C   D.D.D.",
"D.D.D.T l.x.x.' D.D.D.D.D.D.D.D.D.D.D.D.D.D.D.D.. b m z   D.D.D.",
"D.D.D.T g.h.l.` D.D.D.D.D.D.D.D.D.D.D.D.D.D.D.D.. B x g   D.D.D.",
"D.D.D.T i.f.f.{ D.D.D.T D.D.D.D.D.D.D.D.D.D.D.D.# h j 4   D.D.D.",
"D.D.D.T w.u.u.@.D.D.T $.D.D.D.D.D.D.D.D.D.D.D.D.5 h g t   D.D.D.",
"D.D.D.D.@.y.y.q.T T &.8.T D.D.D.D.D.D.D.D.D.D.  p g f 7   D.D.D.",
"D.D.D.D.] t.t.t.0.0.4.7.T D.D.D.D.D.D.D.D.D.D.5 2 2 1 + D.D.D.D.",
"D.D.D.D.T #.5.4.4.3.3.,.T D.D.D.D.D.D.D.D.D.  < 1 , 0   D.D.D.D.",
"D.D.D.D.D.T ;.3.;.;.-.*.[ D.D.D.D.D.D.D.D.D.q > > ; $ D.D.D.D.D.",
"D.D.D.D.D.T +.*.*.-.( ( | D.D.D.D.D.D.D.D.D.D.- - %   D.D.D.D.D.",
"D.D.D.D.D.T O.( ( ( ~ ~ o.T D.D.D.D.D.D.D.D.D.D.%   D.D.D.D.D.D.",
"D.D.D.D.T o.~ ~ ~ ~ ~ R  .T D.D.D.D.D.D.D.D.D.D.D.D.D.D.D.D.D.D.",
"D.D.D.T T T T T T T T T T T D.D.D.D.D.D.D.D.D.D.D.D.D.D.D.D.D.D.",
"D.D.D.D.D.D.D.D.D.D.D.D.D.D.D.D.D.D.D.D.D.D.D.D.D.D.D.D.D.D.D.D.",
"D.D.D.D.D.D.D.D.D.D.D.D.D.D.D.D.D.D.D.D.D.D.D.D.D.D.D.D.D.D.D.D.",
"D.D.D.D.D.D.D.D.D.D.D.D.D.D.D.D.D.D.D.D.D.D.D.D.D.D.D.D.D.D.D.D.",
"D.D.D.D.D.D.D.D.D.D.D.D.D.D.D.D.D.D.D.D.D.D.D.D.D.D.D.D.D.D.D.D.",
"D.D.D.D.D.D.D.D.D.D.D.D.D.D.D.D.D.D.D.D.D.D.D.D.D.D.D.D.D.D.D.D."
};
