/* XPM */
static char *button_results_xpm[] = {
/* columns rows colors chars-per-pixel */
"32 32 162 2 ",
"   c #000000",
".  c #0C0000",
"X  c #040C03",
"o  c #080B00",
"O  c #140000",
"+  c #1A0000",
"@  c #120D00",
"#  c #051004",
"$  c #0E1200",
"%  c #220000",
"&  c #2D0000",
"*  c #390000",
"=  c #0E2607",
"-  c #182C05",
";  c #470000",
":  c #4C0000",
">  c #660000",
",  c #760000",
"<  c #7B0300",
"1  c #4B290F",
"2  c #573700",
"3  c #763B00",
"4  c #6E2B10",
"5  c #0B4C18",
"6  c #0E5118",
"7  c #28580E",
"8  c #245D12",
"9  c #3F6608",
"0  c #7F4400",
"q  c #840000",
"w  c #8C0000",
"e  c #950000",
"r  c #9C0000",
"t  c #871A03",
"y  c #A40000",
"u  c #AB0000",
"i  c #B40000",
"p  c #BC0000",
"a  c #B11001",
"s  c #9E2F02",
"d  c #8B3C06",
"f  c #9D3202",
"g  c #C30000",
"h  c #CB0000",
"j  c #D40000",
"k  c #DC0000",
"l  c #E40000",
"z  c #EC0000",
"x  c #F40000",
"c  c #FB0000",
"v  c #CA3A00",
"b  c #965901",
"n  c #9D5F00",
"m  c #A55300",
"M  c #A65900",
"N  c #926408",
"B  c #A66400",
"V  c #A96602",
"C  c #D34800",
"Z  c #D85400",
"A  c #DE5F00",
"S  c #E26900",
"D  c #E67200",
"F  c #E97C00",
"G  c #1E892E",
"H  c #139732",
"J  c #1A9A30",
"K  c #238F2F",
"L  c #289325",
"P  c #26912E",
"I  c #2A9E29",
"U  c #0FA837",
"Y  c #16AC34",
"T  c #1FB031",
"R  c #27A62F",
"E  c #2DA52B",
"W  c #2BAA2C",
"Q  c #2BB52E",
"!  c #33B42B",
"~  c #33B92C",
"^  c #3CBD29",
"/  c #468711",
"(  c #738B0F",
")  c #679A09",
"_  c #679312",
"`  c #6B9D1A",
"'  c #55A71E",
"]  c #51AA1A",
"[  c #53BB1F",
"{  c #5ABF1D",
"}  c #67B011",
"|  c #7CBD12",
" . c #549B24",
".. c #42B124",
"X. c #4CB123",
"o. c #57C21E",
"O. c #5AC01F",
"+. c #67C51B",
"@. c #64CB1D",
"#. c #6ACD1C",
"$. c #70CC17",
"%. c #63D01D",
"&. c #6CD41A",
"*. c #7AD115",
"=. c #7FDD15",
"-. c #75D41A",
";. c #76D818",
":. c #7ED818",
">. c #46C226",
",. c #4FC723",
"<. c #59CB20",
"1. c #9A8F08",
"2. c #93960B",
"3. c #8C8A13",
"4. c #BF8C00",
"5. c #B7A406",
"6. c #A6BD06",
"7. c #C38300",
"8. c #CC9000",
"9. c #D59802",
"0. c #EA8600",
"q. c #FC8600",
"w. c #F38A00",
"e. c #FF8B00",
"r. c #ED9500",
"t. c #FF9300",
"y. c #FE9B00",
"u. c #FFA500",
"i. c #FFAD00",
"p. c #E4BA00",
"a. c #FEB400",
"s. c #F1B900",
"d. c #FFBA00",
"f. c #8EC607",
"g. c #92DC0F",
"h. c #85D612",
"j. c #8CDC11",
"k. c #91DB11",
"l. c #99DD11",
"z. c #97E20E",
"x. c #9DE50E",
"c. c #9CE90D",
"v. c #89E112",
"b. c #93E410",
"n. c #AFE904",
"m. c #A1E70C",
"M. c #AAE50C",
"N. c #A6EE0A",
"B. c #A8EB0A",
"V. c #AFF207",
"C. c #B5F206",
"Z. c #B9F704",
"A. c #F6C300",
"S. c #FFC000",
"D. c #FECC00",
"F. c #FED300",
"G. c #FEDD00",
"H. c #C0E502",
"J. c #C5FB01",
"K. c #FFE700",
"L. c #FEE800",
"P. c None",
/* pixels */
"P.P.P.P.P.P.P.P.P.P.P.P.P.P.P.P.P.P.P.P.P.P.P.P.P.P.P.P.P.P.P.P.",
"P.P.P.P.P.P.P.P.P.P.P.P.P.P.P.P.P.P.P.P.P.P.P.P.P.P.P.P.P.P.P.P.",
"P.P.P.P.P.P.P.P.P.P.P.P.P.P.P.P.P.P.P.P.P.P.P.P.P.P.P.P.P.P.P.P.",
"P.P.P.P.P.P.P.P.P.P.P.P.P.P.P.P.P.P.P.P.P.P.P.P.P.P.P.P.P.P.P.P.",
"P.P.P.P.P.P.P.P.P.P.        . O O .         P.P.P.P.P.P.P.P.P.P.",
"P.P.P.P.P.P.P.  . : q u g k k j j h g u w > * .   P.P.P.P.P.P.P.",
"P.P.P.P.P.  ; u z z z z l l k j j h g g p p i u , &   P.P.P.P.P.",
"P.P.P.  & g x x x z l l l k k j j h h g p p i u u y < +   P.P.P.",
"P.P.  : x c x x x z z l l k k j j h h g p i i u y y r e &   P.P.",
"P.P.% x c c x x x z z l l l k j j h g p g p i u u u y y y O P.P.",
"P.  w c c c x x x z z l l k k k l k k k k k l k j h i r q + P.P.",
"P.  y c c c c x x z z l l l l h g h j k k k l k h i y w < + P.P.",
"P.  r c c c x x x z x z l k h g v C Z A S D D 0.0.0.0.q.q.3   P.",
"P.  w c c c c x x z z l k j h p a.L.L.G.F.D.d.d.i.u.y.t.e.m   P.",
"P.  q j c x k j j l z l k h p t B r.D.G.F.D.S.d.i.u.y.t.e.M   P.",
"P.  q g y r i g j k l j i d _ %.o.( 8.A.G.F.S.a.i.u.y.t.e.B   P.",
"P.  q p r r u p g g a N $.;.&.%.<.,.X.2.p.F.D.d.i.u.y.t.i.B   P.",
"P.  q g e w r r f 1.k.v.h.;.&.%.<.,.>.^ ' 5.s.d.d.i.i.i.d.B   P.",
"P.  q p w < b 6.N.c.b.v.=.;.&.%.<.,.>.^ ~ Q ` 9.y.y.t.i.d.B   P.",
"P.  q p f H.Z.V.N.c.b.v.=.;.&.%.<.,.>.^ ~ Q T R 3.F e.i.d.B   P.",
"P.  q p 4 X.M.C.N.c.b.v.=.;.&.%.<.,.>.^ ~ Q T Y U  .t.i.d.n   P.",
"P.P.; p 4 H E +.l.B.x.v.h.;.&.%.<.,.>.^ ~ Q ~ ! R P e.i.d.2 P.P.",
"P.P.  w 4 H E ..O.$.k.m.m.x.b.j.:.-.&.#.@.{ ..E J P e.i.7.  P.P.",
"P.P.P.. 1 H E ..O.$.h.b.B.C.J.J.C.c.k.*.+.[ ..E J P t.7.$ P.P.P.",
"P.P.P.P.  5 E ..O.$.h.z.N.Z.J.J.C.m.j.*.+.[ ..E J G 0   P.P.P.P.",
"P.P.P.P.P.  # 8 ] $.h.z.B.C.J.J.C.m.j.*.+.[ ..L 5 X   P.P.P.P.P.",
"P.P.P.P.P.P.P.    - 9 ) f.n.J.J.C.x.h.} / 7 =     P.P.P.P.P.P.P.",
"P.P.P.P.P.P.P.P.P.P.        o $ $ o         P.P.P.P.P.P.P.P.P.P.",
"P.P.P.P.P.P.P.P.P.P.P.P.P.P.P.P.P.P.P.P.P.P.P.P.P.P.P.P.P.P.P.P.",
"P.P.P.P.P.P.P.P.P.P.P.P.P.P.P.P.P.P.P.P.P.P.P.P.P.P.P.P.P.P.P.P.",
"P.P.P.P.P.P.P.P.P.P.P.P.P.P.P.P.P.P.P.P.P.P.P.P.P.P.P.P.P.P.P.P.",
"P.P.P.P.P.P.P.P.P.P.P.P.P.P.P.P.P.P.P.P.P.P.P.P.P.P.P.P.P.P.P.P."
};
