/* XPM */
static char *button_delete_xpm[] = {
/* columns rows colors chars-per-pixel */
"32 32 197 2 ",
"   c black",
".  c #030000",
"X  c #040000",
"o  c #060000",
"O  c #070000",
"+  c #080000",
"@  c #0B0000",
"#  c #0C0000",
"$  c #0D0000",
"%  c #0E0000",
"&  c #0F0000",
"*  c #100000",
"=  c #140000",
"-  c #170000",
";  c #190000",
":  c #1A0000",
">  c #1C0000",
",  c #1D0000",
"<  c #1E0000",
"1  c #210000",
"2  c #260000",
"3  c #2E0000",
"4  c #300000",
"5  c #330000",
"6  c #350000",
"7  c #360000",
"8  c #3A0200",
"9  c #460000",
"0  c #500000",
"q  c #5C0000",
"w  c #5F0000",
"e  c #660500",
"r  c #680000",
"t  c #690000",
"y  c #6A0000",
"u  c #6C0000",
"i  c #6D0000",
"p  c #6C0100",
"a  c #6F0200",
"s  c #6C0500",
"d  c #740000",
"f  c #780000",
"g  c #790000",
"h  c #7B0000",
"j  c #7C0000",
"k  c #7D0000",
"l  c #7D0700",
"z  c #7E0700",
"x  c #810000",
"c  c #830000",
"v  c #800300",
"b  c #870000",
"n  c #880000",
"m  c #880100",
"M  c #8D0000",
"N  c #8E0000",
"B  c #8F0000",
"V  c #8C0300",
"C  c #930000",
"Z  c #940000",
"A  c #970500",
"S  c #980000",
"D  c #990000",
"F  c #980100",
"G  c #9C0000",
"H  c #9B0500",
"J  c #A10000",
"K  c #A30000",
"L  c #A50000",
"P  c #A30400",
"I  c #A60400",
"U  c #AD0000",
"Y  c #B50000",
"T  c #B60000",
"R  c #BE0000",
"E  c #C10000",
"W  c #C70000",
"Q  c #C60300",
"!  c #C80000",
"~  c #C90000",
"^  c #CA0000",
"/  c #CB0000",
"(  c #CC0000",
")  c #CD0000",
"_  c #CE0000",
"`  c #CF0000",
"'  c #CE0101",
"]  c #CA0400",
"[  c #C50900",
"{  c #CF0900",
"}  c #C90E00",
"|  c #CD0E00",
" . c #D00000",
".. c #D10000",
"X. c #D00101",
"o. c #D10101",
"O. c #D20000",
"+. c #D30000",
"@. c #D40000",
"#. c #D50000",
"$. c #D40101",
"%. c #D60000",
"&. c #D70000",
"*. c #D60400",
"=. c #D80000",
"-. c #D90000",
";. c #DA0000",
":. c #DB0000",
">. c #DC0000",
",. c #DD0000",
"<. c #DE0000",
"1. c #DF0000",
"2. c #DA0400",
"3. c #D90F00",
"4. c #D70B0B",
"5. c #D70C0C",
"6. c #D71200",
"7. c #D81200",
"8. c #DE1000",
"9. c #DF1400",
"0. c #D11414",
"q. c #DA1111",
"w. c #DC1010",
"e. c #DE1111",
"r. c #D51F1F",
"t. c #D71F1F",
"y. c #D81F1F",
"u. c #E00000",
"i. c #E10000",
"p. c #E20000",
"a. c #E30000",
"s. c #E10200",
"d. c #E40000",
"f. c #E50000",
"g. c #E60000",
"h. c #E70000",
"j. c #E30700",
"k. c #E70700",
"l. c #E80000",
"z. c #E90000",
"x. c #E80100",
"c. c #EA0000",
"v. c #EB0000",
"b. c #EC0000",
"n. c #ED0000",
"m. c #EE0000",
"M. c #EF0000",
"N. c #ED0200",
"B. c #EC0400",
"V. c #EF0400",
"C. c #EC0606",
"Z. c #E30F00",
"A. c #EB0D00",
"S. c #E50D0D",
"D. c #F00200",
"F. c #F10D00",
"G. c #E21400",
"H. c #E31400",
"J. c #E41400",
"K. c #E81000",
"L. c #EF1200",
"P. c #EC1400",
"I. c #EF1400",
"U. c #F01100",
"Y. c #F11200",
"T. c #F41400",
"R. c #F61400",
"E. c #F71400",
"W. c #F91400",
"Q. c #E71010",
"!. c #E91111",
"~. c #EB1010",
"^. c #E11F1F",
"/. c #E31F1F",
"(. c #E51F1F",
"). c #F17575",
"_. c #F27575",
"`. c #F37575",
"'. c #EB9595",
"]. c #EC9595",
"[. c #F6CACA",
"{. c #F7CACA",
"}. c #F7CBCB",
"|. c #FAC9C9",
" X c #F9CACA",
".X c #FACACA",
"XX c #F8DDDD",
"oX c #F9DDDD",
"OX c #FBDCDC",
"+X c #FADDDD",
"@X c #FBDDDD",
"#X c #F8DEDE",
"$X c #F9DEDE",
"%X c #FADEDE",
"&X c #FEFEFE",
"*X c gray100",
"=X c None",
/* pixels */
"=X=X=X=X=X=X=X=X=X=X=X=X=X=X=X=X=X=X=X=X=X=X=X=X=X=X=X=X=X=X=X=X",
"=X=X=X=X=X=X=X=X=X=X=X=X=X            =X=X=X=X=X=X=X=X=X=X=X=X=X",
"=X=X=X=X=X=X=X=X=X=X  O 6 y V K K V y 6 O   =X=X=X=X=X=X=X=X=X=X",
"=X=X=X=X=X=X=X=X  : f W j.I.T.T.W.R.I.B.) h <   =X=X=X=X=X=X=X=X",
"=X=X=X=X=X=X=XO r Q G.I.F.v.v.v.v.v.v.A.I.G.] p O =X=X=X=X=X=X=X",
"=X=X=X=X=X  - S 6.I.M.v.v.v.v.v.v.d.d.d.d.i.K.7.G :   =X=X=X=X=X",
"=X=X=X=X=X: P J.M.M.M.v.v.v.M.v.v.v.v.i.i.i.i.i.9.I : =X=X=X=X=X",
"=X=X=X=X@ A K.M.M.M.v.M.M.M.M.M.M.M.M.M.M.i.i.<.<.8.H @ =X=X=X=X",
"=X=X=X  y Z.M.M.v.v.M.v.M.v.M.v.M.v.M.M.M.M.d.<.<.:.7.p   =X=X=X",
"=X=X=X2 | M.M.M.v.v.v.v.C.M.v.v.v.v.v.C.v.v.v.v.<.:.&.| 2 =X=X=X",
"=X=X  l V.M.v.v.v.v.v.)..X!.v.v.d.v.!..X).v.v.v.d.:.:.2.l   =X=X",
"=X=X% { M.v.v.v.d.d.).&X&X.X!.d.d.!..X&X&X).d.v.v.i.&.&.[ % =X=X",
"=X=X8 B.M.v.d.d.d.).&X&X&X&X.XQ.!..X&X&X&X&X).d.d.d.:.&.*.8 =X=X",
"=X  s v.v.d.d.i.S.@X&X&X&X&X&X.X.X&X&X&X&X&X@XS.d.i.<.+.&.e   =X",
"=X  V M.v.i.i.i.i.(.+X&X&X&X&X&X&X&X&X&X&X+X(.i.i.i.<.&.+.v   =X",
"=X  S v.v.<.<.i.i.i./.+X&X&X&X&X&X&X&X&X+X(.<.<.i.<.<.&.+.m   =X",
"=X  S v.d.:.<.:.<.<.:./.+X&X&X&X&X&X&X+X/.<.<.:.<.<.<.+.+.m   =X",
"=X  C v.d.:.:.:.:.:.:.e.}.&X&X&X&X&X&X}.e.:.:.:.:.:.:.+.) v   =X",
"=X  j v.v.:.&.:.&.:.e.}.&X&X&X&X&X&X&X&X}.q.&.:.&.:.&.+.+.p   =X",
"=X=X0 d.d.&.&.&.&.q.}.&X&X&X&X&X&X&X&X&X&X}.q.&.&.&.&.) ) 9 =X=X",
"=X=X- i.d.<.&.&.5.}.&X&X&X&X&X+X+X&X&X&X&X&X}.5.+.&.+.) ^ * =X=X",
"=X=X  K d.i.&.+.+.'.&X&X&X&X+Xy.y.+X&X&X&X&X].+.+.&.) ) V   =X=X",
"=X=X=X6 i.i.:.) +.+.].&X&X#Xr.+.+.y.+X&X&X'.+.+.+.) ) ) 3 =X=X=X",
"=X=X=X  C i.<.&.) ) +.].#Xr.+.) ) ) r.+X].+.) ) ) ) ) v   =X=X=X",
"=X=X=X=X% E i.<.+.) ) ) 0.) ) ) ) ) ) 0.) ) ) ) ) ) U @ =X=X=X=X",
"=X=X=X=X=X1 W <.:.+.) ^ ^ ) ^ ^ ^ ) ^ ^ ^ ) ) ) ^ Y < =X=X=X=X=X",
"=X=X=X=X=X  < Y :.:.&.+.) ^ ^ ^ ^ ^ W ^ ) ) ) ) K :   =X=X=X=X=X",
"=X=X=X=X=X=X=X@ h +.&.&.&.+.) +.) ) +.+.) ) W p @ =X=X=X=X=X=X=X",
"=X=X=X=X=X=X=X=X  < j W &.&.+.+.+.) +.) E f :   =X=X=X=X=X=X=X=X",
"=X=X=X=X=X=X=X=X=X=X  O 5 q j m b h q 3     =X=X=X=X=X=X=X=X=X=X",
"=X=X=X=X=X=X=X=X=X=X=X=X=X            =X=X=X=X=X=X=X=X=X=X=X=X=X",
"=X=X=X=X=X=X=X=X=X=X=X=X=X=X=X=X=X=X=X=X=X=X=X=X=X=X=X=X=X=X=X=X"
};
