/* XPM */
static char *mail_xpm[] = {
/* columns rows colors chars-per-pixel */
"32 32 165 2 ",
"   c #B56D00",
".  c #B77002",
"X  c #BA7404",
"o  c #BF7907",
"O  c #B77008",
"+  c #B9740B",
"@  c #BD7A09",
"#  c #BA7714",
"$  c #BC7A1B",
"%  c #C07907",
"&  c #C27D0A",
"*  c #BF8023",
"=  c #C5810E",
"-  c #CB840E",
";  c #DB860C",
":  c #C58511",
">  c #CA8511",
",  c #CD8B14",
"<  c #C0811A",
"1  c #C78F1D",
"2  c #CE8F1B",
"3  c #D18C15",
"4  c #D98F17",
"5  c #CC911D",
"6  c #D3931B",
"7  c #DB971C",
"8  c #DC9A1E",
"9  c #E19216",
"0  c #E49618",
"q  c #FF9B17",
"w  c #F7A11F",
"e  c #FFA31D",
"r  c #C08226",
"t  c #C68A26",
"y  c #CA8F25",
"u  c #C48929",
"i  c #CB9527",
"p  c #CD9B25",
"a  c #D19323",
"s  c #D39C25",
"d  c #DE9D22",
"f  c #D29C29",
"g  c #CD9D35",
"h  c #CA9639",
"j  c #CB983E",
"k  c #E09E22",
"l  c #EB9D21",
"z  c #DDA524",
"x  c #DBA22B",
"c  c #DCAB2A",
"v  c #D2A436",
"b  c #DFAD31",
"n  c #D5AD39",
"m  c #DCAF39",
"M  c #DCB239",
"N  c #E4A225",
"B  c #E2A529",
"V  c #E8A729",
"C  c #E5AC2D",
"Z  c #EBAC2C",
"A  c #FFA621",
"S  c #F4A827",
"D  c #FFAC26",
"F  c #F6AA28",
"G  c #FFAF2A",
"H  c #EEB02F",
"J  c #FFB225",
"K  c #F3B12C",
"L  c #FFB32C",
"P  c #E1AE35",
"I  c #E3B63C",
"U  c #E6BC3E",
"Y  c #EBBE3E",
"T  c #F5B533",
"R  c #FFB631",
"E  c #FEBB35",
"W  c #F3BC3C",
"Q  c #FEBE39",
"!  c #FFC333",
"~  c #F6C03D",
"^  c #FFC33C",
"/  c #FCC83C",
"(  c #FFD73B",
")  c #CA9742",
"_  c #CD9C43",
"`  c #CD9C4C",
"'  c #CD9C53",
"]  c #D1A04B",
"[  c #D7AB4B",
"{  c #DEB943",
"}  c #D1A555",
"|  c #D6AC69",
" . c #D9B26C",
".. c #D5AD71",
"X. c #DAB473",
"o. c #DCBB77",
"O. c #DBB87F",
"+. c #E1C046",
"@. c #EEC348",
"#. c #F5C241",
"$. c #FFC641",
"%. c #FECA44",
"&. c #F2C548",
"*. c #F3CA4A",
"=. c #FFCE4A",
"-. c #FFD344",
";. c #FFD24C",
":. c #FFDD4B",
">. c #E3C651",
",. c #F2D153",
"<. c #FED352",
"1. c #FEDB55",
"2. c #F4DB5E",
"3. c #FDDB5A",
"4. c #FFE255",
"5. c #FFE45B",
"6. c #FFEA5D",
"7. c #E7C861",
"8. c #EBD760",
"9. c #FBDE62",
"0. c #FEE463",
"q. c #FFEB62",
"w. c #F2E66A",
"e. c #FFE768",
"r. c #FFED6B",
"t. c #FFF067",
"y. c #FFF26C",
"u. c #F5EA73",
"i. c #FFED72",
"p. c #FFF473",
"a. c #FFF975",
"s. c #FFF67A",
"d. c #FFF97C",
"f. c #DDBB83",
"g. c #DDBC88",
"h. c #E0C18B",
"j. c #F1DE86",
"k. c #E5CC9B",
"l. c #E8D19A",
"z. c #F3E38C",
"x. c #FFFD84",
"c. c #FFFF8A",
"v. c #FFFF91",
"b. c #FFFF9C",
"n. c #E8D0A5",
"m. c #EDDBB4",
"M. c #F1E6A8",
"N. c #F8EFAB",
"B. c #FFFEA3",
"V. c #FFFFAC",
"C. c #F5EAB6",
"Z. c #F1E4BB",
"A. c #FFFFB1",
"S. c #F6F0BF",
"D. c #FFFFBE",
"F. c #F8EFCE",
"G. c #FDFCC3",
"H. c #FFFFCB",
"J. c #FAF4D4",
"K. c #FDFDD5",
"L. c #FBF5DA",
"P. c #FFFFDC",
"I. c #FDFCEA",
"U. c gray100",
"Y. c None",
/* pixels */
"Y.Y.Y.Y.Y.Y.Y.Y.Y.Y.Y.Y.Y.Y.Y.Y.Y.Y.Y.Y.Y.Y.Y.Y.Y.Y.Y.Y.Y.Y.Y.Y.",
"Y.Y.Y.Y.Y.Y.Y.Y.Y.Y.Y.Y.Y.Y.Y.Y.Y.Y.Y.Y.Y.Y.Y.. . Y.Y.Y.Y.Y.Y.Y.",
"Y.Y.Y.Y.Y.Y.Y.Y.Y.Y.Y.Y.Y.Y.Y.Y.Y.Y.Y.  r ' g.g.O Y.Y.Y.Y.Y.Y.Y.",
"Y.Y.Y.Y.Y.Y.Y.Y.Y.Y.Y.Y.Y.Y.Y.Y.  * ..m.J.H.U.f.O Y.Y.Y.Y.Y.Y.Y.",
"Y.Y.Y.Y.Y.Y.Y.Y.Y.Y.Y.Y.Y.Y.+ ' n.J.H.A.c.b.J.` ` Y.Y.Y.Y.Y.Y.Y.",
"Y.Y.Y.Y.Y.Y.Y.Y.Y.Y.Y.Y.# | Z.H.A.v.x.x.c.P.f.h. .Y.Y.Y.Y.Y.Y.Y.",
"Y.Y.Y.Y.Y.Y.Y.Y.Y.Y.$  .C.D.b.x.x.c.c.x.A.I.j L.X.Y.Y.Y.Y.Y.Y.Y.",
"Y.Y.Y.Y.Y.Y.Y.Y.#  .N.B.c.d.x.x.c.c.d.c.P.k.n I.f.Y.Y.Y.Y.Y.Y.Y.",
"Y.Y.Y.Y.Y.Y.  _ z.v.s.p.s.s.d.x.c.i.i.b.J.u w.K.k.Y.Y.Y.Y.Y.Y.Y.",
"Y.Y.Y.Y.Y.< 7.x.y.y.y.p.p.s.s.d.d.3.r.G.f.p c.D.m.. Y.Y.Y.Y.Y.Y.",
"Y.Y.Y.  s 6.y.q.t.t.y.y.y.p.p.a.3.%.s.G.h u.c.V.F.+           Y.",
"Y.Y.  c 6.6.6.6.q.q.q.q.q.y.p.e.Q ;.v.l.v c.c.b.K.u 8 V H H 6   ",
"Y.X C :.4.4.5.5.6.q.6.q.q.0.1.Q ^ q.b.} 8.v.c.c.K.] %.e.0.Q &   ",
"  o 2 3 6 N Z Q -.1.5.6.5.;.%.;.0.y.j.g x.c.c.c.G.X.I e.$.> > Y.",
"Y.X Z W Z d 6 > > 7 Z #.1.q.6.q.6.y.[ >.c.x.x.x.A.l.x -.3 d 7 Y.",
"Y.Y.& 1.y.t.0.1.*.P s 2 6 x @.5.t.2.i s.x.x.x.x.v.S.a 7 f %.- Y.",
"Y.Y.Y.6 t.y.p.y.0.<.<.<.&.P a 5 m f { x.d.d.x.x.d.D.) : 9.$.X Y.",
"Y.Y.Y.  Y y.1.$.Q $.$.=.<.t.y.2.I p 1.a.s.s.s.d.a.V.o.b 0.T X Y.",
"Y.Y.Y.Y.= =.Q Q Q ^ $.$.=.e.y.4.-.-.:.i.a.p.a.a.p.x.M.f 3.H . Y.",
"Y.Y.Y.Y.Y.B / ^ Q Q ^ $.Q ! ! / -.-.$.3.i.i.p.p.s.d.A.j W Z Y.Y.",
"Y.Y.Y.Y.Y.& ^ ^ ^ ^ E A A E E L L ^ -.4.r.i.p.a.w.+.g y W V Y.Y.",
"Y.Y.Y.Y.Y.  C $.^ G q D E A e E =.;.( :.r.e.2.m : > B =.<.N Y.Y.",
"Y.Y.Y.Y.Y.Y.3 $.D A G D A L E ! ! -.1.,.m 1 + d W %.<.<.;.d Y.Y.",
"Y.Y.Y.Y.Y.Y.. K L D A G L J J / ;.U a - 4 9 0 ^ $.%.%.=.;.d Y.Y.",
"Y.Y.Y.Y.Y.Y.Y.d E D J D L / *.b 5 2 l L Q Q R Q Q $.$.%.<.d Y.Y.",
"Y.Y.Y.Y.Y.Y.Y.o / J L / $.c , 4 F R R Q ^ %.=.3.%.Q Q $.%.N Y.Y.",
"Y.Y.Y.Y.Y.Y.Y.  Z -./ C - ; w D D G R Q Q Q $.0.0.Q $.$.=.V Y.Y.",
"Y.Y.Y.Y.Y.Y.Y.Y., z @ X F L D D G D L E ^ $.$.<.<.Q T T T d . Y.",
"Y.Y.Y.Y.Y.Y.Y.Y.. Y.Y.& R L E E Q E Z B d 6 , = & X X .   . Y.Y.",
"Y.Y.Y.Y.Y.Y.Y.Y.Y.Y.Y.X T H d 2 & .   Y.Y.Y.Y.Y.Y.Y.Y.Y.Y.Y.Y.Y.",
"Y.Y.Y.Y.Y.Y.Y.Y.Y.Y.Y.. X . Y.Y.Y.Y.Y.Y.Y.Y.Y.Y.Y.Y.Y.Y.Y.Y.Y.Y.",
"Y.Y.Y.Y.Y.Y.Y.Y.Y.Y.Y.Y.Y.Y.Y.Y.Y.Y.Y.Y.Y.Y.Y.Y.Y.Y.Y.Y.Y.Y.Y.Y."
};
