/* XPM */
static char *button_assign_xpm[] = {
/* columns rows colors chars-per-pixel */
"32 32 256 2 ",
"   c #757A0D",
".  c #7E7D10",
"X  c #887C14",
"o  c #9C7B1C",
"O  c #AE7119",
"+  c #B4771B",
"@  c #A27F23",
"#  c #269405",
"$  c #359607",
"%  c #00A306",
"&  c #03A60B",
"*  c #07A50A",
"=  c #17AA0B",
"-  c #01B10C",
";  c #0DAD13",
":  c #15AF1C",
">  c #01B313",
",  c #01BB1A",
"<  c #08B619",
"1  c #18B21A",
"2  c #29A30B",
"3  c #21AE13",
"4  c #31AE13",
"5  c #008730",
"6  c #018B35",
"7  c #098F3A",
"8  c #029137",
"9  c #029538",
"0  c #0C913C",
"q  c #049B3A",
"w  c #0D993F",
"e  c #10933D",
"r  c #17B420",
"t  c #03A13A",
"y  c #0CA23D",
"u  c #0AA93E",
"i  c #03B43B",
"p  c #0BBB3D",
"a  c #22B628",
"s  c #478504",
"d  c #578709",
"f  c #628B0E",
"g  c #738C10",
"h  c #4EA914",
"j  c #6FA016",
"k  c #6B9C27",
"l  c #7B972A",
"z  c #56B738",
"x  c #74A32F",
"c  c #68A632",
"v  c #04CA1E",
"b  c #04C32B",
"n  c #0CCC2E",
"m  c #04C628",
"M  c #16C92B",
"N  c #0DD121",
"B  c #14D929",
"V  c #04C433",
"C  c #06CC35",
"Z  c #0ACA31",
"A  c #05C13B",
"S  c #0CC538",
"D  c #11CA3A",
"F  c #0CD135",
"G  c #0DD53F",
"H  c #19D739",
"J  c #20CF24",
"K  c #35CD21",
"L  c #26D12C",
"P  c #25D836",
"I  c #1AE13C",
"U  c #27EA36",
"Y  c #52C422",
"T  c #119140",
"R  c #219C49",
"E  c #299D4E",
"W  c #0EA341",
"Q  c #11A142",
"!  c #13B341",
"~  c #18BA44",
"^  c #28BA4B",
"/  c #2AAE50",
"(  c #36A856",
")  c #3EAB5A",
"_  c #38A856",
"`  c #42AC5C",
"'  c #42B75D",
"]  c #46AD60",
"[  c #56B969",
"{  c #47B665",
"}  c #68BF73",
"|  c #19CD41",
" . c #0ED641",
".. c #14D744",
"X. c #1CDA44",
"o. c #1ADE48",
"O. c #28CF46",
"+. c #23DD4B",
"@. c #24DA42",
"#. c #38DE4E",
"$. c #30C451",
"%. c #39DF5B",
"&. c #31DC50",
"*. c #25E24C",
"=. c #2BE34C",
"-. c #28E849",
";. c #38E949",
":. c #2EF44A",
">. c #33FC46",
",. c #2DEE55",
"<. c #2CE350",
"1. c #32E552",
"2. c #34EA53",
"3. c #3BEC56",
"4. c #36EF58",
"5. c #3DEE58",
"6. c #3BE752",
"7. c #29F358",
"8. c #39F35A",
"9. c #3DF657",
"0. c #48CA45",
"q. c #56CA45",
"w. c #52CE4F",
"e. c #4BD44A",
"r. c #58CC53",
"t. c #5ECF59",
"y. c #51DC58",
"u. c #49D95A",
"i. c #64C846",
"p. c #73CB4A",
"a. c #4FE745",
"s. c #42EE59",
"d. c #44EB57",
"f. c #56EC5A",
"g. c #45F15A",
"h. c #4BF35D",
"j. c #50F55F",
"k. c #51FA5E",
"l. c #62EF5D",
"z. c #6FDD6A",
"x. c #6FC377",
"c. c #79CB7D",
"v. c #6CD973",
"b. c #4EE766",
"n. c #53E665",
"m. c #54E869",
"M. c #4DFC62",
"N. c #4BF761",
"B. c #52F660",
"V. c #55F962",
"C. c #5BFC64",
"Z. c #59F868",
"A. c #6EE16E",
"S. c #6BFD6F",
"D. c #61FF68",
"F. c #6FEB77",
"G. c #72E070",
"H. c #71FE74",
"J. c #9A841A",
"K. c #8E8C25",
"L. c #958C27",
"P. c #949532",
"I. c #A28524",
"U. c #AD8229",
"Y. c #A78928",
"T. c #BB872A",
"R. c #B38728",
"E. c #BF8C37",
"W. c #A89839",
"Q. c #86A232",
"!. c #CB8E2E",
"~. c #D08325",
"^. c #D5932F",
"/. c #CB8B32",
"(. c #C58D35",
"). c #D99835",
"_. c #E5A63F",
"`. c #CA9243",
"'. c #D49947",
"]. c #DFA957",
"[. c #E6AC49",
"{. c #EFB345",
"}. c #EEB34B",
"|. c #E3AA51",
" X c #ECB95A",
".X c #DDA861",
"XX c #E3AC62",
"oX c #E4B065",
"OX c #F0BE69",
"+X c #EABD7A",
"@X c #83E37A",
"#X c #81F07C",
"$X c #F7C64E",
"%X c #FCD155",
"&X c #FAD467",
"*X c #EDCB76",
"=X c #F7D47A",
"-X c #FFE46B",
";X c #FFED6C",
":X c #FFEF67",
">X c #FFEB73",
",X c #FFEC7D",
"<X c #FDE27E",
"1X c #FFF07A",
"2X c #8BD488",
"3X c #93D78F",
"4X c #83EE85",
"5X c #8BEB85",
"6X c #9DEC8E",
"7X c #91E583",
"8X c #8FFF86",
"9X c #94FB8C",
"0X c #9BFE8E",
"qX c #93F88A",
"wX c #9CF396",
"eX c #9FFF90",
"rX c #B2E69E",
"tX c #A6F096",
"yX c #A1FD92",
"uX c #ADFF9A",
"iX c #B2FF9D",
"pX c #BAFFA3",
"aX c #DDD18B",
"sX c #F2CB8B",
"dX c #F9D887",
"fX c #F5D290",
"gX c #FFEF87",
"hX c #FFEE89",
"jX c #FFF58C",
"kX c #FFF584",
"lX c #FEE992",
"zX c #FFF393",
"xX c #FEF49C",
"cX c #FFFA9A",
"vX c #C2EEA9",
"bX c #C3FFA7",
"nX c #CAF1AE",
"mX c #CDFDAC",
"MX c #C7F8AB",
"NX c #D3FEB3",
"BX c #DCFCB9",
"VX c #D9FFB6",
"CX c #FCE5A9",
"ZX c #FFFAA5",
"AX c #FFFDAB",
"SX c #FFF7A9",
"DX c #FEEFB2",
"FX c #E4FFBD",
"GX c #FEFCB2",
"HX c #FEFEBC",
"JX c #EBFFC1",
"KX c #E7FFC0",
"LX c #F0FFC5",
"PX c #FFFFC5",
"IX c #FFFFC9",
"UX c None",
/* pixels */
"UXUXUXUXUXUXUXUXUXUXUXUXUXUXUXUXUXUXUXUXUXUXUXUXUXUXUXUXUXUXUXUX",
"UXUXUXUXUXUXUXUXUXUXUXUXUXUX7 R _ ) _ R 7 UXUXUXUXUXUXUXUXUXUXUX",
"UXUXUXUXUXUXUXUXUXUXUXe [ 3XnXFXFXFXFXBXvX2X] 7 UXUXUXUXUXUXUXUX",
"UXUXUXUXUXUXUXUXUX0 x.nXFXmXiXyXeXeXuXpXVXHXFXrX` 6 UXUXUXUXUXUX",
"UXUXUXUXUXUXUXUX` vXNX0XS.V.V.j.k.V.V.D.S.8XbXFXFXc.6 UXUXUXUXUX",
"UXUXUXUXUXUX5 } NXqXj.s.h.j.B.B.V.C.C.D.D.C.D.8XNXLX2X6 UXUXUXUX",
"UXUXUXUXUX6 x.pXZ.s.g.h.h.j.j.B.V.V.C.C.C.D.D.C.H.mXLXc.5 UXUXUX",
"UXUXUXUXUX[ qXs.3.d.g.g.h.h.j.j.j.V.V.V.C.C.C.D.C.S.mXKX` UXUXUX",
"UXUXUXUX( F.3.9.8.s.s.s.g.h.h.j.j.B.B.B.V.C.C.C.C.C.H.VXrX7 UXUX",
"UXUXUXe A.;.2.e.q.8.s.s.s.g.g.g.h.j.B.B.V.V.V.C.C.C.l.W.aX{ UXUX",
"UXUXUX' ;.-.2.K.+ e.4.3.s.s.g.g.h.h.h.h.j.B.k.C.M.p.+ I.mX3XUXUX",
"UXUXe u.B ,.z ).$XI.e.4.3.s.d.g.g.g.h.h.j.j.M.f.Q.~.+ a.9XnX7 UX",
"UXUX/ P H #.I.%X:X{.K.1.2.3.3.s.s.g.g.g.h.N.i.Y.{.^.Y 9.H.NXR UX",
"UXUX$.B *.c _.;X;X;X[.l 2.3.3.d.d.s.s.g.g.x !.&X}.j >.V.C.pX) UX",
"UX7 O.N w.R.-X>X>X>X>X).c ,.2.4.3.5.8.q.Y.[.1X&XJ.U N.B.B.iX] UX",
"UXw H v P. XkX1X,X,X1X,X!.z ,.3.4.6.x (.&XkX1XT.K g.j.j.h.yX` UX",
"UXQ F 2 /.jXgXgXgXgXgXjXdXT.0.7.0.J.|.hXjXjX'.h :.N.h.h.h.9XE UX",
"UXu n 3 Y. XcXcXzXzXzXzXcX=XJ.k E.=XcXzXcXOXg U g.g.h.h.h.5XT UX",
"UXy Z > L f '.lXcXxXcXxXcXZX*X].xXZXxXZXlXo J 3.s.s.s.s.B.v.UXUX",
"UXq Z - y.P $ U.dXAXSXZXZXSXAXAXSXSXAXAX(.4 -.3.3.s.s.s.Z.' UXUX",
"UX8 S - w.4Xv = X oXGXHXGXGXGXGXGXGXHXXXd I 3.3.3.3.3.5.n.e UXUX",
"UXUXp , ; tX%.m - d `.CXPXHXHXHXHXPXfX. N ,.2.2.3.3.3.s.^ UXUXUX",
"UXUXt Z & r.wX..F , # @ sXIXPXPXPXDXU.1 *.1.1.1.2.3.3.&.8 UXUXUX",
"UXUX8 p > * 7X4X .F m *   .XHXIXPX'.$ G <.<.<.1.1.1.3.y UXUXUXUX",
"UXUXUXt V & : 6X4X.. .C - s E.CX+Xd Z *.=.+.1.1.=.2.! UXUXUXUXUX",
"UXUXUX6 i b % : 7XwX%. .C , # o X < o.X.+.b.m.@.-.~ 6 UXUXUXUXUX",
"UXUXUXUX8 i b & & t.tX4Xb.+.V * ; +.1.m.F.y.H H ! 5 UXUXUXUXUXUX",
"UXUXUXUXUX6 i V > % r r.@X6X6XG.A.@Xz.w.M n | y UXUXUXUXUXUXUXUX",
"UXUXUXUXUXUX6 q p m > & & ; 1 a r ; , m D ! 8 UXUXUXUXUXUXUXUXUX",
"UXUXUXUXUXUXUXUX8 t i A V b b b V S p u 8 UXUXUXUXUXUXUXUXUXUXUX",
"UXUXUXUXUXUXUXUXUXUXUX8 9 q y t q 8 UXUXUXUXUXUXUXUXUXUXUXUXUXUX",
"UXUXUXUXUXUXUXUXUXUXUXUXUXUXUXUXUXUXUXUXUXUXUXUXUXUXUXUXUXUXUXUX"
};
