/* XPM */
static char *button_account_xpm[] = {
/* columns rows colors chars-per-pixel */
"32 32 118 2 ",
"   c #010101",
".  c #0B0B0B",
"X  c #100E09",
"o  c #121212",
"O  c #1B1B1B",
"+  c #3E2F16",
"@  c #242424",
"#  c gray17",
"$  c #353535",
"%  c gray23",
"&  c #463416",
"*  c #4C3919",
"=  c #4E3C20",
"-  c #544225",
";  c #5A4726",
":  c #5B4826",
">  c #5D4B2E",
",  c #4A453B",
"<  c #655434",
"1  c #695636",
"2  c #6C5C3D",
"3  c #735F3C",
"4  c #6F603F",
"5  c #74613B",
"6  c #444444",
"7  c #4B4B4B",
"8  c #51514F",
"9  c #535353",
"0  c #5B5B5B",
"q  c #756444",
"w  c #7B6947",
"e  c #7C6C48",
"r  c #626262",
"t  c gray43",
"y  c #797979",
"u  c #806F49",
"i  c #84714B",
"p  c #8A774E",
"a  c #867450",
"s  c #8A7652",
"d  c #8D7B56",
"f  c #897A5D",
"g  c #917F59",
"h  c #8E7F61",
"j  c #95815D",
"k  c #99855C",
"l  c #9E895F",
"z  c #9D8961",
"x  c #96876B",
"c  c #A3906C",
"v  c #AA956C",
"b  c #AA9671",
"n  c #AE9A74",
"m  c #B19B71",
"M  c #B4A079",
"N  c #BAA47B",
"B  c #C1AB7F",
"V  c #868686",
"C  c gray55",
"Z  c #929292",
"A  c #9B9B9B",
"S  c #AA9D84",
"D  c #B3A385",
"F  c #BCA780",
"G  c #BEA981",
"H  c #A3A3A3",
"J  c #AEAAA4",
"K  c #ACACAC",
"L  c #B1AEA8",
"P  c #B5B2AC",
"I  c #B8B4AE",
"U  c #B5B5B5",
"Y  c #BEBAB4",
"T  c #BBBBBB",
"R  c #C2AB81",
"E  c #C0AE8E",
"W  c #C7B186",
"Q  c #CDB78C",
"!  c #CFB88C",
"~  c #D0B98D",
"^  c #CDB994",
"/  c #D2BF9B",
"(  c #C6BAA0",
")  c #D7C096",
"_  c #D9C297",
"`  c #DAC49A",
"'  c #DDCAA3",
"]  c #DCCCAC",
"[  c #D2C7B0",
"{  c #D6CEBE",
"}  c #E2CCA2",
"|  c #E4CFA9",
" . c #E6D3AD",
".. c #E8D5AF",
"X. c #E6D5B3",
"o. c #E9D6B1",
"O. c #EBD8B4",
"+. c #ECDBBB",
"@. c #F0DFBD",
"#. c #F2E1BF",
"$. c gray77",
"%. c #CCCCCB",
"&. c #DCD4C4",
"*. c #D6D2C8",
"=. c #DAD6CE",
"-. c #D4D4D4",
";. c #D7D8D7",
":. c #DBDBDB",
">. c #E7DBC5",
",. c #E4DFD7",
"<. c #F3E3C4",
"1. c #F5E5C8",
"2. c #F9E8CA",
"3. c #F6E9D2",
"4. c #E4E4E4",
"5. c #E9E8E5",
"6. c #ECECEC",
"7. c None",
/* pixels */
"7.7.7.7.7.7.7.7.7.7.7.7.7.7.7.7.7.7.7.7.7.7.7.7.7.7.7.7.7.7.7.7.",
"7.7.7.7.7.7.7.7.7.7.7.U T $.$.T K 7.7.7.7.7.7.7.7.7.7.7.7.7.7.7.",
"7.7.7.7.7.7.7.7.7.T $.%.U K K U -.%.U 7.7.7.7.7.7.7.7.7.7.7.7.7.",
"7.7.7.7.7.7.7.7.T T K A H H H H Z Z -.$.7.7.7.7.7.7.7.7.7.7.7.7.",
"7.7.7.7.7.7.7.T T H H K 7.7.7.7.A H V %.%.7.7.7.7.7.7.7.7.7.7.7.",
"7.7.7.7.7.7.7.T K A 7.7.7.7.7.7.7.7.A Z ;.7.7.7.7.7.7.7.7.7.7.7.",
"7.7.7.7.7.7.K T A H 7.7.7.7.7.7.7.7.Z Z $.%.7.7.7.7.7.7.7.7.7.7.",
"7.7.7.7.7.7.K U Z 7.7.7.7.7.7.7.7.7.7.Z K $.7.7.7.7.7.7.7.7.7.7.",
"7.7.7.7.7.7.K K Z 7.7.7.7.7.7.7.7.7.7.Z H %.7.7.7.7.7.7.7.7.7.7.",
"7.7.7.7.7.7.K K A 7.7.7.7.7.7.7.7.7.7.Z A $.7.7.7.7.7.7.7.7.7.7.",
"7.7.7.7.7.7.K K H 7.7.7.7.7.7.7.7.7.7.A A r   7.7.7.7.7.7.7.7.7.",
"7.7.7.7.7.7.U U K 7.7.7.7.7.7.7.7.7.7.H y     o 7.7.7.7.7.7.7.7.",
"7.7.7.7.7.7.K U K 7.7.7.7.7.7.7.7.7.7.H $   7.7.% . 7.7.7.7.7.7.",
"7.7.7.7.7.7.K T T 7.7.7.7.7.7.7.7.7.7.A     7.7.7.r o 7.7.7.7.7.",
"7.7.7.7.k N x j f n F F R R R G G G n ,     X q 7.7.y o 7.7.7.7.",
"7.7.7.7.p l m ^ ' X.+.+.X. .X.X.+.O.] 0 @     X 7.7.7.y o 7.7.7.",
"7.7.7.7.p l m B ! / } ..<.3.1.+.| ` D 0 0 O O     7.7.7.0 . 7.7.",
"7.7.7.7.p l m B ! / } o.<.2.@.o.} ` S 0 9 6 o O     7.7.7.$ 7.7.",
"7.7.7.7.p l m B ! _ } | @.1.@.X.| ` D 0 8 6 O . O     7.7.7.  7.",
"7.7.7.7.p l m B ~ ~ } ..@.1.@...} / E t 6 6 % . . O     7.7.    ",
"7.7.7.7.p l m B ~ _ }  .@.2.@.o.} ) %.U 9 % $ # . .           7.",
"7.7.7.7.p l m B ~ _ }  .@.2.@...' U ;.;.K 6 # # @ O X .     7.7.",
"7.7.7.7.p l m B ~ _ } ..<.2.#.O.[ U %.;.-.T 8 @ O O o o 7.7.7.7.",
"7.7.7.7.p l m B ~ _ } ..#.2.@.{ *.$.K ;.-.J * + 7.7.7.7.7.7.7.7.",
"7.7.7.7.p l m W ! _ }  .@.2.&.:.%.%.%.;.J - * & 7.7.7.7.7.7.7.7.",
"7.7.7.7.p l m B ! / }  .@.<.:.-.-.-.:.L > ; ; - 7.7.7.7.7.7.7.7.",
"7.7.7.7.p l m B ~ _ } X.>.,.;.;.:.:.P < 1 5 5 1 7.7.7.7.7.7.7.7.",
"7.7.7.7.i k v B W ~ _ { 5.:.:.:.4.I 1 3 i s u 4 7.7.7.7.7.7.7.7.",
"7.7.7.7.u d l b M F ( 5.:.4.:.4.I 1 q s j g i 4 7.7.7.7.7.7.7.7.",
"7.7.7.7.w a g z c b ;.4.5.4.5.Y q w s h j d e 2 7.7.7.7.7.7.7.7.",
"7.7.7.7.7.7.7.7.7.7.;.6.5.6.K .     7.7.7.7.7.7.7.7.7.7.7.7.7.7.",
"7.7.7.7.7.7.7.7.7.7.-.4.5.T 7.7.7.7.7.7.7.7.7.7.7.7.7.7.7.7.7.7."
};
