/* XPM */
static char *button_judges_xpm[] = {
/* columns rows colors chars-per-pixel */
"32 32 196 2 ",
"   c #000100",
".  c #0A0603",
"X  c #020900",
"o  c #170F06",
"O  c #041401",
"+  c #0C1202",
"@  c #171007",
"#  c #1A1107",
"$  c #121B03",
"%  c #16110A",
"&  c #2A1C0D",
"*  c #212D0F",
"=  c #33230F",
"-  c #362410",
";  c #382611",
":  c #403112",
">  c #483714",
",  c #4E3A16",
"<  c #523D17",
"1  c #543B1A",
"2  c #5A3C1B",
"3  c #1E4C00",
"4  c #1C450E",
"5  c #284004",
"6  c #245600",
"7  c #2E540D",
"8  c #1E6306",
"9  c #376F14",
"0  c #56411B",
"q  c #5F401D",
"w  c #64431E",
"e  c #574129",
"r  c #584129",
"t  c #644622",
"y  c #66482E",
"u  c #704E27",
"i  c #724F28",
"p  c #76532D",
"a  c #7C5933",
"s  c #74642D",
"d  c #855B2B",
"f  c #805F3A",
"g  c #915F3A",
"h  c #99652D",
"j  c #9A692E",
"k  c #876036",
"l  c #85643E",
"z  c #88633C",
"x  c #9D6B32",
"c  c #946C3D",
"v  c #A27137",
"b  c #A27138",
"n  c #8C5F4F",
"m  c #856849",
"M  c #8F6D49",
"N  c #9F7545",
"B  c #916353",
"V  c #957655",
"C  c #9F7D58",
"Z  c #A97844",
"A  c #AC7F59",
"S  c #3B8100",
"D  c #398F0A",
"F  c #389605",
"G  c #3E9A03",
"H  c #3F930B",
"J  c #538011",
"K  c #598311",
"L  c #5E9917",
"P  c #649514",
"I  c #6D9415",
"U  c #4FA500",
"Y  c #4EB500",
"T  c #5CBB00",
"R  c #54B109",
"E  c #65BC05",
"W  c #67BB0D",
"Q  c #71BF0E",
"!  c #65A51E",
"~  c #6DA818",
"^  c #79AD10",
"/  c #78AC18",
"(  c #7DB31F",
")  c #75BC1A",
"_  c #4B9A29",
"`  c #549C20",
"'  c #5FA325",
"]  c #60A325",
"[  c #76AF24",
"{  c #76B024",
"}  c #5FC902",
"|  c #62C303",
" . c #69C702",
".. c #68CC00",
"X. c #7DCA07",
"o. c #7DD003",
"O. c #7EC610",
"+. c #76B053",
"@. c #78B155",
"#. c #7AAA73",
"$. c #90AC1D",
"%. c #8CB715",
"&. c #85B91A",
"*. c #88BA1D",
"=. c #98BB1F",
"-. c #819530",
";. c #889137",
":. c #8FBC24",
">. c #83B728",
",. c #90BD24",
"<. c #9AB827",
"1. c #91B82B",
"2. c #97BD3E",
"3. c #A6BC24",
"4. c #C3853C",
"5. c #C5883F",
"6. c #CE893F",
"7. c #83DE01",
"8. c #96DB0A",
"9. c #9ADC0A",
"0. c #95C01D",
"q. c #8EE201",
"w. c #94E501",
"e. c #99E204",
"r. c #A3E604",
"t. c #A7E805",
"y. c #9FC528",
"u. c #A1C622",
"i. c #A7CA21",
"p. c #AACB24",
"a. c #AACC2A",
"s. c #B3D025",
"d. c #BBD427",
"f. c #B5D129",
"g. c #B9D32A",
"h. c #A98155",
"j. c #AD875D",
"k. c #B1845C",
"l. c #A28A6A",
"z. c #B98E66",
"x. c #B98C69",
"c. c #C48942",
"v. c #CD8F44",
"b. c #D29244",
"n. c #C08D52",
"m. c #CE995B",
"M. c #E4A355",
"N. c #ECAA5A",
"B. c #FDB55E",
"V. c #C1A37E",
"C. c #C8A079",
"Z. c #CEA87D",
"A. c #DBAE78",
"S. c #E1AA6F",
"D. c #FFB761",
"F. c #FFB864",
"G. c #FDBC6E",
"H. c #FEBE71",
"J. c #F5BC7A",
"K. c #A3C55F",
"L. c #C2DF5F",
"P. c #C3DF62",
"I. c #FFC075",
"U. c #FDC37C",
"Y. c #BCBD95",
"T. c #A2B3A3",
"R. c #D8AD82",
"E. c #DBB285",
"W. c #E3BA8D",
"Q. c #B9D0B5",
"!. c #C6DA97",
"~. c #C8DB99",
"^. c #FEC682",
"/. c #FFC885",
"(. c #FECC8E",
"). c #EDC491",
"_. c #E8C499",
"`. c #FFCF94",
"'. c #FFD096",
"]. c #FFD29C",
"[. c #E9C7A0",
"{. c #FED5A3",
"}. c #FCD7AA",
"|. c #FFD9AC",
" X c #FFDDB3",
".X c #FFDFB9",
"XX c #FFE1BD",
"oX c #CFDECC",
"OX c #DFD2C1",
"+X c #D0DECE",
"@X c #D4D8DB",
"#X c #DFE6D3",
"$X c #FFE2C0",
"%X c #E7EDD9",
"&X c #F3F3F5",
"*X c None",
/* pixels */
"*X*X*X*X*X*X*X*X*X*X*X*X*X*X*X*X*X*X*X*X*X*X*X*X*X*X*X*X*X*X*X*X",
"*X*X*X*X*X*X          *X*X*X*X*X*X*X*X*X*X          *X*X*X*X*X*X",
"*X*X*X*X  @ e m V m r o   *X*X*X*X*X*X  @ e m V m e @   *X*X*X*X",
"*X*X*X  ; p a a a a a p ;   *X*X*X*X  ; p a a a a a p ;   *X*X*X",
"*X*X  & 2 w 2 w q q q q w &   *X*X  & q q q 2 w q w w 2 &   *X*X",
"*X*X. 1 2 2 2 2 2 2 q 2 2 1 . *X*X. 1 2 2 2 2 2 2 2 2 2 1 . *X*X",
"*X*X& 2 2 2 2 2 2 a S.Z 2 2 & *X*X& 1 1 2 2 2 2 a S.Z 2 2 & *X*X",
"*X  = w t i f h.E.}.{.(.m.d -     ; w t u k A E.}.{.(.m.d ;   *X",
"*X% c B.^.`. X.X$XXX X].^.B.c % % c D.U.`. XXXXXXX X'.^.B.c @ *X",
"*X1 v.F./.{. XXX$X$X X{.^.M.v f a b M./.]..X$XXX$X X{./.F.v.1 *X",
"*X# M.B./.]. X$XXXXX X).N z M M M M l N ). XXXXXXX X]./.B.M.@ *X",
"*X  @ c.^.'.W.C.C.C.Z.a i i i i i p i i a _. X.X X|.'.^.c.@   *X",
"*X*X*X; G.'.g k.z.h.w w w w w w t w w w w l }. X|.{.`.G.; *X*X*X",
"*X*X  4 -.^.x.}.}.R.q q q w q w q q d j w q V. X X}.^.-.4   *X*X",
"*XX 9 ` ' Y.R.B n y e 2 2 q 2 2 2 k J.H.6.q a (.(.).Y.' ` 9 X *X",
"  7 ! [ >.K.#X;.s , 1 2 2 2 2 q j.{.'.^.G.j 0 1.2.#XK.>.[ ! 7   ",
"  L ( ,.y.u.=.a.<.0 2 2 2 t C [.$X.X{.(.H.4.< <.a.<.u.y.,.( L   ",
"X ~ *.%.a.f.d.d.3.< x n.A.}.XXXX$XXX|.'.I.b.< 3.d.d.f.p.%.*.~ X ",
"  J &.%.p.s.d.d.3., 5.I.`.|.XXXXXX.X|.`.H.c., 3.d.d.s.p.%.&.J   ",
"*X+ P ^ 0.u.p.p.$.> j I.(.{. X XXX X{.(.H.j > $.p.i.u.0.^ P + *X",
"*X*XX 5 K / &.*.I : q N.(.].|. X X|.].(.N.q : I &.&./ K 5 X *X*X",
"*X*X*X*X    + $ $ = 0 l.U.].|. X|.|.{.I.l.1 = $ $ +     *X*X*X*X",
"*X*X*X*X*X*X*X*X  * T.@XOXG.'. X X'.H.OX@XT.*   *X*X*X*X*X*X*X*X",
"*X*X*X*X*X*X*X*XO #.Q.+X&X}.^.(.(.U.}.&XoXQ.#.O *X*X*X*X*X*X*X*X",
"*X*X*X*X*X*X*X  8 _ D H @.%X]. X X{.%X+.H D _ 8   *X*X*X*X*X*X*X",
"*X*X*X*X*X*X*X  F R W Q &.) ~..X X!.) O.Q W R F   *X*X*X*X*X*X*X",
"*X*X*X*X*X*X*X  G | E X.e.9.8.P.L.8.9.8.X.E | G   *X*X*X*X*X*X*X",
"*X*X*X*X*X*X*X  3 }  .o.w.r.t.t.t.t.r.e.o. .} 3   *X*X*X*X*X*X*X",
"*X*X*X*X*X*X*X*X  6 Y ..7.q.w.w.w.w.q.7...Y 6   *X*X*X*X*X*X*X*X",
"*X*X*X*X*X*X*X*X*X  X 3 S U T | | T U S 3 X   *X*X*X*X*X*X*X*X*X",
"*X*X*X*X*X*X*X*X*X*X*X*X                *X*X*X*X*X*X*X*X*X*X*X*X",
"*X*X*X*X*X*X*X*X*X*X*X*X*X*X*X*X*X*X*X*X*X*X*X*X*X*X*X*X*X*X*X*X"
};
