/* XPM */
static char *button_add_xpm[] = {
/* columns rows colors chars-per-pixel */
"32 32 243 2 ",
"   c black",
".  c #000300",
"X  c #010400",
"o  c #020400",
"O  c #030500",
"+  c #010601",
"@  c #030701",
"#  c #030801",
"$  c #020A02",
"%  c #020C03",
"&  c #030C03",
"*  c #030F03",
"=  c #070E01",
"-  c #000F05",
";  c #010F05",
":  c #041605",
">  c #051706",
",  c #0B1301",
"<  c #051906",
"1  c #071C06",
"2  c #0E1D03",
"3  c #081905",
"4  c #091B05",
"5  c #0D1B04",
"6  c #0B1C04",
"7  c #081D06",
"8  c #0F1F04",
"9  c #101E03",
"0  c #052A0D",
"q  c #062B0C",
"w  c #09290A",
"e  c #0B2B0A",
"r  c #102E09",
"t  c #1C3305",
"y  c #103E0F",
"u  c #0C3F11",
"i  c #0E3F10",
"p  c #233603",
"a  c #253803",
"s  c #165213",
"d  c #1D5611",
"f  c #2D4D07",
"g  c #1A6117",
"h  c #156119",
"j  c #19671A",
"k  c #1F6D19",
"l  c #19721D",
"z  c #1A761F",
"x  c #1F791D",
"c  c #226515",
"v  c #316F11",
"b  c #336F10",
"n  c #257017",
"m  c #2D7314",
"M  c #21761B",
"N  c #247A1B",
"B  c #267B1B",
"V  c #297919",
"C  c #297D1A",
"Z  c #307012",
"A  c #357310",
"S  c #1E7E20",
"D  c #496A05",
"F  c #4C6C04",
"G  c #47770A",
"H  c #447D0D",
"J  c #29861E",
"K  c #3FA21E",
"L  c #209326",
"P  c #229928",
"I  c #23A02A",
"U  c #2BA92A",
"Y  c #34A323",
"T  c #3AA622",
"R  c #3FAF22",
"E  c #2AB12D",
"W  c #28B42F",
"Q  c #29B52F",
"!  c #2BB42E",
"~  c #2BB52E",
"^  c #2BB62E",
"/  c #2DB42C",
"(  c #2EB72D",
")  c #2FB72D",
"_  c #2CB62E",
"`  c #34BA2B",
"'  c #35BA2B",
"]  c #37BB2A",
"[  c #36BA2B",
"{  c #36BB2B",
"}  c #31B82C",
"|  c #30B82D",
" . c #33B92C",
".. c #3BBD29",
"X. c #3ABC2A",
"o. c #3CBE29",
"O. c #3EBE28",
"+. c #21B131",
"@. c #22B131",
"#. c #26B330",
"$. c #49800C",
"%. c #4E8B0F",
"&. c #578F0C",
"*. c #5C940B",
"=. c #498B10",
"-. c #569A10",
";. c #688E04",
":. c #6C9003",
">. c #44A61C",
",. c #4DA919",
"<. c #5CB617",
"1. c #5ABB1A",
"2. c #7CA201",
"3. c #46B120",
"4. c #45B622",
"5. c #41BF27",
"6. c #40BF28",
"7. c #5DCD1F",
"8. c #5ECD1F",
"9. c #5FCD1F",
"0. c #61CF1E",
"q. c #62CF1E",
"w. c #6ACF1A",
"e. c #7BCF12",
"r. c #63D01D",
"t. c #64D01D",
"y. c #66D11C",
"u. c #67D21C",
"i. c #6AD31B",
"p. c #6DD31B",
"a. c #6ED21A",
"s. c #6DD41A",
"d. c #6DD51A",
"f. c #6ED51A",
"g. c #6FD51A",
"h. c #77D917",
"j. c #7ADA16",
"k. c #7ADA17",
"l. c #7CD815",
"z. c #7CDB16",
"x. c #7DDC15",
"c. c #7EDC15",
"v. c #7FDC15",
"b. c #7FDD15",
"n. c #71D218",
"m. c #70D619",
"M. c #71D619",
"N. c #73D618",
"B. c #74D718",
"V. c #75D818",
"C. c #76D818",
"Z. c #41C027",
"A. c #43C027",
"S. c #44C126",
"D. c #45C126",
"F. c #44C127",
"G. c #46C226",
"H. c #47C226",
"J. c #47C326",
"K. c #4FC623",
"L. c #4AC224",
"P. c #4AC425",
"I. c #4EC624",
"U. c #52C421",
"Y. c #51C823",
"T. c #56CA21",
"R. c #57CA21",
"E. c #57CB21",
"W. c #54C922",
"Q. c #59CA20",
"!. c #59CB20",
"~. c #5ACC20",
"^. c #7FDA35",
"/. c #51C351",
"(. c #6DD04B",
"). c #75D06F",
"_. c #79D26E",
"`. c #7ED46C",
"'. c #80A400",
"]. c #82D310",
"[. c #84DF13",
"{. c #85DF13",
"}. c #81DD14",
"|. c #80DD15",
" X c #81DD15",
".X c #83DE14",
"XX c #85DF14",
"oX c #94E60F",
"OX c #95E60F",
"+X c #95E70F",
"@X c #97E70E",
"#X c #96E70F",
"$X c #97E70F",
"%X c #9BE90D",
"&X c #99E80E",
"*X c #9AE80E",
"=X c #9AE90E",
"-X c #9CE90D",
";X c #9FEB0C",
":X c #87E013",
">X c #86E014",
",X c #88E012",
"<X c #89E112",
"1X c #8AE212",
"2X c #8CE211",
"3X c #8DE311",
"4X c #8EE311",
"5X c #8FE311",
"6X c #8CE212",
"7X c #8DE312",
"8X c #91E510",
"9X c #90E411",
"0X c #92E510",
"qX c #93E510",
"wX c #93E610",
"eX c #94E610",
"rX c #A3EC0B",
"tX c #A4ED0B",
"yX c #A0EB0C",
"uX c #AEF108",
"iX c #B2F307",
"pX c #B7F505",
"aX c #B5F506",
"sX c #B9F605",
"dX c #BBF704",
"fX c #9CE730",
"gX c #93DF54",
"hX c #A9E85F",
"jX c #ADEA5E",
"kX c #82D66B",
"lX c #91DB78",
"zX c #A0E462",
"xX c #A4E661",
"cX c #BBEE70",
"vX c #9CDD9D",
"bX c #AAE587",
"nX c #AEE786",
"mX c #A4E289",
"MX c #A7E488",
"NX c #B5E98A",
"BX c #B4E7A3",
"VX c gray100",
"CX c None",
/* pixels */
"CXCXCXCXCXCXCXCXCXCXCXCXCXCXCXCXCXCXCXCXCXCXCXCXCXCXCXCXCXCXCXCX",
"CXCXCXCXCXCXCXCXCXCXCXCXCX            CXCXCXCXCXCXCXCXCXCXCXCXCX",
"CXCXCXCXCXCXCXCXCXCX    p D ;.2.2.:.F a @   CXCXCXCXCXCXCXCXCXCX",
"CXCXCXCXCXCXCXCX  9 H e.=XuXaXsXdXsXiXyX].$.9   CXCXCXCXCXCXCXCX",
"CXCXCXCXCXCXCX@ Z i.#XrX;XqX5X<X<X{.}.7X#XoXn.A # CXCXCXCXCXCXCX",
"CXCXCXCXCX  3 K b.rX#XeX5X5X<X:X{.}.b.j.B.B.:X}.>.3   CXCXCXCXCX",
"CXCXCXCXCX1 R qX;X$XwX5X5X5XqXqXqX<X:Xj.B.M.d.d.}.3.7 CXCXCXCXCX",
"CXCXCXCX% Y #X=X$XwXwXwX=X=X=X=X=X=X=X=X4Xj.i.u.u.C.T % CXCXCXCX",
"CXCXCX  z 5X=X$XeXqXqXqX#XqXqXeXeXeXeXeXeXeX}.u.0.~.p.x   CXCXCX",
"CXCXCX0 a.=X$XqX5X5X7X5X7XfXcXcXcXcXfX7X7X7X7XXXr.~.T.~.0 CXCXCX",
"CXCX  J -X#XqX<X:X>X>X>X:XjXVXVXVXVXjX:X:X:X:X:X}.~.W.~.J   CXCX",
"CXCX- a.#XeX:X}.}.}.}.}.}.hXVXVXVXVXhX}.}.}.}.}.}.f.Y.I.L.- CXCX",
"CXCXu #XeX7Xj.j.j.j.j.j.j.xXVXVXVXVXxXj.j.j.j.j.j.k.T.L.Y.u CXCX",
"CX  v qX9Xx.B.B.V.V.B.M.B.zXVXVXVXVXzXB.B.B.B.B.B.B.r.G.A.c   CX",
"CX  %.qX7XM.d.d.^.gXgXgXgXNXVXVXVXVXNXgXgXgXgX^.d.d.i.G.5.V   CX",
"CX  *.7XXXu.u.u.nXVXVXVXVXVXVXVXVXVXVXVXVXVXVXnXu.u.u.G.O.C   CX",
"CX  *.<Xb.9.r.9.bXVXVXVXVXVXVXVXVXVXVXVXVXVXVXbX0.0.r.Z...N   CX",
"CX  &.:Xb.~.~.~.MXVXVXVXVXVXVXVXVXVXVXVXVXVXVXMX~.~.~.6.{ M   CX",
"CX  G }.j.T.T.W.mXVXVXVXVXVXVXVXVXVXVXVXVXVXVXmXT.W.W...` g   CX",
"CXCXf b.b.W.I.I.(.lXlXlXlXBXVXVXVXVXBXlXlXlXlX(.I.I.L. . .y CXCX",
"CXCX, x.j.9.G.L.G.L.G.G.G.kXVXVXVXVXkXG.L.G.G.G.J.A.O. ./ - CXCX",
"CXCX  -.C.M.5.5.5.5.6.6.5.`.VXVXVXVX`.5.6.6.5.5.Z.Z. ./ S   CXCX",
"CXCXCXt B.M.T.......O....._.VXVXVXVX_...O.......O.` ( ~ w CXCXCX",
"CXCXCX  =.d.i.G.` ` `  .` ).VXVXVXVX).`  .` ` ` ` / / l   CXCXCX",
"CXCXCXCX= <.u.u.A. .( ( ( /.vXvXvXvX/./ ( ( /  .( Q P $ CXCXCXCX",
"CXCXCXCXCX8 1.9.~.A./ #.Q Q Q #.Q #.Q Q Q Q ( ( _ I < CXCXCXCXCX",
"CXCXCXCXCX  5 ,.~.T.Y...^ +.+.+.+.+.+.#.Q  .( Q L >   CXCXCXCXCX",
"CXCXCXCXCXCXCX@ v U.Y.I.P.A.O.{ ` ` `  . .( E h + CXCXCXCXCXCXCX",
"CXCXCXCXCXCXCXCX  6 m 4.J.A.Z.O...{ `  .U j <   CXCXCXCXCXCXCXCX",
"CXCXCXCXCXCXCXCXCXCX  @ r d n B N k s e     CXCXCXCXCXCXCXCXCXCX",
"CXCXCXCXCXCXCXCXCXCXCXCXCX            CXCXCXCXCXCXCXCXCXCXCXCXCX",
"CXCXCXCXCXCXCXCXCXCXCXCXCXCXCXCXCXCXCXCXCXCXCXCXCXCXCXCXCXCXCXCX"
};
