/* XPM */
static char *button_find_next_xpm[] = {
/* columns rows colors chars-per-pixel */
"64 64 256 2 ",
"   c #000000",
".  c #000509",
"X  c #00090C",
"o  c #000C12",
"O  c #001214",
"+  c #001524",
"@  c #001F26",
"#  c #001A29",
"$  c #001D36",
"%  c #00252C",
"&  c #002A2F",
"*  c #002F33",
"=  c #00273B",
"-  c #002F3E",
";  c #002947",
":  c #002B50",
">  c #003856",
",  c #00345D",
"<  c #00385F",
"1  c #003965",
"2  c #003F6C",
"3  c #00474A",
"4  c #004755",
"5  c #004B5B",
"6  c #004464",
"7  c #004069",
"8  c #004E6A",
"9  c #004279",
"0  c #00517F",
"q  c #00666C",
"w  c #006374",
"e  c #00637A",
"r  c #007B7F",
"t  c #004880",
"y  c #004B8A",
"u  c #005485",
"i  c #005C86",
"p  c #005093",
"a  c #00599C",
"s  c #00688D",
"d  c #007483",
"f  c #00708F",
"g  c #006295",
"h  c #007B9A",
"j  c #0059A4",
"k  c #0062A0",
"l  c #0070A3",
"z  c #007BA2",
"x  c #007BA9",
"c  c #0064B3",
"v  c #006AB6",
"b  c #086BB7",
"n  c #006EB8",
"m  c #007FB7",
"M  c #0074BB",
"N  c #007ABE",
"B  c #0C79BE",
"V  c #0D74BC",
"C  c #1A77BD",
"Z  c #1275BC",
"A  c #007EC1",
"S  c #0A7EC0",
"D  c #177EC0",
"F  c #197DC0",
"G  c #0095A0",
"H  c #009AA8",
"J  c #0088BB",
"K  c #009BBC",
"L  c #00A6AA",
"P  c #00B2BC",
"I  c #0084C3",
"U  c #0A84C3",
"Y  c #008AC7",
"T  c #008EC9",
"R  c #0D8DC9",
"E  c #1F81C2",
"W  c #1B88C6",
"Q  c #168DC8",
"!  c #1789C7",
"~  c #0094CB",
"^  c #019ACE",
"/  c #0C9ACE",
"(  c #0E95CC",
")  c #1C95CC",
"_  c #139ACF",
"`  c #1B9ACE",
"'  c #019ED1",
"]  c #0D9ED1",
"[  c #139ED0",
"{  c #1A9DD0",
"}  c #248AC7",
"|  c #2C8DC8",
" . c #2B8AC7",
".. c #3D8BC7",
"X. c #2391CA",
"o. c #239BCF",
"O. c #2D9CCF",
"+. c #3293CB",
"@. c #359BCF",
"#. c #3E95CC",
"$. c #239DD0",
"%. c #2C9ED0",
"&. c #359ED1",
"*. c #3A9DD1",
"=. c #00B2C7",
"-. c #02A4D3",
";. c #0CA3D3",
":. c #02AAD6",
">. c #0CAAD6",
",. c #02AED8",
"<. c #0BAED8",
"1. c #13A3D3",
"2. c #1AA3D3",
"3. c #13A9D6",
"4. c #19A8D6",
"5. c #19AFD9",
"6. c #00B3D7",
"7. c #01B3DB",
"8. c #00BADE",
"9. c #09B6DD",
"0. c #22A4D3",
"q. c #2CA4D3",
"w. c #2DA9D6",
"e. c #25A8D5",
"r. c #35A4D3",
"t. c #3BA4D4",
"y. c #35A9D6",
"u. c #3BAAD6",
"i. c #2EB7DD",
"p. c #25BCDF",
"a. c #2ABADE",
"s. c #37B4DB",
"d. c #00BEE0",
"f. c #18BFE0",
"g. c #22BFE0",
"h. c #4594CB",
"j. c #5A9CCF",
"k. c #4C9ED1",
"l. c #44A4D3",
"z. c #4EA6D4",
"x. c #44AAD6",
"c. c #4EAAD6",
"v. c #47ACD8",
"b. c #4EADD8",
"n. c #54A5D4",
"m. c #55AAD6",
"M. c #5CAAD6",
"N. c #55AED9",
"B. c #5CAED8",
"V. c #47B3DA",
"C. c #5CB1D9",
"Z. c #53B3DA",
"A. c #63A5D3",
"S. c #62ABD7",
"D. c #6CAAD6",
"F. c #63AED8",
"G. c #6DAFD9",
"H. c #75ADD7",
"J. c #71AFD9",
"K. c #63B2DA",
"L. c #6BB3DA",
"P. c #73B5DB",
"I. c #7CB6DC",
"U. c #7CB9DE",
"Y. c #70B8DD",
"T. c #00CACF",
"R. c #01C3E2",
"E. c #01CBE6",
"W. c #0ACBE6",
"Q. c #00CFE8",
"!. c #08C6E4",
"~. c #13CEE7",
"^. c #1ECCE6",
"/. c #11CFE8",
"(. c #1FCBE6",
"). c #00D1E7",
"_. c #02D4EA",
"`. c #0BD3EA",
"'. c #04DBED",
"]. c #0BDCEE",
"[. c #14D4EA",
"{. c #1ED5EB",
"}. c #14DCEE",
"|. c #1EDBEE",
" X c #0BDFF0",
".X c #20C2E2",
"XX c #30CAE5",
"oX c #21D4EB",
"OX c #24D9EC",
"+X c #28DDEE",
"@X c #32DFF0",
"#X c #39D7EC",
"$X c #00E4E7",
"%X c #00E4F1",
"&X c #0CE2F1",
"*X c #00ECF6",
"=X c #14E3F1",
"-X c #1FE4F2",
";X c #1FE9F4",
":X c #00F4F9",
">X c #0AF1F8",
",X c #00FAFC",
"<X c #17F4F9",
"1X c #28E4F2",
"2X c #28EBF5",
"3X c #32E4F2",
"4X c #3BE5F2",
"5X c #32ECF6",
"6X c #3DEBF5",
"7X c #21F6FB",
"8X c #29F9FC",
"9X c #3DF0F7",
"0X c #32F0F8",
"qX c #3DF2F9",
"wX c #4EC8E5",
"eX c #43DFEF",
"rX c #55D6EB",
"tX c #6ECAE6",
"yX c #73D6EB",
"uX c #49EDF6",
"iX c #5FE1F0",
"pX c #49F4F9",
"aX c #56F5FA",
"sX c #57F8FC",
"dX c #6BE6F2",
"fX c #7CE1F1",
"gX c #84BCDF",
"hX c #81B4DB",
"jX c #8DBFE1",
"kX c #84BDE0",
"lX c #90BFE1",
"zX c #8DC0E1",
"xX c #96C4E3",
"cX c #9EC8E4",
"vX c #98C5E3",
"bX c #93DAED",
"nX c #A0C9E5",
"mX c #A9CEE7",
"MX c #AFD2E9",
"NX c #B3D3EA",
"BX c #98E3F1",
"VX c #87E9F4",
"CX c #A4ECF5",
"ZX c #AFF1F8",
"AX c #B7E8F4",
"SX c #C0DCEE",
"DX c #C5E8F3",
"FX c #D7E9F4",
"GX c #DBF5FA",
"HX c #D2F7FB",
"JX c #C9F4F9",
"KX c #EBF5FA",
"LX c #E7F7FB",
"PX c #F4FBFD",
"IX c #FFFFFF",
"UX c None",
/* pixels */
"UXUXUXUXUXUXUXUXUXUXUXUXUXUXUXUXUXUXUXUXUXUXUXUXUXUXUXUXUXUXUXUXUXUXUXUXUXUXUXUXUXUXUXUXUXUXUXUXUXUXUXUXUXUXUXUXUXUXUXUXUXUXUXUX",
"UXUXUXUXUXUXUXUXUXUXUXUXUXUXUXUXUXUXUXUXUXUXUXUX                                UXUXUXUXUXUXUXUXUXUXUXUXUXUXUXUXUXUXUXUXUXUXUXUX",
"UXUXUXUXUXUXUXUXUXUXUXUXUXUXUXUXUXUXUXUXUX                                            UXUXUXUXUXUXUXUXUXUXUXUXUXUXUXUXUXUXUXUXUX",
"UXUXUXUXUXUXUXUXUXUXUXUXUXUXUXUXUXUX            X $ , 9 p j c c c c j p 9 , $ X             UXUXUXUXUXUXUXUXUXUXUXUXUXUXUXUXUXUX",
"UXUXUXUXUXUXUXUXUXUXUXUXUXUXUXUXUX        o : y c c c c c c c c c c c c c c c c y : o         UXUXUXUXUXUXUXUXUXUXUXUXUXUXUXUXUX",
"UXUXUXUXUXUXUXUXUXUXUXUXUXUXUX        + 9 c c c c c C ..j.H.H.hXhXhXD.j...C c c c c c 9 +         UXUXUXUXUXUXUXUXUXUXUXUXUXUXUX",
"UXUXUXUXUXUXUXUXUXUXUXUXUX        + 9 c c v b ..H.nXNXNXNXNXNXNXNXNXNXNXNXNXmXH...b c c v t +         UXUXUXUXUXUXUXUXUXUXUXUXUX",
"UXUXUXUXUXUXUXUXUXUXUXUX      . 1 c v v C A.nXmXmXmXmXmXmXmXmXmXmXmXmXmXmXmXmXmXmXcXA.C v v c 1 .       UXUXUXUXUXUXUXUXUXUXUXUX",
"UXUXUXUXUXUXUXUXUXUXUX      + a v v Z A.cXcXcXcXnXcXcXcXcXcXnXcXnXnXnXnXcXnXnXcXcXcXcXcXA.Z v v a +       UXUXUXUXUXUXUXUXUXUXUX",
"UXUXUXUXUXUXUXUXUXUX      ; c v v h.lXxXxXxXxXxXvXvXvXxXvXvXvXvXlXvXxXxXvXvXvXvXvXvXvXvXxXlXh.v v c ;       UXUXUXUXUXUXUXUXUXUX",
"UXUXUXUXUXUXUXUXUX      < v n V D.jXjXjXjXjXjXjXzXzXzXzXzXzXzXzXzXjXlXlXzXzXzXzXzXjXjXzXjXjXjXS.V n v <       UXUXUXUXUXUXUXUXUX",
"UXUXUXUXUXUXUXUX      2 n n E H.hXgXgXgXgXgXgXgXU.zXU.zXU.zXgXkXkXgXgXgXkXkXgXgXgXgXgXgXhXgXgXgXP.C n n 2       UXUXUXUXUXUXUXUX",
"UXUXUXUXUXUXUX      < n n E H.U.I.I.U.I.U.U.U.U.U.U.U.U.U.U.U.gXU.U.U.U.U.U.U.U.U.U.U.U.U.I.I.I.I.P.E M n <       UXUXUXUXUXUXUX",
"UXUXUXUXUXUX      ; n M C L.P.P.Y.P.Y.P.P.P.P.Y.Y.Y.Y.Y.Y.Y.Y.Y.Y.Y.Y.Y.P.P.Y.Y.P.P.P.P.P.Y.P.P.P.H.L.C M n ;       UXUXUXUXUXUX",
"UXUXUXUXUXUX    + n M B M.G.G.G.G.G.G.G.G.L.G.L.L.L.Y.L.L.L.G.Y.Y.Y.G.L.Y.L.L.L.L.L.L.G.G.L.L.G.G.G.G.S.V M n +     UXUXUXUXUXUX",
"UXUXUXUXUX    . k M M k.S.S.F.F.F.F.K.K.K.B. .m.K.K.K.K.K.K.K.K.K.K.K.K.K.K.K.K.K.K.K.K.F.F.F.F.F.F.S.S.z.M M k .     UXUXUXUXUX",
"UXUXUXUXUX    7 M M | M.M.M.M.M.M.B.B.B.B.Y.KXD. .m.B.C.C.B.C.C.C.C.C.C.C.C.C.B.B.B.B.B.B.B.B.M.M.M.M.M.A.| M n 2     UXUXUXUXUX",
"UXUXUXUX    + M N S n.n.m.m.m.m.m.m.m.m.N.Y.IXIXFXh.+.b.N.N.N.N.N.N.N.N.N.N.N.N.N.N.N.M.m.m.m.m.m.m.m.n.n.n.S A M +     UXUXUXUX",
"UXUXUX      u N M +.k.z.z.z.z.z.c.c.c.n.b.K.IXIXIXIXMX .*.b.b.b.b.b.b.b.b.b.b.b.b.c.c.c.c.c.c.z.z.m.z.z.z.z.+.A M u       UXUXUX",
"UXUXUX    # M N J k.l.l.z.l.l.z.l.x.x.x.v.C.IXIXIXIXIXPXgX} t.v.v.v.v.v.v.v.v.v.v.v.x.x.x.v.x.v.z.l.l.l.l.l.k.J N N #     UXUXUX",
"UXUXUX    0 N N X.l.l.l.l.l.l.l.t.x.l.l.x.Z.IXIXIXIXIXIXIXGXA.} u.x.u.x.u.x.x.u.x.x.u.x.x.t.x.l.t.l.l.l.l.l.l.} N N u     UXUXUX",
"UXUX    o N N I @.*.*.*.*.t.r.t.t.t.u.t.t.Z.IXIXIXIXIXIXIXIXIXDXh.X.u.u.u.u.u.u.u.t.u.t.t.t.t.t.t.t.t.t.*.*.*.@.I N N o     UXUX",
"UXUX    > N I U *.@.r.*.&.r.r.r.y.r.y.y.y.Z.IXIXIXIXIXIXIXIXIXIXIXnXX.%.y.y.y.y.y.t.y.w.t.y.r.y.r.r.r.r.@.*.&.*.U I N >     UXUX",
"UXUX    g A I Q %.@.%.%.%.q.%.q.q.w.w.q.q.V.IXIXIXIXIXIXIXIXIXIXIXIXPXI.W w.w.w.y.w.w.w.w.q.q.q.q.q.%.%.%.%.%.%.! I I g     UXUX",
"UX    X N I I ) %.%.%.q.%.q.q.q.q.q.q.e.w.V.IXIXIXIXIXIXIXIXIXIXIXIXIXIXFXn.! w.w.w.e.w.e.q.q.q.q.q.q.%.%.%.%.O.) I I J X     UX",
"UX    = I I I ) o.o.o.o.0.o.0.0.0.q.0.e.e.V.IXIXIXIXIXIXIXIXIXIXIXIXIXIXIXIXNX+.) e.e.e.0.e.q.0.0.0.$.0.$.$.o.o.) I I I =     UX",
"UX    6 I Y Y ) $.$.$.0.0.0.0.0.0.0.0.0.0.s.IXIXIXIXIXIXIXIXIXIXIXIXIXIXIXIXIXIXvXW ` 4.0.4.0.0.0.{ 0.$.0.$.o.o.o.Y I I 6     UX",
"UX    i I Y Y ` ` ` ` { ` 2.2.2.2.4.4.4.4.s.IXIXIXIXIXIXIXIXIXIXIXIXIXIXIXIXIXIXIXKXJ.! 2.2.4.2.2.2.{ 2.{ { { ` ) Y Y Y i     UX",
"UX    l Y Y Y ` { { { 1.2.2.2.1.2.2.2.4.4.s.IXIXIXIXIXIXIXIXIXIXIXIXIXIXIXIXIXIXIXIXIXFXk.R 1.2.2.2.2.2.{ { { _ ` T Y Y l     UX",
"UX    m Y T T _ _ _ _ 1.1._ 1.1.3.3.3.3.3.i.IXIXIXIXIXIXIXIXIXIXIXIXIXIXIXIXIXIXIXIXIXIXIXNX| ( 1.1.1.{ 1.[ [ _ _ T T Y m     UX",
"UX    T T T ~ _ [ _ 1.[ 1.1.1.1.3.3.3.3.3.i.IXIXIXIXIXIXIXIXIXIXIXIXIXIXIXIXIXIXIXIXIXIXIXIXPXjX! / ;.1.[ [ [ _ / ~ T T T     UX",
"UX    T T ~ ~ / ] ] ] 1.;.;.;.3.;.3.>.>.<.i.IXIXIXIXIXIXIXIXIXIXIXIXIXIXIXIXIXIXIXIXIXIXIXIXIXIXKXG.1.;.;.1.] ] ( ~ ~ T T     UX",
"UX    T ~ ~ ~ ^ ] ] ;.;.;.;.>.;.>.>.<.<.<.a.IXIXIXIXIXIXIXIXIXIXIXIXIXIXIXIXIXIXIXIXIXIXIXIXIXIXLXtX;.;.;.;.] ] ^ ~ ~ ~ ~     UX",
"UX    ~ ~ ~ ~ ^ ] ] ;.;.>.-.>.>.>.<.<.<.<.a.IXIXIXIXIXIXIXIXIXIXIXIXIXIXIXIXIXIXIXIXIXIXIXIXIXbX5.>.:.;.-.;.] ] ^ ^ ~ ~ ~     UX",
"UX    J ~ ^ ^ ^ ' -.-.>.-.>.>.<.:.,.<.<.,.p.IXIXIXIXIXIXIXIXIXIXIXIXIXIXIXIXIXIXIXIXIXIXIXAXa.<.>.:.>.-.;.;.;.' ^ ^ ~ ~ J     UX",
"UX    x ~ ^ ^ ' ' -.;.-.-.:.:.:.,.<.,.9.7.p.IXIXIXIXIXIXIXIXIXIXIXIXIXIXIXIXIXIXIXIXIXGXwX,.<.,.:.:.>.:.-.-.-.' ' ^ ^ ~ x     UX",
"UX    s ^ ^ ^ ' ' -.-.-.:.:.,.,.,.7.7.9.7..XIXIXIXIXIXIXIXIXIXIXIXIXIXIXIXIXIXIXIXPXyX9.7.7.7.,.,.,.,.:.-.-.-.-.' ' ^ ^ s     UX",
"UX    8 ^ ' ' -.-.-.:.:.:.,.,.,.,.7.7.7.7..XIXIXIXIXIXIXIXIXIXIXIXIXIXIXIXIXIXIXBXf.8.7.7.7.7.,.,.,.,.,.:.:.-.-.-.' ' ^ 8     UX",
"UX    - ' ' -.-.-.-.-.,.,.,.,.7.7.7.9.8.8..XIXIXIXIXIXIXIXIXIXIXIXIXIXIXIXIXDXXX8.8.8.8.9.8.,.7.,.,.,.,.:.:.-.-.-.' ' ^ -     UX",
"UX    X ^ ' -.-.-.:.:.:.6.,.7.,.7.7.8.8.8..XIXIXIXIXIXIXIXIXIXIXIXIXIXIXGXrXR.R.d.d.8.8.8.8.8.7.8.,.,.,.:.:.:.-.-.-.-.' X     UX",
"UXUX    z -.-.-.:.:.:.,.,.7.,.8.8.8.8.8.d..XIXIXIXIXIXIXIXIXIXIXIXIXPXfX!.R.R.R.R.d.d.d.d.8.8.8.8.7.7.,.,.,.:.:.-.-.' z     UXUX",
"UXUX    5 -.-.:.:.,.,.,.7.7.8.7.8.8.8.8.R.(.IXIXIXIXIXIXIXIXIXIXIXCX^.E.E.R.R.R.R.R.d.d.d.d.8.8.8.7.8.,.,.,.:.:.:.-.-.5     UXUX",
"UXUX    o -.:.:.,.,.,.7.7.8.8.8.8.8.d.R.R.^.IXIXIXIXIXIXIXIXIXJX#XE.E.E.E.E.E.R.R.R.R.R.d.d.d.d.8.7.7.7.,.,.,.,.:.-.-.O     UXUX",
"UXUXUX    f :.:.,.,.7.,.8.7.8.8.8.R.R.R.R.^.IXIXIXIXIXIXIXLXiXE.).E.Q.E.Q.E.E.E.E.E.R.R.R.d.d.d.8.8.8.8.,.8.,.,.:.:.f     UXUXUX",
"UXUXUX    % :.,.,.7.7.7.8.8.8.R.R.d.R.R.R.^.IXIXIXIXIXPXVX`._.).).)._.).).Q.Q.Q.Q.E.E.R.R.R.R.d.d.8.8.8.8.,.,.,.,.:.%     UXUXUX",
"UXUXUX      h ,.,.7.8.8.8.8.8.8.d.R.E.R.E.{.IXIXIXIXZXoX_._._.)._._._._._._.Q.Q.Q.Q.E.E.E.R.R.R.R.8.8.8.8.,.8.,.,.h       UXUXUX",
"UXUXUXUX    # ,.7.7.8.8.8.8.8.R.R.R.E.E.E.oXIXIXHXeX_._._._._.'.'._.'._._._._._.Q.Q.Q.W.E.R.R.R.R.d.d.8.8.8.8.,.,.#     UXUXUXUX",
"UXUXUXUXUX    e ,.7.8.8.8.R.R.R.W.E.E.E.Q.OXLXdX'._.'._.'.'.'.'.'.'.'._._._.'._._.).Q.Q.Q.E.Q.!.R.R.R.8.8.8.,.8.e     UXUXUXUXUX",
"UXUXUXUXUX    X K 8.8.8.d.R.!.!.W.Q.W.W.`.`.[.].`.'.].'.'.'. X'.'. X'.'.'.].'.`.`.'.`._._.W.E.W.!.!.8.d.d.8.8.K .     UXUXUXUXUX",
"UXUXUXUXUXUX    % 6.8.d.d.R.W.!.W.W.`.`.`.`.`.].].].]. X X X X&X&X X&X X]. X].].`.`.`.`.`.`.W.W.W.W.R.R.d.8.6.%     UXUXUXUXUXUX",
"UXUXUXUXUXUX      4 8.8.R.R.W.~.~./.`.[.}.[.}. X}.}.}.=X=X=X=X=X=X&X&X=X&X}.&X}.&X}.}.[.[.[././.~.!.R.R.d.8.4       UXUXUXUXUXUX",
"UXUXUXUXUXUXUX      w R.R.R.R.~.[.{.[.[.}.}.|.}.=X=X=X=X=X<X=X=X=X;X;X=X=X-X=X}.=X}.}.|.[.[.{.~.~.!.R.R.d.w       UXUXUXUXUXUXUX",
"UXUXUXUXUXUXUXUX      d R.R.E.E.{.{.|.OX|.OX-X-X-X-X-X-X;X;X;X;X;X;X;X;X-X-X-X-X-XOX|.OX|.oX|.oXW.E.E.R.d       UXUXUXUXUXUXUXUX",
"UXUXUXUXUXUXUXUXUX      w E.E.E.`.OX+X+X+X1X1X1X1X1X2X2X2X2X2X2X2X2X2X2X2X2X2X1X1X1X1X1X+X+XOX`.E.E.E.w       UXUXUXUXUXUXUXUXUX",
"UXUXUXUXUXUXUXUXUXUX      5 R.Q.).`.+X@X3X3X3X3X5X5X5X5X0X0X0X0X0X0X0X0X5X5X5X5X3X3X@X3X@X+X`.).Q.R.5       UXUXUXUXUXUXUXUXUXUX",
"UXUXUXUXUXUXUXUXUXUXUX      & =.)._._.|.4X4X4X6X6X9X6X9X9XqXqXqXqXqXqXqX9X6X6X6X6X6X4X4X}.'._._.=.&       UXUXUXUXUXUXUXUXUXUXUX",
"UXUXUXUXUXUXUXUXUXUXUXUX      X d ).'.'.'.-X6XuXuXuXpXpXpXpXpXpXpXpXpXpXpXuXuXuXuX6X-X'.'._.Q.d X       UXUXUXUXUXUXUXUXUXUXUXUX",
"UXUXUXUXUXUXUXUXUXUXUXUXUX        % H '.'.%X%X&X2X6XaXaXsXsXsXsXsXsXsXsXaXaX9X2X&X%X'.%X'.H %         UXUXUXUXUXUXUXUXUXUXUXUXUX",
"UXUXUXUXUXUXUXUXUXUXUXUXUXUXUX        * G '.%X*X*X*X*X>X<X7X8X8X8X8X7X<X>X*X*X*X*X%X'.G *         UXUXUXUXUXUXUXUXUXUXUXUXUXUXUX",
"UXUXUXUXUXUXUXUXUXUXUXUXUXUXUXUXUX        O q P %X*X*X:X:X,X,X,X,X,X,X:X:X*X*X%XP q O         UXUXUXUXUXUXUXUXUXUXUXUXUXUXUXUXUX",
"UXUXUXUXUXUXUXUXUXUXUXUXUXUXUXUXUXUX            X 3 r L T.$X,X,X,X,X$XT.L r 3 O             UXUXUXUXUXUXUXUXUXUXUXUXUXUXUXUXUXUX",
"UXUXUXUXUXUXUXUXUXUXUXUXUXUXUXUXUXUXUXUXUX                                            UXUXUXUXUXUXUXUXUXUXUXUXUXUXUXUXUXUXUXUXUX",
"UXUXUXUXUXUXUXUXUXUXUXUXUXUXUXUXUXUXUXUXUXUXUXUX                                UXUXUXUXUXUXUXUXUXUXUXUXUXUXUXUXUXUXUXUXUXUXUXUX",
"UXUXUXUXUXUXUXUXUXUXUXUXUXUXUXUXUXUXUXUXUXUXUXUXUXUXUXUXUXUXUXUXUXUXUXUXUXUXUXUXUXUXUXUXUXUXUXUXUXUXUXUXUXUXUXUXUXUXUXUXUXUXUXUX"
};
