/* XPM */
static char *button_payments_xpm[] = {
/* columns rows colors chars-per-pixel */
"32 32 177 2 ",
"   c #010100",
".  c #060C01",
"X  c #090F05",
"o  c #0A070A",
"O  c gray5",
"+  c #071201",
"@  c #081201",
"#  c #0C1B01",
"$  c #0C1109",
"%  c #0F1F0A",
"&  c #161316",
"*  c #151912",
"=  c #1C1D1C",
"-  c #0F2703",
";  c #122602",
":  c #142C02",
">  c #162B0A",
",  c #192C0D",
"<  c #163403",
"1  c #193502",
"2  c #1B3D04",
"3  c #1F3D0B",
"4  c #223D0F",
"5  c #233315",
"6  c #25341C",
"7  c #273D1A",
"8  c #232323",
"9  c #2B3325",
"0  c #2E322B",
"q  c #323D2B",
"w  c #393939",
"e  c #1C4103",
"r  c #1F4803",
"t  c #1C5207",
"y  c #1B5A0A",
"u  c #204604",
"i  c #224D04",
"p  c #22460B",
"a  c #255305",
"s  c #265B05",
"d  c #295E06",
"f  c #275609",
"g  c #2A530F",
"h  c #2B590C",
"j  c #264014",
"k  c #2B4D12",
"l  c #2E4A1D",
"z  c #314D1F",
"x  c #2D5013",
"c  c #32551A",
"v  c #266004",
"b  c #2A6504",
"n  c #2C6F05",
"m  c #246509",
"M  c #2C7007",
"N  c #2E7B07",
"B  c #297309",
"V  c #2C7C0A",
"C  c #307D06",
"Z  c #317A09",
"A  c #206F11",
"S  c #237910",
"D  c #3C771E",
"F  c #2D4021",
"G  c #344727",
"H  c #374C2B",
"J  c #3B5E26",
"K  c #3D542E",
"L  c #3B6324",
"P  c #3D6C24",
"I  c #3F6928",
"U  c #3A7B2C",
"Y  c #42463E",
"T  c #405A30",
"R  c #406C26",
"E  c #417722",
"W  c #477A27",
"Q  c #48603D",
"!  c #467736",
"~  c #4A7432",
"^  c #547F39",
"/  c #585858",
"(  c #597F42",
")  c #597348",
"_  c #2E860C",
"`  c #2F8D0D",
"'  c #35850A",
"]  c #358C09",
"[  c #35930D",
"{  c #38950E",
"}  c #369E0D",
"|  c #399A0C",
" . c #368914",
".. c #37A40F",
"X. c #3EA90D",
"o. c #2DAE16",
"O. c #33A111",
"+. c #3CAD10",
"@. c #2EBD17",
"#. c #34B116",
"$. c #3DBE13",
"%. c #419E0B",
"&. c #43AD0D",
"*. c #42B10E",
"=. c #4AB50B",
"-. c #4BB80A",
";. c #4EA31D",
":. c #45BC10",
">. c #58B51D",
",. c #61AF13",
"<. c #478C20",
"1. c #498329",
"2. c #549B26",
"3. c #589E2D",
"4. c #538736",
"5. c #528930",
"6. c #439832",
"7. c #569534",
"8. c #5B9C36",
"9. c #40AB24",
"0. c #4FB727",
"q. c #45B629",
"w. c #50B322",
"e. c #5ABD24",
"r. c #4EA831",
"t. c #54A133",
"y. c #5AAB33",
"u. c #50AA38",
"i. c #34C41A",
"p. c #2ED019",
"a. c #3BD516",
"s. c #3ED813",
"d. c #1EF40B",
"f. c #24EE0C",
"g. c #2CED0B",
"h. c #35E70D",
"j. c #3DE70D",
"k. c #34ED0B",
"l. c #3CEB0A",
"z. c #24F20B",
"x. c #2BF00A",
"c. c #29E610",
"v. c #28EE10",
"b. c #37E310",
"n. c #38E614",
"m. c #3DC428",
"M. c #4CC50F",
"N. c #4EDF0B",
"B. c #55DD0B",
"V. c #59DC0D",
"C. c #4DC516",
"Z. c #43CD15",
"A. c #4ACC11",
"S. c #44C71C",
"D. c #4BCA1F",
"F. c #55CE15",
"G. c #5ACB14",
"H. c #56C31D",
"J. c #5AC21E",
"K. c #53C91B",
"L. c #5BCC1E",
"P. c #40D815",
"I. c #4ED810",
"U. c #4ED618",
"Y. c #52D713",
"T. c #5DD117",
"R. c #55DF10",
"E. c #43E40B",
"W. c #4BE40A",
"Q. c #44E90B",
"!. c #49E80A",
"~. c #53E209",
"^. c #58E50A",
"/. c #4CC827",
"(. c #53CB21",
"). c #58C921",
"_. c None",
/* pixels */
"_._._._._._._._._._._._./ ;.K.D = _._._._._._._._._._._._._._._.",
"_._._._._._._._._._._.8.e.Y.A.s p 7 _._._._._._._._._._._._._._.",
"_._._._._._._._._._._.~ N.W.Z 2 a i G _._._._._._._._._._._._._.",
"_._._._._._._._._._._._.K.W.{ V Z L _._._._._._._._._._._._._._.",
"_._._._._._._._._._.y.K.W.!.Q.l.E.s.S.r.! _._.! _._._._._._._._.",
"_._._._._._._._.~ K.N.W.!.Q.Q.l.l.k.k.k.h.q.m.O.5 6 _._._._._._.",
"_._._._._._._.E R.N.W.W.Q.Q.l.l.l.k.k.x.x.d.f.s : p _._._._._._.",
"_._._._._._._.L.N.W.Q.Q.Q.Q.l.k.x.x.v.x.v.d.#.u r l _._._._._._.",
"_._._._._._.7.~.~.W.:.' Z.l.} N ..a.z.z.f.f._ i h 9 _._._._._._.",
"_._._._._._.H.~.W.*.t e Z.k.{ i s L 6.v.d.i.s s c _._._._._._._.",
"_._._._._._.F.N.I.Z d b Z.k.[ a s K _.U d._ u f q _._._._._._._.",
"_._._._._._.F.N.A.i : 2 a.g.V 1 e H _._.9.a u z _._._._._._._._.",
"_._._._._._.F.~.!.{ - + $.x.m   # q _._._.Y Y _._._._._._._._._.",
"_._._._._._.H.W.W.Q.Q.$.s.k...y < $ o & _._._._._._._._._._._._.",
"_._._._._._.7.W.W.N.E.l.l.k.x.z.c.@.A %   & 8 _._._._._._._._._.",
"_._._._._._._.).W.W.Q.E.l.k.k.x.z.d.d.p.y     = _._._._._._._._.",
"_._._._._._._.I K.E.E.Q.l.l.k.g.x.v.f.d.d.S   . X _._._._._._._.",
"_._._._._._._._._.t.U.Q.l.l.k.g.g.x.z.f.d.z.t . > 0 _._._._._._.",
"_._._._._._._._._.O q Q D.l.s.k.z.x.f.z.f.d.o.; : F _._._._._._.",
"_._._._._._._.P 4 < p 8 0.l.| M ..n.z.g.f.f.g.t : 2 _._._._._._.",
"_._._._._._.1.=.# + . * 0.l.[ i a R n.k.g.c.d.B 1 p _._._._._._.",
"_._._._._._.8.^.n       *.l.{ u u q u.g.k.k.f.` e i _._._._._._.",
"_._._._._._.G.B.~.] .   X.j.V - # 9 /.k.k.k.g.[ u g _._._._._._.",
"_._._._._._.J.B.V.~.M.m &.Q.B   @  .l.j.j.j.k.' a K _._._._._._.",
"_._._._._._.) >.^.V.^.~.~.!.:.| A.j.Q.Q.E.j.E.n x _._._._._._._.",
"_._._._._._._._.,.V.V.V.~.^.W.!.!.W.!.W.E.j.&.k _._._._._._._._.",
"_._._._._._._._._.W J.V.^.^.B.B.~.N.W.W.E.C.J _._._._._._._._._.",
"_._._._._._._._._._._.5.T.B.~.~.W.W.W.K.w.T _._._._._._._._._._.",
"_._._._._._._._._._._._.3.V.=.&.%.' <.4._._._._._._._._._._._._.",
"_._._._._._._._._._._.~ G.V.C X   , w _._._._._._._._._._._._._.",
"_._._._._._._._._._._._.2.J.=.: j H _._._._._._._._._._._._._._.",
"_._._._._._._._._._._._._._.4.( _._._._._._._._._._._._._._._._."
};
