/* XPM */
static char *button_report_xpm[] = {
/* columns rows colors chars-per-pixel */
"32 32 142 2 ",
"   c #7A7B7C",
".  c #385CA4",
"X  c #3A68A7",
"o  c #3761AD",
"O  c #3B70A9",
"+  c #2765BE",
"@  c #3B62BF",
"#  c #3D6EBE",
"$  c #3C7AB1",
"%  c #3D75BC",
"&  c #4263A6",
"*  c #577DAD",
"=  c #4F70B9",
"-  c #3B5DC0",
";  c #286ACF",
":  c #3F6CCA",
">  c #2E7FC9",
",  c #2A6DD6",
"<  c #297CD3",
"1  c #2E75D9",
"2  c #436ADA",
"3  c #447CD4",
"4  c #4572DF",
"5  c #4174E6",
"6  c #487BE5",
"7  c #4772E8",
"8  c #497AEB",
"9  c #4A82AD",
"0  c #4488B1",
"q  c #408AB8",
"w  c #578DB1",
"e  c #648EB3",
"r  c #6C90B6",
"t  c #779EBB",
"y  c #3D8DCC",
"u  c #2E82D3",
"i  c #3086D2",
"p  c #388CD2",
"a  c #388BDE",
"s  c #3C84E3",
"d  c #3D91E3",
"f  c #4182C3",
"g  c #408DC3",
"h  c #468AD5",
"j  c #4A99D2",
"k  c #639BC5",
"l  c #6F9FDB",
"z  c #7CB0DA",
"x  c #4884E2",
"c  c #4A8EE3",
"v  c #4A82EB",
"b  c #4C8FEB",
"n  c #449BE9",
"m  c #5599E5",
"M  c #5F99E0",
"N  c #519CEA",
"B  c #49A1ED",
"V  c #51A2EF",
"C  c #73BAEA",
"Z  c #838383",
"A  c #8A8C8D",
"S  c #8C8E90",
"D  c #8F9192",
"F  c #929293",
"G  c #959698",
"H  c #95989B",
"J  c #9B9C9C",
"K  c #9E9FA1",
"L  c #9AA5AF",
"P  c #A2A2A3",
"I  c #AAABAC",
"U  c #A5ABB0",
"Y  c #A9B0B6",
"T  c #ADB4BA",
"R  c #B5B6B7",
"E  c #B6B7B8",
"W  c #B3BABE",
"Q  c #B9BBBD",
"!  c #89A4C2",
"~  c #82AAD7",
"^  c #8FB5D3",
"/  c #97BCD7",
"(  c #98B8D6",
")  c #93B9D9",
"_  c #B4BDC3",
"`  c #BBBEC1",
"'  c #B6BFC8",
"]  c #ADBFD1",
"[  c #9DC3DE",
"{  c #BCC2C6",
"}  c #B6C0C9",
"|  c #BBC4CB",
" . c #AAC3D6",
".. c #ADC6DA",
"X. c #B1C5D4",
"o. c #B9C7D1",
"O. c #BBC9D4",
"+. c #BCCCDA",
"@. c #BFD0DE",
"#. c #8CC1E9",
"$. c #97C2E2",
"%. c #A5C7E1",
"&. c #B2D6F1",
"*. c #B7DAF3",
"=. c #C1C4C6",
"-. c #C1C6CA",
";. c #C4C9CD",
":. c #C8CBCE",
">. c #C4CDD4",
",. c #CACED2",
"<. c #C0CEDA",
"1. c #CCD1D5",
"2. c #C5D3DF",
"3. c #CCD5DB",
"4. c #D1D4D7",
"5. c #D2D7DA",
"6. c #D3D9DD",
"7. c #DBDCDD",
"8. c #CCD7E1",
"9. c #CED9E2",
"0. c #C5DDEE",
"q. c #D5DCE2",
"w. c #DADFE2",
"e. c #C4DFF3",
"r. c #DDE1E4",
"t. c #DDE3E8",
"y. c #C6E2F7",
"u. c #CAE0F1",
"i. c #DCECF9",
"p. c #E2E3E4",
"a. c #E2E6EA",
"s. c #E6E9EC",
"d. c #EBECEE",
"f. c #E0EBF4",
"g. c #ECEEF1",
"h. c #EEF1F3",
"j. c #EFF6FC",
"k. c #F3F4F5",
"l. c #F6F7F8",
"z. c #F7F8F9",
"x. c #FAFAFB",
"c. c None",
/* pixels */
"c.c.c.c.c.c.c.c.c.c.c.c.c.c.c.c.c.c.c.c.c.c.c.c.c.c.c.c.c.c.c.c.",
"c.c.c.c.c.c.c.c.c.c.c.c.c.c.K G c.c.c.c.c.c.c.c.c.c.c.c.c.c.c.c.",
"c.c.c.c.c.c.c.c.c.c.c.c.c.D c.c.c.c.c. .c.c.c.c.c.c.c.c.c.c.c.c.",
"c.c.c.c.c.c.c.c.c.c.c.c.c.  Z P   U q.3...c.c.c.c.c.c.c.c.c.c.c.",
"c.c.c.c.c.c.c.c.c.c.c.c.c.Z c.L J T q.6.8.( c.c.c.c.c.c.c.c.c.c.",
"c.c.c.c.c.c.c.c.c.c.c.c.J   >.=.S ,.q.q.6.q.~ > c.c.c.c.c.c.c.c.",
"c.c.c.c.c.c.c.c.c.c.c.c.F I p.=.H w.w.w.w.q.q.l u c.c.c.c.c.c.c.",
"c.c.c.c.c.c.c.c.c.c.o.' D ` p.E Q a.t.t.t.w.w.8.M u c.c.c.c.c.c.",
"c.c.c.c.c.c.c.c.c.9.s.` G s.7.P 4.f.a.a.a.t.t.t.2.m a c.c.c.c.c.",
"c.c.c.c.c.c.c.3.a.k.h.R F 7.` A a.g.s.s.s.s.a.t.t...N d c.c.c.c.",
"c.c.c.c.c.c.c.9.a.g.k.5.I P F ` g.g.g.g.g.s.s.s.a.a.) V n c.c.c.",
"c.c.c.c.c.c.c.c.j C [ g.p.p.d.l.k.k.h.h.g.g.s.g.s.s.a.z B n c.c.",
"c.c.c.c.c.c.c.c.c.c. .x.d.p.7.7.p.d.h.k.k.h.h.h.g.g.s.t.k c.c.c.",
"c.c.c.c.c.c.c.c.c.c.q.d.p.s.d.l.k.s.7.7.k.h.u.h. ...2.t.+.c.c.c.",
"c.c.c.c.c.c.c.c.c.c.d.d.k.x.d.p.7.p.d.k.x.&.e.h.w c.c.c.c.c.c.c.",
"c.c.c.c.c.c.c.c.c.8.k.d.p.7.p.d.l.x.k.d.x.x.x.t.0 c.c.c.c.c.c.c.",
"c.c.c.c.c.c.c.c.c.s.7.7.p.d.k.d.p.7.p.l.j.y.x.X.q c.c.c.c.c.c.c.",
"c.c.c.c.c.c.c.c.9.7.p.d.s.7.7.7.p.h.z.z.*.i.x.t g c.c.c.c.c.c.c.",
"c.c.c.c.c.c.c.<.a.r.7.1.4.7.s.g.p.p.p.z.x.x.s.9 h c.c.c.c.c.c.c.",
"c.c.c.c.c.c.c.q.4.:.4.7.s.7.5.1.7.7.h.h.f.k. .$ p c.c.c.c.c.c.c.",
"c.c.c.c.c.c.3.3.4.r.6.,.;.,.7.p.p.p.g.#.0.g.e f i c.c.c.c.c.c.c.",
"c.c.c.c.c.>.6.1.;.{ { ,.q.7.1.,.:.s.s.s.g.+.X h i c.c.c.c.c.c.c.",
"c.c.c.c.>.1.} ` ;.1.6.:.{ { ,.6.p.r.p.a.a.r % c < c.c.c.c.c.c.c.",
"c.c.c._ >.} ;.>.| W W | 1.6.,.;.7.%.$.9.X.X h b c.c.c.c.c.c.c.c.",
"c.c.2.>.| _ T Y W o.,.| ` W { 6.6.3.6.q.* : x s c.c.c.c.c.c.c.c.",
"c.c.3.} } { | | ' Y Y W | >.,.1.3.3.6.! o 3 v < c.c.c.c.c.c.c.c.",
"c.c.c.3.1.o._ } } | | ' T _ >. ./ 1.] . : 6 v c.c.c.c.c.c.c.c.c.",
"c.c.c.c.c.c.+.+.| _ ' } | | o.^ o.O.& @ 4 6 1 c.c.c.c.c.c.c.c.c.",
"c.c.c.c.c.c.c.c.c.O.O.| ' ' } | +.= - 2 7 5 c.c.c.c.c.c.c.c.c.c.",
"c.c.c.c.c.c.c.c.c.c.c.c.X.O.;.X.c.c.+ ; , c.c.c.c.c.c.c.c.c.c.c.",
"c.c.c.c.c.c.c.c.c.c.c.c.c.c.c.c.c.c.c.c.c.c.c.c.c.c.c.c.c.c.c.c.",
"c.c.c.c.c.c.c.c.c.c.c.c.c.c.c.c.c.c.c.c.c.c.c.c.c.c.c.c.c.c.c.c."
};
