/* XPM */
static char *button_move_down10_xpm[] = {
/* columns rows colors chars-per-pixel */
"32 32 124 2 ",
"   c #004C00",
".  c #005300",
"X  c #015A01",
"o  c #0C550C",
"O  c #0A590A",
"+  c #1D5B1D",
"@  c #006400",
"#  c #016C02",
"$  c #0C690E",
"%  c #017402",
"&  c #017C02",
"*  c #0C740D",
"=  c #077E0A",
"-  c #0A7C0B",
";  c #126512",
":  c #1E641E",
">  c #176D18",
",  c #1C6C1C",
"<  c #137115",
"1  c #1D751D",
"2  c #1D7D1D",
"3  c #257425",
"4  c #277F20",
"5  c #2D742D",
"6  c #2D7C2D",
"7  c #347734",
"8  c #3B7B3B",
"9  c #467D46",
"0  c #028403",
"q  c #018B01",
"w  c #048208",
"e  c #098409",
"r  c #048A08",
"t  c #0A8D0E",
"y  c #019301",
"u  c #009C00",
"i  c #069509",
"p  c #0A910F",
"a  c #09990C",
"s  c #108C12",
"d  c #1A851A",
"f  c #1B8C1B",
"g  c #0B9010",
"h  c #0D9912",
"j  c #139115",
"k  c #149C15",
"l  c #1C941E",
"z  c #1C9B1D",
"x  c #229C1A",
"c  c #00A400",
"v  c #00AC00",
"b  c #0BA10B",
"n  c #0AAD0A",
"m  c #00B300",
"M  c #00BB00",
"N  c #09B509",
"B  c #0ABA0A",
"V  c #13A313",
"C  c #15AB15",
"Z  c #19A31A",
"A  c #1BA81B",
"S  c #1BB81C",
"D  c #248624",
"F  c #248D24",
"G  c #288528",
"H  c #298929",
"J  c #229322",
"K  c #229C22",
"L  c #2C932C",
"P  c #2B9C2B",
"I  c #358335",
"U  c #318A31",
"Y  c #3C8D3C",
"T  c #359335",
"R  c #369D36",
"E  c #3C933C",
"W  c #399A39",
"Q  c #24A423",
"!  c #2CA62C",
"~  c #32A229",
"^  c #33A433",
"/  c #3CA53C",
"(  c #01C201",
")  c #00CB00",
"_  c #09C709",
"`  c #00D400",
"'  c #08D408",
"]  c #438B43",
"[  c #4C814C",
"{  c #498F4B",
"}  c #409440",
"|  c #459C45",
" . c #4D944D",
".. c #4D9A4D",
"X. c #528D52",
"o. c #598D59",
"O. c #569A56",
"+. c #5B9B5B",
"@. c #43A343",
"#. c #45A945",
"$. c #4CA54C",
"%. c #4BA94B",
"&. c #52A352",
"*. c #54AC54",
"=. c #5BA45B",
"-. c #5CAB5C",
";. c #5FB05F",
":. c #639F63",
">. c #64A364",
",. c #66AA66",
"<. c #6FAB6F",
"1. c #64B164",
"2. c #6BB56B",
"3. c #71AC71",
"4. c #73B973",
"5. c #7BB47B",
"6. c #79BE79",
"7. c #7FC17F",
"8. c #83C583",
"9. c #8CCC8C",
"0. c #93C593",
"q. c #92CF92",
"w. c #A1D9A1",
"e. c None",
/* pixels */
"e.e.e.e.e.e.e.e.e.e.e.e.e.e.e.e.e.e.e.e.e.e.e.e.e.e.e.e.e.e.e.e.",
"e.e.e.e.e.e.e.e.e.e.e.e.e.e.e.e.e.e.e.e.e.e.e.e.e.e.e.e.e.e.e.e.",
"e.e.e.e.e.e.e.e.e.e.e.e.e.e.e.e.e.e.e.e.e.e.e.e.e.e.e.e.e.e.e.e.",
"e.e.e.e.e.e.e.e.e.e.e.e.e.e.e.e.e.e.e.e.e.e.e.e.e.e.e.e.e.e.e.e.",
"e.e.e.e.9 o . X @ @ # % & & 0 r r i i i i i a a a a h k x e.e.e.",
"e.e.e.e.o.0.5.<.:.+. .] Y U G H & & w 0 0 e e e = * * G ~ e.e.e.",
"e.e.e.e.  8 5.<.>.O. .Y U D d f & 0 q q y q q q 0 & % l & e.e.e.",
"e.e.e.e.e.  X.3.,.O...} T F f J q q y y u u y y q 0 l 0 e.e.e.e.",
"e.e.e.e.e.e.  >.,.=...| W L l K y y u c c c c c y k r e.e.e.e.e.",
"e.e.e.e.e.e.e.o ,.=.&.@.W P J z a c c v v m v c V p e.e.e.e.e.e.",
"e.e.e.e.e.e.e.e., ,.&.$.W P K Z V c v m M M M N h e.e.e.e.e.e.e.",
"e.e.e.e.e.e.e.e.  6 *.$./ ! Q C C c m M ( ) ) V % e.e.e.e.e.e.e.",
"e.e.e.e.9 o     . . E %./ ^ ! A C v m ( ) ` S p t g g j x e.e.e.",
"e.e.e.e.o.w.9.7.4.2.;.%.#.^ ! A C m M ( ) ` ' _ B n b Q ~ e.e.e.",
"e.e.e.e.  9 q.8.4.2.-.%.#.^ ! A C c m M ) ) ) ( m c u z % e.e.e.",
"e.e.e.e.e.  +.8.6.2.;.*.#./ ! A A c m M M ( M M v c K & e.e.e.e.",
"e.e.e.e.e.e.  3.6.2.1.*.#./ ! Q C c c m m M m v c Z w e.e.e.e.e.",
"e.e.e.e.e.e.e.o 5.4.1.*.%./ ^ Q Z u c c v c c c V t e.e.e.e.e.e.",
"e.e.e.e.e.e.e.e.: 4.1.-.$.@.R P z y y u u c u a s e.e.e.e.e.e.e.",
"e.e.e.e.e.e.e.e.  7 2.-.&.@.R P f q q y y y i j % e.e.e.e.e.e.e.",
"e.e.e.e.e.e.e.e.e.  ] >.&.@.W P f 0 0 0 0 q j % e.e.e.e.e.e.e.e.",
"e.e.e.e.e.e.e.e.e.e.  ..O.| E U d % & & & s & e.e.e.e.e.e.e.e.e.",
"e.e.e.e.e.e.e.e.e.e.e.O ....E U 2 # # # - = e.e.e.e.e.e.e.e.e.e.",
"e.e.e.e.e.e.e.e.e.e.e.e.;  .Y I 1 @ @ # - e.e.e.e.e.e.e.e.e.e.e.",
"e.e.e.e.e.e.e.e.e.e.e.e.. , ] I , . X * @ e.e.e.e.e.e.e.e.e.e.e.",
"e.e.e.e.e.e.e.e.e.e.e.e.e.X 3 8 :   $ # e.e.e.e.e.e.e.e.e.e.e.e.",
"e.e.e.e.e.e.e.e.e.e.e.e.e.e.X 5 + O # e.e.e.e.e.e.e.e.e.e.e.e.e.",
"e.e.e.e.e.e.e.e.e.e.e.e.e.e.e.> [ < e.e.e.e.e.e.e.e.e.e.e.e.e.e.",
"e.e.e.e.e.e.e.e.e.e.e.e.e.e.e.e.{ e.e.e.e.e.e.e.e.e.e.e.e.e.e.e.",
"e.e.e.e.e.e.e.e.e.e.e.e.e.e.e.e.e.e.e.e.e.e.e.e.e.e.e.e.e.e.e.e.",
"e.e.e.e.e.e.e.e.e.e.e.e.e.e.e.e.e.e.e.e.e.e.e.e.e.e.e.e.e.e.e.e.",
"e.e.e.e.e.e.e.e.e.e.e.e.e.e.e.e.e.e.e.e.e.e.e.e.e.e.e.e.e.e.e.e."
};
