/* XPM */
static char *button_dancerremove_xpm[] = {
/* columns rows colors chars-per-pixel */
"32 32 151 2 ",
"   c #531312",
".  c #5D1B17",
"X  c #6B1211",
"o  c #6D1B19",
"O  c #7E1512",
"+  c #4B201D",
"@  c #79201A",
"#  c #841A18",
"$  c #951312",
"%  c #A50705",
"&  c #BD0000",
"*  c #BF0E08",
"=  c #A3170E",
"-  c #BD110C",
";  c #A51A14",
":  c #A61B18",
">  c #B51F1C",
",  c #9D221E",
"<  c #A0201A",
"1  c #AB241E",
"2  c #B6221E",
"3  c #8B2521",
"4  c #8E292C",
"5  c #972D2C",
"6  c #A42520",
"7  c #AA2722",
"8  c #AF2B26",
"9  c #B02924",
"0  c #BB2C2B",
"q  c #B1302C",
"w  c #A93232",
"e  c #B63B3A",
"r  c #BA3F3C",
"t  c #C00804",
"y  c #C80A07",
"u  c #CF0F09",
"i  c #D10000",
"p  c #D20805",
"a  c #DD0A09",
"s  c #DE100C",
"d  c #CF1310",
"f  c #E30000",
"g  c #E30907",
"h  c #EE0B0A",
"j  c #F30000",
"k  c #E21312",
"l  c #E81D1A",
"z  c #C02A2A",
"x  c #D22622",
"c  c #DC2522",
"v  c #C2322D",
"b  c #C03733",
"n  c #C93F3F",
"m  c #C0403F",
"M  c #C8423D",
"N  c #BB4A4A",
"B  c #A0605B",
"V  c #CA534F",
"C  c #C95552",
"Z  c #CF5857",
"A  c #D45652",
"S  c #D45957",
"D  c #DF6A68",
"F  c #DC7370",
"G  c #E66D6D",
"H  c #E77672",
"J  c #EA7D79",
"K  c #A6896F",
"L  c #AC8F75",
"P  c #AF9177",
"I  c #AE9179",
"U  c #B2957B",
"Y  c #B3987E",
"T  c #7E6E80",
"R  c #AF9680",
"E  c #B69B83",
"W  c #B89C84",
"Q  c #BB9F88",
"!  c #BDA38B",
"~  c #C0A68F",
"^  c #C1A791",
"/  c #C2A993",
"(  c #C8AE96",
")  c #C7AD98",
"_  c #C7B39E",
"`  c #CBB49F",
"'  c #CFB89E",
"]  c #CCB6A2",
"[  c #CEB9A3",
"{  c #D1BAA6",
"}  c #D9BEA2",
"|  c #D3BDA9",
" . c #D3C2AD",
".. c #DCC5AD",
"X. c #D6C7B6",
"o. c #D9C5B3",
"O. c #DDCDBB",
"+. c #E6CCAE",
"@. c #E8CCAC",
"#. c #E3CDB5",
"$. c #E2CDB8",
"%. c #EBD1B4",
"&. c #E0D0BE",
"*. c #EED5BA",
"=. c #F1D4B4",
"-. c #F2D7B8",
";. c #F3D9BD",
":. c #A9B0C7",
">. c #BCC2D5",
",. c #DEC4C6",
"<. c #DEC6C8",
"1. c #CBC5D0",
"2. c #C2C7D8",
"3. c #E5CCCD",
"4. c #E8CDCF",
"5. c #E9DBCB",
"6. c #F4DDC3",
"7. c #F4DFC8",
"8. c #EDDFD0",
"9. c #F6E0C7",
"0. c #F6E3CD",
"q. c #EDE2D7",
"w. c #E5E1DF",
"e. c #EBE4DD",
"r. c #F6E6D5",
"t. c #F8E7D5",
"y. c #F7E8D7",
"u. c #F8E8D6",
"i. c #F2E6D8",
"p. c #F7E9DA",
"a. c #F8EBDC",
"s. c #D1D5E2",
"d. c #D6D9E5",
"f. c #D8DBE6",
"g. c #DCDFE9",
"h. c #DEE1EA",
"j. c #E7E3E2",
"k. c #EEE3E2",
"l. c #E2E5ED",
"z. c #E7E9EF",
"x. c #EBE9E9",
"c. c #F2EAE2",
"v. c #F9EDE1",
"b. c #E7E9F0",
"n. c #EBECF2",
"m. c #EFF0F4",
"M. c #F2F3F7",
"N. c #F5F6F9",
"B. c #F7F8FA",
"V. c #F8F9FB",
"C. c None",
/* pixels */
"C.C.C.C.C.C.C.C.C.C.C.C.C.C.C.C.C.C.C.C.C.C.C.C.C.C.C.C.C.C.C.C.",
"C.C.C.C.C.C.C.C.C.C.C.C.I W ~ C.C.C.C.C.C.C.C.C.C.C.C.C.C.C.C.C.",
"C.C.C.C.C.C.C.C.C.C.P P W / ] | ] C.C.C.C.C.C.C.C.C.C.C.C.C.C.C.",
"C.C.C.C.C.C.C.C.C.L Y I W ( | $.o.] C.C.C.C.C.C.C.C.C.C.C.C.C.C.",
"C.C.C.C.C.C.C.C.C.L K I E / ` | { ` ~ C.C.C.C.C.C.C.C.C.C.C.C.C.",
"C.C.C.C.C.C.C.C.L R #. .U L E / ~ Q Q C.C.C.C.C.C.C.C.C.C.C.C.C.",
"C.C.C.C.C.C.C.C.K %.7.r.i.5.0.p.u.$.W C.C.C.C.C.C.C.C.C.C.C.C.C.",
"C.C.C.C.C.C.C.C.L ;.0.p.a.a.v.v.a.r.( C.C.C.C.C.C.C.C.C.C.C.C.C.",
"C.C.C.C.C.C.C.C.Y ;.0.y.a.a.v.v.a.r...C.C.C.C.C.C.C.C.C.C.C.C.C.",
"C.C.C.C.C.C.C.C.} 6.0.y.a.a.v.v.a.r.*.} C.C.C.C.C.C.C.C.C.C.C.C.",
"C.C.C.C.C.C.C.C.#.;.0.y.a.a.v.a.a.r.;.C.C.C.C.C.C.C.C.C.C.C.C.C.",
"C.C.C.C.C.C.C.C.+.6.7.r.a.a.a.a.p.0.-.C.C.C.C.C.C.C.C.C.C.C.C.C.",
"C.C.C.C.C.C.C.C.C.-.6.r.t.t.t.t.r.7.-.C.C.C.C.C.C.C.C.C.C.C.C.C.",
"C.C.C.C.C.C.C.C.C.=.;.9.0.0.t.0.6.;.C.C.C.C.C.C.C.C.C.C.C.C.C.C.",
"C.C.C.C.C.C.C.C.C.C.=.;.9.9.9.6.;.@.C.C.C.C.C.C.C.C.C.C.C.C.C.C.",
"C.C.C.C.C.C.C.C.C.C.+.=.-.;.;.;.=.C.C.C.C.C.C.C.C.C.C.C.C.C.C.C.",
"C.C.C.C.C.C.C.C.C.C. .+.=.=.=.=.[ C.C.C.C.C.C.C.C.C.C.C.C.C.C.C.",
"C.C.C.C.C.C.C.C.C.C.5.X.| ' ' ` O.C.C.C.C.C.C.C.C.C.C.C.C.C.C.C.",
"C.C.C.C.C.C.C.C.C.C.r.i.O._ ] O.5.C.C.C.C.C.C.C.C.C.C.C.C.C.C.C.",
"C.C.C.C.C.C.C.C.C.C.c.i.O.' { &.5.k.C.C.C.C.C.C.C.C.C.C.C.C.C.C.",
"C.C.C.C.C.C.C.C.z.n.n.q.o.] [ O.e.M.V.N.C.C.e C.C.C.C.C.C.r C.C.",
"C.C.C.C.C.C.l.n.m.m.m.M.x.j.j.m.N.V.V.V.k.0 H e C.C.C.C.> J 2 C.",
"C.C.C.C.l.n.M.N.N.N.V.V.V.V.V.V.V.V.V.V.N A G G q C.C.: G G F % ",
"C.C.C.d.n.m.M.V.V.V.V.V.V.V.V.V.V.V.V.V.4.8 A A Z 3 O V A S 8 C.",
"C.C.d.n.n.M.B.B.V.V.N.V.V.V.V.V.V.V.B.B.N.4.7 M n m r n V 1 C.C.",
"C.C.g.z.n.B.B.B.N.N.V.V.B.B.N.N.B.B.B.B.V.N.3.6 v z 0 0 = C.C.C.",
"C.s.l.n.z.B.M.B.B.M.M.B.B.B.B.N.B.B.B.B.N.V.,.< * & & t = C.C.C.",
"C.d.n.z.z.M.M.B.B.B.B.B.B.B.B.M.B.B.B.B.B.<., u i y - i p ; C.C.",
"C.g.b.z.z.m.B.m.B.B.M.B.B.M.B.M.M.B.M.B.<., s f a . + d f g : C.",
"C.C.2.l.b.b.V.b.M.B.M.B.M.B.M.B.M.B.M.M.B x j h o T C.  k j l 5 ",
"C.C.C.C.:.>.s.g.l.z.z.l.l.h.h.h.l.l.l.g.1.4 c # C.C.C.C.X c $ C.",
"C.C.C.C.C.C.C.C.C.C.C.C.C.C.C.C.C.C.C.C.C.C.@ C.C.C.C.C.C.w C.C."
};
