/* XPM */
static char *button_tour_remove_xpm[] = {
/* columns rows colors chars-per-pixel */
"32 32 189 2 ",
"   c #E90606",
".  c #F70101",
"X  c #F40202",
"o  c #F60202",
"O  c #F50606",
"+  c #F80101",
"@  c #F90101",
"#  c #FB0000",
"$  c #FB0101",
"%  c #FC0000",
"&  c #FD0000",
"*  c #FE0000",
"=  c red",
"-  c #FE0101",
";  c #FA0307",
":  c #F90404",
">  c #FB0505",
",  c #FA0506",
"<  c #FB0606",
"1  c #FD0505",
"2  c #F40B0B",
"3  c #F60A0A",
"4  c #FA0808",
"5  c #E81818",
"6  c #E91F1F",
"7  c #F11313",
"8  c #F21313",
"9  c #F11414",
"0  c #DD3030",
"q  c #D83838",
"w  c #B06600",
"e  c #B56D00",
"r  c #BA7002",
"t  c #AA6A3E",
"y  c #C17401",
"u  c #C27A07",
"i  c #C97D0B",
"p  c #D57E00",
"a  c #D47F00",
"s  c #BD5A5A",
"d  c #A26F6F",
"f  c #B56364",
"g  c #B16C6C",
"h  c #AB7070",
"j  c #C45151",
"k  c #C37855",
"l  c #C58007",
"z  c #D88102",
"x  c #D3880C",
"c  c #D5910D",
"v  c #D8900F",
"b  c #CB941C",
"n  c #DF9112",
"m  c #E18701",
"M  c #EB8B00",
"N  c #EF9103",
"B  c #E4900B",
"V  c #E8950C",
"C  c #F79604",
"Z  c #E69411",
"A  c #E69C15",
"S  c #EB9913",
"D  c #E69B19",
"F  c #EBB10F",
"G  c #EBBD08",
"H  c #E6A819",
"J  c #F1A11A",
"K  c #EBBD1B",
"L  c #F5BF1B",
"P  c #D7A63F",
"I  c #E9AB22",
"U  c #EDAB2B",
"Y  c #F4AE23",
"T  c #F7AF2F",
"R  c #F2BB2A",
"E  c #EBB437",
"W  c #EDB734",
"Q  c #ECBD30",
"!  c #F5B332",
"~  c #F5B630",
"^  c #F4BF36",
"/  c #FABF30",
"(  c #F8B936",
")  c #FAB638",
"_  c #F5C50D",
"`  c #FAC708",
"'  c #FBC908",
"]  c #FDCB0C",
"[  c #FFCC0C",
"{  c #FFCC0F",
"}  c #EFC016",
"|  c #F6C511",
" . c #FDCA10",
".. c #FECB10",
"X. c #FECB14",
"o. c #FFCB14",
"O. c #FFCC14",
"+. c #F0C01A",
"@. c #F9C71C",
"#. c #FBCA19",
"$. c #FACB1A",
"%. c #FDCB18",
"&. c #FFCC18",
"*. c #FFCC1B",
"=. c #FDCA1C",
"-. c #FECB1C",
";. c #FFCC1C",
":. c #FFCD1D",
">. c #FFCE1C",
",. c #FBC920",
"<. c #FCC920",
"1. c #FECB20",
"2. c #FFCC20",
"3. c #FDCA24",
"4. c #FECB24",
"5. c #FFCC24",
"6. c #FFCE25",
"7. c #FFCC27",
"8. c #F6C528",
"9. c #F2C22C",
"0. c #F9C32B",
"q. c #FECB28",
"w. c #FFCF29",
"e. c #FECB2C",
"r. c #FFCB2C",
"t. c #FECC2C",
"y. c #FFCC2C",
"u. c #FAC534",
"i. c #FAC830",
"p. c #FDCA30",
"a. c #FECB30",
"s. c #FECB33",
"d. c #FFCC30",
"f. c #FFCC33",
"g. c #FECA36",
"h. c #FFCD35",
"j. c #FBC23F",
"k. c #FECB38",
"l. c #FFCC38",
"z. c #FFCD38",
"x. c #FECB3C",
"c. c #FECA3E",
"v. c #FECB3F",
"b. c #FECC3C",
"n. c #FFCC3C",
"m. c #FFCC3D",
"M. c #FFCC3F",
"N. c #FFCE3F",
"B. c #FFD036",
"V. c #F5BF45",
"C. c #EDB751",
"Z. c #C09865",
"A. c #F7C346",
"S. c #FDC747",
"D. c #FFCD40",
"F. c #FCC845",
"G. c #FECB44",
"H. c #FECC44",
"J. c #FFCC44",
"K. c #FDC049",
"L. c #FDC948",
"P. c #FDCB48",
"I. c #FECB48",
"U. c #FFCB48",
"Y. c #FFCC48",
"T. c #FFCC49",
"R. c #FFCD49",
"E. c #FFCE4B",
"W. c #FDC84C",
"Q. c #FDCA4C",
"!. c #FECB4C",
"~. c #FFCC4C",
"^. c #FFCD4E",
"/. c #FFCE4F",
"(. c #FFCC50",
"). c #FFCE52",
"_. c #FDCB54",
"`. c #FECB54",
"'. c #FDCA57",
"]. c #FECC54",
"[. c #FFCC54",
"{. c #F5C55D",
"}. c #FECB58",
"|. c #FFCE5B",
" X c #FECB5C",
".X c #FFCC5D",
"XX c #9F8383",
"oX c #968E8E",
"OX c None",
/* pixels */
"OXOXOXOXOXOXOXOXOXOXOXOXOXOXOXOXOXOXOXOXOXOXOXOXOXOXOXOXOXOXOXOX",
"OXOXOXOXOXOXOXOXOXOXOXOXOXOXOXOXOXOXOXOXOXOXOXOXOXOXOXOXOXOXOXOX",
"OXOXOXOXOXOXOXOXOXOXOXOXOXOXb OXOXOXOXOXOXOXOXOXOXOXOXOXOXOXOXOX",
"OXOXOXOXOXOXOXOXOXOXOXOXOXOXR OXOXOXOXOXOXOXOXOXOXOXOXOXOXOXOXOX",
"OXOXOXOXOXOXOXOXOXOXOXOXOXu z.Q OXOXOXOXOXOXOXOXOXOXOXOXOXOXOXOX",
"OXOXOXOXOXOXOXOXOXOXOXOXOXI z.i.OXOXOXOXOXOXOXOXOXOXOXOXOXOXOXOX",
"OXOXOXOXOXOXOXOXOXOXOXOXOXu.f.r.OXOXOXOXOXOXOXOXOXOXOXOXOXOXOXOX",
"OXOXOXOXOXOXOXOXOXOXOXOXx g.f.f.OXOXOXOXOXOXOXOXOXOXOXOXOXOXOXOX",
"OXOXOXOXOXOXOXOXOXOXOXOXD x.f.d.9.OXOXOXOXOXOXOXOXOXOXOXOXOXOXOX",
"OXOXOXOXOXOXOXOXOXOXOXOX0.z.f.r.r.OXOXOXOXOXOXOXOXOXOXOXOXOXOXOX",
"OXOXOXOXOXOXOXOXOXOXOXV M.z.f.f.y.OXOXOXOXOXOXOXOXOXOXOXOXOXOXOX",
"OXOXOXOXOXOXOXOXOXOXOXY M.g.f.d.y.8.OXOXOXOXOXOXOXOXOXOXOXOXOXOX",
"OXOXC.{. X'.(.(.^.L.J.c.b.z.f.r.r.q.3.1.=.%.o...] ` G OXOXOXOXOX",
"OXOXC K..X}.'.(.~.L.J.M.x.z.z.d.y.q.5.1.;.O.O...[ ' OXOXOXOXOXOX",
"OXOXOXN ) |.'.(.~.Y.J.M.b.g.z.d.y.q.5.1.;.*.O.[ _ OXOXOXOXOXOXOX",
"OXOXOXOXM T ).^.~.R.J.M.b.z.d.y.y.5.5.1.;.*.o.| OXOXOXOXOXOXOXOX",
"OXOXOXOXOXm J ).L.Y.J.M.b.z.z.d.y.q.6.;.=.*.} OXOXOXOXOXOXOXOXOX",
"OXOXOXOXOXOXz S L.Y.J.M.b.g.f.d.y.q.5.1.=.+.OXOXOXOXOXOXOXOXOXOX",
"OXOXOXOXOXOXOXOXB F.J.M.b.z.f.r.y.q.5.1.OXOXOXOXOXOXOXOXOXOXOXOX",
"OXOXOXOXOXOXOXOXOX~ J.M.M.g.z.d.y.q.5.,.OXh < OXOXOXOXOXXX2 OXOX",
"OXOXOXOXOXOXOXOXa R.Y.M.b.z.f.d.y.q.1.>.k < = $ OXOXOXoX7 = $ OX",
"OXOXOXOXOXOXOXOXD R.J.M.b.z.f.r.y.5.6.1.P 4 = = . OXOX7 = = . OX",
"OXOXOXOXOXOXOXOXU R.J.M.b.g.B.d.y.q.6.1.$.OX4 = = 5 0 = = $ OXOX",
"OXOXOXOXOXOXOXOX( F.J.c.b.b.v 0.y.q.5.1.@.OXg = = = = = $ OXOXOX",
"OXOXOXOXOXOXOXa L.R.F.M.u.OXOXy H w.5.1.*.OXOXj = = = = OXOXOXOX",
"OXOXOXOXOXOXOXZ ~.R.Y.W OXOXOXOXr c 5.1.*.K OXs = = = = OXOXOXOX",
"OXOXOXOXOXOXOX! /.F.E OXOXOXOXOXOXw l +.;.$.f 1 = = = = $ OXOXOX",
"OXOXOXOXOXOXOX^.A.OXOXOXOXOXOXOXOXOXOXe F Z.; = =   q = = = OXOX",
"OXOXOXOXOXOXn V.OXOXOXOXOXOXOXOXOXOXOXOXt ; = = . OXOX6 = = = OX",
"OXOXOXOXOXOXi OXOXOXOXOXOXOXOXOXOXOXOXOXOX1 = . OXOXOXOX9 = $ OX",
"OXOXOXOXOXOXOXOXOXOXOXOXOXOXOXOXOXOXOXOXOXd O OXOXOXOXOXOX3 OXOX",
"OXOXOXOXOXOXOXOXOXOXOXOXOXOXOXOXOXOXOXOXOXOXOXOXOXOXOXOXOXOXOXOX"
};
