/* XPM */
static char *button_delete_xpm[] = {
/* columns rows colors chars-per-pixel */
"32 32 79 1 ",
"  c #020203",
". c #090A0B",
"X c #0D0F10",
"o c #0E1011",
"O c #111314",
"+ c #141619",
"@ c #16191C",
"# c #191C1E",
"$ c #1C1F22",
"% c #1D2225",
"& c #212325",
"* c #222629",
"= c #25292C",
"- c #2B2C2D",
"; c #282D31",
": c #2D3134",
"> c #2F353A",
", c #313334",
"< c #31373C",
"1 c #34393C",
"2 c #3B3C3D",
"3 c #353D42",
"4 c #3A3F43",
"5 c #3A4145",
"6 c #3D454B",
"7 c #424A4F",
"8 c #4B4C4D",
"9 c #464E53",
"0 c #4B4F53",
"q c #475056",
"w c #495156",
"e c #4B545B",
"r c #535557",
"t c #53575A",
"y c #54595C",
"u c #595D5F",
"i c #535B61",
"p c #5A5F62",
"a c #5C6164",
"s c #5E6469",
"d c #616263",
"f c #62676A",
"g c #676A6D",
"h c #6B6D6D",
"j c #6C7275",
"k c #737577",
"l c #717679",
"z c #7A7C7E",
"x c #767C80",
"c c #7B7E81",
"v c #7E8284",
"b c #808385",
"n c #858789",
"m c #84898C",
"M c #888B8E",
"N c #8A8F92",
"B c #8D9193",
"V c #919597",
"C c #919598",
"Z c #96999C",
"A c #9C9D9E",
"S c #A2A3A4",
"D c #A6A8A8",
"F c #A8A9AA",
"G c #ADAFB1",
"H c #B2B3B6",
"J c #B7B9BA",
"K c #BBBDBE",
"L c #BCBFC0",
"P c #BFC2C4",
"I c #C2C3C4",
"U c #C6C7C8",
"Y c #CACBCB",
"T c #DEDFE0",
"R c #E9EAEA",
"E c #EFF0F0",
"W c gray94",
"Q c #F8F8F8",
"! c None",
/* pixels */
"!!!!!!!!!!!!!!!!!!!!!!!!!!!!!!!!",
"!!!!!!!!!!!!!!!!!!!!!!!!!!!!!!!!",
"!!!!!!!!!!!!!!!!!!!!!!!!!!!!!!!!",
"!!!!!!!!!!mmvcjppds!!!!!!!!!!!!!",
"!!!!!!!NNxiq963=%$#3td!!!!!!!!!!",
"!!!!!!myiieq963:$$+OXX8!!!!!!!!!",
"!!!!!!9wqeiq9653$#+OX. ,!!!!!!!!",
"!!!!!!wwqqeq9651=#+OX   !!!!!!!!",
"!!!!!!wwsfat9752,,,,-.  !!!!!!!!",
"!!!!!!a8-$&:33,-&O   &-O!!!!!!!!",
"!!!!!!2yassae6531-,,,-#O!!!!!!!!",
"!!!!!!iw997eq653>&+O..O&!!!!!!!!",
"!!!!!!9ww77eq763>&+OX   !!!!!!!!",
"!!!!!!9w997qq763>$@OX.  !!!!!!!!",
"!!!!!!9ww979q9aa9%+OX.  !!!!!!!!",
"!!!!!!ww9776fRTEQh$OX.  !!!!!!!!",
"!!!!!!9wq976LRLCWI@OX.  !!!!!!!!",
"!!!!!!9wq776jPipcptOX.  !!!!!!!!",
"!!!!!!wwq77HUq634UY-X.  !!!!!!!!",
"!!!!!!9wq79LLs63&nIdX.  !!!!!!!!",
"!!!!!!wwq77NZll<urS-X.  !!!!!!!!",
"!!!!!!9wq97sGHJ5SFv+X.  !!!!!!!!",
"!!!!!!9w9776cCv;kc:OX.  !!!!!!!!",
"!!!!!!9wq99653=**@+OX.  !!!!!!!!",
"!!!!!!ww99765:=%$@OOo.  !!!!!!!!",
"!!!!!!9w9976<:=*#@+Oo. 2!!!!!!!!",
"!!!!!!ww9974:;=%&@+O8kAYIS!!!!!!",
"!!!!!!9w996<:;=*$@+O&8kDI!!!!!!!",
"!!!!!!9e993<:;=&$@+o#. ,!!!!!!!!",
"!!!!!!Vj953<:;=&$@+O&:d!!!!!!!!!",
"!!!!!!!!BMmvlgdtufhhh8!!!!!!!!!!",
"!!!!!!!!!!!!!!!!!!!!!!!!!!!!!!!!"
};
