/* XPM */
static char *button_mark_xpm[] = {
/* columns rows colors chars-per-pixel */
"32 32 201 2 ",
"   c #2E770E",
".  c #2E7C0E",
"X  c #307A0F",
"o  c #337E0C",
"O  c #317710",
"+  c #327810",
"@  c #347A11",
"#  c #367B11",
"$  c #CC3D1B",
"%  c #BE5C1E",
"&  c #BB4620",
"*  c #C9461F",
"=  c #D2451E",
"-  c #E4451E",
";  c #E7461E",
":  c #CC4B21",
">  c #C34629",
",  c #CF4D2C",
"<  c #D94D22",
"1  c #CC5F21",
"2  c #D05124",
"3  c #D05526",
"4  c #D1502E",
"5  c #D2542F",
"6  c #D35731",
"7  c #D45A32",
"8  c #D55C33",
"9  c #EA5023",
"0  c #EB5123",
"q  c #ED5B28",
"w  c #EF5B28",
"e  c #E35F3E",
"r  c #CD6022",
"t  c #CD6222",
"y  c #CE6323",
"u  c #CE6424",
"i  c #CF6524",
"p  c #D16A29",
"a  c #F3652C",
"s  c #F3662C",
"d  c #E3603D",
"f  c #E3603E",
"g  c #F76F30",
"h  c #FA7734",
"j  c #FC7D37",
"k  c #FC7E37",
"l  c #DB6743",
"z  c #E56643",
"x  c #E66845",
"c  c #EE7548",
"v  c #EF7648",
"b  c #F87F44",
"n  c #30800F",
"m  c #31810F",
"M  c #34820C",
"N  c #378E0C",
"B  c #388F0C",
"V  c #398F0D",
"C  c #348310",
"Z  c #378611",
"A  c #3A8912",
"S  c #3D8C13",
"D  c #408F13",
"F  c #42871F",
"G  c #508214",
"H  c #5A8C16",
"J  c #439215",
"K  c #469516",
"L  c #499817",
"P  c #4C9B18",
"I  c #4F9E19",
"U  c #629013",
"Y  c #649213",
"T  c #679514",
"R  c #699715",
"E  c #6B9916",
"W  c #6D9B17",
"Q  c #709E17",
"!  c #52A11A",
"~  c #55A41B",
"^  c #58A61C",
"/  c #5BA81D",
"(  c #5EAA1E",
")  c #72A019",
"_  c #75A219",
"`  c #77A41A",
"'  c #79A61B",
"]  c #7CA81B",
"[  c #7EAA1C",
"{  c #469321",
"}  c #469421",
"|  c #479522",
" . c #489622",
".. c #499622",
"X. c #4A9722",
"o. c #4B9823",
"O. c #4B9B23",
"+. c #4C9923",
"@. c #4D9A23",
"#. c #4E9B24",
"$. c #4F9C24",
"%. c #509D25",
"&. c #519E25",
"*. c #529F25",
"=. c #539F25",
"-. c #53A026",
";. c #54A126",
":. c #55A126",
">. c #56A226",
",. c #56A327",
"<. c #57A327",
"1. c #58A427",
"2. c #58A428",
"3. c #60AD20",
"4. c #62AF20",
"5. c #65B121",
"6. c #67B322",
"7. c #68B523",
"8. c #6AB623",
"9. c #6BB724",
"0. c #6CB725",
"q. c #68AE3D",
"w. c #72BA31",
"e. c #73BB31",
"r. c #74B831",
"t. c #74BB32",
"y. c #76BC36",
"u. c #77BD37",
"i. c #77BD38",
"p. c #77BD3B",
"a. c #6BB247",
"s. c #6CB745",
"d. c #6CB845",
"f. c #6DB846",
"g. c #77BD45",
"h. c #78BD44",
"j. c #77BD4E",
"k. c #80AC1E",
"l. c #83B228",
"z. c #83B72E",
"x. c #DB991D",
"c. c #DF9E1F",
"v. c #E09804",
"b. c #EA9F00",
"n. c #EAA209",
"m. c #EAA51C",
"M. c #ECA91F",
"N. c #D59721",
"B. c #D79923",
"V. c #D79B24",
"C. c #D79C26",
"Z. c #D99E2B",
"A. c #FE8239",
"S. c #FE8339",
"D. c #FC803B",
"F. c #FE863F",
"G. c #EE913A",
"H. c #E3A221",
"J. c #E9A626",
"K. c #EEAE22",
"L. c #EBAA28",
"P. c #EDAD2A",
"I. c #EFB12C",
"U. c #F0B225",
"Y. c #F2B627",
"T. c #F0B42E",
"R. c #F4BA2A",
"E. c #F5BE2C",
"W. c #F2B831",
"Q. c #F3BB33",
"!. c #F5BE35",
"~. c #F7C12F",
"^. c #F6C137",
"/. c #F9C531",
"(. c #FAC933",
"). c #FBCC35",
"_. c #FDCE37",
"`. c #F7C438",
"'. c #F8C73A",
"]. c #F9CA3C",
"[. c #FACC3D",
"{. c #FBCE3F",
"}. c #FED138",
"|. c #FFD239",
" X c #FFD33A",
".X c #FFD33B",
"XX c #FFD33C",
"oX c #FFD43E",
"OX c #E78140",
"+X c #F78147",
"@X c #FD8742",
"#X c #F88246",
"$X c #FAC242",
"%X c #FFC343",
"&X c #FBC144",
"*X c #FFC84B",
"=X c #FFCE4B",
"-X c #FFC94C",
";X c #FFD348",
":X c #FDD14A",
">X c None",
/* pixels */
">X>X>X>X>X>X>X>X>X>X>X>X>X>X>X>X>X>X>X>X>X>X>X>X>X>X>X>X>X>X>X>X",
">X>X>X>X>X>X>X>X>X>X>X>X>X>X>X>X>X>X>X>X>Xd.d.d.d.d.d.>X>X>X>X>X",
">X>X>X>X>X>X>X>X>X>X>X>X>X>X>X>X>X>X>X>Xu.p.h.j.d.d.d.d.d.d.>X>X",
">X>X>X>X>X>X>X>X>X>X>X>X>X>X>X>X>X>X>X>Xt.9.0.0.p.h.j.d.d.a.O.>X",
">X>X>X>X>X>X>X>X>X>X>X>X>X>X>X>X>X>X>X>Xt.9.9.9.9.9.9.u.q.V B >X",
">X>X>X>X>X>X>X>X>X>X>X>X>X>X>X>X>X>X>X>Xt.9.9.9.9.9.9.0.2.V V >X",
">X>X>X>X>X>X>X>X>X>X>X>X>X>X>X>X>X>X>X>Xe.7.7.9.7.9.7.7.1.B B >X",
">X>X>X>X>X>X>X>X>X>X>X>X>X%X>X>X>X>X>X>Xw.7.7.7.7.7.7.7.1.B V >X",
">X>X>X>X>X>X>X>X>X>X>X*X%X%X%X%X%X%X>X>Xr.6.6.5.7.6.7.5.1.V B >X",
">X>X>X>X>X>X>X>X>X>X>XoX;X=X*X%X%X%X%X&Xz.5.5.5.5.5.5.5.1.N V >X",
">X>X>X>X>X>X>X>X>X>X>X.X X X.X;X=X*X%X&Xl.4.4.4.4.4.4.4.>.B B >X",
">X>X>X>X>X>X>X>X>X>X>X.X}.}..X.X.X X=Xn.k.4.4.4.4.( 4.( >.B V >X",
">X>Xf f f e e >X>X>X>X.X}.}.}.}..X}.[.b.] 4./ ( ( / 4./ -.B B >X",
">X@X+Xv z e e e e f G._._._._._._._.[.b.] / / / / / / / -.B V >X",
">XA.A.S.F.+Xv x e e OX).(.).).).).).].b.` / ^ ^ ^ ^ ~ ^ -.B B >X",
">Xj j j k k j A.b l p (.(.(.(.(.(.(.'.b.` ~ ~ ~ ~ ~ ~ ~ *.B V >X",
">Xh h h h h h h h 8 i /././././././.`.b._ ! ! ! ! ! ! ! *.N B >X",
">Xg g g g g g g g 7 i ~.~.~.~.~.~.~.^.b.) I I I I I I I *.N B >X",
">Xa a a a a a a a 6 t E.E.E.E.E.E.E.!.b.Q P P P P P P P $.B B >X",
">Xw w w w w w w w 5 t R.R.R.R.R.R.R.Q.b.W L L L L L L L #.B B >X",
">X& < 9 0 0 0 0 0 4 t Y.Y.Y.Y.Y.Y.Y.Q.b.R K K K K K K K @.B B >X",
">X>X>X3 : = - ; ; , 1 U.U.U.U.U.U.U.T.b.R J J J J J J J @.N B >X",
">X>X>X>X>X>X2 * $ > % K.K.K.K.K.K.K.I.b.T D D D D D D D o.B B >X",
">X>X>X>X>X>X>X>X>X>X>XH.M.M.M.M.M.M.P.b.Y S S S S S S S X.B B >X",
">X>X>X>X>X>X>X>X>X>X>X>XC.B.c.m.m.m.L.b.U A A A A A A A X.B B >X",
">X>X>X>X>X>X>X>X>X>X>X>X>X>X>XC.N.x.J.v.H Z Z Z Z Z Z Z | B B >X",
">X>X>X>X>X>X>X>X>X>X>X>X>X>X>X>X>X>XZ.>XG C C C C Z C C | B N >X",
">X>X>X>X>X>X>X>X>X>X>X>X>X>X>X>X>X>X>X>X>X@ + X n n n n | B o >X",
">X>X>X>X>X>X>X>X>X>X>X>X>X>X>X>X>X>X>X>X>X>X>X>X@ O   . { M >X>X",
">X>X>X>X>X>X>X>X>X>X>X>X>X>X>X>X>X>X>X>X>X>X>X>X>X>X>X>XF >X>X>X",
">X>X>X>X>X>X>X>X>X>X>X>X>X>X>X>X>X>X>X>X>X>X>X>X>X>X>X>X>X>X>X>X",
">X>X>X>X>X>X>X>X>X>X>X>X>X>X>X>X>X>X>X>X>X>X>X>X>X>X>X>X>X>X>X>X"
};
