/* XPM */
static char *button_move_down_xpm[] = {
/* columns rows colors chars-per-pixel */
"32 32 236 2 ",
"   c #044505",
".  c #004C00",
"X  c #004F00",
"o  c #024C02",
"O  c #024E02",
"+  c #024F02",
"@  c #034E03",
"#  c #044F04",
"$  c #005400",
"%  c #005500",
"&  c #005700",
"*  c #025602",
"=  c #065006",
"-  c #065606",
";  c #035A03",
":  c #025D02",
">  c #045804",
",  c #065D06",
"<  c #0E580E",
"1  c #145B14",
"2  c #006101",
"3  c #006200",
"4  c DarkGreen",
"5  c #026402",
"6  c #066306",
"7  c #066607",
"8  c #006B02",
"9  c #026B02",
"0  c #006D00",
"q  c #006F00",
"w  c #006F03",
"e  c #076E07",
"r  c #09620A",
"t  c #0B680B",
"y  c #096A0A",
"u  c #017201",
"i  c #007003",
"p  c #037003",
"a  c #017303",
"s  c #007700",
"d  c #007703",
"f  c #037504",
"g  c #047406",
"h  c #007A00",
"j  c #007C00",
"k  c #047A05",
"l  c #017D06",
"z  c #057E06",
"x  c #067209",
"c  c #097909",
"v  c #126812",
"b  c #1A671A",
"n  c #0F7810",
"m  c #276C27",
"M  c #2B6A2B",
"N  c #287728",
"B  c #307632",
"V  c #357436",
"C  c #327832",
"Z  c #317E31",
"A  c #3A7F3A",
"S  c #3F783F",
"D  c #008100",
"F  c #008500",
"G  c #008700",
"H  c #048005",
"J  c #048106",
"K  c #058407",
"L  c #008800",
"P  c #008B00",
"I  c #06830A",
"U  c #058708",
"Y  c #098209",
"T  c #0B870E",
"R  c #068A09",
"E  c #078C0A",
"W  c #088A08",
"Q  c #0A8D0A",
"!  c #08880E",
"~  c #088E0C",
"^  c #098F0D",
"/  c #009000",
"(  c #009200",
")  c #009300",
"_  c #009500",
"`  c #079207",
"'  c #009A00",
"]  c #009B00",
"[  c #009D00",
"{  c #009E00",
"}  c #009F00",
"|  c #049804",
" . c #0A900E",
".. c #0B900F",
"X. c #109C0E",
"o. c #0F8712",
"O. c #118213",
"+. c #108F14",
"@. c #188B12",
"#. c #1E8E14",
"$. c #0C9010",
"%. c #0D9012",
"&. c #119712",
"*. c #169519",
"=. c #1D971A",
"-. c #179C19",
";. c #189E19",
":. c #199B1C",
">. c #00A000",
",. c #01A101",
"<. c #00A300",
"1. c #00A500",
"2. c #00A600",
"3. c #07A307",
"4. c #00A800",
"5. c #00A900",
"6. c #00AA00",
"7. c #03AA03",
"8. c #00AC00",
"9. c #00AD00",
"0. c #0AA70A",
"q. c #0FA20F",
"w. c #00B000",
"e. c #00B100",
"r. c #00B200",
"t. c #00B300",
"y. c #00B400",
"u. c #00B500",
"i. c #04B404",
"p. c #00BA00",
"a. c #00BB00",
"s. c #00BC00",
"d. c #05BF05",
"f. c #0AB40A",
"g. c #2F832F",
"h. c #298E29",
"j. c #2C892C",
"k. c #289428",
"l. c #289A28",
"z. c #2E9F2E",
"x. c #358235",
"c. c #378E37",
"v. c #3B853B",
"b. c #3D803D",
"n. c #3C853C",
"m. c #3E843F",
"M. c #3A8A3A",
"N. c #339733",
"B. c #359335",
"V. c #309B30",
"C. c #3F9B3F",
"Z. c #3D9E3D",
"A. c #25A725",
"S. c #27A727",
"D. c #28A028",
"F. c #29A529",
"G. c #2CA22C",
"H. c #2CAB2C",
"J. c #2CAE2C",
"K. c #2AB02A",
"L. c #31A731",
"P. c #33A633",
"I. c #36A536",
"U. c #32AE32",
"Y. c #3FA934",
"T. c #3AA13A",
"R. c #38A438",
"E. c #3DA83D",
"W. c #3DAC3D",
"Q. c #37B537",
"!. c #00C000",
"~. c #00C300",
"^. c #00C500",
"/. c #00CB00",
"(. c #00CD00",
"). c #05CA05",
"_. c #09C109",
"`. c #08CE08",
"'. c #06D406",
"]. c #07D807",
"[. c #3F8340",
"{. c #478D48",
"}. c #469146",
"|. c #449444",
" X c #419841",
".X c #4E9E4E",
"XX c #508450",
"oX c #519451",
"OX c #509C50",
"+X c #42A742",
"@X c #44A644",
"#X c #47A447",
"$X c #40A840",
"%X c #47AC47",
"&X c #49A249",
"*X c #4BA04B",
"=X c #4AAA4A",
"-X c #4CAA4C",
";X c #4FAA4F",
":X c #51AA51",
">X c #53A953",
",X c #52AD52",
"<X c #56A856",
"1X c #56AD56",
"2X c #5AA35A",
"3X c #58A658",
"4X c #5CA05C",
"5X c #5EA55E",
"6X c #59AE59",
"7X c #5BAE5B",
"8X c #5DAE5D",
"9X c #5DB05D",
"0X c #60AE60",
"qX c #62AE62",
"wX c #63B263",
"eX c #65B365",
"rX c #67B467",
"tX c #69B469",
"yX c #6AB46A",
"uX c #6CB56C",
"iX c #6FB86F",
"pX c #72B972",
"aX c #74BA74",
"sX c #74BB74",
"dX c #77BC77",
"fX c #7FBA7F",
"gX c #7CBF7C",
"hX c #7EC17E",
"jX c #86B886",
"kX c #80C180",
"lX c #81C281",
"zX c #85C285",
"xX c #88C988",
"cX c #8BC98B",
"vX c #99D599",
"bX c None",
/* pixels */
"bXbXbXbXbXbXbXbXbXbXbXbXbXbXbXbXbXbXbXbXbXbXbXbXbXbXbXbXbXbXbXbX",
"bXbXbXbXbXbXbXbXbXbXbXbXbXbXbXbXbXbXbXbXbXbXbXbXbXbXbXbXbXbXbXbX",
"bXbXbXbXbXbXbXbXbXbXbXbXbXbXbXbXbXbXbXbXbXbXbXbXbXbXbXbXbXbXbXbX",
"bXbXbXbXbXbXbXbXbXbXbXbXbXbXbXbXbXbXbXbXbXbXbXbXbXbXbXbXbXbXbXbX",
"bXbXbXbXbXbXbXbXbXbXbXbXbXbXbXbXbXbXbXbXbXbXbXbXbXbXbXbXbXbXbXbX",
"bXbXbXbXbXbXbXbXbXbXbXbXbXbXbXbXbXbXbXbXbXbXbXbXbXbXbXbXbXbXbXbX",
"bXbXbXbXbXbXbXbXbXbXbXbXbXbXbXbXbXbXbXbXbXbXbXbXbXbXbXbXbXbXbXbX",
"bXbXbXbXbXbXbXbXbXbXbXbXbXbXbXbXbXbXbXbXbXbXbXbXbXbXbXbXbXbXbXbX",
"bXbXbXXXM . # . > : 5 9 p f k z H K U E E ^ ^ ....$.$.=.#.bXbXbX",
"bXbXbXS jXvXcXlXsXtX9X,X%XW.U.Q.7.i.d.).'.].`._.f.0.X.Y.@.bXbXbX",
"bXbXbXbX= fXxXgXiXwX1X=XE.L.A.K.2.9.p.~./.(.^.p.9.>.;.! bXbXbXbX",
"bXbXbXbXbX1 zXhXpXeX6X-X+XP.A.J.2.9.u.p.~.s.s.u.5.q.+.bXbXbXbXbX",
"bXbXbXbXbX. m lXsXrX8X-X+XI.F.H.{ 2.5.r.u.u.r.5.3.*.i bXbXbXbXbX",
"bXbXbXbXbXbX. b.dXtX8X:X@XR.G.F.| ' 2.5.5.5.2.>.:.d bXbXbXbXbXbX",
"bXbXbXbXbXbXbX. oXuX0X>X#XT.G.z.` _ ' { >.{ ' ;.l bXbXbXbXbXbXbX",
"bXbXbXbXbXbXbXbX# 4X0X3X&XZ.V.l.W L / ( ( ( &.I bXbXbXbXbXbXbXbX",
"bXbXbXbXbXbXbXbXbX< 5X2X.XC.V.k.Y D G G G Q T bXbXbXbXbXbXbXbXbX",
"bXbXbXbXbXbXbXbXbX. b 2X.X XB.h.c f h j K o.9 bXbXbXbXbXbXbXbXbX",
"bXbXbXbXbXbXbXbXbXbX. N OX|.c.j.e q q p O.i bXbXbXbXbXbXbXbXbXbX",
"bXbXbXbXbXbXbXbXbXbXbX$ x.}.M.g.6 4 5 n i bXbXbXbXbXbXbXbXbXbXbX",
"bXbXbXbXbXbXbXbXbXbXbXbX> v.v.Z > % t g bXbXbXbXbXbXbXbXbXbXbXbX",
"bXbXbXbXbXbXbXbXbXbXbXbXbXr b.C o > x bXbXbXbXbXbXbXbXbXbXbXbXbX",
"bXbXbXbXbXbXbXbXbXbXbXbXbX% v V   t 4 bXbXbXbXbXbXbXbXbXbXbXbXbX",
"bXbXbXbXbXbXbXbXbXbXbXbXbXbX, [.B 7 bXbXbXbXbXbXbXbXbXbXbXbXbXbX",
"bXbXbXbXbXbXbXbXbXbXbXbXbXbXbXm.{.bXbXbXbXbXbXbXbXbXbXbXbXbXbXbX",
"bXbXbXbXbXbXbXbXbXbXbXbXbXbXbXbXbXbXbXbXbXbXbXbXbXbXbXbXbXbXbXbX",
"bXbXbXbXbXbXbXbXbXbXbXbXbXbXbXbXbXbXbXbXbXbXbXbXbXbXbXbXbXbXbXbX",
"bXbXbXbXbXbXbXbXbXbXbXbXbXbXbXbXbXbXbXbXbXbXbXbXbXbXbXbXbXbXbXbX",
"bXbXbXbXbXbXbXbXbXbXbXbXbXbXbXbXbXbXbXbXbXbXbXbXbXbXbXbXbXbXbXbX",
"bXbXbXbXbXbXbXbXbXbXbXbXbXbXbXbXbXbXbXbXbXbXbXbXbXbXbXbXbXbXbXbX",
"bXbXbXbXbXbXbXbXbXbXbXbXbXbXbXbXbXbXbXbXbXbXbXbXbXbXbXbXbXbXbXbX",
"bXbXbXbXbXbXbXbXbXbXbXbXbXbXbXbXbXbXbXbXbXbXbXbXbXbXbXbXbXbXbXbX"
};
