/* XPM */
static char * button_championship_teams_xpm[] = {
"32 32 2 1",
" 	c None",
".	c #000000",
"                                ",
"         ....                   ",
"        ..  ..                  ",
"       ..    ..                 ",
"      ..      .   .....         ",
"      ..         ..   ..        ",
"      ..         ..    .        ",
"      ..         ..             ",
"      ..          .....         ",
"      ..            ....        ",
"       .      .        .        ",
"       ..    ..  .     ..       ",
"        ..  ..   ..   ..        ",
"         ....     .....         ",
"                                ",
"                                ",
"                                ",
"                                ",
"            .........           ",
"               ..               ",
"               ..               ",
"               ..               ",
"               ..               ",
"               ..               ",
"               ..               ",
"               ..               ",
"               ..               ",
"               ..               ",
"               ..               ",
"               ..               ",
"               ..               ",
"                                "};
