/* XPM */
static char *button_find_random_xpm[] = {
/* columns rows colors chars-per-pixel */
"64 64 256 2 ",
"   c #000000",
".  c #000509",
"X  c #00090C",
"o  c #000C12",
"O  c #001214",
"+  c #001524",
"@  c #001F26",
"#  c #001A29",
"$  c #001D36",
"%  c #00252C",
"&  c #002A2F",
"*  c #002F33",
"=  c #00273B",
"-  c #002F3E",
";  c #002947",
":  c #002B50",
">  c #003856",
",  c #00345D",
"<  c #00385F",
"1  c #003965",
"2  c #003F6C",
"3  c #00474A",
"4  c #004755",
"5  c #004B5B",
"6  c #004464",
"7  c #004069",
"8  c #004E6A",
"9  c #004279",
"0  c #00517F",
"q  c #00666C",
"w  c #006374",
"e  c #00637A",
"r  c #007B7F",
"t  c #004880",
"y  c #004B8A",
"u  c #005485",
"i  c #005C86",
"p  c #005093",
"a  c #00599C",
"s  c #00688D",
"d  c #007483",
"f  c #00708F",
"g  c #006295",
"h  c #007B9A",
"j  c #0059A4",
"k  c #0062A0",
"l  c #0070A3",
"z  c #007BA2",
"x  c #007BA9",
"c  c #0064B3",
"v  c #006AB6",
"b  c #086BB7",
"n  c #006EB8",
"m  c #007FB7",
"M  c #0074BB",
"N  c #007ABE",
"B  c #0C79BE",
"V  c #0D74BC",
"C  c #1A77BD",
"Z  c #1275BC",
"A  c #007EC1",
"S  c #0A7EC0",
"D  c #177EC0",
"F  c #197DC0",
"G  c #0095A0",
"H  c #009AA8",
"J  c #0088BB",
"K  c #009BBC",
"L  c #00A6AA",
"P  c #00B2BC",
"I  c #0084C3",
"U  c #0A84C3",
"Y  c #008AC7",
"T  c #008EC9",
"R  c #0D8CC8",
"E  c #1D84C4",
"W  c #1489C7",
"Q  c #1C88C6",
"!  c #168EC8",
"~  c #188AC7",
"^  c #0094CB",
"/  c #019ACE",
"(  c #0B99CE",
")  c #1193CB",
"_  c #1D94CC",
"`  c #129ACF",
"'  c #1B9ACE",
"]  c #019ED1",
"[  c #0D9ED1",
"{  c #139DD0",
"}  c #1A9ED0",
"|  c #2389C7",
" . c #2C8DC9",
".. c #248CC8",
"X. c #3D8BC7",
"o. c #2392CA",
"O. c #239BCF",
"+. c #2C9BCF",
"@. c #3494CC",
"#. c #359BCF",
"$. c #3E95CC",
"%. c #239DD0",
"&. c #2D9ED1",
"*. c #359ED1",
"=. c #3B9ED1",
"-. c #00B2C7",
";. c #02A4D3",
":. c #0CA3D3",
">. c #01AAD6",
",. c #01AED8",
"<. c #0AA8D5",
"1. c #13A2D2",
"2. c #1AA1D2",
"3. c #1BAED8",
"4. c #14AED8",
"5. c #00B3D7",
"6. c #00B3DB",
"7. c #01BBDE",
"8. c #0AB7DC",
"9. c #10BCDF",
"0. c #23A2D3",
"q. c #2CA3D3",
"w. c #23ABD7",
"e. c #2DAAD7",
"r. c #35A3D3",
"t. c #3BA3D3",
"y. c #35AAD6",
"u. c #3BAAD6",
"i. c #35BDDF",
"p. c #00BEE0",
"a. c #4293CB",
"s. c #4B9BCF",
"d. c #5A9CCF",
"f. c #4D9FD1",
"g. c #44A4D3",
"h. c #4EA6D4",
"j. c #44AAD6",
"k. c #4EAAD6",
"l. c #47ACD8",
"z. c #4EADD8",
"x. c #54A5D4",
"c. c #55AAD6",
"v. c #5CAAD6",
"b. c #55AED9",
"n. c #5CAED8",
"m. c #5AA4D3",
"M. c #5CB0D9",
"N. c #54BDDF",
"B. c #64A5D3",
"V. c #63ABD7",
"C. c #6DAAD6",
"Z. c #63AED8",
"A. c #6DAFD9",
"S. c #75ADD7",
"D. c #63B1DA",
"F. c #6BB3DA",
"G. c #73B5DB",
"H. c #7CB6DC",
"J. c #7CB9DE",
"K. c #00CACF",
"L. c #01C3E2",
"P. c #0FC1E1",
"I. c #01CBE6",
"U. c #0BCBE6",
"Y. c #00CFE8",
"T. c #13CEE7",
"R. c #11CFE8",
"E. c #1DC1E1",
"W. c #00D1E7",
"Q. c #02D3EA",
"!. c #0BD3EA",
"~. c #04DBED",
"^. c #0BDCEE",
"/. c #14D4EA",
"(. c #1ED5EB",
"). c #14DCEE",
"_. c #1EDBEE",
"`. c #0BDFF0",
"'. c #24C5E3",
"]. c #3DCCE7",
"[. c #3DC5E3",
"{. c #28DDEE",
"}. c #25D7EB",
"|. c #32DFF0",
" X c #00E4E7",
".X c #00E4F1",
"XX c #0CE2F1",
"oX c #00ECF6",
"OX c #14E3F1",
"+X c #1FE4F2",
"@X c #1FE9F4",
"#X c #00F4F9",
"$X c #0AF1F8",
"%X c #00FAFC",
"&X c #17F4F9",
"*X c #28E4F2",
"=X c #28EBF5",
"-X c #32E4F2",
";X c #3BE5F2",
":X c #32ECF6",
">X c #3DEBF5",
",X c #21F6FB",
"<X c #29F9FC",
"1X c #3DF0F7",
"2X c #32F0F8",
"3X c #3DF2F9",
"4X c #48D0E8",
"5X c #5FD1E9",
"6X c #58CBE6",
"7X c #79CEE8",
"8X c #67D8ED",
"9X c #7FDAED",
"0X c #49EDF6",
"qX c #49F4F9",
"wX c #56F5FA",
"eX c #57F8FC",
"rX c #7FE3F1",
"tX c #84BCDF",
"yX c #83B7DC",
"uX c #8DBFE0",
"iX c #84BDE0",
"pX c #90BFE1",
"aX c #8DC0E1",
"sX c #96C4E3",
"dX c #9EC8E4",
"fX c #9BC6E4",
"gX c #8BD6EB",
"hX c #82DCEE",
"jX c #94D5EB",
"kX c #9BD4EB",
"lX c #9CDDEF",
"zX c #80DFF0",
"xX c #A1C9E5",
"cX c #A9CEE7",
"vX c #A9CEE8",
"bX c #B3D3EA",
"nX c #8AE3F1",
"mX c #9CE0F0",
"MX c #A4E5F2",
"NX c #AAE8F4",
"BX c #B2EDF6",
"VX c #C3DDEF",
"CX c #C5EDF6",
"ZX c #CCE3F2",
"AX c #D7E8F4",
"SX c #CDF2F9",
"DX c #DCF3F9",
"FX c #D5F4F9",
"GX c #E2EFF7",
"HX c #E3F4F9",
"JX c #ECF4FA",
"KX c #EEF9FC",
"LX c #E6F9FC",
"PX c #F2F9FC",
"IX c #FFFFFF",
"UX c None",
/* pixels */
"UXUXUXUXUXUXUXUXUXUXUXUXUXUXUXUXUXUXUXUXUXUXUXUXUXUXUXUXUXUXUXUXUXUXUXUXUXUXUXUXUXUXUXUXUXUXUXUXUXUXUXUXUXUXUXUXUXUXUXUXUXUXUXUX",
"UXUXUXUXUXUXUXUXUXUXUXUXUXUXUXUXUXUXUXUXUXUXUXUX                                UXUXUXUXUXUXUXUXUXUXUXUXUXUXUXUXUXUXUXUXUXUXUXUX",
"UXUXUXUXUXUXUXUXUXUXUXUXUXUXUXUXUXUXUXUXUX                                            UXUXUXUXUXUXUXUXUXUXUXUXUXUXUXUXUXUXUXUXUX",
"UXUXUXUXUXUXUXUXUXUXUXUXUXUXUXUXUXUX            X $ , 9 p j c c c c j p 9 , $ X             UXUXUXUXUXUXUXUXUXUXUXUXUXUXUXUXUXUX",
"UXUXUXUXUXUXUXUXUXUXUXUXUXUXUXUXUX        X : y c c c c c c c c c c c c c c c c y : o         UXUXUXUXUXUXUXUXUXUXUXUXUXUXUXUXUX",
"UXUXUXUXUXUXUXUXUXUXUXUXUXUXUX        + 9 c c c c c C X.d.C.yXyXyXyXC.d.X.C c c c c c 9 +         UXUXUXUXUXUXUXUXUXUXUXUXUXUXUX",
"UXUXUXUXUXUXUXUXUXUXUXUXUX        + t c c c b X.S.xXbXbXbXbXbXbXbXbXbXbXbXbXxXS.X.b c c c t +         UXUXUXUXUXUXUXUXUXUXUXUXUX",
"UXUXUXUXUXUXUXUXUXUXUXUX      . 1 c c v C B.xXcXvXvXvXcXcXcXcXcXcXcXcXcXcXcXcXvXvXdXB.C v v c 1 .       UXUXUXUXUXUXUXUXUXUXUXUX",
"UXUXUXUXUXUXUXUXUXUXUX      + a c v Z B.dXxXxXxXxXxXdXxXxXxXxXxXdXxXxXxXxXxXxXxXxXxXxXdXB.Z v c a +       UXUXUXUXUXUXUXUXUXUXUX",
"UXUXUXUXUXUXUXUXUXUX      ; c v v a.pXsXsXsXsXsXsXsXsXsXsXsXsXsXpXfXsXfXsXsXsXsXsXsXsXsXsXpXa.v v c ;       UXUXUXUXUXUXUXUXUXUX",
"UXUXUXUXUXUXUXUXUX      , v n V C.uXaXaXuXuXuXaXaXaXaXaXaXaXaXaXaXaXuXuXaXaXaXaXaXpXaXuXaXpXuXC.V n v <       UXUXUXUXUXUXUXUXUX",
"UXUXUXUXUXUXUXUX      2 n n E S.tXtXtXtXtXtXtXtXiXiXiXiXiXiXiXtXiXtXtXyXtXtXtXtXtXtXtXtXiXtXyXyXS.F n n 7       UXUXUXUXUXUXUXUX",
"UXUXUXUXUXUXUX      < n n E S.J.H.H.H.H.J.J.J.J.J.J.J.J.7XJ.J.J.J.J.7XJ.J.J.7XH.J.J.J.H.J.H.H.H.J.G.E n n ,       UXUXUXUXUXUXUX",
"UXUXUXUXUXUX      ; n n C F.G.G.A.G.G.G.G.G.G.G.G.G.G.G.G.G.G.G.G.G.G.G.G.G.G.G.G.G.G.G.G.G.G.G.S.G.A.F M n ;       UXUXUXUXUXUX",
"UXUXUXUXUXUX    # n M B v.F.A.A.F.F.F.F.F.F.F.F.F.F.F.F.F.F.F.F.F.F.F.F.F.F.F.F.F.F.F.F.F.F.A.F.A.F.A.B.V M n +     UXUXUXUXUXUX",
"UXUXUXUXUX    . k M M f.V.V.Z.V.D.D.D.D.D.D.D.D.D.D.D.D.D.D.D.D.D.D.D.D.D.D.D.D.D.D.D.D.Z.D.M.V.Z.Z.Z.Z.h.M M k .     UXUXUXUXUX",
"UXUXUXUXUX    7 M M  .v.v.v.v.v.v.v.n.v.M.v.M.n.M.M.M.M.M.M.M.M.M.M.M.M.M.M.M.n.M.n.n.n.v.M.v.M.v.v.v.m.v. .M M 7     UXUXUXUXUX",
"UXUXUXUX    + M N B x.c.x.x.c.c.c.c.c.c.b.b.b.b.b.b.b.b.b.b.b.b.b.b.b.b.b.b.b.n.b.b.c.c.b.c.c.c.c.c.x.c.x.h.B N M +     UXUXUXUX",
"UXUXUX      u N N @.h.h.h.x.h.c.h.c.h.c.h.k.h.z.z.z.z.z.z.z.z.z.z.z.z.z.z.z.z.k.z.k.c.k.k.c.c.k.h.c.h.h.x.h.@.N M u       UXUXUX",
"UXUXUX    # M N B g.f.g.g.g.g.j.j.j.j.j.l.j.l.l.l.l.l.l.l.l.l.l.l.l.l.l.l.l.j.j.l.l.j.l.l.g.g.g.j.g.g.g.g.g.g.B N N #     UXUXUX",
"UXUXUX    0 N N o.g.g.t.g.g.g.| #.u.g.j.j.j.u.j.j.j.u.j.j.u.j.l.j.j.r.o.u.j.j.u.j.u.j.g.g.g.u.g.g.g.g.g.g.g.g...N A u     UXUXUX",
"UXUX    o N N I #.=.=.=.=.t.t.GXA.Q r.u.u.u.u.t.u.u.u.u.u.u.u.u.y.u.kXbX .+.u.u.t.u.u.u.u.u.u.r.t.t.t.r.=.=.=.#.A J M o     UXUX",
"UXUX    > N I U #.*.=.r.r.r.r.KXIXAXs.Q r.y.y.y.y.y.y.y.y.i.y.y.y.y.kXIXPXpXQ q.y.u.q.y.u.y.r.r.y.r.r.*.&.=.*.=.U A N >     UXUX",
"UXUX    g A I ! #.&.&.&.&.&.&.PXIXIXIXbX .O.q.e.e.e.y.e.e.e.e.e.e.e.jXIXIXIXHXB.~ q.e.q.q.q.q.q.q.&.&.r.&.&.&.&.! I I g     UXUX",
"UX    X N I I _ +.+.+.q.q.q.0.PXIXIXIXIXPXpXQ 0.e.w.e.e.e.e.e.e.e.e.jXIXIXIXIXIXZX$.! q.e.q.e.q.q.q.q.q.&.&.&.+._ I I I X     UX",
"UX    = I I I O.O.O.%.%.+.0.0.PXIXIXIXIXIXIXJXB.W 0.w.w.w.w.w.w.w.w.jXIXIXIXIXIXIXIXxX..' 0.0.0.0.0.%.%.%.%.O.O._ I I I =     UX",
"UX    6 I Y Y _ O.O.%.} 0.0.2.PXIXIXIXIXIXIXIXIXZXa.) w.w.3.3.w.w.w.gXIXIXIXIXIXIXIXIXPXH.W } 0.0.0.0.} 2.%.O.O.O.Y I I 6     UX",
"UX    i I Y Y ' ' } } } 2.2.2.PXIXIXIXIXIXIXIXIXIXIXvX| } 3.3.3.3.3.gXIXIXIXIXIXIXIXIXIXIXGXm.R 2.2.0.2.} } } ' ' Y Y I i     UX",
"UX    l Y Y T ' ' } ' 2.1.2.2.PXIXIXIXIXIXIXIXIXIXIXIXPXyXW 1.3.4.4.gXIXIXIXIXIXIXIXIXIXIXIXIXVX@.) } 2.} } } { ' T Y Y l     UX",
"UX    m Y T T ` ` { { 1.1.1.1.KXIXIXIXIXIXIXIXIXIXIXIXIXIXGXm.R 4.4.gXIXIXIXIXIXIXIXIXIXIXIXIXIXIXsXQ ) 1.{ { ` ` T T Y m     UX",
"UX    T T T ^ ` { { { { 1.1.1.KXIXIXIXIXIXIXIXIXIXIXIXIXIXIXIXVX@.( gXIXIXIXIXIXIXIXIXIXIXIXIXIXIXIXKXG.U ` { ` ( ^ T T T     UX",
"UX    T T ^ ^ ( [ { :.:.:.1.<.KXIXIXIXIXIXIXIXIXIXIXIXIXIXIXIXIXIXxXkXIXIXIXIXIXIXIXIXIXIXIXIXIXIXIXIXIXAXc.[ ` ( ^ ^ T T     UX",
"UX    T ^ ^ ^ ( [ [ :.[ <.<.<.KXIXIXIXIXIXIXIXIXIXIXIXIXIXIXIXIXIXMXmXIXIXIXIXIXIXIXIXIXIXIXIXIXIXIXIXIXDXN.( [ / ^ ^ ^ T     UX",
"UX    ^ ^ ^ / / ] [ :.:.<.<.<.KXIXIXIXIXIXIXIXIXIXIXIXIXIXIXIXCX[.8.hXIXIXIXIXIXIXIXIXIXIXIXIXIXIXIXPX7X<.:.[ [ ] ^ / ^ ^     UX",
"UX    I ^ ^ / / ] :.;.<.:.<.<.KXIXIXIXIXIXIXIXIXIXIXIXIXIXHX5X8.8.8.hXIXIXIXIXIXIXIXIXIXIXIXIXIXIXmX3.<.;.:.:.] / / ^ ^ J     UX",
"UX    x ^ / ] ] ] ;.;.;.<.>.<.KXIXIXIXIXIXIXIXIXIXIXIXPXzX9.8.p.6.8.9XIXIXIXIXIXIXIXIXIXIXIXIXCXi.<.>.;.<.;.;.;.] / / ^ x     UX",
"UX    s / / ] ] ] ;.;.>.>.>.<.KXIXIXIXIXIXIXIXIXIXIXNX'.p.8.p.8.7.8.zXIXIXIXIXIXIXIXIXIXIXHX6X,.,.,.,.,.>.<.;.;.] ] / / s     UX",
"UX    8 / ] ] ] ;.;.<.>.>.5.,.KXIXIXIXIXIXIXIXIXSX].7.7.p.p.p.p.L.7.zXIXIXIXIXIXIXIXIXPX9X8.6.8.,.,.,.<.>.;.;.;.;.] ] / 8     UX",
"UX    - ] ] ;.;.;.;.;.>.,.,.5.KXIXIXIXIXIXIXKX8Xp.7.L.7.p.p.p.p.p.L.zXIXIXIXIXIXIXIXMXE.7.6.6.6.,.,.,.,.>.;.;.;.;.] ] / -     UX",
"UX    X ] ] ;.;.;.>.>.>.,.,.,.KXIXIXIXIXPXnXP.p.p.p.L.L.L.L.L.p.L.L.rXIXIXIXIXIXSX].p.7.7.7.6.6.6.6.,.,.,.>.>.;.;.;.;.] X     UX",
"UXUX    z ;.;.;.>.>.>.,.,.6.6.KXIXIXIXBX'.7.L.L.p.L.L.L.L.I.L.I.L.L.rXIXIXIXLX8Xp.p.p.p.p.7.6.6.7.6.6.,.,.,.>.>.;.;.;.z     UXUX",
"UXUX    5 ;.;.>.,.,.,.,.6.6.7.KXIXFX4Xp.p.L.L.L.L.L.I.L.L.I.I.I.I.I.rXIXPXnXU.L.L.L.p.p.p.p.p.p.7.6.7.,.,.,.,.,.>.;.;.6     UXUX",
"UXUX    o ;.;.>.,.,.,.,.6.6.7.DX8Xp.p.p.L.L.L.L.I.I.I.I.I.I.I.I.I.I.rXBX(.I.I.I.L.L.L.L.p.p.p.p.7.6.6.6.,.,.,.,.>.;.;.O     UXUX",
"UXUXUX    f >.,.,.,.6.6.6.7.7.P.p.p.L.L.L.L.I.I.I.I.I.Y.I.Y.Y.Y.Y.Y.!.Y.I.I.I.I.I.I.I.L.L.p.p.p.7.7.7.7.6.6.,.,.>.>.f     UXUXUX",
"UXUXUX    % >.,.,.6.6.7.7.8.7.p.L.L.L.L.I.I.I.I.Y.Y.Y.Y.Y.Q.Q.W.W.W.Q.W.W.Y.Y.Y.I.I.I.L.L.p.p.p.7.7.7.7.6.,.6.,.,.>.%     UXUXUX",
"UXUXUX      h ,.,.6.7.6.7.7.p.7.L.L.L.L.I.I.I.I.W.Q.Y.Q.Q.Q.Q.Q.Q.Q.Q.W.Q.Q.Y.Q.Y.I.I.I.I.I.L.L.L.7.7.7.7.6.6.,.,.h       UXUXUX",
"UXUXUXUX    # ,.,.6.6.7.7.p.p.L.L.L.I.I.I.Y.Y.Y.Q.Q.Q.Q.Q.Q.Q.~.~.Q.Q.Q.Q.Q.Q.Q.Y.Y.Y.I.I.L.I.p.L.p.p.7.7.6.6.,.,.@     UXUXUXUX",
"UXUXUXUXUX    e 6.6.7.7.7.L.L.L.L.I.I.U.Y.W.!.W.Q.Q.~.Q.~.~.~.~.~.~.~.~.Q.~.Q.Q.Q.W.Q.Q.I.I.I.L.L.L.L.7.7.7.7.6.e     UXUXUXUXUX",
"UXUXUXUXUX    X K 7.7.7.p.L.P.I.U.U.Q.Q.U.!.!.Q.!.~.~.^.^.^.~.^.`.~.~.~.^.~.!.~.~.!.!.Q.!.I.U.U.U.P.p.7.7.7.7.K .     UXUXUXUXUX",
"UXUXUXUXUXUX    % 5.7.p.p.L.U.U.U.U.U.!.!.!.^.^.`.^.^.`.`.XXXXXX`.`.XX`.^.^.^.^.^.!.~.!.!.!.U.U.U.U.L.L.p.7.5.%     UXUXUXUXUXUX",
"UXUXUXUXUXUX      4 7.7.L.L.U.U.R.R.!./.)./.).).).).).XXOXOXOXOXOXXXOXOXOXXX).).).^././.R./.!.T.T.U.L.L.p.7.4       UXUXUXUXUXUX",
"UXUXUXUXUXUXUX      w L.L.L.L.T./.(././.).).).).OXOXOXOXOXOX$XOX@XOX+XOXOXOXOXOX)._._.).)./.(.T.T.L.L.L.p.w       UXUXUXUXUXUXUX",
"UXUXUXUXUXUXUXUX      d L.L.I.U.(.(.(._._._.+X+X+X+X+X@X@X@X@X@X@X@X@X@X@X@X+X+X+X_._._._.(.(.(.U.I.I.L.d       UXUXUXUXUXUXUXUX",
"UXUXUXUXUXUXUXUXUX      w I.I.Y.!.{.{.{.*X{.*X*X*X=X=X=X=X=X=X=X,X=X=X=X=X=X*X*X*X*X{.*X{.{.{.!.Y.Y.I.w       UXUXUXUXUXUXUXUXUX",
"UXUXUXUXUXUXUXUXUXUX      5 L.Y.W.!.{.|.-X-X-X-X:X-X:X:X:X:X2X2X2X2X2X:X:X:X:X:X-X-X-X-X|.{.!.W.I.L.5       UXUXUXUXUXUXUXUXUXUX",
"UXUXUXUXUXUXUXUXUXUXUX      & -.W.Q.Q.(.|.0X;X>X0X>X1X1X1X3X3X3X3X3X3X3X>X>X>X>X>X>X;X;X).~.Q.W.-.&       UXUXUXUXUXUXUXUXUXUXUX",
"UXUXUXUXUXUXUXUXUXUXUXUX      X d W.~.~.~.OX>X0X0XqX0XqXqXqXqXqXqXqXqXqXqX0X0X0X0X>X+X~.~.~.W.d X       UXUXUXUXUXUXUXUXUXUXUXUX",
"UXUXUXUXUXUXUXUXUXUXUXUXUX        % H ~.~..X.XXX=X>XwXwXeXeXeXeXeXeXwXwXwXwX3X=XXX.X~..X~.H %         UXUXUXUXUXUXUXUXUXUXUXUXUX",
"UXUXUXUXUXUXUXUXUXUXUXUXUXUXUX        * G ~..XoX.XoXoX$X&X,X<X<X<X<X,X&X$XoXoX.XoX.X~.G *         UXUXUXUXUXUXUXUXUXUXUXUXUXUXUX",
"UXUXUXUXUXUXUXUXUXUXUXUXUXUXUXUXUX        O q P .XoX#X#X#X#X%X%X%X%X%X#X#X#XoX.XP q O         UXUXUXUXUXUXUXUXUXUXUXUXUXUXUXUXUX",
"UXUXUXUXUXUXUXUXUXUXUXUXUXUXUXUXUXUX            O 3 r L K. X%X%X%X%X XK.L r 3 O             UXUXUXUXUXUXUXUXUXUXUXUXUXUXUXUXUXUX",
"UXUXUXUXUXUXUXUXUXUXUXUXUXUXUXUXUXUXUXUXUX                                            UXUXUXUXUXUXUXUXUXUXUXUXUXUXUXUXUXUXUXUXUX",
"UXUXUXUXUXUXUXUXUXUXUXUXUXUXUXUXUXUXUXUXUXUXUXUX                                UXUXUXUXUXUXUXUXUXUXUXUXUXUXUXUXUXUXUXUXUXUXUXUX",
"UXUXUXUXUXUXUXUXUXUXUXUXUXUXUXUXUXUXUXUXUXUXUXUXUXUXUXUXUXUXUXUXUXUXUXUXUXUXUXUXUXUXUXUXUXUXUXUXUXUXUXUXUXUXUXUXUXUXUXUXUXUXUXUX"
};
