/* XPM */
static char *button_raiting_xpm[] = {
/* columns rows colors chars-per-pixel */
"32 32 112 2 ",
"   c #5D3201",
".  c #623600",
"X  c #653905",
"o  c #6B3C01",
"O  c #693E0B",
"+  c #6D420C",
"@  c #744302",
"#  c #7C4901",
"$  c #70440C",
"%  c #76490D",
"&  c #7C4C0B",
"*  c #6C4210",
"=  c #7B4F14",
"-  c #784E19",
";  c #7B521F",
":  c #834D00",
">  c #814F09",
",  c #8B5400",
"<  c #85530A",
"1  c #8D5808",
"2  c #905700",
"3  c #955B00",
"4  c #935C08",
"5  c #84571A",
"6  c #8B5D1C",
"7  c #A35F00",
"8  c #9D6101",
"9  c #93631C",
"0  c #996618",
"q  c #9B691A",
"w  c #A46500",
"e  c #AA6500",
"r  c #AD6B00",
"t  c #A56A0A",
"y  c #AC6F08",
"u  c #B16E00",
"i  c #AD700A",
"p  c #B57201",
"a  c #BA7501",
"s  c #BD7801",
"d  c #B3760B",
"f  c #B9770A",
"g  c #A26B14",
"h  c #A16E1D",
"j  c #AB7316",
"k  c #AC7418",
"l  c #B47615",
"z  c #B97A11",
"x  c #B4791C",
"c  c #B87E1B",
"v  c #8C6124",
"b  c #8D6735",
"n  c #8D6A3D",
"m  c #AA7622",
"M  c #A1732B",
"N  c #B67E26",
"B  c #C37B00",
"V  c #C87F00",
"C  c #987648",
"Z  c #B4822F",
"A  c #BC8631",
"S  c #BF8A36",
"D  c #B4863C",
"F  c #B5883E",
"G  c #BC8C3C",
"H  c #C48005",
"J  c #CB8200",
"K  c #D18700",
"L  c #D78B00",
"P  c #C28312",
"I  c #C2851C",
"U  c #C0882D",
"Y  c #CD9127",
"T  c #CD932B",
"R  c #C18E36",
"E  c #C59035",
"W  c #C1913F",
"Q  c #B58841",
"!  c #B68D4C",
"~  c #BB924A",
"^  c #A48355",
"/  c #A98757",
"(  c #AD8A56",
")  c #AA8858",
"_  c #B28C53",
"`  c #B28F5B",
"'  c #B59459",
"]  c #BA975F",
"[  c #AE936C",
"{  c #B49361",
"}  c #B2966F",
"|  c #BBA376",
" . c #B5A07D",
".. c #C39343",
"X. c #C79844",
"o. c #CEA356",
"O. c #C6A76E",
"+. c #C9A974",
"@. c #C1A97D",
"#. c #C9AC7B",
"$. c #BBAD90",
"%. c #BEB192",
"&. c #BBB4A0",
"*. c #D8C8AC",
"=. c #DCD0BC",
"-. c #E0CBA7",
";. c #E0CCA8",
":. c #E1D6C3",
">. c #E5D9C3",
",. c #EBE8E0",
"<. c #FEFEFE",
"1. c None",
/* pixels */
"1.1.1.1.1.1.1.1.1.1.1.1.1.1.1.1.1.1.1.1.1.1.1.1.1.1.1.1.1.1.1.1.",
"1.1.1.1.1.1.1.1.1.1.1.1.1.1.1.1.1.1.1.1.1.1.1.1.1.1.1.1.1.1.1.1.",
"1.1.1.1.1.1.1.1.1.1.1.1.1.1.1.1.1.1.1.1.1.1.1.1.1.1.1.1.1.1.1.1.",
"1.1.1.1.1.1.1.1.1.1.1.1.1.1.1.1.1.1.1.1.1.1.1.1.1.1.1.1.1.1.1.1.",
"1.1.1.1.1.1.1.1.1.1.1.1.1.1.1.1.1.1.1.1.1.1.1.1.1.1.1.1.1.1.1.1.",
"1.1.1.1.1.1.1.1.1.1.1.1.1.1.1.1.1.1.1.1.1.1.1.1.1.1.1.1.1.1.1.1.",
"1.1.1.1.1.1.1.1.1.1.                        1.1.1.1.1.1.1.1.1.1.",
"1.1.1.1.1.1.1.1.1.1.. . . X O * * O X X . . 1.1.1.1.1.1.1.1.1.1.",
"1.1.1.1.1.1.1.1.1.1.o o o + - n n ; $ o o o 1.1.1.1.1.1.1.1.1.1.",
"1.1.1.1.1.1.1.1.1.1.o o @ % b <.<.C = @ o o 1.1.1.1.1.1.1.1.1.1.",
"1.1.1.1.1.1.1.1.1.1.@ @ @ = v } <.^ 5 & @ @ 1.1.1.1.1.1.1.1.1.1.",
"1.1.1.1.1.1.1.1.1.1.# # # > v ) <.) 6 > # : 1.1.1.1.1.1.1.1.1.1.",
"1.1.1.1.1.1.1.1.1.1.: : : < 9 ( <.( 9 < : : 1.1.1.1.1.1.1.1.1.1.",
", , , , , , , , , , , , , 1 9 _ <.( 0 1 , , 1.1.1.1.1.1.1.1.1.1.",
", 2 2 2 0 M 4 2 , 2 2 2 2 4 q _ <._ q 4 2 2 1.1.1.1.1.1.1.1.1.1.",
"3 3 3 ] :.*.=.q 3 3 3 3 3 8 h ! <.! g 4 3 3 1.1.1.1.1.1.1.1.1.1.",
"8 8 t :.m 8 #.+.8 8 8 8 8 w g Q <.D g w 8 8 8 8 8 8 w 8 8 8 8 8 ",
"w 8 t ~ t w +.#.w w 8 w w w y k Z k t w w w w w w j ' ] k w w w ",
"r r r r r G >.Z r r r r e r r i y y y r r r e e y | | | | y r w ",
"r r u y W :.R u y r u y y r u e y y r r r r y r y ~ c X.%.d y p ",
"p p p X.>.E s a p p p p u u u u u r u u r u u u y p ~ &.O.d p d ",
"s s P ,.>.*.;.o.s p p p u u u u r r e r r r u e u p z ..$.I s s ",
"B H H Y T T T P s a p u u u u e r r r e e r e u x Q p d | R s B ",
"J J J J J J B B s s a p u u u u r e e e e e e u l [ A R  .I B B ",
"K K L K K J J H B B a a u u e e e 7 7 e 7 e r e u N ` { U B B V ",
"L L L L L K K J V B B a a u u u e e 7 7 7 e e u u p f s B B V J ",
"1.1.1.1.1.1.1.1.1.1.1.1.1.1.1.1.1.1.1.1.1.1.1.1.1.1.1.1.1.1.1.1.",
"1.1.1.1.1.1.1.1.1.1.1.1.1.1.1.1.1.1.1.1.1.1.1.1.1.1.1.1.1.1.1.1.",
"1.1.1.1.1.1.1.1.1.1.1.1.1.1.1.1.1.1.1.1.1.1.1.1.1.1.1.1.1.1.1.1.",
"1.1.1.1.1.1.1.1.1.1.1.1.1.1.1.1.1.1.1.1.1.1.1.1.1.1.1.1.1.1.1.1.",
"1.1.1.1.1.1.1.1.1.1.1.1.1.1.1.1.1.1.1.1.1.1.1.1.1.1.1.1.1.1.1.1.",
"1.1.1.1.1.1.1.1.1.1.1.1.1.1.1.1.1.1.1.1.1.1.1.1.1.1.1.1.1.1.1.1."
};
