/* XPM */
static char *button_move_up_xpm[] = {
/* columns rows colors chars-per-pixel */
"32 32 234 2 ",
"   c #044504",
".  c #004C00",
"X  c #004D00",
"o  c #004F00",
"O  c #024C02",
"+  c #005400",
"@  c #005500",
"#  c #005700",
"$  c #055005",
"%  c #065106",
"&  c #065506",
"*  c #005B00",
"=  c #035A04",
"-  c #045804",
";  c #055D06",
":  c #0E590E",
">  c #155C15",
",  c #006101",
"<  c #006200",
"1  c #006500",
"2  c #066306",
"3  c #056506",
"4  c #006900",
"5  c #006B02",
"6  c #006D00",
"7  c #016F01",
"8  c #006F03",
"9  c #0A620B",
"0  c #09690A",
"q  c #0A680B",
"w  c #086E08",
"e  c #007000",
"r  c #017201",
"t  c #007103",
"y  c #007700",
"u  c #017402",
"i  c #017304",
"p  c #007704",
"a  c #047507",
"s  c #007A00",
"d  c #027803",
"f  c #007C00",
"g  c #037D04",
"h  c #027D06",
"j  c #077209",
"k  c #097909",
"l  c #126913",
"z  c #1B681B",
"x  c #0F7810",
"c  c #286828",
"v  c #296D29",
"b  c #2A772A",
"n  c #307531",
"m  c #357435",
"M  c #327832",
"N  c #317E31",
"B  c #417A41",
"V  c #008100",
"C  c #008500",
"Z  c #008700",
"A  c #038005",
"S  c #048004",
"D  c #048306",
"F  c #008800",
"G  c #008B00",
"H  c #06830A",
"J  c #058608",
"K  c #098209",
"L  c #0B870F",
"P  c #058908",
"I  c #068B09",
"U  c #078D0B",
"Y  c #088A08",
"T  c #0A8D0A",
"R  c #09890E",
"E  c #088E0C",
"W  c #098F0D",
"Q  c #098F0E",
"!  c #0A8F0F",
"~  c #009000",
"^  c #009200",
"/  c #009300",
"(  c #009400",
")  c #009500",
"_  c #079207",
"`  c #009A00",
"'  c #009B00",
"]  c #009D00",
"[  c #009E00",
"{  c #009F00",
"}  c #049904",
"|  c #129D0F",
" . c #0F8712",
".. c #0B8F10",
"X. c #118213",
"o. c #198B12",
"O. c #1D8D14",
"+. c #119711",
"@. c #109015",
"#. c #16961A",
"$. c #1A9618",
"%. c #179D18",
"&. c #179C19",
"*. c #199B1C",
"=. c #00A000",
"-. c #01A101",
";. c #00A300",
":. c #00A400",
">. c #00A500",
",. c #00A600",
"<. c #06A306",
"1. c #00A800",
"2. c #00AA00",
"3. c #00AC00",
"4. c #00AD00",
"5. c #04AA04",
"6. c #0EA20F",
"7. c #0CA70C",
"8. c #00B000",
"9. c #00B100",
"0. c #00B200",
"q. c #00B300",
"w. c #00B400",
"e. c #00B500",
"r. c #05B405",
"t. c #00BA00",
"y. c #00BB00",
"u. c #00BC00",
"i. c #06BF06",
"p. c #0BB40B",
"a. c #2E832E",
"s. c #298E29",
"d. c #2C892C",
"f. c #289428",
"g. c #289A28",
"h. c #2E9F2E",
"j. c #368336",
"k. c #378E37",
"l. c #3B803B",
"z. c #3F823F",
"x. c #3B853C",
"c. c #3C853C",
"v. c #3D843E",
"b. c #3A8A3A",
"n. c #339733",
"m. c #359335",
"M. c #309B30",
"N. c #3F9B3F",
"B. c #3D9E3D",
"V. c #25A725",
"C. c #27A727",
"Z. c #28A028",
"A. c #29A529",
"S. c #2CA22C",
"D. c #2CAB2C",
"F. c #2CAE2C",
"G. c #2AB02A",
"H. c #31A731",
"J. c #33A633",
"K. c #36A536",
"L. c #34AE34",
"P. c #3AA13A",
"I. c #38A438",
"U. c #3DA83D",
"Y. c #3EAD3E",
"T. c #38B638",
"R. c #41AA36",
"E. c #00C000",
"W. c #00C100",
"Q. c #00C300",
"!. c #00C600",
"~. c #00CB00",
"^. c #00CD00",
"/. c #07CA07",
"(. c #0AC10A",
"). c #09CE09",
"_. c #07D307",
"`. c #08D808",
"'. c #3F8340",
"]. c #4E834E",
"[. c #478D48",
"{. c #469146",
"}. c #449544",
"|. c #419841",
" X c #4E9E4E",
".X c #539553",
"XX c #509C50",
"oX c #42A742",
"OX c #44A644",
"+X c #47A447",
"@X c #40A840",
"#X c #49A249",
"$X c #4BA04B",
"%X c #4AAA4A",
"&X c #48AD48",
"*X c #4CAA4C",
"=X c #4FAA4F",
"-X c #51AA51",
";X c #53A953",
":X c #53AE53",
">X c #56A856",
",X c #56AD56",
"<X c #58A658",
"1X c #5AA45A",
"2X c #5DA15D",
"3X c #5EA65E",
"4X c #59AE59",
"5X c #5BAE5B",
"6X c #5DAE5D",
"7X c #5EB05E",
"8X c #60AE60",
"9X c #62AE62",
"0X c #63B263",
"qX c #65B365",
"wX c #67B467",
"eX c #69B469",
"rX c #6AB46A",
"tX c #6CB56C",
"yX c #6FB86F",
"uX c #72B972",
"iX c #74BA74",
"pX c #74BB74",
"aX c #77BC77",
"sX c #7CBF7C",
"dX c #7EC17E",
"fX c #81BB81",
"gX c #89BA89",
"hX c #80C080",
"jX c #82C282",
"kX c #85C285",
"lX c #88C988",
"zX c #8BC98B",
"xX c #99D499",
"cX c None",
/* pixels */
"cXcXcXcXcXcXcXcXcXcXcXcXcXcXcXcXcXcXcXcXcXcXcXcXcXcXcXcXcXcXcXcX",
"cXcXcXcXcXcXcXcXcXcXcXcXcXcXcXcXcXcXcXcXcXcXcXcXcXcXcXcXcXcXcXcX",
"cXcXcXcXcXcXcXcXcXcXcXcXcXcXcXcXcXcXcXcXcXcXcXcXcXcXcXcXcXcXcXcX",
"cXcXcXcXcXcXcXcXcXcXcXcXcXcXcXcXcXcXcXcXcXcXcXcXcXcXcXcXcXcXcXcX",
"cXcXcXcXcXcXcXcXcXcXcXcXcXcXcXcXcXcXcXcXcXcXcXcXcXcXcXcXcXcXcXcX",
"cXcXcXcXcXcXcXcXcXcXcXcXcXcXcXcXcXcXcXcXcXcXcXcXcXcXcXcXcXcXcXcX",
"cXcXcXcXcXcXcXcXcXcXcXcXcXcXcXcXcXcXcXcXcXcXcXcXcXcXcXcXcXcXcXcX",
"cXcXcXcXcXcXcXcXcXcXcXcXcXcXc.[.cXcXcXcXcXcXcXcXcXcXcXcXcXcXcXcX",
"cXcXcXcXcXcXcXcXcXcXcXcXcX; z.n 3 cXcXcXcXcXcXcXcXcXcXcXcXcXcXcX",
"cXcXcXcXcXcXcXcXcXcXcXcX- z m   0 , cXcXcXcXcXcXcXcXcXcXcXcXcXcX",
"cXcXcXcXcXcXcXcXcXcXcXcX9 N M . & j cXcXcXcXcXcXcXcXcXcXcXcXcXcX",
"cXcXcXcXcXcXcXcXcXcXcX= x.c.N - - q a cXcXcXcXcXcXcXcXcXcXcXcXcX",
"cXcXcXcXcXcXcXcXcXcX+ j.{.b.a.2 , 1 x i cXcXcXcXcXcXcXcXcXcXcXcX",
"cXcXcXcXcXcXcXcXcXo b XX}.k.d.w 6 e e X.8 cXcXcXcXcXcXcXcXcXcXcX",
"cXcXcXcXcXcXcXcXo z 1X X}.m.s.k s s f S  .5 cXcXcXcXcXcXcXcXcXcX",
"cXcXcXcXcXcXcXcX: 3X<X XB.n.f.K V C F F T L cXcXcXcXcXcXcXcXcXcX",
"cXcXcXcXcXcXcX$ 2X9X>X#XB.M.g.R F ~ ~ ) ~ +.H cXcXcXcXcXcXcXcXcX",
"cXcXcXcXcXcXo .XtX8X;X+XP.S.Z._ ) ' ] =.] ] *.h cXcXcXcXcXcXcXcX",
"cXcXcXcXcXo z.aXrX6X-XOXI.S.A.} ] :.1.1.1.1.=.*.p cXcXcXcXcXcXcX",
"cXcXcXcX. v jXiXwX5X=XoXI.A.D.[ :.4.q.e.e.q.1.<.#.i cXcXcXcXcXcX",
"cXcXcXcX> kXsXuXqX4X*X@XH.A.F.:.4.e.t.Q.Q.t.q.1.6.@.cXcXcXcXcXcX",
"cXcXcX% fXlXsXuX0X,X%XU.H.C.G.1.4.t.Q.^.^.!.t.4.=.%.R cXcXcXcXcX",
"cXcXB gXxXzXsXuXeX7X:X&XR.L.T.5.r.(./._.`.).(.p.7.| R.o.cXcXcXcX",
"cXcX].v . . o - * , 5 6 u s h A D J P P U E E E ! ..$.O.cXcXcXcX",
"cXcXcXcXcXcXcXcXcXcXcXcXcXcXcXcXcXcXcXcXcXcXcXcXcXcXcXcXcXcXcXcX",
"cXcXcXcXcXcXcXcXcXcXcXcXcXcXcXcXcXcXcXcXcXcXcXcXcXcXcXcXcXcXcXcX",
"cXcXcXcXcXcXcXcXcXcXcXcXcXcXcXcXcXcXcXcXcXcXcXcXcXcXcXcXcXcXcXcX",
"cXcXcXcXcXcXcXcXcXcXcXcXcXcXcXcXcXcXcXcXcXcXcXcXcXcXcXcXcXcXcXcX",
"cXcXcXcXcXcXcXcXcXcXcXcXcXcXcXcXcXcXcXcXcXcXcXcXcXcXcXcXcXcXcXcX",
"cXcXcXcXcXcXcXcXcXcXcXcXcXcXcXcXcXcXcXcXcXcXcXcXcXcXcXcXcXcXcXcX",
"cXcXcXcXcXcXcXcXcXcXcXcXcXcXcXcXcXcXcXcXcXcXcXcXcXcXcXcXcXcXcXcX",
"cXcXcXcXcXcXcXcXcXcXcXcXcXcXcXcXcXcXcXcXcXcXcXcXcXcXcXcXcXcXcXcX"
};
