/* XPM */
static char *icon_database[] = {
/* columns rows colors chars-per-pixel */
"32 32 149 2 ",
"   c #252525",
".  c gray17",
"X  c #013A74",
"o  c #0A3F75",
"O  c #0C4176",
"+  c #04437D",
"@  c #0D437B",
"#  c #10477C",
"$  c #15497C",
"%  c gray42",
"&  c #054680",
"*  c #084682",
"=  c #054A86",
"-  c #084B87",
";  c #044A88",
":  c #0C4E8D",
">  c #134C81",
",  c #0F578F",
"<  c #065291",
"1  c #0B5391",
"2  c #025698",
"3  c #04599A",
"4  c #0F5D9E",
"5  c #125492",
"6  c #1D5F97",
"7  c #185F99",
"8  c #00649E",
"9  c #11629B",
"0  c #24659A",
"q  c #3F799C",
"w  c #065FA1",
"e  c #0C62A2",
"r  c #016EAB",
"t  c #0D6AAA",
"y  c #156CA7",
"u  c #1D6AA5",
"i  c #1F70A8",
"p  c #1C78AC",
"a  c #016FB3",
"s  c #0471B3",
"d  c #0D75B6",
"f  c #0077B8",
"g  c #027CBD",
"h  c #2A77B2",
"j  c #277CB5",
"k  c #4C7F9E",
"l  c #537791",
"z  c #557992",
"x  c #5B7D96",
"c  c #5C7C9C",
"v  c #1684BE",
"b  c #3881A7",
"n  c #2384BF",
"m  c #5E8098",
"M  c #61829A",
"N  c #68889F",
"B  c #4582A7",
"V  c #4186AD",
"C  c #4588AE",
"Z  c #4D88AB",
"A  c #5D89A6",
"S  c #6E8CA3",
"D  c #7391A6",
"F  c #7D92A7",
"G  c #7790A9",
"H  c #7995AA",
"J  c #6396B6",
"K  c #0C87C0",
"L  c #0083C8",
"P  c #008DCB",
"I  c #0D8CCD",
"U  c #118BC3",
"Y  c #0096CF",
"T  c #1A91C2",
"R  c #028ED4",
"E  c #088DD1",
"W  c #0490D6",
"Q  c #029BD3",
"!  c #0095DC",
"~  c #009ADB",
"^  c #1D92D1",
"/  c #199DDD",
"(  c #2E8BC3",
")  c #338FC3",
"_  c #3B8CC2",
"`  c #2E93CC",
"'  c #3F90C5",
"]  c #2094D1",
"[  c #359AD1",
"{  c #04A0D4",
"}  c #01A2DA",
"|  c #11A5D7",
" . c #1EAFDD",
".. c #3DA3D6",
"X. c #3CA2D8",
"o. c #35ABD8",
"O. c #2DB0DC",
"+. c #1CA4E0",
"@. c #28A6E2",
"#. c #2AA8E3",
"$. c #408CC0",
"%. c #4E99C6",
"&. c #4494C9",
"*. c #459ACD",
"=. c #599BC5",
"-. c #509ECD",
";. c #429DD1",
":. c #43A0CD",
">. c #44A0D3",
",. c #4EA3D3",
"<. c #46A4D8",
"1. c #808080",
"2. c gray54",
"3. c #9F9F9F",
"4. c #93A2AC",
"5. c #85A1B4",
"6. c #8FA1B3",
"7. c #96A6B6",
"8. c #94ABBD",
"9. c #9FAEB8",
"0. c #A3A3A3",
"q. c gray68",
"w. c #A8AEB3",
"e. c #B9B9B9",
"r. c #9BB3C4",
"t. c #A0B3C0",
"y. c #A8BECB",
"u. c #B7BFC6",
"i. c #B4C3CE",
"p. c #BCC2C8",
"a. c #A8C8DC",
"s. c #B4C9D6",
"d. c #BFD2DE",
"f. c #ABCCE2",
"g. c #C5C5C5",
"h. c #CCCDCE",
"j. c #C3CED6",
"k. c #CDD1D3",
"l. c #CAD5DC",
"z. c #D3D3D3",
"x. c #D1D8DC",
"c. c gainsboro",
"v. c #CEDCE6",
"b. c #D9DFE2",
"n. c #E3E4E4",
"m. c #ECECEC",
"M. c #F3F3F3",
"N. c #FAFAFA",
"B. c None",
/* pixels */
"B.B.B.B.B.B.B.B.B.B.B.B.B.B.B.B.B.B.B.B.B.B.B.B.B.B.B.B.B.B.B.B.",
"B.B.B.B.B.B.B.B.B.B.B.B.B.B.B.B.B.B.B.B.B.B.B.B.B.B.B.B.B.B.B.B.",
"B.B.B.B.B.B.B.B.B.B.B.m.m.m.m.n.m.n.m.m.m.m.B.B.B.B.B.B.B.B.B.B.",
"B.B.B.B.B.B.B.B.B.m.m.m.m.m.m.m.m.m.m.m.m.m.m.B.B.B.B.B.B.B.B.B.",
"B.B.B.B.B.B.B.B.m.m.m.m.m.m.m.m.m.m.m.m.m.M.m.m.B.B.B.B.B.B.B.B.",
"B.B.B.B.B.B.B.M.M.M.M.M.M.M.M.M.M.M.M.M.m.M.M.M.M.B.B.B.B.B.B.B.",
"B.B.B.B.B.B.B.M.M.M.M.M.M.M.M.M.M.M.M.M.M.M.M.M.M.B.B.B.B.B.B.B.",
"B.B.B.B.B.B.B.M.N.M.M.N.M.M.N.M.M.M.N.M.M.N.M.M.M.B.B.B.B.B.B.B.",
"B.B.B.B.B.B.B.c.N.M.N.N.N.N.N.N.N.N.N.N.M.N.N.N.z.B.B.B.B.B.B.B.",
"B.B.B.B.B.B.B.g.n.N.N.N.N.N.N.N.N.N.N.N.N.N.N.c.q.B.B.B.B.B.B.B.",
"B.B.B.B.B.B.B.8.h.c.m.N.N.N.N.N.N.N.N.N.N.m.z.e.4.B.B.B.B.B.B.B.",
"B.B.B.B.B.B.B.u i.z.z.z.c.m.M.M.M.M.m.c.c.k.g.w.0 B.B.B.B.B.B.B.",
"B.B.B.B.B.B.B.4 6 G h.z.z.z.z.z.z.z.z.z.z.h.F # = B.B.B.B.B.B.B.",
"B.B.B.B.B.B.B.t : o $ c 6.u.k.z.z.z.u.7.M $ X X 3 B.B.B.B.B.B.B.",
"B.B.B.B.B.B.B.d j 5 * X X X X @ # X X X X X + w a B.B.B.B.B.B.B.",
"B.B.B.B.B.B.B.d ( -.$.u : * + + + + + * , p U g a B.B.B.B.B.B.B.",
"B.B.B.B.B.B.B.e n ;.;.X.X.;.-.=.=.%.*.o. .{ P f 8 B.B.B.B.B.B.B.",
"B.B.B.B.B.B.B.4 u i ` ] W R ! ! ! ~ ~ } } Y r + < B.B.B.B.B.B.B.",
"B.B.B.B.B.B.B.4 7 # > 9 d L R ! ! W Y g 3 + X + ; B.B.B.B.B.B.B.",
"B.B.B.B.B.B.B.e 1 # o o X X X X X X X X X X X X 2 B.B.B.B.B.B.B.",
"B.B.B.B.B.B.B.d u : * o X X X X X X X X X X X 3 s B.B.B.B.B.B.B.",
"B.B.B.B.B.B.B.( ( *.h 4 1 * * + + + * - 1 y v K d B.B.B.B.B.B.B.",
"B.B.B.B.B.B.B.f.) ;.,.<...*.&._ _ ' *.<.O.| P f B B.B.B.B.B.B.B.",
"B.B.B.B.B.B.B.v.f.&.[ ] E R / @.#.+.} } } Q K q x B.B.B.B.B.B.B.",
"B.B.B.B.B.B.B.x.d.r.J ) I R ! ! ! ! ~ Q T b z z 4.. B.B.B.B.B.B.",
"B.B.B.B.B.B.B.c.b.s.8.H S A Z C V B k z z l m 9.e.. B.B.B.B.B.B.",
"B.B.B.B.B.B.B.3.n.n.l.y.5.D N M x x x x D t.k.g.0.B.B.B.B.B.B.B.",
"B.B.B.B.B.B.B.B.g.n.n.n.n.x.d.i.i.i.j.b.n.n.z.e.  B.B.B.B.B.B.B.",
"B.B.B.B.B.B.B.B.B.1.c.n.n.n.n.n.n.n.n.n.n.c.2.B.B.B.B.B.B.B.B.B.",
"B.B.B.B.B.B.B.B.B.B.B.% 3.z.n.n.n.n.z.0.% B.B.B.B.B.B.B.B.B.B.B.",
"B.B.B.B.B.B.B.B.B.B.B.B.B.B.B.B.B.B.B.B.B.B.B.B.B.B.B.B.B.B.B.B.",
"B.B.B.B.B.B.B.B.B.B.B.B.B.B.B.B.B.B.B.B.B.B.B.B.B.B.B.B.B.B.B.B."
};
