/* XPM */
static char *icon_championship_xpm[] = {
/* columns rows colors chars-per-pixel */
"16 16 86 1 ",
"  c black",
". c #020202",
"X c #040404",
"o c #070707",
"O c gray4",
"+ c #101010",
"@ c #111111",
"# c gray7",
"$ c #131313",
"% c gray12",
"& c #222222",
"* c gray14",
"= c #252525",
"- c #272727",
"; c gray16",
": c #2A2A2A",
"> c #2C2C2C",
", c #353535",
"< c #373737",
"1 c #3C3C3C",
"2 c #3E3E3E",
"3 c #4B4B4B",
"4 c gray30",
"5 c gray36",
"6 c gray37",
"7 c #7B7B7B",
"8 c #7E7E7E",
"9 c #0000C0",
"0 c #0000C8",
"q c #0000D3",
"w c #0000E0",
"e c #0000E3",
"r c #0000E7",
"t c #0000E8",
"y c #0000E9",
"u c #0000EA",
"i c #0000EC",
"p c #0000ED",
"a c #0000EE",
"s c #0000F1",
"d c #0000F3",
"f c #0000F6",
"g c #0013F3",
"h c #001CF5",
"j c #002BF9",
"k c #0033F6",
"l c #0034F6",
"z c #0031FA",
"x c #2D2CF3",
"c c #0843F9",
"v c #004DF9",
"b c #005AF7",
"n c #364CF9",
"m c #3652F8",
"M c #0562F8",
"N c #0064FB",
"B c #106BF9",
"V c #0079FD",
"C c #1976FA",
"Z c #008DFF",
"A c #1586FE",
"S c #009EFF",
"D c #2380FB",
"F c #3E8BFE",
"G c #00A1FF",
"H c #0BB2FF",
"J c #4DAFFE",
"K c #58BAFF",
"L c #16C1FF",
"P c #1FCCFF",
"I c #62C6FF",
"U c #6CD0FF",
"Y c #75D9FF",
"T c #CEE4FF",
"R c #D4E8FF",
"E c #D4E9FF",
"W c #DCEEFF",
"Q c #E2F1FF",
"! c #E0F2FF",
"~ c #E4F3FF",
"^ c #E6F3FF",
"/ c #EBF6FF",
"( c #EFF8FF",
") c #F1F8FF",
"_ c #F5FBFF",
"` c None",
/* pixels */
"``+$$$+`````````",
"`+68886$$$$$$+``",
"`$422247877786+`",
"`oooooooooooooo`",
"o<333333333333<o",
"o<PLHSzatalhss,o",
"o;LYUAF!WngDCa;o",
"o;HUIj)_)!rCBa;o",
"o=GIKf^/^ReBMt-o",
"o*ZKJcmRTxaMbt=o",
"o&VNvkw09qattt&o",
"o%%%%%%%%%%%%%%o",
"o>==&======&==>o",
".;121121112121;.",
"`..............`",
"````````````````"
};
