/* XPM */
static char * tree_3state_xpm[] = {
"13 13 25 1",
" 	c None",
".	c #CCCED3",
"+	c #838793",
"@	c #C4C7CF",
"#	c #F5F5F5",
"$	c #BBBBBB",
"%	c #D2D2D2",
"&	c #969696",
"*	c #F6F6F6",
"=	c #BEBEBE",
"-	c #B4B4B4",
";	c #F7F7F7",
">	c #C6C6C6",
",	c #C0C0C0",
"'	c #F9F9F9",
")	c #E7E5E5",
"!	c #FAFAFA",
"~	c #FBFBFB",
"{	c #FCFCFC",
"]	c #C4C4C4",
"^	c #FDFDFD",
"/	c #B9B9B9",
"(	c #FEFEFE",
"_	c #F3F1F1",
":	c #FFFFFF",
".+++++++++++.",
"+@@@@@@@@@@@+",
"+@######$%&#+",
"+@*****=&&**+",
"+@$-;;>&&,;;+",
"+@&&%')&%'''+",
"+@)&&)&&!!!!+",
"+@~%&&&%~~~~+",
"+@{{&&&]{{{{+",
"+@^^/&&^^^^^+",
"+@((()_(((((+",
"+@::::::::::+",
".+++++++++++."};
